<?xml version="1.0" encoding="UTF-8" standalone="no"?>
<svg
   xmlns:dc="http://purl.org/dc/elements/1.1/"
   xmlns:cc="http://creativecommons.org/ns#"
   xmlns:rdf="http://www.w3.org/1999/02/22-rdf-syntax-ns#"
   xmlns:svg="http://www.w3.org/2000/svg"
   xmlns="http://www.w3.org/2000/svg"
   xmlns:sodipodi="http://sodipodi.sourceforge.net/DTD/sodipodi-0.dtd"
   xmlns:inkscape="http://www.inkscape.org/namespaces/inkscape"
   width="48"
   height="48"
   version="1"
   id="svg14"
   sodipodi:docname="dialog-question.svg"
   inkscape:version="0.92.2 2405546, 2018-03-11">
  <metadata
     id="metadata20">
    <rdf:RDF>
      <cc:Work
         rdf:about="">
        <dc:format>image/svg+xml</dc:format>
        <dc:type
           rdf:resource="http://purl.org/dc/dcmitype/StillImage" />
      </cc:Work>
    </rdf:RDF>
  </metadata>
  <defs
     id="defs18" />
  <sodipodi:namedview
     pagecolor="#ffffff"
     bordercolor="#666666"
     borderopacity="1"
     objecttolerance="10"
     gridtolerance="10"
     guidetolerance="10"
     inkscape:pageopacity="0"
     inkscape:pageshadow="2"
     inkscape:window-width="1366"
     inkscape:window-height="690"
     id="namedview16"
     showgrid="false"
     inkscape:zoom="4.9166667"
     inkscape:cx="-19.369388"
     inkscape:cy="-0.4067795"
     inkscape:window-x="0"
     inkscape:window-y="0"
     inkscape:window-maximized="1"
     inkscape:current-layer="svg14" />
  <path
     inkscape:connector-curvature="0"
     d="m 23.9468,4.800476 c -0.946,0.0134 -1.85,0.3953 -2.519,1.0644 L 5.0658002,22.226875 c -1.4211,1.4203 -1.4211,3.724 0,5.1443 l 16.3619998,16.363 c 1.4203,1.4211 3.7239,1.4211 5.1442,0 l 16.362,-16.363 c 1.4211,-1.4203 1.4211,-3.724 0,-5.1443 L 26.572,5.864876 c -0.695,-0.6952 -1.642,-1.0791 -2.625,-1.0646 z"
     id="path2-3"
     style="fill:#0c8801;fill-opacity:1;fill-rule:evenodd" />
  <path
     fill="#64db2d"
     fill-rule="evenodd"
     d="m23.947 4.0004c-0.946 0.0134-1.85 0.3953-2.519 1.0644l-16.362 16.362c-1.4211 1.4203-1.4211 3.724 0 5.1443l16.362 16.363c1.4203 1.4211 3.7239 1.4211 5.1442 0l16.362-16.363c1.4211-1.4203 1.4211-3.724 0-5.1443l-16.362-16.362c-0.695-0.6952-1.642-1.0791-2.625-1.0646z"
     id="path2"
     style="fill:#11c502;fill-opacity:1" />
  <path
     d="m 25.75,36.25 h -3.5 v -3.5 h 3.5 z m 3.6225,-13.5625 -1.575,1.61 C 26.5375,25.575 25.75,26.625 25.75,29.25 h -3.5 v -0.875 c 0,-1.925 0.7875,-3.675 2.0475,-4.9525 l 2.17,-2.205 C 27.115,20.5875 27.5,19.7125 27.5,18.75 c 0,-1.925 -1.575,-3.5 -3.5,-3.5 -1.925,0 -3.5,1.575 -3.5,3.5 H 17 c 0,-3.8675 3.1325,-7 7,-7 3.8675,0 7,3.1325 7,7 0,1.54 -0.63,2.94 -1.6275,3.9375 z"
     id="path6"
     inkscape:connector-curvature="0"
     style="fill:#ffffff;stroke-width:0.875" />
  <rect
     fill="none"
     width="32"
     height="32"
     x="8"
     y="7.99"
     id="rect8" />
</svg>
