<?xml version="1.0" encoding="UTF-8" standalone="no"?>
<svg
   xmlns:dc="http://purl.org/dc/elements/1.1/"
   xmlns:cc="http://creativecommons.org/ns#"
   xmlns:rdf="http://www.w3.org/1999/02/22-rdf-syntax-ns#"
   xmlns:svg="http://www.w3.org/2000/svg"
   xmlns="http://www.w3.org/2000/svg"
   xmlns:sodipodi="http://sodipodi.sourceforge.net/DTD/sodipodi-0.dtd"
   xmlns:inkscape="http://www.inkscape.org/namespaces/inkscape"
   width="36pt"
   height="36pt"
   version="1.1"
   viewBox="0 0 36 36"
   id="svg43"
   sodipodi:docname="tabletdisconnected.svg"
   inkscape:version="0.92.2 2405546, 2018-03-11">
  <metadata
     id="metadata47">
    <rdf:RDF>
      <cc:Work
         rdf:about="">
        <dc:format>image/svg+xml</dc:format>
        <dc:type
           rdf:resource="http://purl.org/dc/dcmitype/StillImage" />
      </cc:Work>
    </rdf:RDF>
  </metadata>
  <sodipodi:namedview
     pagecolor="#ffffff"
     bordercolor="#666666"
     borderopacity="1"
     objecttolerance="10"
     gridtolerance="10"
     guidetolerance="10"
     inkscape:pageopacity="0"
     inkscape:pageshadow="2"
     inkscape:window-width="1366"
     inkscape:window-height="690"
     id="namedview45"
     showgrid="false"
     inkscape:zoom="4.9166667"
     inkscape:cx="-0.61016949"
     inkscape:cy="23.59322"
     inkscape:window-x="0"
     inkscape:window-y="0"
     inkscape:window-maximized="1"
     inkscape:current-layer="svg43" />
  <defs
     id="defs19">
    <filter
       id="alpha"
       width="100%"
       height="100%"
       x="0%"
       y="0%"
       filterUnits="objectBoundingBox">
      <feColorMatrix
         in="SourceGraphic"
         type="matrix"
         values="0 0 0 0 1 0 0 0 0 1 0 0 0 0 1 0 0 0 1 0"
         id="feColorMatrix2" />
    </filter>
    <mask
       id="mask3">
      <g
         filter="url(#alpha)"
         id="g7">
        <rect
           style="fill:rgb(0%,0%,0%);fill-opacity:0.2"
           width="36"
           height="36"
           x="0"
           y="0"
           id="rect5" />
      </g>
    </mask>
    <clipPath
       id="clip4">
      <rect
         width="36"
         height="36"
         x="0"
         y="0"
         id="rect10" />
    </clipPath>
    <g
       id="surface14"
       clip-path="url(#clip4)">
      <path
         d="M 34.847656 27.515625 C 34.578125 31.652344 31.144531 34.871094 27 34.875 C 22.886719 34.875 19.46875 31.707031 19.152344 27.609375 C 19.136719 27.78125 19.128906 27.953125 19.125 28.125 C 19.125 32.472656 22.652344 36 27 36 C 31.347656 36 34.875 32.472656 34.875 28.125 C 34.875 27.921875 34.867188 27.71875 34.847656 27.515625 Z M 34.847656 27.515625"
         style="fill:rgb(0%,0%,0%)"
         id="path13" />
    </g>
    <filter
       style="color-interpolation-filters:sRGB"
       id="filter1026"
       width="1.106"
       height="1.139"
       x="-.05"
       y="-.07">
      <feGaussianBlur
         stdDeviation="7.969"
         id="feGaussianBlur16" />
    </filter>
  </defs>
  <g
     transform="matrix(0.08672622,0,0,0.08672622,1.2571051,1.2191512)"
     id="g33">
    <rect
       style="opacity:0.3;filter:url(#filter1026)"
       width="362.098"
       height="275.412"
       x="10.95"
       y="55.92"
       rx="5.753"
       ry="5.822"
       transform="matrix(0.97172227,0,0,0.97172227,5.4293241,5.4753352)"
       id="rect21" />
    <rect
       style="fill:#ffffff"
       width="351.859"
       height="267.624"
       x="16.07"
       y="59.81"
       rx="5.59"
       ry="5.657"
       id="rect23" />
    <g
       transform="matrix(1.7531508,0,0,0.79040978,-144.60495,38.352549)"
       id="g29">
      <path
         style="fill-rule:evenodd"
         d="m 99.550781,54.089844 v 11.777344 h 0.08594 V 309.05859 h -0.03516 v 26.42578 l 184.437499,-0.53515 0.1211,-25.35938 h -0.21094 L 283.5,65.019531 283.61328,54.515625 Z m 0,0"
         id="path25" />
      <path
         style="fill-rule:evenodd"
         d="m 168.99219,27.527344 c 15.53125,-0.453125 30.98047,-0.566406 46.19922,0.238281 l -7.7461,5.925781 -30.78125,-0.125 z m 0,0"
         id="path27" />
    </g>
    <rect
       style="fill:none;stroke:#000000;stroke-width:1.89267182;stroke-miterlimit:2.01260209"
       width="54.548"
       height="13.439"
       x="164.73"
       y="308.26"
       rx="5.59"
       ry="5.59"
       id="rect31" />
  </g>
  <g
     transform="matrix(0.75,0,0,0.75,2.2585072,0.51387662)"
     id="g863">
    <circle
       style="fill:#da1302;fill-opacity:1"
       id="circle34"
       r="10"
       cy="36"
       cx="34" />
    <path
       style="opacity:0.2"
       inkscape:connector-curvature="0"
       id="path36"
       d="M 43.979,36.414 A 10,10 0 0 1 34,46 10,10 0 0 1 24.021,36.586 10,10 0 0 0 24,37 10,10 0 0 0 34,47 10,10 0 0 0 44,37 10,10 0 0 0 43.979,36.414 Z" />
    <g
       style="fill:#ffffff"
       id="g42"
       transform="matrix(0.70711,-0.70711,0.70711,0.70711,-15.497,34.846)">
      <rect
         id="rect38"
         y="35"
         x="28"
         height="2"
         width="12" />
      <rect
         id="rect40"
         transform="rotate(-90)"
         y="33"
         x="-42"
         height="2"
         width="12" />
    </g>
  </g>
</svg>
