<?xml version="1.0" encoding="UTF-8" standalone="no"?>
<svg
   xmlns:dc="http://purl.org/dc/elements/1.1/"
   xmlns:cc="http://creativecommons.org/ns#"
   xmlns:rdf="http://www.w3.org/1999/02/22-rdf-syntax-ns#"
   xmlns:svg="http://www.w3.org/2000/svg"
   xmlns="http://www.w3.org/2000/svg"
   xmlns:sodipodi="http://sodipodi.sourceforge.net/DTD/sodipodi-0.dtd"
   xmlns:inkscape="http://www.inkscape.org/namespaces/inkscape"
   width="384pt"
   height="384pt"
   version="1.1"
   viewBox="0 0 384 384"
   id="svg52"
   sodipodi:docname="bluetooth.svg"
   inkscape:version="0.92.2 2405546, 2018-03-11">
  <metadata
     id="metadata56">
    <rdf:RDF>
      <cc:Work
         rdf:about="">
        <dc:format>image/svg+xml</dc:format>
        <dc:type
           rdf:resource="http://purl.org/dc/dcmitype/StillImage" />
        <dc:title></dc:title>
      </cc:Work>
    </rdf:RDF>
  </metadata>
  <sodipodi:namedview
     pagecolor="#ffffff"
     bordercolor="#666666"
     borderopacity="1"
     objecttolerance="10"
     gridtolerance="10"
     guidetolerance="10"
     inkscape:pageopacity="0"
     inkscape:pageshadow="2"
     inkscape:window-width="1366"
     inkscape:window-height="695"
     id="namedview54"
     showgrid="false"
     inkscape:zoom="0.4609375"
     inkscape:cx="822.93711"
     inkscape:cy="374.83974"
     inkscape:window-x="0"
     inkscape:window-y="0"
     inkscape:window-maximized="1"
     inkscape:current-layer="svg52" />
  <defs
     id="defs38">
    <filter
       id="alpha"
       width="100%"
       height="100%"
       x="0%"
       y="0%"
       filterUnits="objectBoundingBox">
      <feColorMatrix
         in="SourceGraphic"
         type="matrix"
         values="0 0 0 0 1 0 0 0 0 1 0 0 0 0 1 0 0 0 1 0"
         id="feColorMatrix2" />
    </filter>
    <mask
       id="mask0">
      <g
         filter="url(#alpha)"
         id="g7">
        <rect
           width="384"
           height="384"
           x="0"
           y="0"
           style="fill:rgb(0%,0%,0%);fill-opacity:0.301961"
           id="rect5" />
      </g>
    </mask>
    <clipPath
       id="clip1">
      <rect
         width="384"
         height="384"
         x="0"
         y="0"
         id="rect10" />
    </clipPath>
    <g
       id="surface5"
       clip-path="url(#clip1)">
      <path
         style="fill:rgb(0%,0%,0%)"
         d="M 150.09375 160.789062 L 184.890625 195.976562 L 150.09375 231.164062 L 161.160156 242.320312 L 190.089844 213.707031 L 190.089844 280.875 L 242.90625 231.074219 L 210.886719 195.976562 L 242.820312 160.929688 L 190.375 112.125 L 190.128906 178.976562 L 161.199219 149.671875 Z M 206.023438 145.03125 L 222.0625 160.300781 L 206.023438 180.085938 Z M 206.023438 215.238281 L 222.101562 231.652344 L 206.058594 246.925781 Z M 206.023438 215.238281"
         id="path13" />
    </g>
    <mask
       id="mask1">
      <g
         filter="url(#alpha)"
         id="g18">
        <rect
           width="384"
           height="384"
           x="0"
           y="0"
           style="fill:rgb(0%,0%,0%);fill-opacity:0.301961"
           id="rect16" />
      </g>
    </mask>
    <clipPath
       id="clip2">
      <rect
         width="384"
         height="384"
         x="0"
         y="0"
         id="rect21" />
    </clipPath>
    <g
       id="surface8"
       clip-path="url(#clip2)">
      <path
         style="fill-rule:evenodd;fill:rgb(100%,100%,100%)"
         d="M 192 23.25 C 98.511719 23.25 23.25 98.511719 23.25 192 C 23.25 193.253906 23.269531 194.503906 23.296875 195.75 C 25.277344 104.007812 99.765625 30.75 192 30.75 C 284.234375 30.75 358.722656 104.007812 360.703125 195.75 C 360.730469 194.503906 360.75 193.253906 360.75 192 C 360.75 98.511719 285.488281 23.25 192 23.25 Z M 192 23.25"
         id="path24" />
    </g>
    <mask
       id="mask2">
      <g
         filter="url(#alpha)"
         id="g29">
        <rect
           width="384"
           height="384"
           x="0"
           y="0"
           style="fill:rgb(0%,0%,0%);fill-opacity:0.301961"
           id="rect27" />
      </g>
    </mask>
    <clipPath
       id="clip3">
      <rect
         width="384"
         height="384"
         x="0"
         y="0"
         id="rect32" />
    </clipPath>
    <g
       id="surface11"
       clip-path="url(#clip3)">
      <path
         style="fill-rule:evenodd;fill:rgb(0%,0%,0%)"
         d="M 23.296875 188.25 C 23.269531 189.496094 23.25 190.746094 23.25 192 C 23.25 285.488281 98.511719 360.75 192 360.75 C 285.488281 360.75 360.75 285.488281 360.75 192 C 360.75 190.746094 360.730469 189.496094 360.703125 188.25 C 358.722656 279.992188 284.234375 353.25 192 353.25 C 99.765625 353.25 25.277344 279.992188 23.296875 188.25 Z M 23.296875 188.25"
         id="path35" />
    </g>
  </defs>
  <g
     transform="matrix(8.2317073,0,0,8.2317073,-5.5609752,-9.6768289)"
     id="g833">
    <rect
       style="fill:#324090"
       id="rect2"
       transform="matrix(0,-1,-1,0,0,0)"
       ry="14"
       rx="14"
       y="-38"
       x="-44"
       height="28"
       width="40" />
    <path
       style="opacity:0.2;fill:none;stroke:#000000;stroke-width:2;stroke-linecap:square"
       inkscape:connector-curvature="0"
       id="path4"
       d="m 17,19 14,13 -7,7 V 12 l 7,7 -14,13" />
    <path
       style="fill:none;stroke:#ffffff;stroke-width:2;stroke-linecap:square"
       inkscape:connector-curvature="0"
       id="path6"
       d="m 17,18 14,13 -7,7 V 11 l 7,7 -14,13" />
    <path
       style="opacity:0.1;fill:#ffffff"
       inkscape:connector-curvature="0"
       id="path8"
       d="M 24,4 C 16.244,4 10,10.244 10,18 v 1 C 10,11.244 16.244,5 24,5 31.756,5 38,11.244 38,19 V 18 C 38,10.244 31.756,4 24,4 Z" />
    <path
       style="opacity:0.2"
       inkscape:connector-curvature="0"
       id="path10"
       d="m 10,30 v 1 c 0,7.756 6.244,14 14,14 7.756,0 14,-6.244 14,-14 V 30 C 38,37.756 31.756,44 24,44 16.244,44 10,37.756 10,30 Z" />
  </g>
</svg>
