<?xml version="1.0" encoding="UTF-8" standalone="no"?>
<svg
   xmlns:dc="http://purl.org/dc/elements/1.1/"
   xmlns:cc="http://creativecommons.org/ns#"
   xmlns:rdf="http://www.w3.org/1999/02/22-rdf-syntax-ns#"
   xmlns:svg="http://www.w3.org/2000/svg"
   xmlns="http://www.w3.org/2000/svg"
   xmlns:xlink="http://www.w3.org/1999/xlink"
   xmlns:sodipodi="http://sodipodi.sourceforge.net/DTD/sodipodi-0.dtd"
   xmlns:inkscape="http://www.inkscape.org/namespaces/inkscape"
   width="384pt"
   height="384pt"
   version="1.1"
   viewBox="0 0 384 384"
   id="svg52"
   sodipodi:docname="discord-canary.svg"
   inkscape:version="0.92.2 2405546, 2018-03-11">
  <metadata
     id="metadata56">
    <rdf:RDF>
      <cc:Work
         rdf:about="">
        <dc:format>image/svg+xml</dc:format>
        <dc:type
           rdf:resource="http://purl.org/dc/dcmitype/StillImage" />
        <dc:title></dc:title>
      </cc:Work>
    </rdf:RDF>
  </metadata>
  <sodipodi:namedview
     pagecolor="#ffffff"
     bordercolor="#666666"
     borderopacity="1"
     objecttolerance="10"
     gridtolerance="10"
     guidetolerance="10"
     inkscape:pageopacity="0"
     inkscape:pageshadow="2"
     inkscape:window-width="1366"
     inkscape:window-height="690"
     id="namedview54"
     showgrid="false"
     inkscape:zoom="0.33636186"
     inkscape:cx="773.29618"
     inkscape:cy="40.401671"
     inkscape:window-x="0"
     inkscape:window-y="0"
     inkscape:window-maximized="1"
     inkscape:current-layer="svg52" />
  <defs
     id="defs38">
    <filter
       id="alpha"
       width="100%"
       height="100%"
       x="0%"
       y="0%"
       filterUnits="objectBoundingBox">
      <feColorMatrix
         in="SourceGraphic"
         type="matrix"
         values="0 0 0 0 1 0 0 0 0 1 0 0 0 0 1 0 0 0 1 0"
         id="feColorMatrix2" />
    </filter>
    <mask
       id="mask0">
      <g
         filter="url(#alpha)"
         id="g7">
        <rect
           width="384"
           height="384"
           x="0"
           y="0"
           style="fill:rgb(0%,0%,0%);fill-opacity:0.2"
           id="rect5" />
      </g>
    </mask>
    <clipPath
       id="clip1">
      <rect
         width="384"
         height="384"
         x="0"
         y="0"
         id="rect10" />
    </clipPath>
    <g
       id="surface5"
       clip-path="url(#clip1)">
      <path
         style="fill:rgb(0%,0%,0%)"
         d="M 48 366 L 102 318 L 310.582031 318 C 324.671875 318 336 306.757812 336 292.800781 L 336 55.199219 C 336 41.238281 324.671875 30 310.582031 30 L 73.421875 30 C 59.339844 30 48.003906 41.238281 48.003906 55.199219 L 48.003906 366 Z M 48 366"
         id="path13" />
    </g>
    <mask
       id="mask1">
      <g
         filter="url(#alpha)"
         id="g18">
        <rect
           width="384"
           height="384"
           x="0"
           y="0"
           style="fill:rgb(0%,0%,0%);fill-opacity:0.2"
           id="rect16" />
      </g>
    </mask>
    <clipPath
       id="clip2">
      <rect
         width="384"
         height="384"
         x="0"
         y="0"
         id="rect21" />
    </clipPath>
    <g
       id="surface8"
       clip-path="url(#clip2)">
      <path
         style="fill:rgb(0%,0%,0%)"
         d="M 208.480469 78.019531 C 204.265625 78.019531 200.765625 81.386719 200.726562 85.46875 C 200.703125 89.566406 204.203125 93.015625 208.449219 93.035156 C 226.773438 93.171875 241.84375 98.964844 253.992188 110.386719 C 266 121.699219 272.261719 137.378906 272.421875 157.835938 L 272.421875 157.855469 C 272.464844 161.921875 275.964844 165.285156 280.191406 165.285156 C 280.191406 165.285156 280.273438 165.269531 280.277344 165.265625 C 284.515625 165.226562 288.035156 161.8125 288 157.714844 L 288 157.699219 C 287.902344 145.757812 285.960938 134.792969 282.167969 125.144531 C 278.328125 115.394531 272.496094 106.773438 264.886719 99.597656 C 249.851562 85.460938 230.652344 78.160156 208.546875 78.003906 L 208.476562 78.003906 Z M 129.765625 95.660156 C 126.808594 95.15625 123.605469 95.707031 120.40625 97.246094 L 120.152344 97.246094 L 119.792969 97.449219 C 113.867188 100.820312 108.3125 105.335938 103.109375 111 L 102.699219 111.441406 L 102.699219 111.851562 C 99.097656 116.339844 96.71875 120.859375 96.171875 125.386719 C 95.996094 126.152344 96 126.84375 96 127.585938 C 96 129.644531 96.300781 131.734375 96.9375 133.789062 L 97.109375 134.367188 L 97.464844 134.574219 C 99.519531 141.625 104.1875 152.597656 114.390625 171.183594 C 121.191406 183.5 128.136719 193.789062 135.035156 202.457031 C 138.667969 207.015625 142.785156 211.757812 147.5625 216.535156 C 147.621094 216.59375 147.820312 216.800781 148.039062 216.996094 C 148.117188 217.074219 148.222656 217.230469 148.484375 217.492188 L 148.960938 217.96875 L 148.996094 217.96875 C 149.164062 218.136719 149.277344 218.257812 149.300781 218.292969 L 149.386719 218.394531 L 149.472656 218.480469 C 154.25 223.207031 158.964844 227.347656 163.570312 230.957031 C 172.226562 237.855469 182.515625 244.855469 194.832031 251.664062 C 213.4375 261.929688 224.515625 266.570312 231.53125 268.589844 L 231.785156 268.898438 L 232.210938 269.050781 C 234.199219 269.710938 236.265625 270.019531 238.316406 269.988281 C 239.144531 270.03125 239.878906 269.976562 240.582031 269.816406 C 245.386719 269.253906 250.144531 266.980469 254.847656 263.035156 L 254.898438 262.964844 L 254.953125 262.933594 C 255.023438 262.859375 254.980469 262.894531 255.019531 262.84375 C 255.0625 262.808594 255.082031 262.765625 255.125 262.726562 C 260.695312 257.640625 265.191406 252.113281 268.570312 246.195312 L 268.792969 245.820312 L 268.792969 245.460938 C 271.902344 238.992188 270.667969 232.386719 265.625 228.179688 C 265.5 228.074219 263.074219 226.046875 260.066406 223.59375 C 256.988281 221.085938 253.339844 218.140625 250.878906 216.332031 C 246.214844 212.882812 239.011719 208.425781 234.90625 206.140625 L 234.886719 206.140625 C 227 201.722656 218.757812 204.289062 215.132812 208.988281 L 208.773438 216.945312 C 206.210938 220.175781 201.085938 219.867188 200.949219 219.859375 C 157.824219 208.765625 146.230469 165.40625 146.148438 165.097656 C 146.140625 164.964844 145.832031 159.832031 149.0625 157.226562 L 156.988281 150.882812 C 161.695312 147.28125 164.34375 139.039062 159.902344 131.132812 C 157.585938 127.042969 153.109375 119.785156 149.710938 115.160156 L 149.695312 115.160156 C 147.859375 112.6875 144.917969 109.019531 142.410156 105.9375 C 141.160156 104.398438 140.023438 102.992188 139.195312 101.984375 C 138.773438 101.480469 138.4375 101.078125 138.199219 100.792969 C 138.078125 100.648438 137.976562 100.550781 137.90625 100.46875 C 137.871094 100.425781 137.855469 100.402344 137.824219 100.367188 C 135.625 97.757812 132.832031 96.167969 129.746094 95.644531 Z M 208.941406 112.941406 C 204.785156 112.648438 201.046875 115.765625 200.742188 119.777344 C 200.441406 123.792969 203.679688 127.375 207.835938 127.667969 C 218.109375 128.394531 225.039062 131.414062 230.25 136.925781 L 230.25 136.941406 C 235.566406 142.554688 237.988281 148.960938 237.785156 157.71875 L 237.785156 157.75 C 237.695312 161.78125 241.074219 165.195312 245.25 165.285156 L 245.4375 165.285156 C 249.550781 165.285156 252.984375 162.035156 253.074219 158.058594 C 253.355469 146.019531 249.433594 135.28125 241.535156 126.953125 C 233.578125 118.585938 222.332031 113.898438 208.929688 112.945312 Z M 208.941406 112.941406"
         id="path24" />
    </g>
    <mask
       id="mask2">
      <g
         filter="url(#alpha)"
         id="g29">
        <rect
           width="384"
           height="384"
           x="0"
           y="0"
           style="fill:rgb(0%,0%,0%);fill-opacity:0.2"
           id="rect27" />
      </g>
    </mask>
    <clipPath
       id="clip3">
      <rect
         width="384"
         height="384"
         x="0"
         y="0"
         id="rect32" />
    </clipPath>
    <g
       id="surface11"
       clip-path="url(#clip3)">
      <path
         style="fill:rgb(100%,100%,100%)"
         d="M 73.40625 24 C 59.328125 24 48 35.234375 48 49.199219 L 48 55.199219 C 48 41.234375 59.328125 30 73.40625 30 L 310.59375 30 C 324.667969 30 336 41.234375 336 55.199219 L 336 49.199219 C 336 35.234375 324.667969 24 310.59375 24 Z M 73.40625 24"
         id="path35" />
    </g>
  </defs>
  <g
     id="g50"
     transform="matrix(-1,0,0,1,384,0)">
    <use
       mask="url(#mask0)"
       xlink:href="#surface5"
       id="use40"
       x="0"
       y="0"
       width="100%"
       height="100%" />
    <path
       style="fill:#ffc815;fill-opacity:1"
       d="m 48,360.00391 54,-47.9961 H 310.58203 C 324.67187,312.00781 336,300.76172 336,286.80469 V 49.203125 C 336,35.246094 324.67187,24.003906 310.58203,24.003906 H 73.421875 c -14.082031,0 -25.417969,11.242188 -25.417969,25.199219 V 360.00391 Z m 0,0"
       id="path42"
       inkscape:connector-curvature="0" />
    <use
       mask="url(#mask2)"
       xlink:href="#surface11"
       id="use48"
       x="0"
       y="0"
       width="100%"
       height="100%" />
  </g>
  <path
     d="m 164.54541,97.00184 c 0,0 -23.42794,-0.53552 -48.22128,18.82086 -24.79332,19.35637 -33.16133,46.84774 -33.16133,104.55304 0,0 22.82703,26.0565 60.87753,27.32376 0,0 6.37718,-7.95511 11.54433,-14.83103 -21.86636,-6.8759 -30.13625,-21.1755 -30.13625,-21.1755 18.73092,12.90971 44.45221,18.92306 66.55158,19.26236 22.09938,-0.3393 47.82068,-6.35265 66.5516,-19.26236 0,0 -8.26988,14.2996 -30.13626,21.1755 5.16715,6.87592 11.54433,14.83103 11.54433,14.83103 38.05049,-1.26726 60.87754,-27.32376 60.87754,-27.32376 0,-57.7053 -8.36799,-85.19667 -33.16134,-104.55304 C 242.88253,96.46632 219.45457,97.00184 219.45457,97.00184 l -1.71693,1.70058 c 30.99064,9.22648 45.11446,23.51381 45.11446,23.51381 0,0 -3.78543,-2.17478 -10.15443,-5.06904 C 237.0654,110.12411 217.11628,105.37393 192,105.37393 c -25.11628,0 -45.0654,4.75018 -60.69767,11.77326 -6.36901,2.89426 -10.15443,5.06904 -10.15443,5.06904 0,0 14.12382,-14.28733 45.11446,-23.51381 -0.39245,-0.70312 -1.71695,-1.70058 -1.71695,-1.70058 z m -6.03378,66.97674 c 9.35729,0 16.9077,9.32459 16.74418,20.93023 0,11.60974 -7.38689,20.93024 -16.74418,20.93024 -9.18968,0 -16.74418,-9.3205 -16.74418,-20.93024 0,-11.60564 7.38689,-20.93023 16.74418,-20.93023 z m 66.97673,0 c 9.35729,0 16.74419,9.32459 16.74419,20.93023 0,11.60974 -7.55451,20.93024 -16.74419,20.93024 -9.35728,0 -16.74418,-9.3205 -16.74418,-20.93024 -0.16352,-11.60564 7.3869,-20.93023 16.74418,-20.93023 z m 0,0"
     style="fill:#000000;fill-opacity:0.32462691;stroke-width:1.04651165"
     id="path46-9"
     inkscape:connector-curvature="0" />
  <path
     d="m 164.54541,93.55183 c 0,0 -23.42794,-0.53552 -48.22128,18.82086 -24.793326,19.35637 -33.161331,46.84774 -33.161331,104.55304 0,0 22.827031,26.05651 60.877531,27.32377 0,0 6.37718,-7.95512 11.54433,-14.83104 -21.86636,-6.8759 -30.13625,-21.1755 -30.13625,-21.1755 18.73092,12.90971 44.45221,18.92306 66.55159,19.26236 22.09938,-0.3393 47.82067,-6.35265 66.55159,-19.26236 0,0 -8.26988,14.2996 -30.13626,21.1755 5.16715,6.87592 11.54433,14.83104 11.54433,14.83104 38.0505,-1.26726 60.87754,-27.32377 60.87754,-27.32377 0,-57.7053 -8.36799,-85.19667 -33.16133,-104.55304 -24.79334,-19.35638 -48.2213,-18.82086 -48.2213,-18.82086 l -1.71693,1.70058 c 30.99064,9.22648 45.11446,23.51381 45.11446,23.51381 0,0 -3.78543,-2.17478 -10.15443,-5.06904 C 237.0654,106.6741 217.11628,101.92392 192,101.92392 c -25.11628,0 -45.0654,4.75018 -60.69767,11.77326 -6.36901,2.89426 -10.15443,5.06904 -10.15443,5.06904 0,0 14.12382,-14.28733 45.11446,-23.51381 -0.39245,-0.70312 -1.71695,-1.70058 -1.71695,-1.70058 z m -6.03378,66.97674 c 9.35729,0 16.9077,9.32459 16.74418,20.93023 0,11.60974 -7.38689,20.93024 -16.74418,20.93024 -9.18968,0 -16.74418,-9.3205 -16.74418,-20.93024 0,-11.60564 7.38689,-20.93023 16.74418,-20.93023 z m 66.97674,0 c 9.35728,0 16.74418,9.32459 16.74418,20.93023 0,11.60974 -7.55451,20.93024 -16.74418,20.93024 -9.35729,0 -16.74419,-9.3205 -16.74419,-20.93024 -0.16352,-11.60564 7.3869,-20.93023 16.74419,-20.93023 z m 0,0"
     style="fill:#ffffff;stroke-width:1.04651165"
     id="path46"
     inkscape:connector-curvature="0" />
</svg>
