<?xml version="1.0" encoding="UTF-8" standalone="no"?>
<svg
   xmlns:dc="http://purl.org/dc/elements/1.1/"
   xmlns:cc="http://creativecommons.org/ns#"
   xmlns:rdf="http://www.w3.org/1999/02/22-rdf-syntax-ns#"
   xmlns:svg="http://www.w3.org/2000/svg"
   xmlns="http://www.w3.org/2000/svg"
   xmlns:sodipodi="http://sodipodi.sourceforge.net/DTD/sodipodi-0.dtd"
   xmlns:inkscape="http://www.inkscape.org/namespaces/inkscape"
   width="512"
   height="512"
   version="1"
   id="svg16"
   sodipodi:docname="gnome-tweak-tool.svg"
   inkscape:version="0.92.2 2405546, 2018-03-11">
  <metadata
     id="metadata22">
    <rdf:RDF>
      <cc:Work
         rdf:about="">
        <dc:format>image/svg+xml</dc:format>
        <dc:type
           rdf:resource="http://purl.org/dc/dcmitype/StillImage" />
        <dc:title></dc:title>
      </cc:Work>
    </rdf:RDF>
  </metadata>
  <defs
     id="defs20" />
  <sodipodi:namedview
     pagecolor="#ffffff"
     bordercolor="#666666"
     borderopacity="1"
     objecttolerance="10"
     gridtolerance="10"
     guidetolerance="10"
     inkscape:pageopacity="0"
     inkscape:pageshadow="2"
     inkscape:window-width="1366"
     inkscape:window-height="690"
     id="namedview18"
     showgrid="false"
     inkscape:zoom="0.43457604"
     inkscape:cx="-30.517215"
     inkscape:cy="279.90749"
     inkscape:window-x="0"
     inkscape:window-y="0"
     inkscape:window-maximized="1"
     inkscape:current-layer="svg16" />
  <g
     id="g836"
     transform="matrix(11.25,0,0,11.25,-14,-19.625)">
    <rect
       id="rect2"
       style="fill:#939393;fill-opacity:1"
       ry="2"
       rx="2"
       height="40"
       width="40"
       y="-44"
       x="-44"
       transform="matrix(0,-1,-1,0,0,0)" />
    <path
       id="path4"
       d="M 6,4 C 4.892,4 4,4.892 4,6 V 7 C 4,5.892 4.892,5 6,5 h 36 c 1.108,0 2,0.892 2,2 V 6 C 44,4.892 43.108,4 42,4 Z"
       inkscape:connector-curvature="0"
       style="opacity:0.2;fill:#ffffff" />
    <path
       id="path6"
       d="M 6,45 C 4.892,45 4,44.108 4,43 v -1 c 0,1.108 0.892,2 2,2 h 36 c 1.108,0 2,-0.892 2,-2 v 1 c 0,1.108 -0.892,2 -2,2 z"
       inkscape:connector-curvature="0"
       style="opacity:0.2" />
    <path
       id="path8"
       d="m 14,13 c -1.108,0 -2,0.892 -2,2 v 20 c 0,1.108 0.892,2 2,2 1.108,0 2,-0.892 2,-2 V 15 c 0,-1.108 -0.892,-2 -2,-2 z m 10,0 c -1.108,0 -2,0.892 -2,2 v 20 c 0,1.108 0.892,2 2,2 1.108,0 2,-0.892 2,-2 V 15 c 0,-1.108 -0.892,-2 -2,-2 z m 10,0 c -1.108,0 -2,0.892 -2,2 v 20 c 0,1.108 0.892,2 2,2 1.108,0 2,-0.892 2,-2 V 15 c 0,-1.108 -0.892,-2 -2,-2 z"
       inkscape:connector-curvature="0"
       style="opacity:0.3" />
    <path
       id="path10"
       style="fill:#0f6ee3;fill-opacity:1"
       d="m 12,20 v 15 c 0,1.108 0.892,2 2,2 1.108,0 2,-0.892 2,-2 V 20 Z m 20,2 v 13 c 0,1.108 0.892,2 2,2 1.108,0 2,-0.892 2,-2 V 22 Z m -10,8 v 5 c 0,1.108 0.892,2 2,2 1.108,0 2,-0.892 2,-2 v -5 z"
       inkscape:connector-curvature="0" />
    <path
       id="path12"
       style="opacity:0.2"
       d="m 14,18 c -2.209139,0 -4,1.790861 -4,4 0,2.209139 1.790861,4 4,4 2.209139,0 4,-1.790861 4,-4 0,-2.209139 -1.790861,-4 -4,-4 z m 20,2 c -2.209139,0 -4,1.790861 -4,4 0,2.209139 1.790861,4 4,4 2.209139,0 4,-1.790861 4,-4 0,-2.209139 -1.790861,-4 -4,-4 z m -10,6 c -2.209139,0 -4,1.790861 -4,4 0,2.209139 1.790861,4 4,4 2.209139,0 4,-1.790861 4,-4 0,-2.209139 -1.790861,-4 -4,-4 z"
       inkscape:connector-curvature="0" />
    <path
       id="path14"
       style="fill:#ffffff"
       d="m 14,17 c -2.209139,0 -4,1.790861 -4,4 0,2.209139 1.790861,4 4,4 2.209139,0 4,-1.790861 4,-4 0,-2.209139 -1.790861,-4 -4,-4 z m 20,2 c -2.209139,0 -4,1.790861 -4,4 0,2.209139 1.790861,4 4,4 2.209139,0 4,-1.790861 4,-4 0,-2.209139 -1.790861,-4 -4,-4 z m -10,6 c -2.209139,0 -4,1.790861 -4,4 0,2.209139 1.790861,4 4,4 2.209139,0 4,-1.790861 4,-4 0,-2.209139 -1.790861,-4 -4,-4 z"
       inkscape:connector-curvature="0" />
  </g>
</svg>
