<?xml version="1.0" encoding="UTF-8" standalone="no"?>
<svg
   xmlns:dc="http://purl.org/dc/elements/1.1/"
   xmlns:cc="http://creativecommons.org/ns#"
   xmlns:rdf="http://www.w3.org/1999/02/22-rdf-syntax-ns#"
   xmlns:svg="http://www.w3.org/2000/svg"
   xmlns="http://www.w3.org/2000/svg"
   xmlns:sodipodi="http://sodipodi.sourceforge.net/DTD/sodipodi-0.dtd"
   xmlns:inkscape="http://www.inkscape.org/namespaces/inkscape"
   width="512"
   height="512"
   version="1"
   id="svg12"
   sodipodi:docname="goa-account-foursquare.svg"
   inkscape:version="0.92.2 2405546, 2018-03-11">
  <metadata
     id="metadata18">
    <rdf:RDF>
      <cc:Work
         rdf:about="">
        <dc:format>image/svg+xml</dc:format>
        <dc:type
           rdf:resource="http://purl.org/dc/dcmitype/StillImage" />
        <dc:title></dc:title>
      </cc:Work>
    </rdf:RDF>
  </metadata>
  <defs
     id="defs16" />
  <sodipodi:namedview
     pagecolor="#ffffff"
     bordercolor="#666666"
     borderopacity="1"
     objecttolerance="10"
     gridtolerance="10"
     guidetolerance="10"
     inkscape:pageopacity="0"
     inkscape:pageshadow="2"
     inkscape:window-width="1366"
     inkscape:window-height="695"
     id="namedview14"
     showgrid="false"
     inkscape:zoom="0.61458333"
     inkscape:cx="23.293506"
     inkscape:cy="342.12018"
     inkscape:window-x="0"
     inkscape:window-y="0"
     inkscape:window-maximized="1"
     inkscape:current-layer="svg12" />
  <g
     id="g833"
     transform="matrix(11.25,0,0,11.25,-14,-5239.625)">
    <rect
       id="rect2"
       transform="matrix(0,-1,-1,0,0,0)"
       ry="2"
       rx="2"
       y="-44"
       x="-509"
       height="40"
       width="40"
       style="opacity:0.2" />
    <rect
       id="rect4"
       transform="matrix(0,-1,-1,0,0,0)"
       ry="2"
       rx="2"
       y="-44"
       x="-508"
       height="40"
       width="40"
       style="fill:#fa4778" />
    <path
       inkscape:connector-curvature="0"
       id="path6"
       d="m 6,468 c -1.108,0 -2,0.892 -2,2 v 1 c 0,-1.108 0.892,-2 2,-2 h 36 c 1.108,0 2,0.892 2,2 v -1 c 0,-1.108 -0.892,-2 -2,-2 z"
       style="opacity:0.2;fill:#ffffff" />
    <path
       inkscape:connector-curvature="0"
       id="path8"
       d="m 32.5,476.5 h -18 v 25 l 8,-9 h 7 l 1.5,-8 H 22.5 31 Z"
       style="opacity:0.2;fill:none;stroke:#000000;stroke-width:3;stroke-linejoin:round" />
    <path
       inkscape:connector-curvature="0"
       id="path10"
       d="m 32.5,475.5 h -18 v 25 l 8,-9 h 7 l 1.5,-8 H 22.5 31 Z"
       style="fill:none;stroke:#ffffff;stroke-width:3;stroke-linejoin:round" />
  </g>
</svg>
