<?xml version="1.0" encoding="UTF-8" standalone="no"?>
<svg
   xmlns:dc="http://purl.org/dc/elements/1.1/"
   xmlns:cc="http://creativecommons.org/ns#"
   xmlns:rdf="http://www.w3.org/1999/02/22-rdf-syntax-ns#"
   xmlns:svg="http://www.w3.org/2000/svg"
   xmlns="http://www.w3.org/2000/svg"
   xmlns:xlink="http://www.w3.org/1999/xlink"
   xmlns:sodipodi="http://sodipodi.sourceforge.net/DTD/sodipodi-0.dtd"
   xmlns:inkscape="http://www.inkscape.org/namespaces/inkscape"
   width="384pt"
   height="384pt"
   version="1.1"
   viewBox="0 0 384 384"
   id="svg56"
   sodipodi:docname="multitasking-view.svg"
   inkscape:version="0.92.2 2405546, 2018-03-11">
  <metadata
     id="metadata60">
    <rdf:RDF>
      <cc:Work
         rdf:about="">
        <dc:format>image/svg+xml</dc:format>
        <dc:type
           rdf:resource="http://purl.org/dc/dcmitype/StillImage" />
      </cc:Work>
    </rdf:RDF>
  </metadata>
  <sodipodi:namedview
     pagecolor="#ffffff"
     bordercolor="#666666"
     borderopacity="1"
     objecttolerance="10"
     gridtolerance="10"
     guidetolerance="10"
     inkscape:pageopacity="0"
     inkscape:pageshadow="2"
     inkscape:window-width="773"
     inkscape:window-height="480"
     id="namedview58"
     showgrid="false"
     inkscape:zoom="0.4609375"
     inkscape:cx="256"
     inkscape:cy="256"
     inkscape:window-x="0"
     inkscape:window-y="0"
     inkscape:window-maximized="0"
     inkscape:current-layer="svg56" />
  <defs
     id="defs38">
    <filter
       id="alpha"
       width="100%"
       height="100%"
       x="0%"
       y="0%"
       filterUnits="objectBoundingBox">
      <feColorMatrix
         in="SourceGraphic"
         type="matrix"
         values="0 0 0 0 1 0 0 0 0 1 0 0 0 0 1 0 0 0 1 0"
         id="feColorMatrix2" />
    </filter>
    <mask
       id="mask0">
      <g
         filter="url(#alpha)"
         id="g7">
        <rect
           width="384"
           height="384"
           x="0"
           y="0"
           style="fill:rgb(0%,0%,0%);fill-opacity:0.301961"
           id="rect5" />
      </g>
    </mask>
    <clipPath
       id="clip1">
      <rect
         width="384"
         height="384"
         x="0"
         y="0"
         id="rect10" />
    </clipPath>
    <g
       id="surface5"
       clip-path="url(#clip1)">
      <path
         style="fill-rule:evenodd;fill:rgb(0%,0%,0%)"
         d="M 30.457031 69.863281 L 169.855469 69.863281 C 175.492188 69.863281 180.0625 74.433594 180.0625 80.070312 L 180.0625 180.964844 C 180.0625 186.601562 175.492188 191.171875 169.855469 191.171875 L 30.457031 191.171875 C 24.820312 191.171875 20.25 186.601562 20.25 180.964844 L 20.25 80.070312 C 20.25 74.433594 24.820312 69.863281 30.457031 69.863281 Z M 30.457031 69.863281"
         id="path13" />
    </g>
    <mask
       id="mask1">
      <g
         filter="url(#alpha)"
         id="g18">
        <rect
           width="384"
           height="384"
           x="0"
           y="0"
           style="fill:rgb(0%,0%,0%);fill-opacity:0.301961"
           id="rect16" />
      </g>
    </mask>
    <clipPath
       id="clip2">
      <rect
         width="384"
         height="384"
         x="0"
         y="0"
         id="rect21" />
    </clipPath>
    <g
       id="surface8"
       clip-path="url(#clip2)">
      <path
         style="fill-rule:evenodd;fill:rgb(0%,0%,0%)"
         d="M 223.148438 71.257812 L 362.546875 71.257812 C 368.183594 71.257812 372.753906 75.828125 372.753906 81.464844 L 372.753906 182.359375 C 372.753906 187.996094 368.183594 192.566406 362.546875 192.566406 L 223.148438 192.566406 C 217.511719 192.566406 212.941406 187.996094 212.941406 182.359375 L 212.941406 81.464844 C 212.941406 75.828125 217.511719 71.257812 223.148438 71.257812 Z M 223.148438 71.257812"
         id="path24" />
    </g>
    <mask
       id="mask2">
      <g
         filter="url(#alpha)"
         id="g29">
        <rect
           width="384"
           height="384"
           x="0"
           y="0"
           style="fill:rgb(0%,0%,0%);fill-opacity:0.301961"
           id="rect27" />
      </g>
    </mask>
    <clipPath
       id="clip3">
      <rect
         width="384"
         height="384"
         x="0"
         y="0"
         id="rect32" />
    </clipPath>
    <g
       id="surface11"
       clip-path="url(#clip3)">
      <path
         style="fill-rule:evenodd;fill:rgb(0%,0%,0%)"
         d="M 128.609375 224.707031 L 268.007812 224.707031 C 273.644531 224.707031 278.214844 229.277344 278.214844 234.914062 L 278.214844 335.808594 C 278.214844 341.449219 273.644531 346.019531 268.007812 346.019531 L 128.609375 346.019531 C 122.972656 346.019531 118.402344 341.449219 118.402344 335.808594 L 118.402344 234.914062 C 118.402344 229.277344 122.972656 224.707031 128.609375 224.707031 Z M 128.609375 224.707031"
         id="path35" />
    </g>
  </defs>
  <g
     id="g54">
    <path
       style="fill-rule:evenodd;fill:#0088ff;fill-opacity:1"
       d="M 45.589844 42.480469 L 338.636719 42.480469 C 346.886719 42.480469 353.574219 48.890625 353.574219 56.796875 L 353.574219 314.558594 C 353.574219 322.464844 346.886719 328.875 338.636719 328.875 L 45.589844 328.875 C 37.339844 328.875 30.652344 322.464844 30.652344 314.558594 L 30.652344 56.796875 C 30.652344 48.890625 37.339844 42.480469 45.589844 42.480469 Z M 45.589844 42.480469"
       id="path40" />
    <use
       mask="url(#mask0)"
       xlink:href="#surface5"
       id="use42" />
    <path
       style="fill-rule:evenodd;fill:rgb(100%,100%,100%)"
       d="M 25.957031 65.363281 L 165.355469 65.363281 C 170.992188 65.363281 175.5625 69.933594 175.5625 75.570312 L 175.5625 176.464844 C 175.5625 182.101562 170.992188 186.671875 165.355469 186.671875 L 25.957031 186.671875 C 20.320312 186.671875 15.75 182.101562 15.75 176.464844 L 15.75 75.570312 C 15.75 69.933594 20.320312 65.363281 25.957031 65.363281 Z M 25.957031 65.363281"
       id="path44" />
    <use
       mask="url(#mask1)"
       xlink:href="#surface8"
       id="use46" />
    <path
       style="fill-rule:evenodd;fill:rgb(100%,100%,100%)"
       d="M 218.648438 66.757812 L 358.046875 66.757812 C 363.683594 66.757812 368.253906 71.328125 368.253906 76.964844 L 368.253906 177.859375 C 368.253906 183.496094 363.683594 188.066406 358.046875 188.066406 L 218.648438 188.066406 C 213.011719 188.066406 208.441406 183.496094 208.441406 177.859375 L 208.441406 76.964844 C 208.441406 71.328125 213.011719 66.757812 218.648438 66.757812 Z M 218.648438 66.757812"
       id="path48" />
    <use
       mask="url(#mask2)"
       xlink:href="#surface11"
       id="use50" />
    <path
       style="fill-rule:evenodd;fill:rgb(100%,100%,100%)"
       d="M 124.109375 220.207031 L 263.507812 220.207031 C 269.144531 220.207031 273.714844 224.777344 273.714844 230.414062 L 273.714844 331.308594 C 273.714844 336.949219 269.144531 341.519531 263.507812 341.519531 L 124.109375 341.519531 C 118.472656 341.519531 113.902344 336.949219 113.902344 331.308594 L 113.902344 230.414062 C 113.902344 224.777344 118.472656 220.207031 124.109375 220.207031 Z M 124.109375 220.207031"
       id="path52" />
  </g>
</svg>
