<?xml version="1.0" encoding="UTF-8" standalone="no"?>
<svg
   xmlns:dc="http://purl.org/dc/elements/1.1/"
   xmlns:cc="http://creativecommons.org/ns#"
   xmlns:rdf="http://www.w3.org/1999/02/22-rdf-syntax-ns#"
   xmlns:svg="http://www.w3.org/2000/svg"
   xmlns="http://www.w3.org/2000/svg"
   xmlns:sodipodi="http://sodipodi.sourceforge.net/DTD/sodipodi-0.dtd"
   xmlns:inkscape="http://www.inkscape.org/namespaces/inkscape"
   width="512"
   height="512"
   version="1.1"
   viewBox="0 0 512 512"
   id="svg34"
   sodipodi:docname="background.svg"
   inkscape:version="0.92.2 2405546, 2018-03-11">
  <metadata
     id="metadata40">
    <rdf:RDF>
      <cc:Work
         rdf:about="">
        <dc:format>image/svg+xml</dc:format>
        <dc:type
           rdf:resource="http://purl.org/dc/dcmitype/StillImage" />
        <dc:title />
      </cc:Work>
    </rdf:RDF>
  </metadata>
  <defs
     id="defs38" />
  <sodipodi:namedview
     pagecolor="#ffffff"
     bordercolor="#666666"
     borderopacity="1"
     objecttolerance="10"
     gridtolerance="10"
     guidetolerance="10"
     inkscape:pageopacity="0"
     inkscape:pageshadow="2"
     inkscape:window-width="1366"
     inkscape:window-height="690"
     id="namedview36"
     showgrid="false"
     inkscape:zoom="0.61458333"
     inkscape:cx="46.101693"
     inkscape:cy="359.30682"
     inkscape:window-x="0"
     inkscape:window-y="0"
     inkscape:window-maximized="1"
     inkscape:current-layer="g863" />
  <g
     id="g863"
     transform="matrix(12,0,0,12,-32,-38)">
    <path
       id="path2"
       d="M 6,6 C 4.892,6 4,6.892 4,8 V 38 H 44 V 8 C 44,6.892 43.108,6 42,6 Z"
       inkscape:connector-curvature="0"
       style="fill:#0088ff;fill-opacity:1" />
    <path
       id="path4"
       d="M 6,42 C 4.892,42 4,41.108 4,40 v -2 h 40 v 2 c 0,1.108 -0.892,2 -2,2 z"
       inkscape:connector-curvature="0"
       style="fill:#373737;fill-opacity:1" />
    <path
       id="path6"
       d="M 6,6 C 4.892,6 4,6.892 4,8 V 9 C 4,7.892 4.892,7 6,7 h 36 c 1.108,0 2,0.892 2,2 V 8 C 44,6.892 43.108,6 42,6 Z"
       inkscape:connector-curvature="0"
       style="opacity:0.2;fill:#ffffff" />
    <rect
       id="rect8"
       ry="1"
       rx="1"
       y="14.994334"
       x="24"
       height="12"
       width="16"
       style="opacity:0.2" />
    <path
       id="path10"
       d="m 24,15.661017 v 9 c 0,0.554 0.446,1 1,1 h 14 c 0.554,0 1,-0.446 1,-1 v -9 z"
       inkscape:connector-curvature="0"
       style="fill:#ffffff;fill-opacity:0.9729996" />
    <path
       id="path12"
       d="m 25,13.661017 h 14 c 0.554,0 1,0.446 1,1 v 1 H 24 v -1 c 0,-0.554 0.446,-1 1,-1 z"
       inkscape:connector-curvature="0"
       style="fill:#373737;fill-opacity:1" />
    <g
       id="g22"
       transform="translate(2,-1002.4)"
       style="opacity:0.2">
      <rect
         id="rect14"
         ry="0.5"
         rx="0.5"
         y="1012.4"
         x="5"
         height="4"
         width="4" />
      <rect
         id="rect16"
         ry="0.5"
         rx="0.5"
         y="1018.4"
         x="5"
         height="4"
         width="4" />
      <rect
         id="rect18"
         ry="0.5"
         rx="0.5"
         y="1024.4"
         x="5"
         height="4"
         width="4" />
      <rect
         id="rect20"
         ry="0.5"
         rx="0.5"
         y="1030.4"
         x="5"
         height="4"
         width="4" />
    </g>
    <rect
       id="rect24"
       ry="0.5"
       rx="0.5"
       y="9"
       x="7"
       height="4"
       width="4"
       style="fill:#ffffff;fill-opacity:0.9729996" />
    <rect
       id="rect26"
       ry="0.5"
       rx="0.5"
       y="15"
       x="7"
       height="4"
       width="4"
       style="fill:#ffffff;fill-opacity:0.9729996" />
    <rect
       id="rect28"
       ry="0.5"
       rx="0.5"
       y="21"
       x="7"
       height="4"
       width="4"
       style="fill:#ffffff;fill-opacity:0.9729996" />
    <rect
       id="rect30"
       ry="0.5"
       rx="0.5"
       y="27"
       x="7"
       height="4"
       width="4"
       style="fill:#ffffff;fill-opacity:0.9729996" />
    <path
       id="path32"
       d="m 4,40 v 1 c 0,1.108 0.892,2 2,2 h 36 c 1.108,0 2,-0.892 2,-2 v -1 c 0,1.108 -0.892,2 -2,2 H 6 C 4.892,42 4,41.108 4,40 Z"
       inkscape:connector-curvature="0"
       style="opacity:0.2" />
  </g>
</svg>
