<?xml version="1.0" encoding="UTF-8" standalone="no"?>
<svg
   xmlns:dc="http://purl.org/dc/elements/1.1/"
   xmlns:cc="http://creativecommons.org/ns#"
   xmlns:rdf="http://www.w3.org/1999/02/22-rdf-syntax-ns#"
   xmlns:svg="http://www.w3.org/2000/svg"
   xmlns="http://www.w3.org/2000/svg"
   xmlns:xlink="http://www.w3.org/1999/xlink"
   xmlns:sodipodi="http://sodipodi.sourceforge.net/DTD/sodipodi-0.dtd"
   xmlns:inkscape="http://www.inkscape.org/namespaces/inkscape"
   width="384pt"
   height="384pt"
   version="1.1"
   viewBox="0 0 384 384"
   id="svg69"
   sodipodi:docname="xfce4-taskbar.svg"
   inkscape:version="0.92.2 2405546, 2018-03-11">
  <metadata
     id="metadata73">
    <rdf:RDF>
      <cc:Work
         rdf:about="">
        <dc:format>image/svg+xml</dc:format>
        <dc:type
           rdf:resource="http://purl.org/dc/dcmitype/StillImage" />
      </cc:Work>
    </rdf:RDF>
  </metadata>
  <sodipodi:namedview
     pagecolor="#ffffff"
     bordercolor="#666666"
     borderopacity="1"
     objecttolerance="10"
     gridtolerance="10"
     guidetolerance="10"
     inkscape:pageopacity="0"
     inkscape:pageshadow="2"
     inkscape:window-width="1366"
     inkscape:window-height="690"
     id="namedview71"
     showgrid="false"
     inkscape:zoom="0.4609375"
     inkscape:cx="-196.33898"
     inkscape:cy="256"
     inkscape:window-x="0"
     inkscape:window-y="0"
     inkscape:window-maximized="1"
     inkscape:current-layer="svg69" />
  <defs
     id="defs49">
    <filter
       id="alpha"
       width="100%"
       height="100%"
       x="0%"
       y="0%"
       filterUnits="objectBoundingBox">
      <feColorMatrix
         in="SourceGraphic"
         type="matrix"
         values="0 0 0 0 1 0 0 0 0 1 0 0 0 0 1 0 0 0 1 0"
         id="feColorMatrix2" />
    </filter>
    <mask
       id="mask0">
      <g
         filter="url(#alpha)"
         id="g7">
        <rect
           width="384"
           height="384"
           x="0"
           y="0"
           style="fill:rgb(0%,0%,0%);fill-opacity:0.2"
           id="rect5" />
      </g>
    </mask>
    <clipPath
       id="clip1">
      <rect
         width="384"
         height="384"
         x="0"
         y="0"
         id="rect10" />
    </clipPath>
    <g
       id="surface5"
       clip-path="url(#clip1)">
      <path
         style="fill:rgb(100%,100%,100%)"
         d="M 47.496094 282 L 168.503906 282 C 174.851562 282 180 287.527344 180 294.347656 L 180 317.652344 C 180 324.472656 174.851562 330 168.503906 330 L 47.496094 330 C 41.148438 330 36 324.472656 36 317.652344 L 36 294.347656 C 36 287.527344 41.148438 282 47.496094 282 Z M 47.496094 282"
         id="path13" />
    </g>
    <mask
       id="mask1">
      <g
         filter="url(#alpha)"
         id="g18">
        <rect
           width="384"
           height="384"
           x="0"
           y="0"
           style="fill:rgb(0%,0%,0%);fill-opacity:0.2"
           id="rect16" />
      </g>
    </mask>
    <clipPath
       id="clip2">
      <rect
         width="384"
         height="384"
         x="0"
         y="0"
         id="rect21" />
    </clipPath>
    <g
       id="surface8"
       clip-path="url(#clip2)">
      <path
         style="fill:rgb(100%,100%,100%)"
         d="M 203.496094 282 L 324.503906 282 C 330.851562 282 336 287.527344 336 294.347656 L 336 317.652344 C 336 324.472656 330.851562 330 324.503906 330 L 203.496094 330 C 197.148438 330 192 324.472656 192 317.652344 L 192 294.347656 C 192 287.527344 197.148438 282 203.496094 282 Z M 203.496094 282"
         id="path24" />
    </g>
    <mask
       id="mask2">
      <g
         filter="url(#alpha)"
         id="g29">
        <rect
           width="384"
           height="384"
           x="0"
           y="0"
           style="fill:rgb(0%,0%,0%);fill-opacity:0.101961"
           id="rect27" />
      </g>
    </mask>
    <clipPath
       id="clip3">
      <rect
         width="384"
         height="384"
         x="0"
         y="0"
         id="rect32" />
    </clipPath>
    <g
       id="surface11"
       clip-path="url(#clip3)">
      <path
         style="fill:rgb(100%,100%,100%)"
         d="M 40.804688 42 C 31.496094 42 24 49.496094 24 58.800781 L 24 64.800781 C 24 55.496094 31.496094 48 40.804688 48 L 343.195312 48 C 352.496094 48 360 55.496094 360 64.800781 L 360 58.800781 C 360 49.496094 352.496094 42 343.195312 42 Z M 40.804688 42"
         id="path35" />
    </g>
    <mask
       id="mask3">
      <g
         filter="url(#alpha)"
         id="g40">
        <rect
           width="384"
           height="384"
           x="0"
           y="0"
           style="fill:rgb(0%,0%,0%);fill-opacity:0.2"
           id="rect38" />
      </g>
    </mask>
    <clipPath
       id="clip4">
      <rect
         width="384"
         height="384"
         x="0"
         y="0"
         id="rect43" />
    </clipPath>
    <g
       id="surface14"
       clip-path="url(#clip4)">
      <path
         style="fill:rgb(0%,0%,0%)"
         d="M 24 325.195312 L 24 331.195312 C 24 340.496094 31.496094 348 40.804688 348 L 343.195312 348 C 352.496094 348 360 340.496094 360 331.195312 L 360 325.195312 C 360 334.496094 352.496094 342 343.195312 342 L 40.804688 342 C 31.496094 342 24 334.496094 24 325.195312 Z M 24 325.195312"
         id="path46" />
    </g>
  </defs>
  <g
     id="g67">
    <path
       style="fill:#3b3b3b;fill-opacity:1"
       d="M 40.800781 342 C 31.492188 342 24 334.511719 24 325.199219 L 24 270 L 360 270 L 360 325.199219 C 360 334.507812 352.507812 342 343.199219 342 Z M 40.800781 342"
       id="path51" />
    <path
       style="fill:#0088ff;fill-opacity:1"
       d="M 40.804688 42.011719 C 31.496094 42.011719 24 49.507812 24 58.816406 L 24 270 L 359.996094 270 L 359.996094 58.804688 C 359.996094 49.496094 352.496094 42 343.195312 42 L 40.800781 42 Z M 40.804688 42.011719"
       id="path53" />
    <use
       mask="url(#mask0)"
       xlink:href="#surface5"
       id="use55" />
    <use
       mask="url(#mask1)"
       xlink:href="#surface8"
       id="use57" />
    <use
       mask="url(#mask2)"
       xlink:href="#surface11"
       id="use59" />
    <path
       style="fill:rgb(100%,100%,100%)"
       d="M 48 294 L 72 294 L 72 318 L 48 318 Z M 48 294"
       id="path61" />
    <path
       style="fill:rgb(100%,100%,100%)"
       d="M 204 294 L 228 294 L 228 318 L 204 318 Z M 204 294"
       id="path63" />
    <use
       mask="url(#mask3)"
       xlink:href="#surface14"
       id="use65" />
  </g>
</svg>
