<?xml version="1.0" encoding="UTF-8" standalone="no"?>
<svg
   xmlns:dc="http://purl.org/dc/elements/1.1/"
   xmlns:cc="http://creativecommons.org/ns#"
   xmlns:rdf="http://www.w3.org/1999/02/22-rdf-syntax-ns#"
   xmlns:svg="http://www.w3.org/2000/svg"
   xmlns="http://www.w3.org/2000/svg"
   xmlns:sodipodi="http://sodipodi.sourceforge.net/DTD/sodipodi-0.dtd"
   xmlns:inkscape="http://www.inkscape.org/namespaces/inkscape"
   width="48"
   height="48"
   version="1"
   id="svg44"
   sodipodi:docname="notification-network-wireless-disconnected.svg"
   inkscape:version="0.92.2 2405546, 2018-03-11">
  <metadata
     id="metadata48">
    <rdf:RDF>
      <cc:Work
         rdf:about="">
        <dc:format>image/svg+xml</dc:format>
        <dc:type
           rdf:resource="http://purl.org/dc/dcmitype/StillImage" />
      </cc:Work>
    </rdf:RDF>
  </metadata>
  <sodipodi:namedview
     pagecolor="#ffffff"
     bordercolor="#666666"
     borderopacity="1"
     objecttolerance="10"
     gridtolerance="10"
     guidetolerance="10"
     inkscape:pageopacity="0"
     inkscape:pageshadow="2"
     inkscape:window-width="1366"
     inkscape:window-height="690"
     id="namedview46"
     showgrid="false"
     inkscape:zoom="4.9166667"
     inkscape:cx="-0.61016949"
     inkscape:cy="23.59322"
     inkscape:window-x="0"
     inkscape:window-y="0"
     inkscape:window-maximized="1"
     inkscape:current-layer="svg44" />
  <defs
     id="defs14">
    <clipPath
       id="clipPath5078"
       clipPathUnits="userSpaceOnUse">
      <path
         fill="#2095f2"
         d="m160 247c-7.9134 0-15.037 2.8117-20.945 7.1718l20.94 22.82 20.78-22.9c-5.88-4.31-12.93-7.09-20.78-7.09z"
         id="path2" />
    </clipPath>
    <filter
       id="filter5060"
       style="color-interpolation-filters:sRGB"
       width="1.205"
       height="1.288"
       x="-.1"
       y="-.14">
      <feGaussianBlur
         stdDeviation="1.443"
         id="feGaussianBlur5" />
    </filter>
    <clipPath
       id="clipPath5085"
       clipPathUnits="userSpaceOnUse">
      <path
         fill="#2095f2"
         d="m160 247c-7.9134 0-15.037 2.8117-20.945 7.1718l20.94 22.82 20.78-22.9c-5.88-4.31-12.93-7.09-20.78-7.09z"
         id="path8" />
    </clipPath>
    <filter
       id="filter5064"
       style="color-interpolation-filters:sRGB"
       width="1.274"
       height="1.385"
       x="-.14"
       y="-.19">
      <feGaussianBlur
         stdDeviation="1.443"
         id="feGaussianBlur11" />
    </filter>
  </defs>
  <path
     fill="#5d5d5d"
     d="m24.082 9.0022c-7.9134 0-15.037 2.8117-20.945 7.1718l20.945 22.82 20.781-22.901c-5.885-4.312-12.929-7.0906-20.781-7.0906z"
     id="path16" />
  <path
     opacity=".2"
     d="m159.9 252.99c-6.3037 0-12.154 2.0674-16.853 5.5589l16.941 18.441 16.765-18.441c-4.71-3.49-10.56-5.56-16.86-5.56z"
     clip-path="url(#clipPath5078)"
     filter="url(#filter5060)"
     transform="translate(-135.9 -238)"
     id="path18" />
  <path
     fill="#848484"
     d="m24 14.994c-6.3037 0-12.154 2.0674-16.853 5.5589l16.941 18.441 16.765-18.442c-4.699-3.491-10.549-5.558-16.853-5.558z"
     id="path20" />
  <path
     opacity=".2"
     d="m159.9 258.99c-4.7278 0-9.1156 1.5505-12.64 4.1692l12.706 13.831 12.574-13.831c-3.524-2.6186-7.9119-4.1692-12.64-4.1692z"
     clip-path="url(#clipPath5085)"
     filter="url(#filter5064)"
     transform="translate(-135.9 -238)"
     id="path22" />
  <path
     fill="#e4e4e4"
     d="m24 20.994c-4.7278 0-9.1156 1.5505-12.64 4.1692l12.706 13.831 12.574-13.831c-3.524-2.619-7.912-4.169-12.64-4.169z"
     id="path24" />
  <path
     fill="#fff"
     opacity=".1"
     d="m24.082 9.0022c-7.9134 0-15.037 2.8118-20.945 7.1719l0.5625 0.61328c5.7976-4.131 12.714-6.7852 20.383-6.7852 7.6091 0 14.449 2.6224 20.221 6.707l0.56-0.617c-5.887-4.311-12.93-7.0896-20.783-7.0896z"
     id="path26" />
  <path
     fill="#fff"
     opacity=".1"
     d="m24.001 14.993c-6.3037 0-12.155 2.069-16.854 5.5606l0.56445 0.61328c4.6011-3.2483 10.231-5.1738 16.289-5.1738 6.0605 0 11.689 1.9275 16.291 5.1777l0.561-0.618c-4.698-3.492-10.547-5.561-16.851-5.561z"
     id="path28" />
  <path
     fill="#fff"
     opacity=".1"
     d="m24.001 20.993c-4.7278 0-9.1166 1.5513-12.641 4.1699l0.56445 0.61328c3.4249-2.3766 7.5935-3.7832 12.076-3.7832 4.4846 0 8.6524 1.4086 12.078 3.7871l0.561-0.617c-3.523-2.619-7.91-4.17-12.638-4.17z"
     id="path30" />
  <path
     opacity=".2"
     d="m44.307 16.717-20.225 22.287-20.385-22.209c-0.1843 0.131-0.378 0.25-0.5603 0.385l20.945 22.82 20.781-22.902c-0.1814-0.1329-0.37305-0.25091-0.55664-0.38086z"
     id="path32" />
  <circle
     fill="#db3c30"
     cx="34"
     cy="36"
     r="10"
     id="circle34"
     style="fill:#da1302;fill-opacity:1" />
  <path
     opacity=".2"
     d="m43.979 36.414a10 10 0 0 1 -9.979 9.586 10 10 0 0 1 -9.979 -9.414 10 10 0 0 0 -0.021 0.414 10 10 0 0 0 10 10 10 10 0 0 0 10 -10 10 10 0 0 0 -0.021 -0.586z"
     id="path36" />
  <g
     fill="#fff"
     transform="matrix(.70711 -.70711 .70711 .70711 -15.497 34.846)"
     id="g42">
    <rect
       width="12"
       height="2"
       x="28"
       y="35"
       id="rect38" />
    <rect
       width="12"
       height="2"
       x="-42"
       y="33"
       transform="rotate(-90)"
       id="rect40" />
  </g>
</svg>
