<?xml version="1.0" encoding="UTF-8" standalone="no"?>
<svg
   xmlns:dc="http://purl.org/dc/elements/1.1/"
   xmlns:cc="http://creativecommons.org/ns#"
   xmlns:rdf="http://www.w3.org/1999/02/22-rdf-syntax-ns#"
   xmlns:svg="http://www.w3.org/2000/svg"
   xmlns="http://www.w3.org/2000/svg"
   xmlns:sodipodi="http://sodipodi.sourceforge.net/DTD/sodipodi-0.dtd"
   xmlns:inkscape="http://www.inkscape.org/namespaces/inkscape"
   width="48"
   height="48"
   version="1"
   id="svg36"
   sodipodi:docname="notification-touchpad-disabled-symbolic.svg"
   inkscape:version="0.92.2 2405546, 2018-03-11">
  <metadata
     id="metadata42">
    <rdf:RDF>
      <cc:Work
         rdf:about="">
        <dc:format>image/svg+xml</dc:format>
        <dc:type
           rdf:resource="http://purl.org/dc/dcmitype/StillImage" />
      </cc:Work>
    </rdf:RDF>
  </metadata>
  <defs
     id="defs40" />
  <sodipodi:namedview
     pagecolor="#ffffff"
     bordercolor="#666666"
     borderopacity="1"
     objecttolerance="10"
     gridtolerance="10"
     guidetolerance="10"
     inkscape:pageopacity="0"
     inkscape:pageshadow="2"
     inkscape:window-width="1366"
     inkscape:window-height="690"
     id="namedview38"
     showgrid="false"
     inkscape:zoom="4.9166667"
     inkscape:cx="-0.61016949"
     inkscape:cy="23.59322"
     inkscape:window-x="0"
     inkscape:window-y="0"
     inkscape:window-maximized="1"
     inkscape:current-layer="svg36" />
  <rect
     fill="#c4c4c4"
     width="40"
     height="40"
     x="-44"
     y="-44"
     rx="2"
     ry="2"
     transform="matrix(0,-1,-1,0,0,0)"
     id="rect2" />
  <path
     fill="#fff"
     opacity=".2"
     d="m6 4c-1.108 0-2 0.892-2 2v1c0-1.108 0.892-2 2-2h36c1.108 0 2 0.892 2 2v-1c0-1.108-0.892-2-2-2h-36z"
     id="path4" />
  <g
     fill="#5d5d5d"
     id="g22">
    <rect
       width="18"
       height="10"
       x="5"
       y="32"
       rx="2"
       ry="2"
       id="rect6" />
    <rect
       width="18"
       height="10"
       x="25"
       y="32"
       rx="2"
       ry="2"
       id="rect8" />
    <rect
       width="6"
       height="1"
       x="37"
       y="10"
       id="rect10" />
    <rect
       width="6"
       height="1"
       x="37"
       y="13"
       id="rect12" />
    <rect
       width="6"
       height="1"
       x="37"
       y="16"
       id="rect14" />
    <rect
       width="6"
       height="1"
       x="37"
       y="19"
       id="rect16" />
    <rect
       width="6"
       height="1"
       x="37"
       y="22"
       id="rect18" />
    <rect
       width="6"
       height="1"
       x="37"
       y="25"
       id="rect20" />
  </g>
  <path
     opacity=".2"
     d="m4 42v1c0 1.108 0.892 2 2 2h36c1.108 0 2-0.892 2-2v-1c0 1.108-0.892 2-2 2h-36c-1.108 0-2-0.892-2-2z"
     id="path24" />
  <circle
     fill="#db3c30"
     cx="38"
     cy="37"
     r="10"
     id="circle26"
     style="fill:#da1302;fill-opacity:1" />
  <path
     opacity=".2"
     d="m47.979 37.414a10 10 0 0 1 -9.979 9.586 10 10 0 0 1 -9.979 -9.414 10 10 0 0 0 -0.021 0.414 10 10 0 0 0 10 10 10 10 0 0 0 10 -10 10 10 0 0 0 -0.021 -0.586z"
     id="path28" />
  <g
     fill="#fff"
     transform="matrix(.70711 -.70711 .70711 .70711 -11.497 35.846)"
     id="g34">
    <rect
       width="12"
       height="2"
       x="28"
       y="35"
       id="rect30" />
    <rect
       width="12"
       height="2"
       x="-42"
       y="33"
       transform="rotate(-90)"
       id="rect32" />
  </g>
</svg>
