/* XPM */
static char * stick_active_xpm[] = {
"32 34 48 1",
" 	c None",
".	c #000000",
"+	c #2F2F2F",
"@	c #666462",
"#	c #9A9695",
"$	c #B4AFAD",
"%	c #9A9693",
"&	c #464443",
"*	c #ADA8A7",
"=	c #6F6C6B",
"-	c #31302F",
";	c #313030",
">	c #444342",
",	c #A7A2A1",
"'	c #2B2B29",
")	c #2B2B2A",
"!	c #A7A3A2",
"~	c #2C2B2A",
"{	c #2C2C2B",
"]	c #706C6C",
"^	c #716E6D",
"/	c #666261",
"(	c #9C9696",
"_	c #323130",
":	c #333232",
"<	c #B3AFAD",
"[	c #B3AEAC",
"}	c #B2ADAB",
"|	c #9B9795",
"1	c #333231",
"2	c #343333",
"3	c #9A9694",
"4	c #666463",
"5	c #706D6C",
"6	c #726F6E",
"7	c #666362",
"8	c #ADA9A7",
"9	c #2E2E2D",
"0	c #2F2E2E",
"a	c #ADA8A5",
"b	c #464544",
"c	c #A8A3A3",
"d	c #454342",
"e	c #474645",
"f	c #353434",
"g	c #363534",
"h	c #73706F",
"i	c #676463",
"................................",
"++++++++++++++++++++++++++++++++",
"++++++++++++++++++++++++++++++++",
"++++++++++++++++++++++++++++++++",
"++++++++++++++++++++++++++++++++",
"++++++++++++++++++++++++++++++++",
"++++++++++++++++++++++++++++++++",
"++++++++++++++++++++++++++++++++",
"++++++++++++++++++++++++++++++++",
"++++++++++++++++++++++++++++++++",
"+++++++++++++@#$$%@+++++++++++++",
"+++++++++++&*=-++;=*>+++++++++++",
"++++++++++&,'++++++)!>++++++++++",
"++++++++++*~++++++++{*++++++++++",
"+++++++++@]++++++++++^/+++++++++",
"+++++++++(_++++++++++:%+++++++++",
"+++++++++<++++++++++++[+++++++++",
"+++++++++[++++++++++++}+++++++++",
"+++++++++|1++++++++++23+++++++++",
"+++++++++45++++++++++67+++++++++",
"++++++++++89++++++++0a++++++++++",
"++++++++++bc9++++++0cd++++++++++",
"+++++++++++e86f++gh8b+++++++++++",
"+++++++++++++i3<[3i+++++++++++++",
"++++++++++++++++++++++++++++++++",
"++++++++++++++++++++++++++++++++",
"++++++++++++++++++++++++++++++++",
"++++++++++++++++++++++++++++++++",
"++++++++++++++++++++++++++++++++",
"++++++++++++++++++++++++++++++++",
"++++++++++++++++++++++++++++++++",
"++++++++++++++++++++++++++++++++",
"++++++++++++++++++++++++++++++++",
"++++++++++++++++++++++++++++++++"};
