/* XPM */
static char * stick_toggled_prelight_xpm[] = {
"32 34 56 1",
" 	c None",
".	c #000000",
"+	c #434343",
"@	c #5D5B5A",
"#	c #918D8C",
"$	c #AAA5A3",
"%	c #A9A4A3",
"&	c #8F8A88",
"*	c #595857",
"=	c #403F3E",
"-	c #ACA7A5",
";	c #777472",
">	c #7D7878",
",	c #434140",
"'	c #A7A4A2",
")	c #AAA6A4",
"!	c #ADA8A7",
"~	c #686665",
"{	c #6F6C6B",
"]	c #676463",
"^	c #A7A2A1",
"/	c #666462",
"(	c #5C5A59",
"_	c #9D9A98",
":	c #686564",
"<	c #BBB6B4",
"[	c #928E8D",
"}	c #B6B1AF",
"|	c #A8A4A2",
"1	c #A7A3A1",
"2	c #B7B2B0",
"3	c #A8A3A2",
"4	c #A6A2A0",
"5	c #AEA9A7",
"6	c #A29E9C",
"7	c #666463",
"8	c #969291",
"9	c #716D6D",
"0	c #676563",
"a	c #6F6B6B",
"b	c #646261",
"c	c #ADA9A7",
"d	c #ACA7A6",
"e	c #535150",
"f	c #A19D9A",
"g	c #A5A09F",
"h	c #484746",
"i	c #545251",
"j	c #666362",
"k	c #6B6766",
"l	c #ADA8A5",
"m	c #4B4948",
"n	c #73706F",
"o	c #B7B3B1",
"p	c #A39F9D",
"q	c #6E6B6A",
"................................",
"++++++++++++++++++++++++++++++++",
"++++++++++++++++++++++++++++++++",
"++++++++++++++++++++++++++++++++",
"++++++++++++++++++++++++++++++++",
"++++++++++++++++++++++++++++++++",
"++++++++++++++++++++++++++++++++",
"++++++++++++++++++++++++++++++++",
"++++++++++++++++++++++++++++++++",
"++++++++++++++++++++++++++++++++",
"+++++++++++++@#$%&*+++++++++++++",
"+++++++++++=-;++++>%++++++++++++",
"++++++++++,'++++++++)+++++++++++",
"++++++++++!++++++++++%++++++++++",
"+++++++++~{+++]^^/+++;(+++++++++",
"+++++++++_+++:<<<</+++[+++++++++",
"+++++++++}+++|<<<<1+++-+++++++++",
"+++++++++2+++3<<<<4+++5+++++++++",
"+++++++++6+++:<<<<7+++8+++++++++",
"+++++++++97+++0117+++ab+++++++++",
"++++++++++c++++++++++d++++++++++",
"++++++++++ef++++++++gh++++++++++",
"+++++++++++icj++++klm+++++++++++",
"+++++++++++++ngoopq+++++++++++++",
"++++++++++++++++++++++++++++++++",
"++++++++++++++++++++++++++++++++",
"++++++++++++++++++++++++++++++++",
"++++++++++++++++++++++++++++++++",
"++++++++++++++++++++++++++++++++",
"++++++++++++++++++++++++++++++++",
"++++++++++++++++++++++++++++++++",
"++++++++++++++++++++++++++++++++",
"++++++++++++++++++++++++++++++++",
"++++++++++++++++++++++++++++++++"};
