/* XPM */
static char * stick_inactive_xpm[] = {
"32 34 28 1",
" 	c None",
".	c #000000",
"+	c #2F2F2F",
"@	c #444242",
"#	c #615E5D",
"$	c #6E6B6B",
"%	c #605E5D",
"&	c #323130",
"*	c #6B6867",
"=	c #484846",
"-	c #272726",
";	c #282727",
">	c #494747",
",	c #676564",
"'	c #242323",
")	c #686563",
"!	c #494847",
"~	c #615F5E",
"{	c #282626",
"]	c #6E6B6A",
"^	c #6D6A69",
"/	c #605D5C",
"(	c #434241",
"_	c #4A4847",
":	c #242424",
"<	c #6A6767",
"[	c #313030",
"}	c #282828",
"................................",
"++++++++++++++++++++++++++++++++",
"++++++++++++++++++++++++++++++++",
"++++++++++++++++++++++++++++++++",
"++++++++++++++++++++++++++++++++",
"++++++++++++++++++++++++++++++++",
"++++++++++++++++++++++++++++++++",
"++++++++++++++++++++++++++++++++",
"++++++++++++++++++++++++++++++++",
"++++++++++++++++++++++++++++++++",
"+++++++++++++@#$$%@+++++++++++++",
"+++++++++++&*=-++;>*&+++++++++++",
"++++++++++&,'++++++')&++++++++++",
"++++++++++*'++++++++'*++++++++++",
"+++++++++@=++++++++++!@+++++++++",
"+++++++++~-++++++++++{%+++++++++",
"+++++++++]++++++++++++]+++++++++",
"+++++++++]++++++++++++^+++++++++",
"+++++++++#-++++++++++{/+++++++++",
"+++++++++(>++++++++++_(+++++++++",
"++++++++++*'++++++++:<++++++++++",
"++++++++++&)'++++++:)[++++++++++",
"+++++++++++&*!{++}_*[+++++++++++",
"+++++++++++++@/]]/@+++++++++++++",
"++++++++++++++++++++++++++++++++",
"++++++++++++++++++++++++++++++++",
"++++++++++++++++++++++++++++++++",
"++++++++++++++++++++++++++++++++",
"++++++++++++++++++++++++++++++++",
"++++++++++++++++++++++++++++++++",
"++++++++++++++++++++++++++++++++",
"++++++++++++++++++++++++++++++++",
"++++++++++++++++++++++++++++++++",
"++++++++++++++++++++++++++++++++"};
