/* XPM */
static char * stick_toggled_active_xpm[] = {
"32 34 70 1",
" 	c None",
".	c #000000",
"+	c #2F2F2F",
"@	c #5D5B5A",
"#	c #918D8C",
"$	c #AAA5A3",
"%	c #A9A4A3",
"&	c #8F8A88",
"*	c #595857",
"=	c #403F3E",
"-	c #ACA7A5",
";	c #777472",
">	c #393838",
",	c #3D3B3B",
"'	c #7D7878",
")	c #383736",
"!	c #434140",
"~	c #A7A4A2",
"{	c #2F2E2E",
"]	c #363534",
"^	c #AAA6A4",
"/	c #393737",
"(	c #ADA8A7",
"_	c #2E2D2D",
":	c #353333",
"<	c #686665",
"[	c #6F6C6B",
"}	c #676463",
"|	c #A7A2A1",
"1	c #666462",
"2	c #5C5A59",
"3	c #9D9A98",
"4	c #2F2E2D",
"5	c #686564",
"6	c #BBB6B4",
"7	c #928E8D",
"8	c #B6B1AF",
"9	c #A8A4A2",
"0	c #A7A3A1",
"a	c #B7B2B0",
"b	c #A8A3A2",
"c	c #A6A2A0",
"d	c #AEA9A7",
"e	c #A29E9C",
"f	c #2A2929",
"g	c #666463",
"h	c #323130",
"i	c #969291",
"j	c #716D6D",
"k	c #676563",
"l	c #6F6B6B",
"m	c #646261",
"n	c #ADA9A7",
"o	c #262525",
"p	c #2C2B2A",
"q	c #ACA7A6",
"r	c #535150",
"s	c #A19D9A",
"t	c #A5A09F",
"u	c #484746",
"v	c #545251",
"w	c #666362",
"x	c #2D2C2B",
"y	c #6B6766",
"z	c #ADA8A5",
"A	c #4B4948",
"B	c #73706F",
"C	c #B7B3B1",
"D	c #A39F9D",
"E	c #6E6B6A",
"................................",
"++++++++++++++++++++++++++++++++",
"++++++++++++++++++++++++++++++++",
"++++++++++++++++++++++++++++++++",
"++++++++++++++++++++++++++++++++",
"++++++++++++++++++++++++++++++++",
"++++++++++++++++++++++++++++++++",
"++++++++++++++++++++++++++++++++",
"++++++++++++++++++++++++++++++++",
"++++++++++++++++++++++++++++++++",
"+++++++++++++@#$%&*+++++++++++++",
"+++++++++++=-;>++,'%)+++++++++++",
"++++++++++!~{++++++]^/++++++++++",
"++++++++++(_++++++++:%++++++++++",
"+++++++++<[+++}||1+++;2+++++++++",
"+++++++++34++566661++]7+++++++++",
"+++++++++8+++966660+++-+++++++++",
"+++++++++a+++b6666c+++d+++++++++",
"+++++++++ef++56666g++hi+++++++++",
"+++++++++jg+++k00g+++lm+++++++++",
"++++++++++no++++++++pq++++++++++",
"++++++++++rso++++++ftu++++++++++",
"+++++++++++vnwf++xyzA+++++++++++",
"+++++++++++++BtCCDE+++++++++++++",
"++++++++++++++++++++++++++++++++",
"++++++++++++++++++++++++++++++++",
"++++++++++++++++++++++++++++++++",
"++++++++++++++++++++++++++++++++",
"++++++++++++++++++++++++++++++++",
"++++++++++++++++++++++++++++++++",
"++++++++++++++++++++++++++++++++",
"++++++++++++++++++++++++++++++++",
"++++++++++++++++++++++++++++++++",
"++++++++++++++++++++++++++++++++"};
