/* XPM */
static char * stick_toggled_pressed_xpm[] = {
"32 34 52 1",
" 	c None",
".	c #000000",
"+	c #595959",
"@	c #5D5B5A",
"#	c #918D8C",
"$	c #AAA5A3",
"%	c #A9A4A3",
"&	c #8F8A88",
"*	c #595857",
"=	c #ACA7A5",
"-	c #777472",
";	c #7D7878",
">	c #A7A4A2",
",	c #AAA6A4",
"'	c #ADA8A7",
")	c #686665",
"!	c #6F6C6B",
"~	c #676463",
"{	c #A7A2A1",
"]	c #666462",
"^	c #5C5A59",
"/	c #9D9A98",
"(	c #686564",
"_	c #BBB6B4",
":	c #928E8D",
"<	c #B6B1AF",
"[	c #A8A4A2",
"}	c #A7A3A1",
"|	c #B7B2B0",
"1	c #A8A3A2",
"2	c #A6A2A0",
"3	c #AEA9A7",
"4	c #A29E9C",
"5	c #666463",
"6	c #969291",
"7	c #716D6D",
"8	c #676563",
"9	c #6F6B6B",
"0	c #646261",
"a	c #ADA9A7",
"b	c #ACA7A6",
"c	c #535150",
"d	c #A19D9A",
"e	c #A5A09F",
"f	c #545251",
"g	c #666362",
"h	c #6B6766",
"i	c #ADA8A5",
"j	c #73706F",
"k	c #B7B3B1",
"l	c #A39F9D",
"m	c #6E6B6A",
"................................",
"++++++++++++++++++++++++++++++++",
"++++++++++++++++++++++++++++++++",
"++++++++++++++++++++++++++++++++",
"++++++++++++++++++++++++++++++++",
"++++++++++++++++++++++++++++++++",
"++++++++++++++++++++++++++++++++",
"++++++++++++++++++++++++++++++++",
"++++++++++++++++++++++++++++++++",
"++++++++++++++++++++++++++++++++",
"+++++++++++++@#$%&*+++++++++++++",
"++++++++++++=-++++;%++++++++++++",
"+++++++++++>++++++++,+++++++++++",
"++++++++++'++++++++++%++++++++++",
"+++++++++)!+++~{{]+++-^+++++++++",
"+++++++++/+++(____]+++:+++++++++",
"+++++++++<+++[____}+++=+++++++++",
"+++++++++|+++1____2+++3+++++++++",
"+++++++++4+++(____5+++6+++++++++",
"+++++++++75+++8}}5+++90+++++++++",
"++++++++++a++++++++++b++++++++++",
"++++++++++cd++++++++e+++++++++++",
"+++++++++++fag++++hi++++++++++++",
"+++++++++++++jekklm+++++++++++++",
"++++++++++++++++++++++++++++++++",
"++++++++++++++++++++++++++++++++",
"++++++++++++++++++++++++++++++++",
"++++++++++++++++++++++++++++++++",
"++++++++++++++++++++++++++++++++",
"++++++++++++++++++++++++++++++++",
"++++++++++++++++++++++++++++++++",
"++++++++++++++++++++++++++++++++",
"++++++++++++++++++++++++++++++++",
"++++++++++++++++++++++++++++++++"};
