/* XPM */
static char * stick_toggled_inactive_xpm[] = {
"32 34 57 1",
" 	c None",
".	c #000000",
"+	c #2F2F2F",
"@	c #3F3E3D",
"#	c #5C5858",
"$	c #696665",
"%	c #686665",
"&	c #595757",
"*	c #3D3C3C",
"=	c #2F2F2E",
"-	c #6A6766",
";	c #4D4A4A",
">	c #2C2B2A",
",	c #2E2C2C",
"'	c #504E4D",
")	c #2B2A2A",
"!	c #313030",
"~	c #676564",
"{	c #262625",
"]	c #292928",
"^	c #6B6867",
"/	c #252424",
"(	c #282727",
"_	c #454343",
":	c #484747",
"<	c #444242",
"[	c #3E3C3C",
"}	c #62605E",
"|	c #252525",
"1	c #444342",
"2	c #726F6E",
"3	c #292828",
"4	c #5C5A59",
"5	c #6F6D6C",
"6	c #706D6C",
"7	c #686563",
"8	c #676563",
"9	c #646261",
"0	c #222121",
"a	c #434241",
"b	c #272626",
"c	c #5E5B5B",
"d	c #484846",
"e	c #474646",
"f	c #41403F",
"g	c #393737",
"h	c #656160",
"i	c #222222",
"j	c #666363",
"k	c #323131",
"l	c #212121",
"m	c #454443",
"n	c #6A6767",
"o	c #333232",
"p	c #4A4847",
"q	c #656261",
"r	c #484644",
"................................",
"++++++++++++++++++++++++++++++++",
"++++++++++++++++++++++++++++++++",
"++++++++++++++++++++++++++++++++",
"++++++++++++++++++++++++++++++++",
"++++++++++++++++++++++++++++++++",
"++++++++++++++++++++++++++++++++",
"++++++++++++++++++++++++++++++++",
"++++++++++++++++++++++++++++++++",
"++++++++++++++++++++++++++++++++",
"+++++++++++++@#$%&*+++++++++++++",
"+++++++++++=-;>++,'%)+++++++++++",
"++++++++++!~{++++++]$)++++++++++",
"++++++++++^/++++++++(%++++++++++",
"+++++++++_:+++<~~<+++;[+++++++++",
"+++++++++}|++12222<++34+++++++++",
"+++++++++5+++~2222~+++-+++++++++",
"+++++++++6+++722228+++^+++++++++",
"+++++++++90++<2222a++bc+++++++++",
"+++++++++da+++<~~a+++ef+++++++++",
"++++++++++^++++++++++-++++++++++",
"++++++++++gh+++++++ijk++++++++++",
"+++++++++++g^al+++mno+++++++++++",
"+++++++++++++pj66qr+++++++++++++",
"++++++++++++++++++++++++++++++++",
"++++++++++++++++++++++++++++++++",
"++++++++++++++++++++++++++++++++",
"++++++++++++++++++++++++++++++++",
"++++++++++++++++++++++++++++++++",
"++++++++++++++++++++++++++++++++",
"++++++++++++++++++++++++++++++++",
"++++++++++++++++++++++++++++++++",
"++++++++++++++++++++++++++++++++",
"++++++++++++++++++++++++++++++++"};
