<?xml version="1.0" encoding="UTF-8" standalone="no"?>
<svg
   xmlns:dc="http://purl.org/dc/elements/1.1/"
   xmlns:cc="http://creativecommons.org/ns#"
   xmlns:rdf="http://www.w3.org/1999/02/22-rdf-syntax-ns#"
   xmlns:svg="http://www.w3.org/2000/svg"
   xmlns="http://www.w3.org/2000/svg"
   xmlns:xlink="http://www.w3.org/1999/xlink"
   xmlns:sodipodi="http://sodipodi.sourceforge.net/DTD/sodipodi-0.dtd"
   xmlns:inkscape="http://www.inkscape.org/namespaces/inkscape"
   width="48"
   height="48"
   version="1.1"
   id="svg14"
   sodipodi:docname="application-x-krita.svg"
   inkscape:version="0.92.2 2405546, 2018-03-11">
  <metadata
     id="metadata20">
    <rdf:RDF>
      <cc:Work
         rdf:about="">
        <dc:format>image/svg+xml</dc:format>
        <dc:type
           rdf:resource="http://purl.org/dc/dcmitype/StillImage" />
        <dc:title></dc:title>
      </cc:Work>
    </rdf:RDF>
  </metadata>
  <defs
     id="defs18">
    <linearGradient
       inkscape:collect="always"
       id="linearGradient1036">
      <stop
         style="stop-color:#8a4cff;stop-opacity:1"
         offset="0"
         id="stop1032" />
      <stop
         style="stop-color:#1eaeff;stop-opacity:1"
         offset="1"
         id="stop1034" />
    </linearGradient>
    <linearGradient
       inkscape:collect="always"
       xlink:href="#linearGradient1036"
       id="linearGradient1038"
       x1="8"
       y1="7"
       x2="40.46981"
       y2="44.492615"
       gradientUnits="userSpaceOnUse" />
  </defs>
  <sodipodi:namedview
     pagecolor="#ffffff"
     bordercolor="#666666"
     borderopacity="1"
     objecttolerance="10"
     gridtolerance="10"
     guidetolerance="10"
     inkscape:pageopacity="0"
     inkscape:pageshadow="2"
     inkscape:window-width="1366"
     inkscape:window-height="690"
     id="namedview16"
     showgrid="false"
     inkscape:zoom="3.7064667"
     inkscape:cx="22.107227"
     inkscape:cy="20.478921"
     inkscape:window-x="0"
     inkscape:window-y="0"
     inkscape:window-maximized="1"
     inkscape:current-layer="svg14" />
  <path
     style="opacity:0.2"
     d="M 10,5 C 8.892,5 8,5.892 8,7 V 43 C 8,44.108 8.892,45 10,45 H 38 C 39.108,45 40,44.108 40,43 V 17 L 28,5 Z"
     id="path2" />
  <path
     style="fill:url(#linearGradient1038);fill-opacity:1"
     d="M 10,4 C 8.892,4 8,4.892 8,6 V 42 C 8,43.108 8.892,44 10,44 H 38 C 39.108,44 40,43.108 40,42 V 16 L 28,4 Z"
     id="path4" />
  <path
     style="opacity:0.2"
     d="M 40,17 28,5 V 15 C 28,16.108 28.892,17 30,17 Z"
     id="path6" />
  <path
     style="fill:#2ca1ff;fill-opacity:1"
     d="M 40,16 28,4 V 14 C 28,15.108 28.892,16 30,16 Z"
     id="path8" />
  <path
     style="opacity:0.2;fill:#ffffff"
     d="M 10 4 C 8.892 4 8 4.892 8 6 L 8 7 C 8 5.892 8.892 5 10 5 L 28 5 L 28 4 L 10 4 z"
     id="path10" />
  <path
     inkscape:connector-curvature="0"
     style="fill:#ffffff;stroke-width:1.33333325"
     d="m 17.015901,16.295784 c -1.057292,0 -2.661459,2.088541 -1.822917,2.833333 l 4.364583,3.90625 c 0.166667,-0.333333 0.380208,-0.671876 0.671875,-0.989584 0.322916,-0.348958 0.630208,-0.572917 0.916667,-0.765625 l -3.291667,-4.359375 c -0.34375,-0.369791 -0.401041,-0.624999 -0.838541,-0.624999 z m 8.041666,4.963541 c -0.229166,0 -0.46875,0.0052 -0.697917,0.01563 -0.953124,0.0052 -1.947916,0.166666 -2.833333,0.489582 -0.630208,0.515626 -1.067708,1.078126 -1.484375,1.75521 -0.838541,2.307292 0.156251,6.192708 3.8125,7.098958 4.145833,1.015623 4.369792,-0.08333 6.145833,1.130207 1.78125,1.213541 0.78125,3.052083 1.630208,2.541667 0.432292,-0.255208 1.8125,-2.19271 1.296874,-5.343751 -0.552082,-3.380208 -2,-5.177083 -3.453123,-6.406249 -1.13021,-0.958334 -2.802084,-1.281251 -4.416667,-1.281251 z m 0,0"
     id="path8-3" />
</svg>
