<?xml version="1.0" encoding="UTF-8" standalone="no"?>
<svg
   xmlns:dc="http://purl.org/dc/elements/1.1/"
   xmlns:cc="http://creativecommons.org/ns#"
   xmlns:rdf="http://www.w3.org/1999/02/22-rdf-syntax-ns#"
   xmlns:svg="http://www.w3.org/2000/svg"
   xmlns="http://www.w3.org/2000/svg"
   xmlns:sodipodi="http://sodipodi.sourceforge.net/DTD/sodipodi-0.dtd"
   xmlns:inkscape="http://www.inkscape.org/namespaces/inkscape"
   width="48"
   height="48"
   version="1"
   id="svg24"
   sodipodi:docname="application-mathematica.svg"
   inkscape:version="0.92.2 2405546, 2018-03-11">
  <metadata
     id="metadata28">
    <rdf:RDF>
      <cc:Work
         rdf:about="">
        <dc:format>image/svg+xml</dc:format>
        <dc:type
           rdf:resource="http://purl.org/dc/dcmitype/StillImage" />
        <dc:title></dc:title>
      </cc:Work>
    </rdf:RDF>
  </metadata>
  <sodipodi:namedview
     pagecolor="#ffffff"
     bordercolor="#666666"
     borderopacity="1"
     objecttolerance="10"
     gridtolerance="10"
     guidetolerance="10"
     inkscape:pageopacity="0"
     inkscape:pageshadow="2"
     inkscape:window-width="1366"
     inkscape:window-height="690"
     id="namedview26"
     showgrid="false"
     inkscape:zoom="4.9166667"
     inkscape:cx="-0.61016949"
     inkscape:cy="24"
     inkscape:window-x="0"
     inkscape:window-y="0"
     inkscape:window-maximized="1"
     inkscape:current-layer="svg24" />
  <defs
     id="defs8">
    <clipPath
       id="clipPath4266-4"
       clipPathUnits="userSpaceOnUse">
      <path
         fill="#fff"
         d="m146 240c-1.108 0-2 0.892-2 2v36c0 1.108 0.892 2 2 2h28c1.108 0 2-0.892 2-2v-26l-12-12h-18z"
         id="path2" />
    </clipPath>
    <filter
       id="filter4987"
       width="1.26"
       height="1.223"
       x="-.13"
       y="-.11">
      <feGaussianBlur
         stdDeviation=".65"
         id="feGaussianBlur5" />
    </filter>
  </defs>
  <path
     style="opacity:0.2"
     d="M 10,5 C 8.892,5 8,5.892 8,7 v 36 c 0,1.108 0.892,2 2,2 h 28 c 1.108,0 2,-0.892 2,-2 V 17 L 29,16 28,5 Z"
     id="path10" />
  <path
     opacity=".1"
     d="m163.22 242.45v11c0 1.1046 0.89543 2 2 2h10l-1-1-10-9z"
     clip-path="url(#clipPath4266-4)"
     filter="url(#filter4987)"
     transform="translate(-135.61 -237.72)"
     id="path12" />
  <path
     fill="#e4e4e4"
     d="m10 4c-1.108 0-2 0.892-2 2v36c0 1.108 0.892 2 2 2h28c1.108 0 2-0.892 2-2v-26l-11-1-1-11z"
     id="path14"
     style="fill:#d41919;fill-opacity:1" />
  <path
     fill="#fff"
     opacity=".2"
     d="m10 4c-1.108 0-2 0.892-2 2v1c0-1.108 0.892-2 2-2h18l11 11h1l-12-12z"
     id="path16" />
  <path
     style="opacity:0.2"
     d="m 28,5 v 10 c 0,1.1046 0.89543,2 2,2 h 10 z"
     id="path18" />
  <path
     fill="#fafafa"
     d="m28 4v10c0 1.1046 0.89543 2 2 2h10l-12-12z"
     id="path20"
     style="fill:#e83d3d;fill-opacity:1" />
  <g
     transform="matrix(1.3333333,0,0,1.3333333,2.1358308e-6,-3.3996447)"
     id="g897">
    <path
       inkscape:connector-curvature="0"
       id="path21"
       transform="matrix(0.75,0,0,0.75,0.0236742,-1.064603)"
       d="m 26.155934,24.893429 -1.921875,-3.541666 -2.140625,3.494791 1.921875,2.833334"
       style="fill:#ffffff;stroke:#d41919;stroke-width:0.40000001;stroke-linecap:square;stroke-linejoin:round" />
    <path
       inkscape:connector-curvature="0"
       id="path23"
       transform="matrix(0.75,0,0,0.75,0.0236742,-1.064603)"
       d="m 26.155934,24.898638 -2.140625,2.786458 3.666667,-1.546875 2.359375,-2.786458 z m 0,0"
       style="fill:#ffffff;stroke:#d41919;stroke-width:0.40000001;stroke-linecap:square;stroke-linejoin:round" />
    <path
       inkscape:connector-curvature="0"
       id="path25"
       transform="matrix(0.75,0,0,0.75,0.0236742,-1.064603)"
       d="m 27.687184,26.138221 -0.04687,4.15625 2.052084,-2.78125 0.348958,-4.161458 z m 0,0"
       style="fill:#ffffff;stroke:#d41919;stroke-width:0.40000001;stroke-linecap:square;stroke-linejoin:round" />
    <path
       inkscape:connector-curvature="0"
       id="path27"
       transform="matrix(0.75,0,0,0.75,0.0236742,-1.064603)"
       d="m 27.640309,30.289263 3.1875,1.192708 2.708334,-3.229167 -3.84375,-0.75 z m 0,0"
       style="fill:#ffffff;stroke:#d41919;stroke-width:0.40000001;stroke-linecap:square;stroke-linejoin:round" />
    <path
       inkscape:connector-curvature="0"
       id="path29"
       transform="matrix(0.75,0,0,0.75,0.0236742,-1.064603)"
       d="m 30.822601,31.492388 -3.1875,-1.192709 2.317708,3.052084 3.666667,1.5 -2.796875,-3.359375"
       style="fill:#ffffff;fill-rule:evenodd;stroke:#d41919;stroke-width:0.40000001" />
    <path
       inkscape:connector-curvature="0"
       id="path31"
       transform="matrix(0.75,0,0,0.75,0.0236742,-1.064603)"
       d="m 29.958018,33.341346 -3.671875,1.020833 3.364583,0.96875 3.973958,-0.489583 -3.677083,-1.5 m 0,0.0052"
       style="fill:#ffffff;stroke:#d41919;stroke-width:0.40000001;stroke-linecap:square;stroke-linejoin:round" />
    <path
       inkscape:connector-curvature="0"
       id="path33"
       transform="matrix(0.75,0,0,0.75,0.0236742,-1.064603)"
       d="m 29.650726,35.330929 -3.364583,-0.973958 -0.21875,3.229167 3.671875,1.994791 -0.08854,-4.25"
       style="fill:#ffffff;fill-rule:evenodd;stroke:#d41919;stroke-width:0.40000001;stroke-linecap:square;stroke-linejoin:round" />
    <path
       inkscape:connector-curvature="0"
       id="path35"
       transform="matrix(0.75,0,0,0.75,0.0236742,-1.064603)"
       d="m 24.056976,37.638221 -0.05208,3.848958 2.057291,-3.890625 0.21875,-3.229166 m -2.229166,3.270833"
       style="fill:#ffffff;stroke:#d41919;stroke-width:0.40000001;stroke-linecap:square;stroke-linejoin:round" />
    <path
       inkscape:connector-curvature="0"
       id="path37"
       transform="matrix(0.75,0,0,0.75,0.0236742,-1.064603)"
       d="m 22.088226,24.851763 -3.84375,-1.640625 2.229167,3.010416 3.536458,1.458334 z m 0,0"
       style="fill:#ffffff;stroke:#d41919;stroke-width:0.40000001;stroke-linecap:square;stroke-linejoin:round" />
    <path
       inkscape:connector-curvature="0"
       id="path39"
       transform="matrix(0.75,0,0,0.75,0.0236742,-1.064603)"
       d="m 20.473643,26.221554 -2.229167,-3.005208 0.4375,4.333333 1.921875,2.479167 m -0.130208,-3.807292"
       style="fill:#ffffff;stroke:#d41919;stroke-width:0.40000001;stroke-linecap:square;stroke-linejoin:round" />
    <path
       inkscape:connector-curvature="0"
       id="path41"
       transform="matrix(0.75,0,0,0.75,0.0236742,-1.064603)"
       d="m 18.681976,27.549679 -3.890625,0.708334 2.84375,2.963541 2.96875,-1.197916 z m 0,0"
       style="fill:#ffffff;stroke:#d41919;stroke-width:0.40000001;stroke-linecap:square;stroke-linejoin:round" />
    <path
       inkscape:connector-curvature="0"
       id="path43"
       transform="matrix(0.75,0,0,0.75,0.0236742,-1.064603)"
       d="m 17.635101,31.221554 -3.322917,3.1875 3.84375,-1.234375 2.447917,-3.145833 -2.973958,1.192708 m 0,0"
       style="fill:#ffffff;stroke:#d41919;stroke-width:0.40000001;stroke-linecap:square;stroke-linejoin:round" />
    <path
       inkscape:connector-curvature="0"
       id="path45"
       transform="matrix(0.75,0,0,0.75,0.0236742,-1.064603)"
       d="m 18.161143,33.169471 -3.848959,1.239583 4.416667,0.708334 3.1875,-0.666667 m -3.755208,-1.28125"
       style="fill:#ffffff;stroke:#d41919;stroke-width:0.40000001;stroke-linecap:square;stroke-linejoin:round" />
    <path
       inkscape:connector-curvature="0"
       id="path47"
       transform="matrix(0.75,0,0,0.75,0.0236742,-1.064603)"
       d="m 21.916351,34.450721 -3.1875,0.661458 -0.697917,4.515625 3.932292,-2.083333 m -0.04687,-3.09375"
       style="fill:#ffffff;stroke:#d41919;stroke-width:0.40000001;stroke-linecap:square;stroke-linejoin:round" />
    <path
       inkscape:connector-curvature="0"
       id="path49"
       transform="matrix(0.75,0,0,0.75,0.0236742,-1.064603)"
       d="m 21.916351,34.450721 0.04687,3.09375 2.052083,3.9375 0.04167,-3.848958 -2.140625,-3.1875"
       style="fill:#ffffff;fill-rule:evenodd;stroke:#d41919;stroke-width:0.40000001;stroke-linecap:square;stroke-linejoin:round" />
    <path
       inkscape:connector-curvature="0"
       id="path51"
       transform="matrix(0.75,0,0,0.75,0.0236742,-1.064603)"
       d="m 24.056976,31.440304 3.578125,-1.151041 0.04687,-4.15625 -3.666667,1.546875 m 0.04167,3.760416"
       style="fill:#ffffff;stroke:#d41919;stroke-width:0.40000001;stroke-linecap:square;stroke-linejoin:round" />
    <path
       inkscape:connector-curvature="0"
       id="path53"
       transform="matrix(0.75,0,0,0.75,0.0236742,-1.064603)"
       d="m 27.640309,30.289263 -3.583333,1.151041 2.229167,2.916667 3.666666,-1.015625 z m 0,0"
       style="fill:#ffffff;stroke:#d41919;stroke-width:0.40000001;stroke-linecap:square;stroke-linejoin:round" />
    <path
       inkscape:connector-curvature="0"
       id="path55"
       transform="matrix(0.75,0,0,0.75,0.0236742,-1.064603)"
       d="m 24.062184,31.445513 -2.145833,3.005208 2.145833,3.1875 2.223959,-3.270833 -2.223959,-2.916667"
       style="fill:#ffffff;fill-rule:evenodd;stroke:#d41919;stroke-width:0.40000001" />
    <path
       inkscape:connector-curvature="0"
       id="path57"
       transform="matrix(0.75,0,0,0.75,0.0236742,-1.064603)"
       d="m 24.056976,31.440304 -2.140625,3.005209 2.140625,3.192708 2.223958,-3.270833 -2.223958,-2.921875 m 0,-0.0052"
       style="fill:#ffffff;stroke:#d41919;stroke-width:0.40000001;stroke-linecap:square;stroke-linejoin:round" />
    <path
       inkscape:connector-curvature="0"
       id="path59"
       transform="matrix(0.75,0,0,0.75,0.0236742,-1.064603)"
       d="m 18.161143,33.164263 3.755208,1.28125 2.140625,-3.005209 -3.453125,-1.416666 -2.442708,3.140625"
       style="fill:#ffffff;fill-rule:evenodd;stroke:#d41919;stroke-width:0.40000001" />
    <path
       inkscape:connector-curvature="0"
       id="path61"
       transform="matrix(0.75,0,0,0.75,0.0236742,-1.064603)"
       d="m 24.062184,31.445513 -0.04687,-3.765625 -3.541666,-1.463542 0.135416,3.807292 3.453125,1.416666"
       style="fill:#ffffff;fill-rule:evenodd;stroke:#d41919;stroke-width:0.40000001" />
  </g>
</svg>
