<?xml version="1.0" encoding="UTF-8" standalone="no"?>
<svg
   xmlns:dc="http://purl.org/dc/elements/1.1/"
   xmlns:cc="http://creativecommons.org/ns#"
   xmlns:rdf="http://www.w3.org/1999/02/22-rdf-syntax-ns#"
   xmlns:svg="http://www.w3.org/2000/svg"
   xmlns="http://www.w3.org/2000/svg"
   xmlns:sodipodi="http://sodipodi.sourceforge.net/DTD/sodipodi-0.dtd"
   xmlns:inkscape="http://www.inkscape.org/namespaces/inkscape"
   width="48"
   height="48"
   version="1.1"
   id="svg14"
   sodipodi:docname="application-script-blank.svg"
   inkscape:version="0.92.2 2405546, 2018-03-11">
  <metadata
     id="metadata20">
    <rdf:RDF>
      <cc:Work
         rdf:about="">
        <dc:format>image/svg+xml</dc:format>
        <dc:type
           rdf:resource="http://purl.org/dc/dcmitype/StillImage" />
        <dc:title></dc:title>
      </cc:Work>
    </rdf:RDF>
  </metadata>
  <defs
     id="defs18" />
  <sodipodi:namedview
     pagecolor="#ffffff"
     bordercolor="#666666"
     borderopacity="1"
     objecttolerance="10"
     gridtolerance="10"
     guidetolerance="10"
     inkscape:pageopacity="0"
     inkscape:pageshadow="2"
     inkscape:window-width="1366"
     inkscape:window-height="690"
     id="namedview16"
     showgrid="false"
     inkscape:zoom="3.7064667"
     inkscape:cx="22.107227"
     inkscape:cy="20.478921"
     inkscape:window-x="0"
     inkscape:window-y="0"
     inkscape:window-maximized="1"
     inkscape:current-layer="svg14" />
  <path
     style="opacity:0.2"
     d="M 10,5 C 8.892,5 8,5.892 8,7 V 43 C 8,44.108 8.892,45 10,45 H 38 C 39.108,45 40,44.108 40,43 V 17 L 28,5 Z"
     id="path2" />
  <path
     style="fill:#e4e4e4"
     d="M 10,4 C 8.892,4 8,4.892 8,6 V 42 C 8,43.108 8.892,44 10,44 H 38 C 39.108,44 40,43.108 40,42 V 16 L 28,4 Z"
     id="path4" />
  <path
     style="opacity:0.2"
     d="M 40,17 28,5 V 15 C 28,16.108 28.892,17 30,17 Z"
     id="path6" />
  <path
     style="fill:#fafafa"
     d="M 40,16 28,4 V 14 C 28,15.108 28.892,16 30,16 Z"
     id="path8" />
  <path
     style="opacity:0.2;fill:#ffffff"
     d="M 10 4 C 8.892 4 8 4.892 8 6 L 8 7 C 8 5.892 8.892 5 10 5 L 28 5 L 28 4 L 10 4 z"
     id="path10" />
  <path
     inkscape:connector-curvature="0"
     style="fill:#000000;fill-opacity:0.50196078;fill-rule:evenodd"
     d="m 19.03224,18.199671 c -0.03188,-0.0015 -0.06382,-0.0015 -0.0957,0 -0.08997,0.0064 -0.178662,0.02486 -0.26367,0.055 0,0 -0.62631,0.2063 -1.3516,0.5879 -0.72525,0.3816 -1.6068,0.9164 -2.1738,1.834 -0.63117,1.0212 -0.3916,2.1138 -0.19531,2.7676 0.19629,0.6538 0.30435,0.9392 0.12305,1.3769 -0.08854,0.2138 -0.631,0.6817 -1.2246,0.9727 -0.59361,0.2909 -1.1328,0.4433 -1.1328,0.4433 -0.538441,0.139471 -0.859636,0.691466 -0.71484,1.2285 -0.127532,0.528097 0.189852,1.061421 0.71484,1.2012 0,0 0.53921,0.1524 1.1328,0.4433 0.59361,0.291 1.1361,0.7589 1.2246,0.9727 0.1813,0.4377 0.07324,0.7231 -0.12305,1.3769 -0.19629,0.6538 -0.43585,1.7464 0.19531,2.7676 0.56708,0.9176 1.4486,1.4524 2.1738,1.834 0.72525,0.3816 1.3516,0.5879 1.3516,0.5879 1.303898,0.500455 1.973477,-1.518682 0.62891,-1.8965 0,0 -0.47588,-0.1595 -1.0488,-0.4609 -0.57295,-0.3015 -1.1857,-0.7667 -1.4023,-1.1172 -0.24505,-0.3965 -0.16464,-0.5337 0.01758,-1.1406 0.18222,-0.607 0.51118,-1.6147 0.05469,-2.7168 -0.40428,-0.9761 -1.2111,-1.4927 -1.9336,-1.8653 0.72247,-0.3725 1.5293,-0.8892 1.9336,-1.8652 0.4565,-1.1021 0.12754,-2.1099 -0.05469,-2.7168 -0.18222,-0.6069 -0.26263,-0.7441 -0.01758,-1.1406 0.21664,-0.3506 0.8294,-0.8158 1.4023,-1.1172 0.57295,-0.3014 1.0488,-0.461 1.0488,-0.461 1.072497,-0.339315 0.854782,-1.916947 -0.26953,-1.9531 z m 9.9316,0 c -1.122391,0.04006 -1.336547,1.61475 -0.26562,1.9531 0,0 0.47588,0.1596 1.0488,0.461 0.57295,0.3014 1.1857,0.7666 1.4023,1.1172 0.24505,0.3965 0.16464,0.5337 -0.01758,1.1406 -0.18222,0.6069 -0.51119,1.6147 -0.05469,2.7168 0.40428,0.976 1.2111,1.4927 1.9336,1.8652 -0.72247,0.3726 -1.5293,0.8892 -1.9336,1.8653 -0.4565,1.1021 -0.12753,2.1098 0.05469,2.7168 0.18222,0.6069 0.26263,0.7441 0.01758,1.1406 -0.21664,0.3505 -0.8294,0.8157 -1.4023,1.1172 -0.57295,0.3014 -1.0488,0.4609 -1.0488,0.4609 -1.344567,0.377818 -0.674988,2.396955 0.62891,1.8965 0,0 0.62631,-0.2063 1.3516,-0.5879 0.72525,-0.3816 1.6068,-0.9164 2.1738,-1.834 0.63117,-1.0212 0.3916,-2.1138 0.19531,-2.7676 -0.19629,-0.6538 -0.30435,-0.9392 -0.12305,-1.3769 0.08854,-0.2138 0.631,-0.6817 1.2246,-0.9727 0.5936,-0.2909 1.1328,-0.4433 1.1328,-0.4433 0.524988,-0.139779 0.842372,-0.673103 0.71484,-1.2012 0.144796,-0.537034 -0.176399,-1.089029 -0.71484,-1.2285 0,0 -0.53921,-0.1524 -1.1328,-0.4434 -0.59361,-0.2909 -1.1361,-0.7589 -1.2246,-0.9726 -0.1813,-0.4377 -0.07324,-0.7232 0.12305,-1.377 0.19629,-0.6538 0.43585,-1.7463 -0.19531,-2.7676 -0.56708,-0.9175 -1.4486,-1.4524 -2.1738,-1.8339 -0.72525,-0.3816 -1.3516,-0.5879 -1.3516,-0.5879 -0.08501,-0.03014 -0.173702,-0.04864 -0.26367,-0.055 -0.03188,-0.0015 -0.06382,-0.0015 -0.0957,0 -0.0013,-3e-6 -0.0026,-3e-6 -0.0039,0 z"
     id="path14"
     sodipodi:nodetypes="cccccscccccccsccccccccccccccccccccsccccccccccscccccccsccccccc" />
</svg>
