<?xml version="1.0" encoding="UTF-8" standalone="no"?>
<svg
   xmlns:dc="http://purl.org/dc/elements/1.1/"
   xmlns:cc="http://creativecommons.org/ns#"
   xmlns:rdf="http://www.w3.org/1999/02/22-rdf-syntax-ns#"
   xmlns:svg="http://www.w3.org/2000/svg"
   xmlns="http://www.w3.org/2000/svg"
   xmlns:sodipodi="http://sodipodi.sourceforge.net/DTD/sodipodi-0.dtd"
   xmlns:inkscape="http://www.inkscape.org/namespaces/inkscape"
   width="48"
   height="48"
   version="1.1"
   id="svg14"
   sodipodi:docname="application-x-scribus.svg"
   inkscape:version="0.92.2 2405546, 2018-03-11">
  <metadata
     id="metadata20">
    <rdf:RDF>
      <cc:Work
         rdf:about="">
        <dc:format>image/svg+xml</dc:format>
        <dc:type
           rdf:resource="http://purl.org/dc/dcmitype/StillImage" />
        <dc:title></dc:title>
      </cc:Work>
    </rdf:RDF>
  </metadata>
  <defs
     id="defs18" />
  <sodipodi:namedview
     pagecolor="#ffffff"
     bordercolor="#666666"
     borderopacity="1"
     objecttolerance="10"
     gridtolerance="10"
     guidetolerance="10"
     inkscape:pageopacity="0"
     inkscape:pageshadow="2"
     inkscape:window-width="1366"
     inkscape:window-height="690"
     id="namedview16"
     showgrid="false"
     inkscape:zoom="3.7064667"
     inkscape:cx="22.107227"
     inkscape:cy="20.478921"
     inkscape:window-x="0"
     inkscape:window-y="0"
     inkscape:window-maximized="1"
     inkscape:current-layer="svg14" />
  <path
     style="opacity:0.2"
     d="M 10,5 C 8.892,5 8,5.892 8,7 V 43 C 8,44.108 8.892,45 10,45 H 38 C 39.108,45 40,44.108 40,43 V 17 L 28,5 Z"
     id="path2" />
  <path
     style="fill:#d30000;fill-opacity:1"
     d="M 10,4 C 8.892,4 8,4.892 8,6 V 42 C 8,43.108 8.892,44 10,44 H 38 C 39.108,44 40,43.108 40,42 V 16 L 28,4 Z"
     id="path4" />
  <path
     style="opacity:0.2"
     d="M 40,17 28,5 V 15 C 28,16.108 28.892,17 30,17 Z"
     id="path6" />
  <path
     style="fill:#ff1717;fill-opacity:1"
     d="M 40,16 28,4 V 14 C 28,15.108 28.892,16 30,16 Z"
     id="path8" />
  <path
     style="opacity:0.2;fill:#ffffff"
     d="M 10 4 C 8.892 4 8 4.892 8 6 L 8 7 C 8 5.892 8.892 5 10 5 L 28 5 L 28 4 L 10 4 z"
     id="path10" />
  <path
     inkscape:connector-curvature="0"
     style="fill:#f3ffff;fill-rule:evenodd;stroke-width:1.33333325"
     d="m 28.088416,17.512207 c -0.552083,-0.06249 -0.994792,-0.06249 -1.401041,0.01563 -0.40625,0.07812 -0.78125,0.270834 -1.005208,0.515626 -0.223959,0.244792 -0.296876,0.484374 -0.328126,0.598957 -0.791666,1.546876 -1.71875,3.083333 -2.572916,4.401043 -1.052084,1.55729 -2.28125,3.374999 -2.921876,4.838541 -0.390625,0.890625 -0.807292,1.968749 -1.223958,3.093749 -0.859375,2.354168 -1.630208,4.708333 -2.385416,7.072917 1.223958,0.08333 1.223958,0.07812 2.171874,0.08333 0.697918,-1.281251 1.854167,-2.494792 2.81771,-3.385416 1.677082,-1.526043 4.088541,-3.088543 6.395832,-3.437501 l 0.776042,-0.114591 c 0.04167,-2.411459 0.260416,-5.020834 1.453126,-7.135417 0.489582,-0.880208 1.171874,-1.578124 1.802082,-2.375 0.161459,-0.130214 0.03645,-0.286458 0.05208,-0.427083 -0.473957,-2.343749 -2.067708,-3.505208 -3.583333,-3.739584 -0.01563,0 -0.03125,-0.0052 -0.04688,-0.0052 z m 0,0"
     id="path21" />
</svg>
