<?xml version="1.0" encoding="UTF-8" standalone="no"?>
<svg
   xmlns:dc="http://purl.org/dc/elements/1.1/"
   xmlns:cc="http://creativecommons.org/ns#"
   xmlns:rdf="http://www.w3.org/1999/02/22-rdf-syntax-ns#"
   xmlns:svg="http://www.w3.org/2000/svg"
   xmlns="http://www.w3.org/2000/svg"
   xmlns:sodipodi="http://sodipodi.sourceforge.net/DTD/sodipodi-0.dtd"
   xmlns:inkscape="http://www.inkscape.org/namespaces/inkscape"
   width="48"
   height="48"
   version="1"
   id="svg24"
   sodipodi:docname="application-rss.svg"
   inkscape:version="0.92.2 2405546, 2018-03-11">
  <metadata
     id="metadata28">
    <rdf:RDF>
      <cc:Work
         rdf:about="">
        <dc:format>image/svg+xml</dc:format>
        <dc:type
           rdf:resource="http://purl.org/dc/dcmitype/StillImage" />
        <dc:title></dc:title>
      </cc:Work>
    </rdf:RDF>
  </metadata>
  <sodipodi:namedview
     pagecolor="#ffffff"
     bordercolor="#666666"
     borderopacity="1"
     objecttolerance="10"
     gridtolerance="10"
     guidetolerance="10"
     inkscape:pageopacity="0"
     inkscape:pageshadow="2"
     inkscape:window-width="1366"
     inkscape:window-height="690"
     id="namedview26"
     showgrid="false"
     inkscape:zoom="4.9166667"
     inkscape:cx="5.7966102"
     inkscape:cy="24"
     inkscape:window-x="0"
     inkscape:window-y="0"
     inkscape:window-maximized="1"
     inkscape:current-layer="svg24" />
  <defs
     id="defs8">
    <clipPath
       id="clipPath4266-4"
       clipPathUnits="userSpaceOnUse">
      <path
         fill="#fff"
         d="m146 240c-1.108 0-2 0.892-2 2v36c0 1.108 0.892 2 2 2h28c1.108 0 2-0.892 2-2v-26l-12-12h-18z"
         id="path2" />
    </clipPath>
    <filter
       id="filter4987"
       width="1.26"
       height="1.223"
       x="-.13"
       y="-.11">
      <feGaussianBlur
         stdDeviation=".65"
         id="feGaussianBlur5" />
    </filter>
  </defs>
  <path
     style="opacity:0.2"
     d="M 10,5 C 8.892,5 8,5.892 8,7 v 36 c 0,1.108 0.892,2 2,2 h 28 c 1.108,0 2,-0.892 2,-2 V 17 L 29,16 28,5 Z"
     id="path10" />
  <path
     opacity=".1"
     d="m163.22 242.45v11c0 1.1046 0.89543 2 2 2h10l-1-1-10-9z"
     clip-path="url(#clipPath4266-4)"
     filter="url(#filter4987)"
     transform="translate(-135.61 -237.72)"
     id="path12" />
  <path
     fill="#e4e4e4"
     d="m10 4c-1.108 0-2 0.892-2 2v36c0 1.108 0.892 2 2 2h28c1.108 0 2-0.892 2-2v-26l-11-1-1-11z"
     id="path14"
     style="fill:#ff6304;fill-opacity:1" />
  <path
     fill="#fff"
     opacity=".2"
     d="m10 4c-1.108 0-2 0.892-2 2v1c0-1.108 0.892-2 2-2h18l11 11h1l-12-12z"
     id="path16" />
  <path
     style="opacity:0.2"
     d="m 28,5 v 10 c 0,1.1046 0.89543,2 2,2 h 10 z"
     id="path18" />
  <path
     fill="#fafafa"
     d="m28 4v10c0 1.1046 0.89543 2 2 2h10l-12-12z"
     id="path20"
     style="fill:#ff853b;fill-opacity:1" />
  <path
     inkscape:connector-curvature="0"
     style="fill:#ffffff;stroke-width:1.33333325"
     d="m 15.416679,30.783853 c 0,-0.536458 0.18229,-0.984376 0.552082,-1.34375 0.369791,-0.369791 0.817709,-0.557292 1.354167,-0.557292 0.520832,0 0.958333,0.187501 1.322916,0.557292 0.369792,0.359374 0.552084,0.807292 0.552084,1.34375 0,0.520834 -0.182292,0.963542 -0.552084,1.333334 -0.364583,0.364582 -0.802084,0.546874 -1.322916,0.546874 -0.536458,0 -0.984376,-0.182292 -1.354167,-0.546874 -0.369791,-0.359376 -0.552082,-0.807292 -0.552082,-1.333334 m -0.114587,-8.572916 v 3.15625 c 4.036457,0 7.317708,3.286458 7.317708,7.328125 h 3.166667 c 0,-5.791667 -4.703126,-10.484375 -10.479166,-10.484375 z m 0.0104,-6.90625 v 3.489583 c 7.661457,0 13.880207,6.223958 13.880207,13.895833 h 3.505209 c 0,-9.604167 -7.796876,-17.385416 -17.390625,-17.385416 z m 0,0"
     id="path11" />
</svg>
