<?xml version="1.0" encoding="UTF-8" standalone="no"?>
<svg
   xmlns:dc="http://purl.org/dc/elements/1.1/"
   xmlns:cc="http://creativecommons.org/ns#"
   xmlns:rdf="http://www.w3.org/1999/02/22-rdf-syntax-ns#"
   xmlns:svg="http://www.w3.org/2000/svg"
   xmlns="http://www.w3.org/2000/svg"
   xmlns:sodipodi="http://sodipodi.sourceforge.net/DTD/sodipodi-0.dtd"
   xmlns:inkscape="http://www.inkscape.org/namespaces/inkscape"
   width="48"
   height="48"
   version="1"
   id="svg24"
   sodipodi:docname="application-certificate.svg"
   inkscape:version="0.92.2 2405546, 2018-03-11">
  <metadata
     id="metadata28">
    <rdf:RDF>
      <cc:Work
         rdf:about="">
        <dc:format>image/svg+xml</dc:format>
        <dc:type
           rdf:resource="http://purl.org/dc/dcmitype/StillImage" />
        <dc:title></dc:title>
      </cc:Work>
    </rdf:RDF>
  </metadata>
  <sodipodi:namedview
     pagecolor="#ffffff"
     bordercolor="#666666"
     borderopacity="1"
     objecttolerance="10"
     gridtolerance="10"
     guidetolerance="10"
     inkscape:pageopacity="0"
     inkscape:pageshadow="2"
     inkscape:window-width="1366"
     inkscape:window-height="690"
     id="namedview26"
     showgrid="false"
     inkscape:zoom="4.9166667"
     inkscape:cx="-0.61016949"
     inkscape:cy="24"
     inkscape:window-x="0"
     inkscape:window-y="0"
     inkscape:window-maximized="1"
     inkscape:current-layer="svg24" />
  <defs
     id="defs8">
    <clipPath
       id="clipPath4266-4"
       clipPathUnits="userSpaceOnUse">
      <path
         fill="#fff"
         d="m146 240c-1.108 0-2 0.892-2 2v36c0 1.108 0.892 2 2 2h28c1.108 0 2-0.892 2-2v-26l-12-12h-18z"
         id="path2" />
    </clipPath>
    <filter
       id="filter4987"
       width="1.26"
       height="1.223"
       x="-.13"
       y="-.11">
      <feGaussianBlur
         stdDeviation=".65"
         id="feGaussianBlur5" />
    </filter>
  </defs>
  <path
     style="opacity:0.2"
     d="M 10,5 C 8.892,5 8,5.892 8,7 v 36 c 0,1.108 0.892,2 2,2 h 28 c 1.108,0 2,-0.892 2,-2 V 17 L 29,16 28,5 Z"
     id="path10" />
  <path
     opacity=".1"
     d="m163.22 242.45v11c0 1.1046 0.89543 2 2 2h10l-1-1-10-9z"
     clip-path="url(#clipPath4266-4)"
     filter="url(#filter4987)"
     transform="translate(-135.61 -237.72)"
     id="path12" />
  <path
     fill="#e4e4e4"
     d="m10 4c-1.108 0-2 0.892-2 2v36c0 1.108 0.892 2 2 2h28c1.108 0 2-0.892 2-2v-26l-11-1-1-11z"
     id="path14"
     style="fill:#ffbd24;fill-opacity:1" />
  <path
     fill="#fff"
     opacity=".2"
     d="m10 4c-1.108 0-2 0.892-2 2v1c0-1.108 0.892-2 2-2h18l11 11h1l-12-12z"
     id="path16" />
  <path
     style="opacity:0.2"
     d="m 28,5 v 10 c 0,1.1046 0.89543,2 2,2 h 10 z"
     id="path18" />
  <path
     fill="#fafafa"
     d="m28 4v10c0 1.1046 0.89543 2 2 2h10l-12-12z"
     id="path20"
     style="fill:#ffc848;fill-opacity:1" />
  <path
     inkscape:connector-curvature="0"
     style="fill:#ffffff;stroke-width:1.33333325"
     d="m 24.195,15.887792 c -0.708333,0 -1.302083,0.390625 -1.572917,0.953125 -0.541667,-0.359375 -1.291667,-0.427084 -1.906249,-0.09896 -0.604167,0.328125 -0.932292,0.953125 -0.869792,1.5625 -0.65625,-0.05729 -1.333334,0.244792 -1.682292,0.807292 -0.354166,0.567708 -0.28125,1.265624 0.109373,1.765624 -0.609376,0.25 -1.036459,0.802084 -1.036459,1.458333 0,0.656251 0.427083,1.213543 1.036459,1.463543 -0.390625,0.5 -0.463541,1.197916 -0.109373,1.765625 0.348958,0.562499 1.026042,0.864583 1.682292,0.807291 -0.06249,0.604167 0.260417,1.234376 0.869792,1.5625 0.270833,0.145833 0.572916,0.203125 0.869792,0.197917 v 6.885416 L 24.195,32.596125 26.804375,35.018 v -6.885416 c 0.296876,0.0052 0.59375,-0.05208 0.869792,-0.197918 0.604166,-0.328124 0.932292,-0.958333 0.869792,-1.5625 0.656249,0.05729 1.333333,-0.244792 1.682292,-0.80729 0.354165,-0.56771 0.281249,-1.265626 -0.109374,-1.765626 0.609376,-0.25 1.036459,-0.807292 1.036459,-1.463542 0,-0.65625 -0.427083,-1.208334 -1.036459,-1.458334 0.390626,-0.5 0.463542,-1.197916 0.109374,-1.765624 -0.348959,-0.5625 -1.026043,-0.864584 -1.682292,-0.807292 0.06249,-0.609374 -0.260418,-1.239582 -0.869792,-1.5625 -0.614583,-0.328125 -1.364583,-0.260416 -1.901042,0.09896 C 25.497083,16.278417 24.903333,15.882584 24.195,15.882584 Z m 0,2.390625 c 2.401041,0 4.348959,1.807291 4.348959,4.036459 0,2.223957 -1.947918,4.031249 -4.348959,4.031249 -2.401041,0 -4.348958,-1.807292 -4.348958,-4.031249 0,-2.229168 1.947917,-4.036459 4.348958,-4.036459 z m 0,0.807291 c -1.921875,0 -3.479166,1.442709 -3.479166,3.229168 0,1.781249 1.557291,3.223957 3.479166,3.223957 1.921875,0 3.479167,-1.442708 3.479167,-3.223957 0,-1.786459 -1.557292,-3.229168 -3.479167,-3.229168 z m 0,0"
     id="path21" />
</svg>
