<?xml version="1.0" encoding="UTF-8" standalone="no"?>
<svg
   xmlns:dc="http://purl.org/dc/elements/1.1/"
   xmlns:cc="http://creativecommons.org/ns#"
   xmlns:rdf="http://www.w3.org/1999/02/22-rdf-syntax-ns#"
   xmlns:svg="http://www.w3.org/2000/svg"
   xmlns="http://www.w3.org/2000/svg"
   xmlns:sodipodi="http://sodipodi.sourceforge.net/DTD/sodipodi-0.dtd"
   xmlns:inkscape="http://www.inkscape.org/namespaces/inkscape"
   width="48"
   height="48"
   version="1.1"
   id="svg14"
   sodipodi:docname="application-x-perl.svg"
   inkscape:version="0.92.2 2405546, 2018-03-11">
  <metadata
     id="metadata20">
    <rdf:RDF>
      <cc:Work
         rdf:about="">
        <dc:format>image/svg+xml</dc:format>
        <dc:type
           rdf:resource="http://purl.org/dc/dcmitype/StillImage" />
        <dc:title></dc:title>
      </cc:Work>
    </rdf:RDF>
  </metadata>
  <defs
     id="defs18" />
  <sodipodi:namedview
     pagecolor="#ffffff"
     bordercolor="#666666"
     borderopacity="1"
     objecttolerance="10"
     gridtolerance="10"
     guidetolerance="10"
     inkscape:pageopacity="0"
     inkscape:pageshadow="2"
     inkscape:window-width="1366"
     inkscape:window-height="690"
     id="namedview16"
     showgrid="false"
     inkscape:zoom="3.7064667"
     inkscape:cx="22.107227"
     inkscape:cy="20.478921"
     inkscape:window-x="0"
     inkscape:window-y="0"
     inkscape:window-maximized="1"
     inkscape:current-layer="svg14" />
  <path
     style="opacity:0.2"
     d="M 10,5 C 8.892,5 8,5.892 8,7 V 43 C 8,44.108 8.892,45 10,45 H 38 C 39.108,45 40,44.108 40,43 V 17 L 28,5 Z"
     id="path2" />
  <path
     style="fill:#4277ab;fill-opacity:1"
     d="M 10,4 C 8.892,4 8,4.892 8,6 V 42 C 8,43.108 8.892,44 10,44 H 38 C 39.108,44 40,43.108 40,42 V 16 L 28,4 Z"
     id="path4" />
  <path
     style="opacity:0.2"
     d="M 40,17 28,5 V 15 C 28,16.108 28.892,17 30,17 Z"
     id="path6" />
  <path
     style="fill:#6091c2;fill-opacity:1"
     d="M 40,16 28,4 V 14 C 28,15.108 28.892,16 30,16 Z"
     id="path8" />
  <path
     style="opacity:0.2;fill:#ffffff"
     d="M 10 4 C 8.892 4 8 4.892 8 6 L 8 7 C 8 5.892 8.892 5 10 5 L 28 5 L 28 4 L 10 4 z"
     id="path10" />
  <path
     inkscape:connector-curvature="0"
     style="fill:#ffffff;fill-rule:evenodd;stroke-width:1.33333325"
     d="m 26.333081,34.699867 c -0.5,-0.06771 0.08333,-0.567709 0.25,-0.671874 0.317708,-0.187502 0.578125,-0.406251 0.776041,-0.765626 0.317708,-0.578125 0.458333,-1.338542 0.593751,-2.005209 0.08855,-0.447916 0.177082,-0.708333 -0.06249,-1.088541 -0.234378,-0.380208 0.166663,-0.692708 -0.08334,-1.09375 -0.421876,-0.671874 -0.598959,-1.5625 -1.015625,-2.229166 -0.114587,-0.1875 -0.07292,-0.364584 -0.244792,-0.38021 -0.07812,-0.0104 -0.291667,0.182292 -0.359375,0.239584 -0.208333,0.166667 -0.458333,0.244792 -0.661459,0.406251 -0.09896,0.08333 -0.291666,0.02083 -0.380208,0.09896 -0.239582,0.229167 -0.182292,0.9375 -0.156249,1.296875 0.03645,0.515625 0.380208,0.677084 0.380208,1.171876 0,0.598958 -0.09375,1.010416 0.06771,1.61979 0.08855,0.354168 0.3125,0.75521 0.348959,1.114584 0.03125,0.281251 -0.0104,0.276042 -0.08333,0.541667 -0.07813,0.322915 -0.11459,0.609372 -0.369798,0.749997 -0.145833,0.08333 -0.807292,0.119792 -0.890625,-0.07813 -0.161457,-0.385416 0.453125,-0.515624 0.557292,-0.75 0.223958,-0.505203 -0.239585,-1.807286 -0.442709,-2.244787 -0.109374,-0.239583 -0.307292,-0.427083 -0.390625,-0.666667 -0.104173,-0.322916 0.114587,-0.546874 0.07812,-0.791666 -0.06771,-0.479166 -0.234376,-0.989583 -0.364584,-1.458334 -0.291667,-1.072916 -0.703125,0.562502 -0.875,0.973959 -0.06771,0.161459 -0.119787,0.338543 -0.1875,0.505209 -0.07812,0.197916 0.09896,0.364583 0.05208,0.609375 -0.04688,0.223959 -0.265625,0.354167 -0.390625,0.526041 -0.182292,0.260416 -0.3125,0.588542 -0.411459,0.911459 -0.208333,0.666667 -0.281249,1.828125 -0.666667,2.364583 -0.05729,0.07812 -0.213541,0.03125 -0.270833,0.09896 -0.135416,0.161458 0.03645,0.333333 -0.229167,0.4375 -0.203124,0.08333 -0.708333,0.166666 -0.901041,0.03125 -0.369792,-0.265624 0.08855,-0.593749 0.317708,-0.869791 0.322917,-0.385417 0.697917,-0.739584 0.947917,-1.192708 0.328124,-0.604168 0.401042,-1.28125 0.463542,-1.973958 0.03125,-0.333334 -0.270834,-0.5 -0.0104,-0.901042 0.08333,-0.130213 0.338542,-0.109373 0.338542,-0.244792 0,-0.416666 0.0104,-0.838541 0,-1.25 -0.0104,-0.505208 -0.0104,-1.338541 -0.411458,-1.661458 -0.536467,-0.432295 -1.218759,-0.541669 -1.729175,-1.000003 -0.510416,-0.463541 -0.979167,-0.875 -1.286459,-1.609374 -0.161458,-0.385418 -0.244792,-0.760418 -0.369792,-1.156251 -0.09375,-0.286457 -0.06771,-0.192708 -0.218749,-0.359375 -0.08854,-0.104166 -0.223959,-0.171874 -0.322917,-0.286458 -0.260416,-0.296875 -0.307291,-0.588542 -0.744791,-0.463542 -0.171876,0.04688 -0.458333,0.4375 -0.552084,0.197918 -0.06771,-0.151043 -0.02604,-0.286459 0.0052,-0.44271 0.04688,-0.229166 -0.182291,-0.30729 -0.177083,-0.526041 0.0104,-0.380208 0.520834,-0.776041 0.786459,-0.838541 0.333333,-0.08333 0.697916,0.09375 1.057291,0.0104 0.28125,-0.06771 0.53125,-0.255208 0.807292,-0.333334 0.286458,-0.08855 0.546876,-0.119786 0.791666,0.08855 0.114587,0.09896 0.156251,0.265624 0.25521,0.364583 0.08333,0.08333 0.156249,0.05729 0.255208,0.140625 0.286458,0.25 0.30729,0.619792 -0.1875,0.505208 0.208333,1.041667 1.229166,3.833333 2.364582,2.390625 0.531251,-0.677084 1.015626,-1.421876 1.515626,-2.125 0.442708,-0.619792 0.703125,-1.3125 1.453125,-1.192708 0.744791,0.114587 1.25,0.729166 1.828124,1.234375 0.468751,0.411457 1.020835,0.505208 1.515625,0.848959 0.531251,0.364582 1,0.979165 1.182292,1.677082 0.265625,1.015626 0.114587,1.994792 0.578125,2.958334 0.276042,0.583333 0.677083,0.989584 1.026042,1.473958 0.192708,0.260416 0.317708,0.619791 0.255208,0.96875 -0.04167,0.244792 -0.1875,0.286458 -0.1875,0.567708 0,0.489584 0.03645,0.979168 0.02084,1.46875 -0.01563,0.4375 -0.04688,0.864583 -0.09896,1.296875 -0.04167,0.375 -0.171875,0.479167 -0.276042,0.755209 -0.151041,0.411458 -0.125,0.588542 -0.489582,0.75 -0.203126,0.08855 -0.557292,0.270832 -0.776043,0.265624 -0.317708,-0.02084 -0.359374,-0.333333 -0.119786,-0.671874 0.156249,-0.21875 0.432291,-0.286459 0.609374,-0.526042 0.510416,-0.6875 0.729167,-2.75 0.302083,-3.479166 -0.177084,-0.302072 -0.385418,-0.30728 -0.401043,-0.765614 -0.01563,-0.416666 0.08855,-0.557292 -0.223959,-0.932292 -0.989582,-0.609374 -1.062498,-1.041666 -1.380207,-0.833333 -0.395834,0.255208 -0.08855,1.6875 0,2.083333 0.151042,0.718751 0.739584,1.057292 0.354166,1.786459 -0.281249,0.515625 -0.411457,1.052083 -0.598958,1.656251 -0.171875,0.546874 -0.161458,1.322916 -0.432291,1.781249 -0.05208,0.08855 -0.135417,0.135417 -0.1875,0.218751 -0.03645,0.06771 -0.08855,0.25 -0.114587,0.286457 -0.114586,0.156251 -0.140625,0.197917 -0.322916,0.281251 -0.328125,0.151041 -0.729166,0.104173 -1.078125,0.104173"
     id="path21" />
</svg>
