<?xml version="1.0" encoding="UTF-8" standalone="no"?>
<svg
   xmlns:dc="http://purl.org/dc/elements/1.1/"
   xmlns:cc="http://creativecommons.org/ns#"
   xmlns:rdf="http://www.w3.org/1999/02/22-rdf-syntax-ns#"
   xmlns:svg="http://www.w3.org/2000/svg"
   xmlns="http://www.w3.org/2000/svg"
   xmlns:sodipodi="http://sodipodi.sourceforge.net/DTD/sodipodi-0.dtd"
   xmlns:inkscape="http://www.inkscape.org/namespaces/inkscape"
   width="48"
   height="48"
   version="1.1"
   id="svg14"
   sodipodi:docname="encrypted-key.svg"
   inkscape:version="0.92.2 2405546, 2018-03-11">
  <metadata
     id="metadata20">
    <rdf:RDF>
      <cc:Work
         rdf:about="">
        <dc:format>image/svg+xml</dc:format>
        <dc:type
           rdf:resource="http://purl.org/dc/dcmitype/StillImage" />
        <dc:title></dc:title>
      </cc:Work>
    </rdf:RDF>
  </metadata>
  <defs
     id="defs18" />
  <sodipodi:namedview
     pagecolor="#ffffff"
     bordercolor="#666666"
     borderopacity="1"
     objecttolerance="10"
     gridtolerance="10"
     guidetolerance="10"
     inkscape:pageopacity="0"
     inkscape:pageshadow="2"
     inkscape:window-width="1366"
     inkscape:window-height="690"
     id="namedview16"
     showgrid="false"
     inkscape:zoom="3.7064667"
     inkscape:cx="-14.855199"
     inkscape:cy="20.478921"
     inkscape:window-x="0"
     inkscape:window-y="0"
     inkscape:window-maximized="1"
     inkscape:current-layer="svg14" />
  <path
     style="opacity:0.2"
     d="M 10,5 C 8.892,5 8,5.892 8,7 V 43 C 8,44.108 8.892,45 10,45 H 38 C 39.108,45 40,44.108 40,43 V 17 L 28,5 Z"
     id="path2" />
  <path
     style="fill:#e4e4e4;fill-opacity:1"
     d="M 10,4 C 8.892,4 8,4.892 8,6 V 42 C 8,43.108 8.892,44 10,44 H 38 C 39.108,44 40,43.108 40,42 V 16 L 28,4 Z"
     id="path4" />
  <path
     style="opacity:0.2"
     d="M 40,17 28,5 V 15 C 28,16.108 28.892,17 30,17 Z"
     id="path6" />
  <path
     style="fill:#ffffff;fill-opacity:1"
     d="M 40,16 28,4 V 14 C 28,15.108 28.892,16 30,16 Z"
     id="path8" />
  <path
     style="opacity:0.2;fill:#ffffff"
     d="M 10 4 C 8.892 4 8 4.892 8 6 L 8 7 C 8 5.892 8.892 5 10 5 L 28 5 L 28 4 L 10 4 z"
     id="path10" />
  <path
     inkscape:connector-curvature="0"
     style="fill:#000000;fill-opacity:0.352941;stroke-width:1.33333325"
     d="m 28.197926,19.908864 c -2.677084,0 -4.843751,2.015625 -4.843751,4.5 0,0.776041 0.213541,1.505208 0.583333,2.145833 0.0052,0 0,0.0052 0,0.0052 l -8.979166,8.343751 v 1.796874 h 1.9375 l 0.645833,-0.59895 v -1.197916 h 1.291667 l 0.645833,-0.604167 h 1.291667 l 0.645833,-0.598959 v -1.197917 l 0.645833,-0.598957 h 1.291667 v -1.197918 l 2.520833,-2.343749 c 0.0052,0 0.0104,0 0.0104,0 0.687502,0.343749 1.479168,0.541667 2.312502,0.541667 2.677081,0 4.843748,-2.010418 4.843748,-4.494792 v -0.02084 c -0.0104,-2.47916 -2.177067,-4.47916 -4.843732,-4.47916 z m 0.968749,2.401041 c 0.713541,0 1.291667,0.536459 1.291667,1.197917 0,0.661458 -0.578126,1.197916 -1.291667,1.197916 -0.713541,0 -1.291667,-0.536458 -1.291667,-1.197916 0,-0.661458 0.578126,-1.197917 1.291667,-1.197917 z m 0,0"
     id="path21" />
</svg>
