<?xml version="1.0" encoding="UTF-8" standalone="no"?>
<svg
   xmlns:dc="http://purl.org/dc/elements/1.1/"
   xmlns:cc="http://creativecommons.org/ns#"
   xmlns:rdf="http://www.w3.org/1999/02/22-rdf-syntax-ns#"
   xmlns:svg="http://www.w3.org/2000/svg"
   xmlns="http://www.w3.org/2000/svg"
   xmlns:sodipodi="http://sodipodi.sourceforge.net/DTD/sodipodi-0.dtd"
   xmlns:inkscape="http://www.inkscape.org/namespaces/inkscape"
   width="48"
   height="48"
   version="1"
   id="svg16"
   sodipodi:docname="gdtable.svg"
   inkscape:version="0.92.2 2405546, 2018-03-11">
  <metadata
     id="metadata22">
    <rdf:RDF>
      <cc:Work
         rdf:about="">
        <dc:format>image/svg+xml</dc:format>
        <dc:type
           rdf:resource="http://purl.org/dc/dcmitype/StillImage" />
        <dc:title></dc:title>
      </cc:Work>
    </rdf:RDF>
  </metadata>
  <defs
     id="defs20" />
  <sodipodi:namedview
     pagecolor="#ffffff"
     bordercolor="#666666"
     borderopacity="1"
     objecttolerance="10"
     gridtolerance="10"
     guidetolerance="10"
     inkscape:pageopacity="0"
     inkscape:pageshadow="2"
     inkscape:window-width="1366"
     inkscape:window-height="690"
     id="namedview18"
     showgrid="false"
     inkscape:zoom="4.9166667"
     inkscape:cx="-0.61016949"
     inkscape:cy="24"
     inkscape:window-x="0"
     inkscape:window-y="0"
     inkscape:window-maximized="1"
     inkscape:current-layer="svg16" />
  <path
     style="opacity:0.2"
     d="M 10,5 C 8.892,5 8,5.892 8,7 v 36 c 0,1.108 0.892,2 2,2 h 28 c 1.108,0 2,-0.892 2,-2 V 17 L 29,16 28,5 Z"
     id="path2" />
  <path
     style="fill:#4bae4f"
     d="M 10,4 C 8.892,4 8,4.892 8,6 v 36 c 0,1.108 0.892,2 2,2 h 28 c 1.108,0 2,-0.892 2,-2 V 16 L 29,15 28,4 Z"
     id="path4" />
  <path
     style="opacity:0.1;fill:#ffffff"
     d="M 10,4 C 8.892,4 8,4.892 8,6 V 7 C 8,5.892 8.892,5 10,5 h 18 l 11,11 h 1 L 28,4 Z"
     id="path6" />
  <path
     style="opacity:0.2"
     d="m 28,5 v 10 c 0,1.1046 0.89543,2 2,2 h 10 z"
     id="path8" />
  <path
     style="fill:#95cd97"
     d="m 28,4 v 10 c 0,1.1046 0.89543,2 2,2 h 10 z"
     id="path10" />
  <g
     transform="matrix(1.3333333,0,0,1.3333333,0.16927193,4.8908019)"
     id="g874">
    <path
       inkscape:connector-curvature="0"
       id="path21"
       d="m 25.019531,14.148438 -4.023437,5.109374 -1.890625,-2.289062 -4.207031,5.445312 -1.878907,-2.152343 -4.417969,5.515625 0.566407,0.289062 3.875,-4.832031 1.890625,2.160156 4.191406,-5.421875 1.882812,2.28125 4.054688,-5.148437 1.539062,1.664062 0.542969,-0.320312 z m 0,0"
       style="fill:#ffffff" />
    <path
       inkscape:connector-curvature="0"
       id="path23"
       d="M 9.765625,14.609375 H 12.1875 V 16.0625 H 9.765625 Z m 0,0"
       style="fill:#ffffff" />
    <path
       inkscape:connector-curvature="0"
       id="path25"
       d="M 9.765625,16.546875 H 12.1875 V 18 H 9.765625 Z m 0,0"
       style="fill:#ffffff" />
    <path
       inkscape:connector-curvature="0"
       id="path27"
       d="M 12.671875,14.609375 H 16.0625 V 16.0625 h -3.390625 z m 0,0"
       style="fill:#ffffff" />
    <path
       inkscape:connector-curvature="0"
       id="path29"
       d="M 12.671875,16.546875 H 16.0625 V 18 h -3.390625 z m 0,0"
       style="fill:#ffffff" />
    <path
       inkscape:connector-curvature="0"
       id="path31"
       d="m 24.296875,18.96875 h 1.9375 v 7.75 h -1.9375 z m 0,0"
       style="fill:#ffffff" />
    <path
       inkscape:connector-curvature="0"
       id="path33"
       d="m 20.421875,21.875 h 1.9375 v 4.84375 h -1.9375 z m 0,0"
       style="fill:#ffffff" />
    <path
       inkscape:connector-curvature="0"
       id="path35"
       d="m 16.546875,24.296875 h 1.9375 v 2.421875 h -1.9375 z m 0,0"
       style="fill:#ffffff" />
  </g>
</svg>
