<?xml version="1.0" encoding="UTF-8" standalone="no"?>
<svg
   xmlns:dc="http://purl.org/dc/elements/1.1/"
   xmlns:cc="http://creativecommons.org/ns#"
   xmlns:rdf="http://www.w3.org/1999/02/22-rdf-syntax-ns#"
   xmlns:svg="http://www.w3.org/2000/svg"
   xmlns="http://www.w3.org/2000/svg"
   xmlns:sodipodi="http://sodipodi.sourceforge.net/DTD/sodipodi-0.dtd"
   xmlns:inkscape="http://www.inkscape.org/namespaces/inkscape"
   width="48"
   height="48"
   version="1.1"
   id="svg16"
   sodipodi:docname="text-x-lilypond.svg"
   inkscape:version="0.92.2 2405546, 2018-03-11">
  <metadata
     id="metadata22">
    <rdf:RDF>
      <cc:Work
         rdf:about="">
        <dc:format>image/svg+xml</dc:format>
        <dc:type
           rdf:resource="http://purl.org/dc/dcmitype/StillImage" />
        <dc:title></dc:title>
      </cc:Work>
    </rdf:RDF>
  </metadata>
  <defs
     id="defs20" />
  <sodipodi:namedview
     pagecolor="#ffffff"
     bordercolor="#666666"
     borderopacity="1"
     objecttolerance="10"
     gridtolerance="10"
     guidetolerance="10"
     inkscape:pageopacity="0"
     inkscape:pageshadow="2"
     inkscape:window-width="1366"
     inkscape:window-height="690"
     id="namedview18"
     showgrid="false"
     inkscape:zoom="4.9166667"
     inkscape:cx="-0.61016949"
     inkscape:cy="24"
     inkscape:window-x="0"
     inkscape:window-y="0"
     inkscape:window-maximized="1"
     inkscape:current-layer="svg16" />
  <path
     style="opacity:0.2"
     d="M 10,5 C 8.892,5 8,5.892 8,7 v 36 c 0,1.108 0.892,2 2,2 h 28 c 1.108,0 2,-0.892 2,-2 V 17 L 29,16 28,5 Z"
     id="path2" />
  <path
     style="fill:#31519b"
     d="M 10,4 C 8.892,4 8,4.892 8,6 V 42 C 8,43.108 8.892,44 10,44 H 38 C 39.108,44 40,43.108 40,42 V 16 L 29,15 28,4 Z"
     id="path4" />
  <path
     style="fill:#ffffff;opacity:0.1"
     d="M 10 4 C 8.892 4 8 4.892 8 6 L 8 7 C 8 5.892 8.892 5 10 5 L 28 5 L 28 4 L 10 4 z"
     id="path6" />
  <path
     style="opacity:0.2"
     d="m 28,5 v 10 c 0,1.105 0.895,2 2,2 h 10 z"
     id="path8" />
  <path
     style="fill:#98a8cd"
     d="M 28,4 V 14 C 28,15.105 28.895,16 30,16 H 40 Z"
     id="path10" />
  <path
     inkscape:connector-curvature="0"
     style="fill:#ffffff;fill-opacity:1;stroke-width:1.33333325"
     d="m 25.037476,20.565166 c -1.005208,0.255208 -1.848959,1.177082 -1.848959,1.177082 l 0.03125,0.02604 1.604168,5.973958 c -1.151042,-0.625 -2.791666,-0.46875 -4.145834,0.515625 -1.760416,1.265625 -2.369791,3.427084 -1.354165,4.817708 1.020832,1.395834 3.260416,1.494792 5.015623,0.229168 1.380208,-1.00521 2.156251,-2.583334 1.875,-3.875 -0.0104,-0.03645 -0.02604,-0.07812 -0.03645,-0.119787 l -1.536457,-5.96875 c 0.03645,-0.05208 0.484374,-0.255208 1.942708,-0.359375 1.536458,-0.09896 2.583333,-2.572917 2.583333,-2.572917 0,0 -1.734375,0.666666 -3.098959,0.187501 -0.343749,-0.119787 -0.697916,-0.114587 -1.031249,-0.03125 z m 0,0"
     id="path21" />
</svg>
