<?xml version="1.0" encoding="UTF-8" standalone="no"?>
<svg
   xmlns:dc="http://purl.org/dc/elements/1.1/"
   xmlns:cc="http://creativecommons.org/ns#"
   xmlns:rdf="http://www.w3.org/1999/02/22-rdf-syntax-ns#"
   xmlns:svg="http://www.w3.org/2000/svg"
   xmlns="http://www.w3.org/2000/svg"
   xmlns:sodipodi="http://sodipodi.sourceforge.net/DTD/sodipodi-0.dtd"
   xmlns:inkscape="http://www.inkscape.org/namespaces/inkscape"
   width="48"
   height="48"
   version="1"
   id="svg24"
   sodipodi:docname="text-x-pascal.svg"
   inkscape:version="0.92.2 2405546, 2018-03-11">
  <metadata
     id="metadata28">
    <rdf:RDF>
      <cc:Work
         rdf:about="">
        <dc:format>image/svg+xml</dc:format>
        <dc:type
           rdf:resource="http://purl.org/dc/dcmitype/StillImage" />
        <dc:title></dc:title>
      </cc:Work>
    </rdf:RDF>
  </metadata>
  <sodipodi:namedview
     pagecolor="#ffffff"
     bordercolor="#666666"
     borderopacity="1"
     objecttolerance="10"
     gridtolerance="10"
     guidetolerance="10"
     inkscape:pageopacity="0"
     inkscape:pageshadow="2"
     inkscape:window-width="1366"
     inkscape:window-height="690"
     id="namedview26"
     showgrid="false"
     inkscape:zoom="4.9166667"
     inkscape:cx="-0.61016949"
     inkscape:cy="24"
     inkscape:window-x="0"
     inkscape:window-y="0"
     inkscape:window-maximized="1"
     inkscape:current-layer="svg24" />
  <defs
     id="defs8">
    <clipPath
       id="clipPath4266-4"
       clipPathUnits="userSpaceOnUse">
      <path
         fill="#fff"
         d="m146 240c-1.108 0-2 0.892-2 2v36c0 1.108 0.892 2 2 2h28c1.108 0 2-0.892 2-2v-26l-12-12h-18z"
         id="path2" />
    </clipPath>
    <filter
       id="filter4987"
       width="1.26"
       height="1.223"
       x="-.13"
       y="-.11">
      <feGaussianBlur
         stdDeviation=".65"
         id="feGaussianBlur5" />
    </filter>
  </defs>
  <path
     style="opacity:0.2"
     d="M 10,5 C 8.892,5 8,5.892 8,7 v 36 c 0,1.108 0.892,2 2,2 h 28 c 1.108,0 2,-0.892 2,-2 V 17 L 29,16 28,5 Z"
     id="path10" />
  <path
     opacity=".1"
     d="m163.22 242.45v11c0 1.1046 0.89543 2 2 2h10l-1-1-10-9z"
     clip-path="url(#clipPath4266-4)"
     filter="url(#filter4987)"
     transform="translate(-135.61 -237.72)"
     id="path12" />
  <path
     fill="#e4e4e4"
     d="m10 4c-1.108 0-2 0.892-2 2v36c0 1.108 0.892 2 2 2h28c1.108 0 2-0.892 2-2v-26l-11-1-1-11z"
     id="path14"
     style="fill:#f5bf4c;fill-opacity:1" />
  <path
     fill="#fff"
     opacity=".2"
     d="m10 4c-1.108 0-2 0.892-2 2v1c0-1.108 0.892-2 2-2h18l11 11h1l-12-12z"
     id="path16" />
  <path
     style="opacity:0.2"
     d="m 28,5 v 10 c 0,1.1046 0.89543,2 2,2 h 10 z"
     id="path18" />
  <path
     fill="#fafafa"
     d="m28 4v10c0 1.1046 0.89543 2 2 2h10l-12-12z"
     id="path20"
     style="fill:#f2cd7f;fill-opacity:1" />
  <path
     inkscape:connector-curvature="0"
     style="fill:#ffffff;stroke-width:1.33333325"
     d="m 20.82148,34.713122 c -0.916667,-0.46875 -1.635417,-1.729167 -1.156251,-2.713542 0.406251,-0.822917 1.791667,-1.052082 1.859375,-2.104166 0.07292,-0.994792 0.854167,-1.807292 1.854167,-1.817708 1.041666,-0.0052 2.291666,-0.130213 3.062499,0.6875 0.593751,0.630208 0.427084,2.067708 1.348959,2.395833 0.791667,0.281249 1.489584,1.078125 1.296875,2.041667 -0.203126,1.020833 -1.052083,1.588541 -2.005208,1.729166 -2.083333,0.3125 -4.25,0.494791 -6.255208,-0.213542 m -3.463541,-5.041666 c -1.036459,-0.723958 -1.151043,-2.135416 -1.104168,-3.328124 0.01563,-0.4375 0.02084,-1.947918 0.34375,-1.531251 0.333334,0.427084 0.244792,0.770833 0.911459,0.645833 1.010416,-0.1875 1.390625,1.302084 2.171875,1.885418 0.703125,0.526041 0.682292,1.880208 -0.182292,2.328124 -0.666667,0.34375 -1.494792,0.390625 -2.135416,-0.0052 M 28.62877,29.60897 c -0.9375,-0.380208 -0.93229,-1.765625 -0.125,-2.359374 0.744792,-0.557292 1.031251,-1.864584 2.229167,-1.739584 0.359375,0.03645 0.291667,-1.734375 0.588543,-0.848958 0.302082,0.916667 0.348957,1.911459 0.421874,2.869792 0.07812,1.041667 -0.578125,2.239583 -1.682292,2.385416 -0.494792,0.06771 -1.020833,-0.0104 -1.4375,-0.307292 m -7.687499,-4.104181 c -1.104167,-0.546875 -1.328126,-2.197916 -0.625,-3.151041 0.583333,-0.786459 0.390625,-2.25 1.203125,-2.625 0.473959,-0.218751 -0.343751,1.302084 0.5625,1.385417 1.281249,0.114587 0.583333,1.583333 1.015624,2.385416 0.489584,0.901041 0.307292,2.135416 -0.822916,2.255208 -0.453125,0.04688 -0.942708,0.0104 -1.333333,-0.25 m 3.817708,-0.09896 c -0.6875,-0.5 -0.395834,-1.442709 -0.213542,-2.130209 0.1875,-0.708334 -0.40625,-2.260416 0.598959,-2.203124 1.182292,0.06249 0.151041,-1.510417 0.598959,-1.348959 0.859374,0.307292 0.859374,1.802083 1.510415,2.588541 0.651042,0.786459 0.739584,2.208334 -0.104173,2.963542 -0.666667,0.588542 -1.661458,0.552084 -2.390625,0.130213"
     id="path21" />
</svg>
