<?xml version="1.0" encoding="UTF-8" standalone="no"?>
<svg
   xmlns:dc="http://purl.org/dc/elements/1.1/"
   xmlns:cc="http://creativecommons.org/ns#"
   xmlns:rdf="http://www.w3.org/1999/02/22-rdf-syntax-ns#"
   xmlns:svg="http://www.w3.org/2000/svg"
   xmlns="http://www.w3.org/2000/svg"
   xmlns:sodipodi="http://sodipodi.sourceforge.net/DTD/sodipodi-0.dtd"
   xmlns:inkscape="http://www.inkscape.org/namespaces/inkscape"
   width="48"
   height="48"
   version="1"
   id="svg24"
   sodipodi:docname="text-x-qml.svg"
   inkscape:version="0.92.2 2405546, 2018-03-11">
  <metadata
     id="metadata28">
    <rdf:RDF>
      <cc:Work
         rdf:about="">
        <dc:format>image/svg+xml</dc:format>
        <dc:type
           rdf:resource="http://purl.org/dc/dcmitype/StillImage" />
        <dc:title></dc:title>
      </cc:Work>
    </rdf:RDF>
  </metadata>
  <sodipodi:namedview
     pagecolor="#ffffff"
     bordercolor="#666666"
     borderopacity="1"
     objecttolerance="10"
     gridtolerance="10"
     guidetolerance="10"
     inkscape:pageopacity="0"
     inkscape:pageshadow="2"
     inkscape:window-width="1366"
     inkscape:window-height="690"
     id="namedview26"
     showgrid="false"
     inkscape:zoom="4.9166667"
     inkscape:cx="-0.61016949"
     inkscape:cy="24"
     inkscape:window-x="0"
     inkscape:window-y="0"
     inkscape:window-maximized="1"
     inkscape:current-layer="svg24" />
  <defs
     id="defs8">
    <clipPath
       id="clipPath4266-4"
       clipPathUnits="userSpaceOnUse">
      <path
         fill="#fff"
         d="m146 240c-1.108 0-2 0.892-2 2v36c0 1.108 0.892 2 2 2h28c1.108 0 2-0.892 2-2v-26l-12-12h-18z"
         id="path2" />
    </clipPath>
    <filter
       id="filter4987"
       width="1.26"
       height="1.223"
       x="-.13"
       y="-.11">
      <feGaussianBlur
         stdDeviation=".65"
         id="feGaussianBlur5" />
    </filter>
    <clipPath
       id="clip3">
      <path
         inkscape:connector-curvature="0"
         d="m 19,15 h 5 v 9 h -5 z m 0,0"
         id="path9" />
    </clipPath>
    <clipPath
       id="clip4">
      <path
         inkscape:connector-curvature="0"
         d="m 29.136719,19.933594 c 0,6.152344 -4.988281,11.136718 -11.136719,11.136718 -6.148438,0 -11.140625,-4.984374 -11.140625,-11.136718 0,-6.15625 4.992187,-11.140625 11.140625,-11.140625 6.148438,0 11.136719,4.984375 11.136719,11.140625 z m 0,0"
         id="path12-3" />
    </clipPath>
    <clipPath
       id="clip5">
      <path
         inkscape:connector-curvature="0"
         d="m 12,14 h 8 v 12 h -8 z m 0,0"
         id="path15" />
    </clipPath>
    <clipPath
       id="clip6">
      <path
         inkscape:connector-curvature="0"
         d="m 29.136719,19.933594 c 0,6.152344 -4.988281,11.136718 -11.136719,11.136718 -6.148438,0 -11.140625,-4.984374 -11.140625,-11.136718 0,-6.15625 4.992187,-11.140625 11.140625,-11.140625 6.148438,0 11.136719,4.984375 11.136719,11.140625 z m 0,0"
         id="path18-6" />
    </clipPath>
  </defs>
  <path
     style="opacity:0.2"
     d="M 10,5 C 8.892,5 8,5.892 8,7 v 36 c 0,1.108 0.892,2 2,2 h 28 c 1.108,0 2,-0.892 2,-2 V 17 L 29,16 28,5 Z"
     id="path10" />
  <path
     opacity=".1"
     d="m163.22 242.45v11c0 1.1046 0.89543 2 2 2h10l-1-1-10-9z"
     clip-path="url(#clipPath4266-4)"
     filter="url(#filter4987)"
     transform="translate(-135.61 -237.72)"
     id="path12" />
  <path
     fill="#e4e4e4"
     d="m10 4c-1.108 0-2 0.892-2 2v36c0 1.108 0.892 2 2 2h28c1.108 0 2-0.892 2-2v-26l-11-1-1-11z"
     id="path14"
     style="fill:#52c702;fill-opacity:1" />
  <path
     fill="#fff"
     opacity=".2"
     d="m10 4c-1.108 0-2 0.892-2 2v1c0-1.108 0.892-2 2-2h18l11 11h1l-12-12z"
     id="path16" />
  <path
     style="opacity:0.2"
     d="m 28,5 v 10 c 0,1.1046 0.89543,2 2,2 h 10 z"
     id="path18" />
  <path
     fill="#fafafa"
     d="m28 4v10c0 1.1046 0.89543 2 2 2h10l-12-12z"
     id="path20"
     style="fill:#75fd19;fill-opacity:1" />
  <g
     transform="matrix(1.3333333,0,0,1.3333333,6e-7,3.8626675)"
     id="g864">
    <g
       id="g37"
       clip-path="url(#clip3)">
      <g
         id="g35"
         clip-path="url(#clip4)">
        <path
           inkscape:connector-curvature="0"
           id="path33"
           d="m 20.515625,22.136719 c 0,-0.816407 0,-3.4375 0,-3.4375 h -0.691406 v -1.144531 c 1.039062,0 0.691406,0 1.214843,-1.964844 h 1.386719 v 1.964844 H 23.8125 v 1.144531 h -1.386719 v 2.945312 c 0,0.308594 0.06641,0.535157 0.199219,0.691407 0.132812,0.152343 0.3125,0.230468 0.53125,0.230468 0.277344,0.02734 0.65625,-0.101562 0.65625,-0.101562 v 1.144531 c -0.03516,0.02344 -1.707031,0.503906 -2.601562,0 -0.867188,-0.492187 -0.695313,-1.472656 -0.695313,-1.472656 m 0,0"
           style="fill:#ffffff" />
      </g>
    </g>
    <g
       id="g43"
       clip-path="url(#clip5)">
      <g
         id="g41"
         clip-path="url(#clip6)">
        <path
           inkscape:connector-curvature="0"
           id="path39"
           d="M 15.675781,14.125 C 14.5,14.125 13.625,14.546875 13.050781,15.386719 12.476562,16.21875 12.1875,17.421875 12.1875,19 c 0,1.613281 0.289062,2.835938 0.863281,3.683594 0.398438,0.589844 0.9375,0.976562 1.613281,1.152344 0,0 0.136719,-0.0078 0.148438,0.128906 C 15.042969,25.75 16.222656,25.75 17.566406,25.75 c 0,0 0.171875,0 0.171875,-0.164062 v -0.980469 c 0,-0.164063 -0.171875,-0.164063 -0.171875,-0.164063 -0.671875,0 -0.847656,0.04297 -1.023437,-0.59375 0.230469,-0.05469 0.4375,-0.125 0.636719,-0.21875 0.441406,-0.21875 0.808593,-0.535156 1.09375,-0.953125 0.289062,-0.421875 0.5,-0.9375 0.640624,-1.554687 C 19.058594,20.503906 19.125,19.800781 19.125,19 19.125,17.40625 18.835938,16.195312 18.25,15.371094 17.664062,14.539062 16.804688,14.125 15.675781,14.125 m -0.01172,0.929688 c 0.25,0 0.496094,0.09766 0.65625,0.265624 0.09375,0.09766 0.183594,0.203126 0.253907,0.359376 0.04687,0.105468 0.09375,0.230468 0.128906,0.363281 0.08984,0.359375 0.167969,0.667969 0.207031,1.1875 0.03516,0.519531 0.07422,1.113281 0.07422,1.773437 0,0.664063 -0.03906,1.261719 -0.07422,1.789063 -0.03906,0.523437 -0.117187,0.839843 -0.207031,1.207031 -0.03516,0.140625 -0.08203,0.269531 -0.128906,0.382812 -0.0078,0.01563 -0.01563,0.03125 -0.02344,0.04297 -0.07031,0.132813 -0.144531,0.230469 -0.230469,0.320313 -0.15625,0.175781 -0.410156,0.277344 -0.65625,0.277344 -0.242187,0 -0.5,-0.09766 -0.65625,-0.277344 -0.15625,-0.179688 -0.292968,-0.425782 -0.386718,-0.78125 -0.09375,-0.359375 -0.167969,-0.667969 -0.207032,-1.183594 -0.03516,-0.523438 -0.08203,-1.117188 -0.08203,-1.78125 0,-0.65625 0.04297,-1.242188 0.08203,-1.753906 0.03906,-0.515625 0.117188,-0.816406 0.207032,-1.167969 0.09375,-0.347656 0.234375,-0.589844 0.386718,-0.761719 0.15625,-0.167968 0.410157,-0.265625 0.65625,-0.265625"
           style="fill:#ffffff" />
      </g>
    </g>
  </g>
</svg>
