<?xml version="1.0" encoding="UTF-8" standalone="no"?>
<svg
   xmlns:dc="http://purl.org/dc/elements/1.1/"
   xmlns:cc="http://creativecommons.org/ns#"
   xmlns:rdf="http://www.w3.org/1999/02/22-rdf-syntax-ns#"
   xmlns:svg="http://www.w3.org/2000/svg"
   xmlns="http://www.w3.org/2000/svg"
   xmlns:sodipodi="http://sodipodi.sourceforge.net/DTD/sodipodi-0.dtd"
   xmlns:inkscape="http://www.inkscape.org/namespaces/inkscape"
   width="48"
   height="48"
   version="1"
   id="svg24"
   sodipodi:docname="text-x-vala.svg"
   inkscape:version="0.92.2 2405546, 2018-03-11">
  <metadata
     id="metadata28">
    <rdf:RDF>
      <cc:Work
         rdf:about="">
        <dc:format>image/svg+xml</dc:format>
        <dc:type
           rdf:resource="http://purl.org/dc/dcmitype/StillImage" />
        <dc:title></dc:title>
      </cc:Work>
    </rdf:RDF>
  </metadata>
  <sodipodi:namedview
     pagecolor="#ffffff"
     bordercolor="#666666"
     borderopacity="1"
     objecttolerance="10"
     gridtolerance="10"
     guidetolerance="10"
     inkscape:pageopacity="0"
     inkscape:pageshadow="2"
     inkscape:window-width="1366"
     inkscape:window-height="690"
     id="namedview26"
     showgrid="false"
     inkscape:zoom="4.9166667"
     inkscape:cx="-0.61016949"
     inkscape:cy="24"
     inkscape:window-x="0"
     inkscape:window-y="0"
     inkscape:window-maximized="1"
     inkscape:current-layer="svg24" />
  <defs
     id="defs8">
    <clipPath
       id="clipPath4266-4"
       clipPathUnits="userSpaceOnUse">
      <path
         fill="#fff"
         d="m146 240c-1.108 0-2 0.892-2 2v36c0 1.108 0.892 2 2 2h28c1.108 0 2-0.892 2-2v-26l-12-12h-18z"
         id="path2" />
    </clipPath>
    <filter
       id="filter4987"
       width="1.26"
       height="1.223"
       x="-.13"
       y="-.11">
      <feGaussianBlur
         stdDeviation=".65"
         id="feGaussianBlur5" />
    </filter>
  </defs>
  <path
     style="opacity:0.2"
     d="M 10,5 C 8.892,5 8,5.892 8,7 v 36 c 0,1.108 0.892,2 2,2 h 28 c 1.108,0 2,-0.892 2,-2 V 17 L 29,16 28,5 Z"
     id="path10" />
  <path
     opacity=".1"
     d="m163.22 242.45v11c0 1.1046 0.89543 2 2 2h10l-1-1-10-9z"
     clip-path="url(#clipPath4266-4)"
     filter="url(#filter4987)"
     transform="translate(-135.61 -237.72)"
     id="path12" />
  <path
     fill="#e4e4e4"
     d="m10 4c-1.108 0-2 0.892-2 2v36c0 1.108 0.892 2 2 2h28c1.108 0 2-0.892 2-2v-26l-11-1-1-11z"
     id="path14"
     style="fill:#000000;fill-opacity:1" />
  <path
     fill="#fff"
     opacity=".2"
     d="m10 4c-1.108 0-2 0.892-2 2v1c0-1.108 0.892-2 2-2h18l11 11h1l-12-12z"
     id="path16" />
  <path
     style="opacity:0.2"
     d="m 28,5 v 10 c 0,1.1046 0.89543,2 2,2 h 10 z"
     id="path18" />
  <path
     fill="#fafafa"
     d="m28 4v10c0 1.1046 0.89543 2 2 2h10l-12-12z"
     id="path20"
     style="fill:#434343;fill-opacity:1" />
  <path
     inkscape:connector-curvature="0"
     style="fill:#ffffff;stroke-width:1.33333325"
     d="m 31.036449,22.068997 c -1.557292,0 -2.348959,0.557292 -2.968751,1.322917 -0.625,0.765626 -0.99479,1.791667 -1.421874,2.666667 -0.286459,0.593749 -0.927084,2.786457 -1.515626,4.854166 -0.489582,1.713542 -0.93229,3.40625 -1.666666,4.916667 -0.526042,0.807291 -1.369792,1.265624 -2.21875,1.265624 -0.296874,0 -0.59375,-0.05729 -0.880208,-0.171875 1.005208,1.44271 3.333334,3.781251 6.046875,-0.114586 1.875,-2.697918 2.5,-8.515626 3.838541,-10.703125 1.682292,-2.78125 2.531251,-2.130208 2.739584,-1.895834 0.04167,-0.223958 0.06249,-0.463541 0.04688,-0.6875 -0.01563,-0.42187 -0.119797,-0.744788 -0.359381,-0.979162 -0.239583,-0.239584 -0.697916,-0.463542 -1.640624,-0.463542 z M 18.34374,24.52733 c 0.401042,0.463543 0.723958,1.057292 0.916666,1.75521 0.432292,1.567707 0.515626,3.505207 0.614584,5.213541 0.04688,0.859374 0.09896,1.651041 0.177083,2.276041 0.06771,0.973959 0.437501,1.635417 1.197917,1.708333 0.916667,-0.04688 1.197918,-1.156249 1.473959,-1.96875 -0.416667,-0.182291 -1.010417,-1.177083 -1.473959,-4.989583 -0.265625,-2.197916 -1.828125,-3.411458 -2.90625,-3.994792 z m -2.46875,0.390626 c -0.197917,0 -0.369792,0.05729 -0.5,0.151041 -0.177082,0.130213 -0.333333,0.333333 -0.401041,0.765625 -0.104173,0.645834 0.333333,1.369792 0.734375,1.9375 0,0 0,-0.807292 0.78125,-1.208333 0.427083,-0.218751 0.953124,0.135417 1.348958,0.505208 -0.02604,-0.114587 -0.05729,-0.229167 -0.08333,-0.338541 -0.317708,-1.151042 -1.078125,-1.697916 -1.671874,-1.796875 z m 0,0"
     id="path21" />
</svg>
