<?xml version="1.0" encoding="UTF-8" standalone="no"?>
<svg
   xmlns:dc="http://purl.org/dc/elements/1.1/"
   xmlns:cc="http://creativecommons.org/ns#"
   xmlns:rdf="http://www.w3.org/1999/02/22-rdf-syntax-ns#"
   xmlns:svg="http://www.w3.org/2000/svg"
   xmlns="http://www.w3.org/2000/svg"
   xmlns:sodipodi="http://sodipodi.sourceforge.net/DTD/sodipodi-0.dtd"
   xmlns:inkscape="http://www.inkscape.org/namespaces/inkscape"
   width="48"
   height="48"
   version="1"
   id="svg24"
   sodipodi:docname="text-x-vcard.svg"
   inkscape:version="0.92.2 2405546, 2018-03-11">
  <metadata
     id="metadata28">
    <rdf:RDF>
      <cc:Work
         rdf:about="">
        <dc:format>image/svg+xml</dc:format>
        <dc:type
           rdf:resource="http://purl.org/dc/dcmitype/StillImage" />
        <dc:title></dc:title>
      </cc:Work>
    </rdf:RDF>
  </metadata>
  <sodipodi:namedview
     pagecolor="#ffffff"
     bordercolor="#666666"
     borderopacity="1"
     objecttolerance="10"
     gridtolerance="10"
     guidetolerance="10"
     inkscape:pageopacity="0"
     inkscape:pageshadow="2"
     inkscape:window-width="1366"
     inkscape:window-height="690"
     id="namedview26"
     showgrid="false"
     inkscape:zoom="4.9166667"
     inkscape:cx="-0.61016949"
     inkscape:cy="24"
     inkscape:window-x="0"
     inkscape:window-y="0"
     inkscape:window-maximized="1"
     inkscape:current-layer="svg24" />
  <defs
     id="defs8">
    <clipPath
       id="clipPath4266-4"
       clipPathUnits="userSpaceOnUse">
      <path
         fill="#fff"
         d="m146 240c-1.108 0-2 0.892-2 2v36c0 1.108 0.892 2 2 2h28c1.108 0 2-0.892 2-2v-26l-12-12h-18z"
         id="path2" />
    </clipPath>
    <filter
       id="filter4987"
       width="1.26"
       height="1.223"
       x="-.13"
       y="-.11">
      <feGaussianBlur
         stdDeviation=".65"
         id="feGaussianBlur5" />
    </filter>
  </defs>
  <path
     style="opacity:0.2"
     d="M 10,5 C 8.892,5 8,5.892 8,7 v 36 c 0,1.108 0.892,2 2,2 h 28 c 1.108,0 2,-0.892 2,-2 V 17 L 29,16 28,5 Z"
     id="path10" />
  <path
     opacity=".1"
     d="m163.22 242.45v11c0 1.1046 0.89543 2 2 2h10l-1-1-10-9z"
     clip-path="url(#clipPath4266-4)"
     filter="url(#filter4987)"
     transform="translate(-135.61 -237.72)"
     id="path12" />
  <path
     fill="#e4e4e4"
     d="m10 4c-1.108 0-2 0.892-2 2v36c0 1.108 0.892 2 2 2h28c1.108 0 2-0.892 2-2v-26l-11-1-1-11z"
     id="path14"
     style="fill:#f54c4c;fill-opacity:1" />
  <path
     fill="#fff"
     opacity=".2"
     d="m10 4c-1.108 0-2 0.892-2 2v1c0-1.108 0.892-2 2-2h18l11 11h1l-12-12z"
     id="path16" />
  <path
     style="opacity:0.2"
     d="m 28,5 v 10 c 0,1.1046 0.89543,2 2,2 h 10 z"
     id="path18" />
  <path
     fill="#fafafa"
     d="m28 4v10c0 1.1046 0.89543 2 2 2h10l-12-12z"
     id="path20"
     style="fill:#f88383;fill-opacity:1" />
  <g
     transform="matrix(1.3333333,0,0,1.3333333,-1.0674994,0.82482412)"
     style="fill:#000000;fill-opacity:0.352941"
     id="g26">
    <g
       id="use24"
       transform="translate(10.66,24.6)">
      <path
         inkscape:connector-curvature="0"
         id="path1086"
         d="m 6.640625,-4.296875 c 0,0.65625 0.140625,1.171875 0.421875,1.546875 0.28125,0.375 0.660156,0.5625 1.140625,0.5625 0.46875,0 0.84375,-0.1875 1.125,-0.5625 C 9.609375,-3.132812 9.75,-3.648438 9.75,-4.296875 c 0,-0.644531 -0.140625,-1.15625 -0.421875,-1.53125 -0.28125,-0.375 -0.664063,-0.5625 -1.140625,-0.5625 -0.46875,0 -0.84375,0.1875 -1.125,0.5625 -0.28125,0.375 -0.421875,0.886719 -0.421875,1.53125 z M 9.90625,-1.90625 C 9.75,-1.519531 9.492188,-1.222656 9.140625,-1.015625 8.785156,-0.804688 8.375,-0.703125 7.90625,-0.703125 6.988281,-0.703125 6.242188,-1.03125 5.671875,-1.6875 5.097656,-2.351562 4.8125,-3.21875 4.8125,-4.28125 c 0,-1.0625 0.285156,-1.925781 0.859375,-2.59375 0.570313,-0.664062 1.316406,-1 2.234375,-1 0.46875,0 0.878906,0.109375 1.234375,0.328125 0.351563,0.210937 0.609375,0.5 0.765625,0.875 V -7.71875 h 1.671875 v 5.53125 c 0.664063,-0.101562 1.1875,-0.421875 1.5625,-0.953125 0.375,-0.53125 0.5625,-1.210937 0.5625,-2.046875 0,-0.539062 -0.07813,-1.039062 -0.234375,-1.5 -0.148438,-0.46875 -0.382812,-0.894531 -0.703125,-1.28125 -0.5,-0.65625 -1.132813,-1.15625 -1.890625,-1.5 C 10.113281,-9.820312 9.289062,-10 8.40625,-10 c -0.617188,0 -1.203125,0.085938 -1.765625,0.25 -0.5625,0.15625 -1.085937,0.390625 -1.5625,0.703125 -0.792969,0.523437 -1.40625,1.199219 -1.84375,2.03125 -0.4375,0.824219 -0.65625,1.71875 -0.65625,2.6875 0,0.792969 0.140625,1.539063 0.421875,2.234375 0.28125,0.6875 0.691406,1.296875 1.234375,1.828125 C 4.765625,0.253906 5.375,0.648438 6.0625,0.921875 6.75,1.203125 7.488281,1.34375 8.28125,1.34375 c 0.664062,0 1.332031,-0.125 2,-0.375 0.675781,-0.25 1.25,-0.589844 1.71875,-1.015625 L 12.859375,1.25 C 12.191406,1.757812 11.460938,2.148438 10.671875,2.421875 9.890625,2.703125 9.097656,2.84375 8.296875,2.84375 7.304688,2.84375 6.375,2.664062 5.5,2.3125 4.625,1.96875 3.847656,1.460938 3.171875,0.796875 c -0.679687,-0.667969 -1.199219,-1.4375 -1.5625,-2.3125 -0.355469,-0.875 -0.53125,-1.8125 -0.53125,-2.8125 0,-0.96875 0.179687,-1.890625 0.546875,-2.765625 0.363281,-0.882812 0.878906,-1.660156 1.546875,-2.328125 0.664063,-0.65625 1.445313,-1.160156 2.34375,-1.515625 0.894531,-0.363281 1.820313,-0.546875 2.78125,-0.546875 1.1875,0 2.265625,0.230469 3.234375,0.6875 0.976562,0.449219 1.796875,1.101563 2.453125,1.953125 0.40625,0.523438 0.707031,1.089844 0.90625,1.703125 0.207031,0.605469 0.3125,1.242187 0.3125,1.90625 0,1.449219 -0.4375,2.574219 -1.3125,3.375 -0.867187,0.792969 -2.089844,1.1875 -3.671875,1.1875 h -0.3125 z m 0,0" />
    </g>
  </g>
</svg>
