<?xml version="1.0" encoding="UTF-8" standalone="no"?>
<svg
   xmlns:dc="http://purl.org/dc/elements/1.1/"
   xmlns:cc="http://creativecommons.org/ns#"
   xmlns:rdf="http://www.w3.org/1999/02/22-rdf-syntax-ns#"
   xmlns:svg="http://www.w3.org/2000/svg"
   xmlns="http://www.w3.org/2000/svg"
   xmlns:sodipodi="http://sodipodi.sourceforge.net/DTD/sodipodi-0.dtd"
   xmlns:inkscape="http://www.inkscape.org/namespaces/inkscape"
   width="48"
   height="48"
   version="1"
   id="svg24"
   sodipodi:docname="text-x-tex.svg"
   inkscape:version="0.92.2 2405546, 2018-03-11">
  <metadata
     id="metadata28">
    <rdf:RDF>
      <cc:Work
         rdf:about="">
        <dc:format>image/svg+xml</dc:format>
        <dc:type
           rdf:resource="http://purl.org/dc/dcmitype/StillImage" />
        <dc:title></dc:title>
      </cc:Work>
    </rdf:RDF>
  </metadata>
  <sodipodi:namedview
     pagecolor="#ffffff"
     bordercolor="#666666"
     borderopacity="1"
     objecttolerance="10"
     gridtolerance="10"
     guidetolerance="10"
     inkscape:pageopacity="0"
     inkscape:pageshadow="2"
     inkscape:window-width="1366"
     inkscape:window-height="690"
     id="namedview26"
     showgrid="false"
     inkscape:zoom="4.9166667"
     inkscape:cx="-27.966102"
     inkscape:cy="24"
     inkscape:window-x="0"
     inkscape:window-y="0"
     inkscape:window-maximized="1"
     inkscape:current-layer="svg24" />
  <defs
     id="defs8">
    <clipPath
       id="clipPath4266-4"
       clipPathUnits="userSpaceOnUse">
      <path
         fill="#fff"
         d="m146 240c-1.108 0-2 0.892-2 2v36c0 1.108 0.892 2 2 2h28c1.108 0 2-0.892 2-2v-26l-12-12h-18z"
         id="path2" />
    </clipPath>
    <filter
       id="filter4987"
       width="1.26"
       height="1.223"
       x="-.13"
       y="-.11">
      <feGaussianBlur
         stdDeviation=".65"
         id="feGaussianBlur5" />
    </filter>
    <clipPath
       id="clip3">
      <path
         inkscape:connector-curvature="0"
         d="m 9,15 h 7 v 8 H 9 Z m 0,0"
         id="path9" />
    </clipPath>
    <clipPath
       id="clip4">
      <path
         inkscape:connector-curvature="0"
         d="m 32.855469,19.9375 c 0,8.207031 -6.65625,14.851562 -14.855469,14.851562 -8.199219,0 -14.855469,-6.644531 -14.855469,-14.851562 0,-8.207031 6.65625,-14.855469 14.855469,-14.855469 8.199219,0 14.855469,6.648438 14.855469,14.855469 z m 0,0"
         id="path12-2" />
    </clipPath>
    <clipPath
       id="clip5">
      <path
         inkscape:connector-curvature="0"
         d="m 15,17 h 6 v 8 h -6 z m 0,0"
         id="path15" />
    </clipPath>
    <clipPath
       id="clip6">
      <path
         inkscape:connector-curvature="0"
         d="m 32.855469,19.9375 c 0,8.207031 -6.65625,14.851562 -14.855469,14.851562 -8.199219,0 -14.855469,-6.644531 -14.855469,-14.851562 0,-8.207031 6.65625,-14.855469 14.855469,-14.855469 8.199219,0 14.855469,6.648438 14.855469,14.855469 z m 0,0"
         id="path18-4" />
    </clipPath>
    <clipPath
       id="clip7">
      <path
         inkscape:connector-curvature="0"
         d="m 19,15 h 8 v 8 h -8 z m 0,0"
         id="path21" />
    </clipPath>
    <clipPath
       id="clip8">
      <path
         inkscape:connector-curvature="0"
         d="m 32.855469,19.9375 c 0,8.207031 -6.65625,14.851562 -14.855469,14.851562 -8.199219,0 -14.855469,-6.644531 -14.855469,-14.851562 0,-8.207031 6.65625,-14.855469 14.855469,-14.855469 8.199219,0 14.855469,6.648438 14.855469,14.855469 z m 0,0"
         id="path24" />
    </clipPath>
  </defs>
  <path
     style="opacity:0.2"
     d="M 10,5 C 8.892,5 8,5.892 8,7 v 36 c 0,1.108 0.892,2 2,2 h 28 c 1.108,0 2,-0.892 2,-2 V 17 L 29,16 28,5 Z"
     id="path10" />
  <path
     opacity=".1"
     d="m163.22 242.45v11c0 1.1046 0.89543 2 2 2h10l-1-1-10-9z"
     clip-path="url(#clipPath4266-4)"
     filter="url(#filter4987)"
     transform="translate(-135.61 -237.72)"
     id="path12" />
  <path
     fill="#e4e4e4"
     d="m10 4c-1.108 0-2 0.892-2 2v36c0 1.108 0.892 2 2 2h28c1.108 0 2-0.892 2-2v-26l-11-1-1-11z"
     id="path14" />
  <path
     fill="#fff"
     opacity=".2"
     d="m10 4c-1.108 0-2 0.892-2 2v1c0-1.108 0.892-2 2-2h18l11 11h1l-12-12z"
     id="path16" />
  <path
     style="opacity:0.2"
     d="m 28,5 v 10 c 0,1.1046 0.89543,2 2,2 h 10 z"
     id="path18" />
  <path
     fill="#fafafa"
     d="m28 4v10c0 1.1046 0.89543 2 2 2h10l-12-12z"
     id="path20" />
  <g
     transform="matrix(1.3333333,0,0,1.3333333,6e-7,0.14962615)"
     id="g74">
    <g
       id="g43"
       clip-path="url(#clip3)">
      <g
         id="g41"
         clip-path="url(#clip4)">
        <path
           inkscape:connector-curvature="0"
           id="path39"
           d="M 15.546875,15.429688 H 9.773438 L 9.605469,17.652344 H 9.78125 c 0.128906,-1.667969 0.273438,-1.957032 1.824219,-1.957032 0.175781,0 0.46875,0 0.550781,0 0.191406,0.02734 0.191406,0.152344 0.191406,0.382813 v 5.472656 c 0,0.363281 -0.03125,0.472657 -0.871094,0.472657 h -0.285156 v 0.242187 c 0.480469,-0.01172 0.980469,-0.01953 1.46875,-0.01953 0.492188,0 0.992188,0.01563 1.472656,0.01953 v -0.242187 h -0.285156 c -0.832031,0 -0.859375,-0.109376 -0.859375,-0.472657 v -5.472656 c 0,-0.222656 0,-0.339844 0.179688,-0.382813 h 0.546875 c 1.53125,0 1.683594,0.289063 1.816406,1.957032 h 0.171875"
           style="fill:#2b2b2b" />
      </g>
    </g>
    <g
       id="g49"
       clip-path="url(#clip5)">
      <g
         id="g47"
         clip-path="url(#clip6)">
        <path
           inkscape:connector-curvature="0"
           id="path45"
           d="m 20.5625,21.917969 h -0.179688 c -0.21875,1.492187 -0.347656,2.300781 -2.109374,2.300781 h -1.386719 c -0.398438,0 -0.414063,-0.05078 -0.414063,-0.394531 v -2.8125 h 0.941406 c 0.941407,0 1.03125,0.351562 1.03125,1.199219 h 0.164063 v -2.613282 h -0.164063 c 0,0.832032 -0.08984,1.171875 -1.03125,1.171875 h -0.941406 v -2.492187 c 0,-0.335938 0.01563,-0.386719 0.414063,-0.386719 h 1.367187 c 1.546875,0 1.730469,0.617187 1.867188,1.945313 h 0.183594 L 20.0625,17.613281 H 15 v 0.277344 c 0.710938,0 0.824219,0 0.824219,0.449219 v 5.425781 c 0,0.449219 -0.113281,0.449219 -0.824219,0.449219 v 0.242187 h 5.199219"
           style="fill:#2b2b2b" />
      </g>
    </g>
    <g
       id="g55"
       clip-path="url(#clip7)">
      <g
         id="g53"
         clip-path="url(#clip8)">
        <path
           inkscape:connector-curvature="0"
           id="path51"
           d="M 23.257812,18.464844 24.734375,16.3125 c 0.148437,-0.207031 0.453125,-0.640625 1.273437,-0.65625 v -0.242188 c -0.230468,0.01953 -0.609374,0.01953 -0.851562,0.01953 -0.328125,0 -0.738281,0 -0.988281,-0.01953 v 0.242188 c 0.320312,0.03125 0.402343,0.234375 0.402343,0.394531 0,0.121094 -0.05078,0.203125 -0.121093,0.300781 l -1.320313,1.925782 -1.480468,-2.175782 c -0.07031,-0.113281 -0.07813,-0.140624 -0.07813,-0.171874 0,-0.08984 0.109376,-0.261719 0.441407,-0.273438 v -0.242188 c -0.320313,0.01953 -0.808594,0.01953 -1.140625,0.01953 -0.257813,0 -0.757813,0 -1,-0.01953 v 0.242188 c 0.550781,0 0.730468,0.01953 0.949218,0.332031 L 22.75,18.839844 21.007812,21.394531 c -0.425781,0.621094 -1.074218,0.636719 -1.265624,0.636719 v 0.242188 C 19.96875,22.25 20.347656,22.25 20.589844,22.25 c 0.269531,0 0.738281,0 0.988281,0.02344 V 22.03125 C 21.269531,22 21.179688,21.796875 21.179688,21.636719 c 0,-0.132813 0.04687,-0.203125 0.09766,-0.273438 l 1.601562,-2.347656 1.738282,2.570313 c 0.07812,0.109374 0.07812,0.140624 0.07812,0.171874 0,0.08203 -0.08984,0.253907 -0.441406,0.273438 v 0.242188 c 0.320313,-0.01953 0.808594,-0.01953 1.140625,-0.01953 0.257813,0 0.757813,0 1,0.01953 V 22.03125 c -0.640625,0 -0.742187,-0.05078 -0.9375,-0.335938"
           style="fill:#2b2b2b" />
      </g>
    </g>
  </g>
</svg>
