<?xml version="1.0" encoding="UTF-8" standalone="no"?>
<svg
   xmlns:dc="http://purl.org/dc/elements/1.1/"
   xmlns:cc="http://creativecommons.org/ns#"
   xmlns:rdf="http://www.w3.org/1999/02/22-rdf-syntax-ns#"
   xmlns:svg="http://www.w3.org/2000/svg"
   xmlns="http://www.w3.org/2000/svg"
   xmlns:sodipodi="http://sodipodi.sourceforge.net/DTD/sodipodi-0.dtd"
   xmlns:inkscape="http://www.inkscape.org/namespaces/inkscape"
   viewBox="0 0 16 16"
   version="1.1"
   id="svg6"
   sodipodi:docname="folder-music-symbolic.svg"
   inkscape:version="0.92.2 2405546, 2018-03-11">
  <metadata
     id="metadata10">
    <rdf:RDF>
      <cc:Work
         rdf:about="">
        <dc:format>image/svg+xml</dc:format>
        <dc:type
           rdf:resource="http://purl.org/dc/dcmitype/StillImage" />
      </cc:Work>
    </rdf:RDF>
  </metadata>
  <sodipodi:namedview
     pagecolor="#ffffff"
     bordercolor="#666666"
     borderopacity="1"
     objecttolerance="10"
     gridtolerance="10"
     guidetolerance="10"
     inkscape:pageopacity="0"
     inkscape:pageshadow="2"
     inkscape:window-width="781"
     inkscape:window-height="480"
     id="namedview8"
     showgrid="false"
     inkscape:zoom="14.75"
     inkscape:cx="8"
     inkscape:cy="8"
     inkscape:window-x="0"
     inkscape:window-y="28"
     inkscape:window-maximized="0"
     inkscape:current-layer="svg6" />
  <defs
     id="defs3051">
    <style
       type="text/css"
       id="current-color-scheme">
      .ColorScheme-Text {
        color:#4d4d4d;
      }
      </style>
  </defs>
  <path
     style="fill:#5c616c;fill-opacity:1;stroke:none"
     class="ColorScheme-Text"
     d="M 13.466797 0.17578125 L 6.6035156 2.0488281 C 6.0878828 2.1946613 5.671875 2.7744531 5.671875 3.3378906 L 5.671875 12.271484 C 5.149009 11.98251 4.4774418 11.865712 3.78125 12.056641 C 2.524962 12.401171 1.7385152 13.514318 2.0078125 14.542969 C 2.2771104 15.57162 3.5151985 16.145319 4.7714844 15.800781 C 5.7737423 15.525919 6.4640335 14.749783 6.5742188 13.929688 L 6.6035156 5.4863281 L 13.119141 3.6445312 L 13.119141 10.306641 C 12.596269 10.017666 11.924704 9.900865 11.228516 10.091797 C 9.9722269 10.436328 9.1838284 11.549467 9.453125 12.578125 C 9.7224222 13.606775 10.960513 14.180475 12.216797 13.835938 C 13.219057 13.561073 13.909347 12.784942 14.019531 11.964844 L 14.048828 0.97460938 C 14.048828 0.55203209 13.801077 0.23522224 13.466797 0.17578125 z "
     id="path4" />
</svg>
