/* XPM */
static char * maximize_inactive_xpm[] = {
"32 34 4 1",
" 	c None",
".	c #8E8E8E",
"+	c #BCBCBC",
"@	c #8D9091",
"................................",
"++++++++++++++++++++++++++++++++",
"++++++++++++++++++++++++++++++++",
"++++++++++++++++++++++++++++++++",
"++++++++++++++++++++++++++++++++",
"++++++++++++++++++++++++++++++++",
"++++++++++++++++++++++++++++++++",
"++++++++++++++++++++++++++++++++",
"++++++++++++++++++++++++++++++++",
"++++++++++++++++++++++++++++++++",
"++++++++++++++++++++++++++++++++",
"++++++++++@@@@@@@@@@@@++++++++++",
"++++++++++@@@@@@@@@@@@++++++++++",
"++++++++++@@++++++++@@++++++++++",
"++++++++++@@++++++++@@++++++++++",
"++++++++++@@++++++++@@++++++++++",
"++++++++++@@++++++++@@++++++++++",
"++++++++++@@++++++++@@++++++++++",
"++++++++++@@++++++++@@++++++++++",
"++++++++++@@++++++++@@++++++++++",
"++++++++++@@++++++++@@++++++++++",
"++++++++++@@@@@@@@@@@@++++++++++",
"++++++++++@@@@@@@@@@@@++++++++++",
"++++++++++++++++++++++++++++++++",
"++++++++++++++++++++++++++++++++",
"++++++++++++++++++++++++++++++++",
"++++++++++++++++++++++++++++++++",
"++++++++++++++++++++++++++++++++",
"++++++++++++++++++++++++++++++++",
"++++++++++++++++++++++++++++++++",
"++++++++++++++++++++++++++++++++",
"++++++++++++++++++++++++++++++++",
"++++++++++++++++++++++++++++++++",
"++++++++++++++++++++++++++++++++"};
