/* XPM */
static char * maximize_pressed_xpm[] = {
"32 34 4 1",
" 	c None",
".	c #8E8E8E",
"+	c #969696",
"@	c #44494B",
"................................",
"++++++++++++++++++++++++++++++++",
"++++++++++++++++++++++++++++++++",
"++++++++++++++++++++++++++++++++",
"++++++++++++++++++++++++++++++++",
"++++++++++++++++++++++++++++++++",
"++++++++++++++++++++++++++++++++",
"++++++++++++++++++++++++++++++++",
"++++++++++++++++++++++++++++++++",
"++++++++++++++++++++++++++++++++",
"++++++++++++++++++++++++++++++++",
"++++++++++@@@@@@@@@@@@++++++++++",
"++++++++++@@@@@@@@@@@@++++++++++",
"++++++++++@@++++++++@@++++++++++",
"++++++++++@@++++++++@@++++++++++",
"++++++++++@@++++++++@@++++++++++",
"++++++++++@@++++++++@@++++++++++",
"++++++++++@@++++++++@@++++++++++",
"++++++++++@@++++++++@@++++++++++",
"++++++++++@@++++++++@@++++++++++",
"++++++++++@@++++++++@@++++++++++",
"++++++++++@@@@@@@@@@@@++++++++++",
"++++++++++@@@@@@@@@@@@++++++++++",
"++++++++++++++++++++++++++++++++",
"++++++++++++++++++++++++++++++++",
"++++++++++++++++++++++++++++++++",
"++++++++++++++++++++++++++++++++",
"++++++++++++++++++++++++++++++++",
"++++++++++++++++++++++++++++++++",
"++++++++++++++++++++++++++++++++",
"++++++++++++++++++++++++++++++++",
"++++++++++++++++++++++++++++++++",
"++++++++++++++++++++++++++++++++",
"++++++++++++++++++++++++++++++++"};
