/* XPM */
static char * stick_toggled_active_xpm[] = {
"32 34 61 1",
" 	c None",
".	c #8E8E8E",
"+	c #BCBCBC",
"@	c #A2A4A5",
"#	c #6E7273",
"$	c #555A5C",
"%	c #565B5C",
"&	c #707577",
"*	c #A6A7A8",
"=	c #BFC0C1",
"-	c #53585A",
";	c #888B8D",
">	c #C6C7C7",
",	c #C2C4C4",
"'	c #828787",
")	c #C7C8C9",
"!	c #BCBEBF",
"~	c #585B5D",
"{	c #C9CACB",
"]	c #55595B",
"^	c #C6C8C8",
"/	c #525758",
"(	c #97999A",
"_	c #909394",
":	c #989B9C",
"<	c #585D5E",
"[	c #999B9D",
"}	c #A3A5A6",
"|	c #626567",
"1	c #979A9B",
"2	c #44494B",
"3	c #6D7172",
"4	c #494E50",
"5	c #575B5D",
"6	c #585C5E",
"7	c #484D4F",
"8	c #575C5D",
"9	c #595D5F",
"0	c #515658",
"a	c #5D6163",
"b	c #999B9C",
"c	c #696D6E",
"d	c #8E9292",
"e	c #989A9C",
"f	c #909494",
"g	c #9B9D9E",
"h	c #525658",
"i	c #535859",
"j	c #ACAEAF",
"k	c #5E6265",
"l	c #5A5F60",
"m	c #B7B8B9",
"n	c #ABADAE",
"o	c #999C9D",
"p	c #949899",
"q	c #52575A",
"r	c #B4B6B7",
"s	c #8C8F90",
"t	c #484C4E",
"u	c #5C6062",
"v	c #919495",
"................................",
"++++++++++++++++++++++++++++++++",
"++++++++++++++++++++++++++++++++",
"++++++++++++++++++++++++++++++++",
"++++++++++++++++++++++++++++++++",
"++++++++++++++++++++++++++++++++",
"++++++++++++++++++++++++++++++++",
"++++++++++++++++++++++++++++++++",
"++++++++++++++++++++++++++++++++",
"++++++++++++++++++++++++++++++++",
"+++++++++++++@#$%&*+++++++++++++",
"+++++++++++=-;>++,'%)+++++++++++",
"++++++++++!~+++++++{]^++++++++++",
"++++++++++/++++++++++%++++++++++",
"+++++++++(_+++:<<[+++;}+++++++++",
"+++++++++|+++12222[++{3+++++++++",
"+++++++++4+++522226+++-+++++++++",
"+++++++++7+++822229+++0+++++++++",
"+++++++++a+++12222b+++c+++++++++",
"+++++++++db+++e66b+++fg+++++++++",
"++++++++++h++++++++++i++++++++++",
"++++++++++jk++++++++lm++++++++++",
"+++++++++++nho++++pqr+++++++++++",
"+++++++++++++slttuv+++++++++++++",
"++++++++++++++++++++++++++++++++",
"++++++++++++++++++++++++++++++++",
"++++++++++++++++++++++++++++++++",
"++++++++++++++++++++++++++++++++",
"++++++++++++++++++++++++++++++++",
"++++++++++++++++++++++++++++++++",
"++++++++++++++++++++++++++++++++",
"++++++++++++++++++++++++++++++++",
"++++++++++++++++++++++++++++++++",
"++++++++++++++++++++++++++++++++"};
