/* XPM */
static char * stick_inactive_xpm[] = {
"32 34 20 1",
" 	c None",
".	c #8E8E8E",
"+	c #BCBCBC",
"@	c #BBBDBD",
"#	c #9EA1A2",
"$	c #919494",
"%	c #9FA1A2",
"&	c #949798",
"*	c #B7B7B9",
"=	c #B6B8B8",
"-	c #989A9B",
";	c #979A9C",
">	c #B6B7B8",
",	c #9EA0A1",
"'	c #919495",
")	c #929596",
"!	c #9FA2A3",
"~	c #BCBDBE",
"{	c #B5B7B8",
"]	c #959898",
"................................",
"++++++++++++++++++++++++++++++++",
"++++++++++++++++++++++++++++++++",
"++++++++++++++++++++++++++++++++",
"++++++++++++++++++++++++++++++++",
"++++++++++++++++++++++++++++++++",
"++++++++++++++++++++++++++++++++",
"++++++++++++++++++++++++++++++++",
"++++++++++++++++++++++++++++++++",
"++++++++++++++++++++++++++++++++",
"+++++++++++++@#$$%@+++++++++++++",
"++++++++++++&*++++=&++++++++++++",
"+++++++++++-++++++++;+++++++++++",
"++++++++++&++++++++++&++++++++++",
"+++++++++@*++++++++++>@+++++++++",
"+++++++++,++++++++++++%+++++++++",
"+++++++++'++++++++++++'+++++++++",
"+++++++++'++++++++++++)+++++++++",
"+++++++++#++++++++++++!+++++++++",
"+++++++++~=++++++++++{~+++++++++",
"++++++++++&++++++++++]++++++++++",
"+++++++++++;++++++++;+++++++++++",
"++++++++++++&>++++{&++++++++++++",
"+++++++++++++@!''!@+++++++++++++",
"++++++++++++++++++++++++++++++++",
"++++++++++++++++++++++++++++++++",
"++++++++++++++++++++++++++++++++",
"++++++++++++++++++++++++++++++++",
"++++++++++++++++++++++++++++++++",
"++++++++++++++++++++++++++++++++",
"++++++++++++++++++++++++++++++++",
"++++++++++++++++++++++++++++++++",
"++++++++++++++++++++++++++++++++",
"++++++++++++++++++++++++++++++++"};
