/* XPM */
static char * stick_toggled_pressed_xpm[] = {
"32 34 47 1",
" 	c None",
".	c #8E8E8E",
"+	c #939393",
"@	c #6E7273",
"#	c #555A5C",
"$	c #565B5C",
"%	c #707577",
"&	c #53585A",
"*	c #888B8D",
"=	c #828787",
"-	c #585B5D",
";	c #55595B",
">	c #525758",
",	c #97999A",
"'	c #909394",
")	c #989B9C",
"!	c #585D5E",
"~	c #999B9D",
"{	c #626567",
"]	c #979A9B",
"^	c #44494B",
"/	c #6D7172",
"(	c #494E50",
"_	c #575B5D",
":	c #585C5E",
"<	c #484D4F",
"[	c #575C5D",
"}	c #595D5F",
"|	c #515658",
"1	c #5D6163",
"2	c #999B9C",
"3	c #696D6E",
"4	c #8E9292",
"5	c #989A9C",
"6	c #909494",
"7	c #9B9D9E",
"8	c #525658",
"9	c #535859",
"0	c #5E6265",
"a	c #5A5F60",
"b	c #999C9D",
"c	c #949899",
"d	c #52575A",
"e	c #8C8F90",
"f	c #484C4E",
"g	c #5C6062",
"h	c #919495",
"................................",
"++++++++++++++++++++++++++++++++",
"++++++++++++++++++++++++++++++++",
"++++++++++++++++++++++++++++++++",
"++++++++++++++++++++++++++++++++",
"++++++++++++++++++++++++++++++++",
"++++++++++++++++++++++++++++++++",
"++++++++++++++++++++++++++++++++",
"++++++++++++++++++++++++++++++++",
"++++++++++++++++++++++++++++++++",
"++++++++++++++@#$%++++++++++++++",
"++++++++++++&*++++=$++++++++++++",
"+++++++++++-++++++++;+++++++++++",
"++++++++++>++++++++++$++++++++++",
"+++++++++,'+++)!!~+++*++++++++++",
"+++++++++{+++]^^^^~+++/+++++++++",
"+++++++++(+++_^^^^:+++&+++++++++",
"+++++++++<+++[^^^^}+++|+++++++++",
"+++++++++1+++]^^^^2+++3+++++++++",
"+++++++++42+++5::2+++67+++++++++",
"++++++++++8++++++++++9++++++++++",
"+++++++++++0++++++++a+++++++++++",
"++++++++++++8b++++cd++++++++++++",
"+++++++++++++eaffgh+++++++++++++",
"++++++++++++++++++++++++++++++++",
"++++++++++++++++++++++++++++++++",
"++++++++++++++++++++++++++++++++",
"++++++++++++++++++++++++++++++++",
"++++++++++++++++++++++++++++++++",
"++++++++++++++++++++++++++++++++",
"++++++++++++++++++++++++++++++++",
"++++++++++++++++++++++++++++++++",
"++++++++++++++++++++++++++++++++",
"++++++++++++++++++++++++++++++++"};
