/* XPM */
static char * stick_toggled_inactive_xpm[] = {
"32 34 40 1",
" 	c None",
".	c #8E8E8E",
"+	c #BCBCBC",
"@	c #C0C1C2",
"#	c #A3A7A7",
"$	c #96999A",
"%	c #97999A",
"&	c #A6A8A8",
"*	c #C2C3C3",
"=	c #959899",
"-	c #B2B5B5",
";	c #AFB1B2",
">	c #989A9B",
",	c #949798",
"'	c #BABCBC",
")	c #B7B8B8",
"!	c #BBBDBD",
"~	c #C1C3C3",
"{	c #9D9FA1",
"]	c #BBBCBD",
"^	c #8D9091",
"/	c #A3A5A6",
"(	c #909293",
"_	c #8F9293",
":	c #979A9C",
"<	c #989A9C",
"[	c #9B9D9E",
"}	c #BCBDBE",
"|	c #A1A4A4",
"1	c #B7B7B9",
"2	c #B8B9B9",
"3	c #BEBFC0",
"4	c #C6C8C8",
"5	c #9A9E9F",
"6	c #999C9C",
"7	c #BABBBC",
"8	c #959898",
"9	c #B5B7B8",
"0	c #9A9D9E",
"a	c #B7B9BB",
"................................",
"++++++++++++++++++++++++++++++++",
"++++++++++++++++++++++++++++++++",
"++++++++++++++++++++++++++++++++",
"++++++++++++++++++++++++++++++++",
"++++++++++++++++++++++++++++++++",
"++++++++++++++++++++++++++++++++",
"++++++++++++++++++++++++++++++++",
"++++++++++++++++++++++++++++++++",
"++++++++++++++++++++++++++++++++",
"+++++++++++++@#$%&*+++++++++++++",
"++++++++++++=-++++;%++++++++++++",
"+++++++++++>++++++++$+++++++++++",
"++++++++++,++++++++++%++++++++++",
"+++++++++')+++!>>!+++-~+++++++++",
"+++++++++{+++]^^^^!+++/+++++++++",
"+++++++++(+++>^^^^>+++=+++++++++",
"+++++++++_+++:^^^^<+++,+++++++++",
"+++++++++[+++!^^^^}+++|+++++++++",
"+++++++++1}+++!>>}+++23+++++++++",
"++++++++++,++++++++++=++++++++++",
"++++++++++45++++++++6+++++++++++",
"+++++++++++4,}++++78++++++++++++",
"+++++++++++++96__0a+++++++++++++",
"++++++++++++++++++++++++++++++++",
"++++++++++++++++++++++++++++++++",
"++++++++++++++++++++++++++++++++",
"++++++++++++++++++++++++++++++++",
"++++++++++++++++++++++++++++++++",
"++++++++++++++++++++++++++++++++",
"++++++++++++++++++++++++++++++++",
"++++++++++++++++++++++++++++++++",
"++++++++++++++++++++++++++++++++",
"++++++++++++++++++++++++++++++++"};
