/* XPM */
static char * stick_prelight_xpm[] = {
"32 34 29 1",
" 	c None",
".	c #8E8E8E",
"+	c #ACACAC",
"@	c #999B9D",
"#	c #65696A",
"$	c #4B5052",
"%	c #65696C",
"&	c #525758",
"*	c #909394",
"=	c #585D5E",
"-	c #585C5D",
";	c #8F9393",
">	c #8E9192",
",	c #999D9E",
"'	c #636969",
")	c #4C5052",
"!	c #4C5153",
"~	c #4D5254",
"{	c #64686A",
"]	c #65696B",
"^	c #999B9C",
"/	c #8F9293",
"(	c #8D9091",
"_	c #999C9D",
":	c #525658",
"<	c #52575A",
"[	c #575C5C",
"}	c #8C8F90",
"|	c #989B9C",
"................................",
"++++++++++++++++++++++++++++++++",
"++++++++++++++++++++++++++++++++",
"++++++++++++++++++++++++++++++++",
"++++++++++++++++++++++++++++++++",
"++++++++++++++++++++++++++++++++",
"++++++++++++++++++++++++++++++++",
"++++++++++++++++++++++++++++++++",
"++++++++++++++++++++++++++++++++",
"++++++++++++++++++++++++++++++++",
"+++++++++++++@#$$%@+++++++++++++",
"++++++++++++&*++++*&++++++++++++",
"+++++++++++=++++++++-+++++++++++",
"++++++++++&++++++++++&++++++++++",
"+++++++++@;++++++++++>,+++++++++",
"+++++++++'++++++++++++%+++++++++",
"+++++++++)++++++++++++!+++++++++",
"+++++++++!++++++++++++~+++++++++",
"+++++++++{++++++++++++]+++++++++",
"+++++++++^/++++++++++(_+++++++++",
"++++++++++:++++++++++<++++++++++",
"+++++++++++[++++++++[+++++++++++",
"++++++++++++:(++++}:++++++++++++",
"+++++++++++++|])!]|+++++++++++++",
"++++++++++++++++++++++++++++++++",
"++++++++++++++++++++++++++++++++",
"++++++++++++++++++++++++++++++++",
"++++++++++++++++++++++++++++++++",
"++++++++++++++++++++++++++++++++",
"++++++++++++++++++++++++++++++++",
"++++++++++++++++++++++++++++++++",
"++++++++++++++++++++++++++++++++",
"++++++++++++++++++++++++++++++++",
"++++++++++++++++++++++++++++++++"};
