/* XPM */
static char * stick_active_xpm[] = {
"32 34 34 1",
" 	c None",
".	c #8E8E8E",
"+	c #BCBCBC",
"@	c #999B9D",
"#	c #65696A",
"$	c #4B5052",
"%	c #65696C",
"&	c #B9BBBC",
"*	c #525758",
"=	c #909394",
"-	c #BBBCBD",
";	c #585D5E",
">	c #585C5D",
",	c #8F9393",
"'	c #8E9192",
")	c #999D9E",
"!	c #636969",
"~	c #4C5052",
"{	c #4C5153",
"]	c #4D5254",
"^	c #64686A",
"/	c #65696B",
"(	c #999B9C",
"_	c #8F9293",
":	c #8D9091",
"<	c #999C9D",
"[	c #525658",
"}	c #52575A",
"|	c #B9BABB",
"1	c #575C5C",
"2	c #BABCBD",
"3	c #B8B9BA",
"4	c #8C8F90",
"5	c #989B9C",
"................................",
"++++++++++++++++++++++++++++++++",
"++++++++++++++++++++++++++++++++",
"++++++++++++++++++++++++++++++++",
"++++++++++++++++++++++++++++++++",
"++++++++++++++++++++++++++++++++",
"++++++++++++++++++++++++++++++++",
"++++++++++++++++++++++++++++++++",
"++++++++++++++++++++++++++++++++",
"++++++++++++++++++++++++++++++++",
"+++++++++++++@#$$%@+++++++++++++",
"+++++++++++&*=++++=*-+++++++++++",
"++++++++++&;++++++++>-++++++++++",
"++++++++++*++++++++++*++++++++++",
"+++++++++@,++++++++++')+++++++++",
"+++++++++!++++++++++++%+++++++++",
"+++++++++~++++++++++++{+++++++++",
"+++++++++{++++++++++++]+++++++++",
"+++++++++^++++++++++++/+++++++++",
"+++++++++(_++++++++++:<+++++++++",
"++++++++++[++++++++++}++++++++++",
"++++++++++|1++++++++12++++++++++",
"+++++++++++3[:++++4[|+++++++++++",
"+++++++++++++5/~{/5+++++++++++++",
"++++++++++++++++++++++++++++++++",
"++++++++++++++++++++++++++++++++",
"++++++++++++++++++++++++++++++++",
"++++++++++++++++++++++++++++++++",
"++++++++++++++++++++++++++++++++",
"++++++++++++++++++++++++++++++++",
"++++++++++++++++++++++++++++++++",
"++++++++++++++++++++++++++++++++",
"++++++++++++++++++++++++++++++++",
"++++++++++++++++++++++++++++++++"};
