/* XPM */
static char * top_right_inactive_xpm[] = {
"5 34 4 1",
" 	c None",
".	c #8E8E8E",
"+	c #BCBCBC",
"@	c #A2A2A2",
"...  ",
"+++@ ",
"++++.",
"++++.",
"++++.",
"++++.",
"++++.",
"++++.",
"++++.",
"++++.",
"++++.",
"++++.",
"++++.",
"++++.",
"++++.",
"++++.",
"++++.",
"++++.",
"++++.",
"++++.",
"++++.",
"++++.",
"++++.",
"++++.",
"++++.",
"++++.",
"++++.",
"++++.",
"++++.",
"++++.",
"++++.",
"++++.",
"++++.",
"++++."};
