<?xml version="1.0" encoding="UTF-8" standalone="no"?>
<svg
   xmlns:dc="http://purl.org/dc/elements/1.1/"
   xmlns:cc="http://creativecommons.org/ns#"
   xmlns:rdf="http://www.w3.org/1999/02/22-rdf-syntax-ns#"
   xmlns:svg="http://www.w3.org/2000/svg"
   xmlns="http://www.w3.org/2000/svg"
   xmlns:sodipodi="http://sodipodi.sourceforge.net/DTD/sodipodi-0.dtd"
   xmlns:inkscape="http://www.inkscape.org/namespaces/inkscape"
   width="512"
   height="512"
   version="1"
   id="svg18"
   sodipodi:docname="camera-web.svg"
   inkscape:version="0.92.2 2405546, 2018-03-11">
  <metadata
     id="metadata24">
    <rdf:RDF>
      <cc:Work
         rdf:about="">
        <dc:format>image/svg+xml</dc:format>
        <dc:type
           rdf:resource="http://purl.org/dc/dcmitype/StillImage" />
        <dc:title></dc:title>
      </cc:Work>
    </rdf:RDF>
  </metadata>
  <defs
     id="defs22" />
  <sodipodi:namedview
     pagecolor="#ffffff"
     bordercolor="#666666"
     borderopacity="1"
     objecttolerance="10"
     gridtolerance="10"
     guidetolerance="10"
     inkscape:pageopacity="0"
     inkscape:pageshadow="2"
     inkscape:window-width="1366"
     inkscape:window-height="695"
     id="namedview20"
     showgrid="false"
     inkscape:zoom="0.43457604"
     inkscape:cx="-324.80645"
     inkscape:cy="548.87142"
     inkscape:window-x="0"
     inkscape:window-y="0"
     inkscape:window-maximized="1"
     inkscape:current-layer="svg18" />
  <g
     id="g842"
     transform="matrix(12,0,0,12,-32,-38)">
    <rect
       id="rect2"
       transform="matrix(0,-1,-1,0,0,0)"
       ry="20"
       rx="20"
       y="-44"
       x="-45"
       height="40"
       width="40"
       style="opacity:0.2" />
    <rect
       style="fill:#bebebe;fill-opacity:1"
       id="rect4"
       transform="matrix(0,-1,-1,0,0,0)"
       ry="20"
       rx="20"
       y="-44"
       x="-44"
       height="40"
       width="40" />
    <circle
       id="circle6"
       r="11"
       cy="24"
       cx="24"
       style="opacity:0.4" />
    <circle
       id="circle8"
       transform="scale(1,-1)"
       r="9"
       cy="-25"
       cx="24"
       style="opacity:0.2" />
    <circle
       id="circle10"
       transform="scale(1,-1)"
       r="9"
       cy="-24"
       cx="24"
       style="fill:#ba174e" />
    <path
       id="path12"
       d="M 24,4 C 12.92,4 4,12.92 4,24 4,24.168 4.0076,24.333 4.0117,24.5 4.2764,13.654 13.088,5 23.9997,5 c 10.9117,0 19.724,8.654 19.988,19.5 0.004,-0.167 0.012,-0.332 0.012,-0.5 0,-11.08 -8.92,-20 -20,-20 z"
       inkscape:connector-curvature="0"
       style="opacity:0.1;fill:#ffffff" />
    <circle
       id="circle14"
       r="6"
       cy="25"
       cx="24"
       style="opacity:0.2" />
    <circle
       id="circle16"
       r="6"
       cy="24"
       cx="24"
       style="fill:#d67495" />
  </g>
</svg>
