<?xml version="1.0" encoding="UTF-8" standalone="no"?>
<svg
   xmlns:dc="http://purl.org/dc/elements/1.1/"
   xmlns:cc="http://creativecommons.org/ns#"
   xmlns:rdf="http://www.w3.org/1999/02/22-rdf-syntax-ns#"
   xmlns:svg="http://www.w3.org/2000/svg"
   xmlns="http://www.w3.org/2000/svg"
   xmlns:sodipodi="http://sodipodi.sourceforge.net/DTD/sodipodi-0.dtd"
   xmlns:inkscape="http://www.inkscape.org/namespaces/inkscape"
   width="512"
   height="512"
   version="1"
   id="svg22"
   sodipodi:docname="user-trash-full.svg"
   inkscape:version="0.92.2 2405546, 2018-03-11">
  <metadata
     id="metadata28">
    <rdf:RDF>
      <cc:Work
         rdf:about="">
        <dc:format>image/svg+xml</dc:format>
        <dc:type
           rdf:resource="http://purl.org/dc/dcmitype/StillImage" />
        <dc:title></dc:title>
      </cc:Work>
    </rdf:RDF>
  </metadata>
  <defs
     id="defs26" />
  <sodipodi:namedview
     pagecolor="#ffffff"
     bordercolor="#666666"
     borderopacity="1"
     objecttolerance="10"
     gridtolerance="10"
     guidetolerance="10"
     inkscape:pageopacity="0"
     inkscape:pageshadow="2"
     inkscape:window-width="1366"
     inkscape:window-height="695"
     id="namedview24"
     showgrid="false"
     inkscape:zoom="0.43457604"
     inkscape:cx="111.69101"
     inkscape:cy="241.53672"
     inkscape:window-x="0"
     inkscape:window-y="0"
     inkscape:window-maximized="1"
     inkscape:current-layer="svg22" />
  <g
     id="g863"
     transform="matrix(11.25,0,0,11.25,-14,-14)">
    <rect
       id="rect2"
       y="4"
       x="18"
       height="4"
       width="12"
       style="fill:#d95656" />
    <path
       id="path4"
       d="M 18,4 V 5 H 30 V 4 Z"
       inkscape:connector-curvature="0"
       style="opacity:0.1;fill:#ffffff" />
    <rect
       id="rect6"
       ry="2.059"
       rx="2"
       y="8"
       x="9"
       height="35"
       width="30"
       style="fill:#ba4242" />
    <rect
       id="rect8"
       ry="2"
       rx="2"
       y="5"
       x="6"
       height="8"
       width="36"
       style="fill:#d95656" />
    <rect
       id="rect10"
       ry="1"
       rx="1"
       y="18"
       x="22"
       height="20"
       width="4"
       style="opacity:0.4" />
    <rect
       id="rect12"
       ry="1"
       rx="1"
       y="18"
       x="30"
       height="20"
       width="4"
       style="opacity:0.4" />
    <rect
       id="rect14"
       ry="1"
       rx="1"
       y="18"
       x="14"
       height="20"
       width="4"
       style="opacity:0.4" />
    <path
       id="path16"
       d="M 8,5 C 6.892,5 6,5.892 6,7 V 8 C 6,6.892 6.892,6 8,6 h 32 c 1.108,0 2,0.892 2,2 V 7 C 42,5.892 41.108,5 40,5 Z"
       inkscape:connector-curvature="0"
       style="opacity:0.2;fill:#ffffff" />
    <path
       id="path18"
       d="m 6,11 v 1 c 0,1.108 0.892,2 2,2 h 32 c 1.108,0 2,-0.892 2,-2 v -1 c 0,1.108 -0.892,2 -2,2 H 8 C 6.892,13 6,12.108 6,11 Z"
       inkscape:connector-curvature="0"
       style="opacity:0.2" />
    <path
       id="path20"
       d="m 9,40.941 v 1 C 9,43.082 9.892,44 11,44 h 26 c 1.108,0 2,-0.918 2,-2.0586 v -1 c 0,1.141 -0.892,2.059 -2,2.059 H 11 c -1.108,0 -2,-0.918 -2,-2.059 z"
       inkscape:connector-curvature="0"
       style="opacity:0.2" />
  </g>
</svg>
