<?xml version="1.0" encoding="UTF-8" standalone="no"?>
<svg
   xmlns:dc="http://purl.org/dc/elements/1.1/"
   xmlns:cc="http://creativecommons.org/ns#"
   xmlns:rdf="http://www.w3.org/1999/02/22-rdf-syntax-ns#"
   xmlns:svg="http://www.w3.org/2000/svg"
   xmlns="http://www.w3.org/2000/svg"
   xmlns:sodipodi="http://sodipodi.sourceforge.net/DTD/sodipodi-0.dtd"
   xmlns:inkscape="http://www.inkscape.org/namespaces/inkscape"
   width="512"
   height="512"
   version="1"
   id="svg14"
   sodipodi:docname="audio-input-microphone.svg"
   inkscape:version="0.92.2 2405546, 2018-03-11">
  <metadata
     id="metadata20">
    <rdf:RDF>
      <cc:Work
         rdf:about="">
        <dc:format>image/svg+xml</dc:format>
        <dc:type
           rdf:resource="http://purl.org/dc/dcmitype/StillImage" />
        <dc:title></dc:title>
      </cc:Work>
    </rdf:RDF>
  </metadata>
  <defs
     id="defs18" />
  <sodipodi:namedview
     pagecolor="#ffffff"
     bordercolor="#666666"
     borderopacity="1"
     objecttolerance="10"
     gridtolerance="10"
     guidetolerance="10"
     inkscape:pageopacity="0"
     inkscape:pageshadow="2"
     inkscape:window-width="1366"
     inkscape:window-height="695"
     id="namedview16"
     showgrid="false"
     inkscape:zoom="0.43457604"
     inkscape:cx="203.66026"
     inkscape:cy="460.91587"
     inkscape:window-x="0"
     inkscape:window-y="0"
     inkscape:window-maximized="1"
     inkscape:current-layer="svg14" />
  <g
     id="g833"
     transform="matrix(11.707317,0,0,11.707317,-24.975608,-30.829266)">
    <rect
       id="rect2"
       style="opacity:0.2"
       transform="matrix(0,-1,-1,0,0,0)"
       ry="10"
       rx="10"
       y="-34"
       x="-29"
       height="20"
       width="24" />
    <path
       id="path4"
       style="opacity:0.2"
       d="m 11,18 a 2,2 0 0 0 -2,2 v 2.5 c 0,6.358104 5.644991,11.564906 13,12.376953 V 41 h -8 a 2,2 0 0 0 -2,2 2,2 0 0 0 2,2 h 20 a 2,2 0 0 0 2,-2 2,2 0 0 0 -2,-2 H 26 V 34.876953 C 33.355009,34.064906 39,28.858104 39,22.5 V 20 a 2,2 0 0 0 -2,-2 2,2 0 0 0 -2,2 v 1.833984 C 35,26.911984 30.094,31 24,31 17.906,31 13,26.911984 13,21.833984 V 20 a 2,2 0 0 0 -2,-2 z"
       inkscape:connector-curvature="0" />
    <path
       id="path6"
       d="m 11,17 a 2,2 0 0 0 -2,2 v 2.5 c 0,6.358104 5.644991,11.564906 13,12.376953 V 40 h -8 a 2,2 0 0 0 -2,2 2,2 0 0 0 2,2 h 20 a 2,2 0 0 0 2,-2 2,2 0 0 0 -2,-2 H 26 V 33.876953 C 33.355009,33.064906 39,27.858104 39,21.5 V 19 a 2,2 0 0 0 -2,-2 2,2 0 0 0 -2,2 v 1.833984 C 35,25.911984 30.094,30 24,30 17.906,30 13,25.911984 13,20.833984 V 19 a 2,2 0 0 0 -2,-2 z"
       style="fill:#4f4f4f"
       inkscape:connector-curvature="0" />
    <rect
       id="rect8"
       style="fill:#8e8e8e"
       transform="matrix(0,-1,-1,0,0,0)"
       ry="10"
       rx="10"
       y="-34"
       x="-28"
       height="20"
       width="24" />
    <path
       id="path10"
       d="m 11,17 a 2,2 0 0 0 -2,2 v 1 a 2,2 0 0 1 2,-2 2,2 0 0 1 2,2 v -1 a 2,2 0 0 0 -2,-2 z m 26,0 a 2,2 0 0 0 -2,2 v 1 a 2,2 0 0 1 2,-2 2,2 0 0 1 2,2 v -1 a 2,2 0 0 0 -2,-2 z m -24,3.833984 v 1 C 13,26.911984 17.906,31 24,31 c 6.094,0 11,-4.088016 11,-9.166016 v -1 C 35,25.911984 30.094,30 24,30 17.906,30 13,25.911984 13,20.833984 Z M 14,40 a 2,2 0 0 0 -2,2 2,2 0 0 0 0.06445,0.496094 A 2,2 0 0 1 14,41 h 8 v -1 z m 12,0 v 1 h 8 A 2,2 0 0 1 35.935547,42.503906 2,2 0 0 0 36,42 2,2 0 0 0 34,40 Z"
       style="opacity:0.1;fill:#ffffff"
       inkscape:connector-curvature="0" />
    <path
       id="path12"
       d="M 24,4 C 18.46,4 14,8.46 14,14 v 1 C 14,9.46 18.46,5 24,5 29.54,5 34,9.46 34,15 V 14 C 34,8.46 29.54,4 24,4 Z"
       style="opacity:0.1;fill:#ffffff"
       inkscape:connector-curvature="0" />
  </g>
</svg>
