<?xml version="1.0" encoding="UTF-8" standalone="no"?>
<svg
   xmlns:dc="http://purl.org/dc/elements/1.1/"
   xmlns:cc="http://creativecommons.org/ns#"
   xmlns:rdf="http://www.w3.org/1999/02/22-rdf-syntax-ns#"
   xmlns:svg="http://www.w3.org/2000/svg"
   xmlns="http://www.w3.org/2000/svg"
   xmlns:sodipodi="http://sodipodi.sourceforge.net/DTD/sodipodi-0.dtd"
   xmlns:inkscape="http://www.inkscape.org/namespaces/inkscape"
   width="48"
   height="48"
   version="1"
   id="svg22"
   sodipodi:docname="network-offline.svg"
   inkscape:version="0.92.2 2405546, 2018-03-11">
  <metadata
     id="metadata28">
    <rdf:RDF>
      <cc:Work
         rdf:about="">
        <dc:format>image/svg+xml</dc:format>
        <dc:type
           rdf:resource="http://purl.org/dc/dcmitype/StillImage" />
      </cc:Work>
    </rdf:RDF>
  </metadata>
  <defs
     id="defs26" />
  <sodipodi:namedview
     pagecolor="#ffffff"
     bordercolor="#666666"
     borderopacity="1"
     objecttolerance="10"
     gridtolerance="10"
     guidetolerance="10"
     inkscape:pageopacity="0"
     inkscape:pageshadow="2"
     inkscape:window-width="1366"
     inkscape:window-height="690"
     id="namedview24"
     showgrid="false"
     inkscape:zoom="4.9166667"
     inkscape:cx="-0.61016949"
     inkscape:cy="23.59322"
     inkscape:window-x="0"
     inkscape:window-y="0"
     inkscape:window-maximized="1"
     inkscape:current-layer="svg22" />
  <path
     fill="#e4e4e4"
     d="m6 5s-3 0-3 3v24s0 3 3 3h5l4 4h16l4-4h5s3 0 3-3v-24c0-3-3-3-3-3z"
     id="path2" />
  <path
     fill="#fff"
     opacity=".4"
     d="m9 12h28v18h-4.4844l-4 4h-11.031l-4-4h-4.485z"
     id="path4" />
  <path
     fill="#5d5d5d"
     d="m9 11h28v18h-4.4844l-4 4h-11.031l-4-4h-4.485z"
     id="path6" />
  <path
     fill="#fff"
     opacity=".1"
     d="m6 5s-3 0-3 3v1c0-3 3-3 3-3h34s3 0 3 3v-1c0-3-3-3-3-3h-34z"
     id="path8" />
  <path
     opacity=".2"
     d="m3 32v1s0 3 3 3h5l4 4h16l4-4h5s3 0 3-3v-1c0 3-3 3-3 3h-5l-4 4h-16l-4-4h-5c-3 0-3-3-3-3z"
     id="path10" />
  <circle
     fill="#db3c30"
     cx="35"
     cy="33"
     r="10"
     id="circle12"
     style="fill:#da1302;fill-opacity:1" />
  <path
     opacity=".2"
     d="m44.979 33.414a10 10 0 0 1 -9.979 9.586 10 10 0 0 1 -9.979 -9.414 10 10 0 0 0 -0.021 0.414 10 10 0 0 0 10 10 10 10 0 0 0 10 -10 10 10 0 0 0 -0.021 -0.586z"
     id="path14" />
  <g
     fill="#fff"
     transform="matrix(.70711 -.70711 .70711 .70711 -14.497 31.846)"
     id="g20">
    <rect
       width="12"
       height="2"
       x="28"
       y="35"
       id="rect16" />
    <rect
       width="12"
       height="2"
       x="-42"
       y="33"
       transform="rotate(-90)"
       id="rect18" />
  </g>
</svg>
