<?xml version="1.0" encoding="UTF-8" standalone="no"?>
<svg
   xmlns:dc="http://purl.org/dc/elements/1.1/"
   xmlns:cc="http://creativecommons.org/ns#"
   xmlns:rdf="http://www.w3.org/1999/02/22-rdf-syntax-ns#"
   xmlns:svg="http://www.w3.org/2000/svg"
   xmlns="http://www.w3.org/2000/svg"
   xmlns:sodipodi="http://sodipodi.sourceforge.net/DTD/sodipodi-0.dtd"
   xmlns:inkscape="http://www.inkscape.org/namespaces/inkscape"
   width="48"
   height="48"
   version="1"
   id="svg44"
   sodipodi:docname="nm-signal-100.svg"
   inkscape:version="0.92.2 2405546, 2018-03-11">
  <metadata
     id="metadata48">
    <rdf:RDF>
      <cc:Work
         rdf:about="">
        <dc:format>image/svg+xml</dc:format>
        <dc:type
           rdf:resource="http://purl.org/dc/dcmitype/StillImage" />
      </cc:Work>
    </rdf:RDF>
  </metadata>
  <sodipodi:namedview
     pagecolor="#ffffff"
     bordercolor="#666666"
     borderopacity="1"
     objecttolerance="10"
     gridtolerance="10"
     guidetolerance="10"
     inkscape:pageopacity="0"
     inkscape:pageshadow="2"
     inkscape:window-width="1366"
     inkscape:window-height="683"
     id="namedview46"
     showgrid="false"
     inkscape:zoom="10.071237"
     inkscape:cx="24.508475"
     inkscape:cy="23.59322"
     inkscape:window-x="0"
     inkscape:window-y="0"
     inkscape:window-maximized="1"
     inkscape:current-layer="svg44" />
  <defs
     id="defs14">
    <clipPath
       id="clipPath5078"
       clipPathUnits="userSpaceOnUse">
      <path
         fill="#2095f2"
         d="m160 247c-7.9134 0-15.037 2.8117-20.945 7.1718l20.94 22.82 20.78-22.9c-5.88-4.31-12.93-7.09-20.78-7.09z"
         id="path2" />
    </clipPath>
    <filter
       id="filter5060"
       style="color-interpolation-filters:sRGB"
       width="1.205"
       height="1.288"
       x="-.1"
       y="-.14">
      <feGaussianBlur
         stdDeviation="1.443"
         id="feGaussianBlur5" />
    </filter>
    <clipPath
       id="clipPath5085"
       clipPathUnits="userSpaceOnUse">
      <path
         fill="#2095f2"
         d="m160 247c-7.9134 0-15.037 2.8117-20.945 7.1718l20.94 22.82 20.78-22.9c-5.88-4.31-12.93-7.09-20.78-7.09z"
         id="path8" />
    </clipPath>
    <filter
       id="filter5064"
       style="color-interpolation-filters:sRGB"
       width="1.274"
       height="1.385"
       x="-.14"
       y="-.19">
      <feGaussianBlur
         stdDeviation="1.443"
         id="feGaussianBlur11" />
    </filter>
  </defs>
  <path
     style="fill:#e4e4e4;fill-opacity:1"
     d="m 24.082,9.0022 c -7.9134,0 -15.037,2.8117 -20.945,7.1718 L 24.082,38.994 44.863,16.093 C 38.978,11.781 31.934,9.0024 24.082,9.0024 Z"
     id="path16" />
  <path
     style="opacity:0.1;fill:#ffffff"
     d="m 24.082,9.0022 c -7.9134,0 -15.037,2.8118 -20.945,7.1719 l 0.5625,0.61328 c 5.7976,-4.131 12.714,-6.7852 20.383,-6.7852 7.6091,0 14.449,2.6224 20.221,6.707 l 0.56,-0.617 c -5.887,-4.311 -12.93,-7.0896 -20.783,-7.0896 z"
     id="path26" />
  <path
     style="opacity:0.2"
     d="M 44.307,16.717 24.082,39.004 3.697,16.795 C 3.5127,16.926 3.319,17.045 3.1367,17.18 L 24.0817,40 44.8627,17.098 c -0.1814,-0.1329 -0.37305,-0.25091 -0.55664,-0.38086 z"
     id="path32" />
</svg>
