<?xml version="1.0" encoding="UTF-8" standalone="no"?>
<svg
   xmlns:dc="http://purl.org/dc/elements/1.1/"
   xmlns:cc="http://creativecommons.org/ns#"
   xmlns:rdf="http://www.w3.org/1999/02/22-rdf-syntax-ns#"
   xmlns:svg="http://www.w3.org/2000/svg"
   xmlns="http://www.w3.org/2000/svg"
   xmlns:sodipodi="http://sodipodi.sourceforge.net/DTD/sodipodi-0.dtd"
   xmlns:inkscape="http://www.inkscape.org/namespaces/inkscape"
   width="48"
   height="48"
   version="1"
   id="svg24"
   sodipodi:docname="application-vector.svg"
   inkscape:version="0.92.2 2405546, 2018-03-11">
  <metadata
     id="metadata28">
    <rdf:RDF>
      <cc:Work
         rdf:about="">
        <dc:format>image/svg+xml</dc:format>
        <dc:type
           rdf:resource="http://purl.org/dc/dcmitype/StillImage" />
        <dc:title></dc:title>
      </cc:Work>
    </rdf:RDF>
  </metadata>
  <sodipodi:namedview
     pagecolor="#ffffff"
     bordercolor="#666666"
     borderopacity="1"
     objecttolerance="10"
     gridtolerance="10"
     guidetolerance="10"
     inkscape:pageopacity="0"
     inkscape:pageshadow="2"
     inkscape:window-width="1366"
     inkscape:window-height="690"
     id="namedview26"
     showgrid="false"
     inkscape:zoom="4.9166667"
     inkscape:cx="-0.61016949"
     inkscape:cy="24"
     inkscape:window-x="0"
     inkscape:window-y="0"
     inkscape:window-maximized="1"
     inkscape:current-layer="svg24" />
  <defs
     id="defs8">
    <clipPath
       id="clipPath4266-4"
       clipPathUnits="userSpaceOnUse">
      <path
         fill="#fff"
         d="m146 240c-1.108 0-2 0.892-2 2v36c0 1.108 0.892 2 2 2h28c1.108 0 2-0.892 2-2v-26l-12-12h-18z"
         id="path2" />
    </clipPath>
    <filter
       id="filter4987"
       width="1.26"
       height="1.223"
       x="-.13"
       y="-.11">
      <feGaussianBlur
         stdDeviation=".65"
         id="feGaussianBlur5" />
    </filter>
    <clipPath
       id="clip3">
      <path
         inkscape:connector-curvature="0"
         d="m 19,15 h 5 v 9 h -5 z m 0,0"
         id="path9" />
    </clipPath>
    <clipPath
       id="clip4">
      <path
         inkscape:connector-curvature="0"
         d="m 29.136719,19.933594 c 0,6.152344 -4.988281,11.136718 -11.136719,11.136718 -6.148438,0 -11.140625,-4.984374 -11.140625,-11.136718 0,-6.15625 4.992187,-11.140625 11.140625,-11.140625 6.148438,0 11.136719,4.984375 11.136719,11.140625 z m 0,0"
         id="path12-3" />
    </clipPath>
    <clipPath
       id="clip5">
      <path
         inkscape:connector-curvature="0"
         d="m 12,14 h 8 v 12 h -8 z m 0,0"
         id="path15" />
    </clipPath>
    <clipPath
       id="clip6">
      <path
         inkscape:connector-curvature="0"
         d="m 29.136719,19.933594 c 0,6.152344 -4.988281,11.136718 -11.136719,11.136718 -6.148438,0 -11.140625,-4.984374 -11.140625,-11.136718 0,-6.15625 4.992187,-11.140625 11.140625,-11.140625 6.148438,0 11.136719,4.984375 11.136719,11.140625 z m 0,0"
         id="path18-6" />
    </clipPath>
  </defs>
  <path
     style="opacity:0.2"
     d="M 10,5 C 8.892,5 8,5.892 8,7 v 36 c 0,1.108 0.892,2 2,2 h 28 c 1.108,0 2,-0.892 2,-2 V 17 L 29,16 28,5 Z"
     id="path10" />
  <path
     opacity=".1"
     d="m163.22 242.45v11c0 1.1046 0.89543 2 2 2h10l-1-1-10-9z"
     clip-path="url(#clipPath4266-4)"
     filter="url(#filter4987)"
     transform="translate(-135.61 -237.72)"
     id="path12" />
  <path
     fill="#e4e4e4"
     d="m10 4c-1.108 0-2 0.892-2 2v36c0 1.108 0.892 2 2 2h28c1.108 0 2-0.892 2-2v-26l-11-1-1-11z"
     id="path14"
     style="fill:#6e00e6;fill-opacity:1" />
  <path
     fill="#fff"
     opacity=".2"
     d="m10 4c-1.108 0-2 0.892-2 2v1c0-1.108 0.892-2 2-2h18l11 11h1l-12-12z"
     id="path16" />
  <path
     style="opacity:0.2"
     d="m 28,5 v 10 c 0,1.1046 0.89543,2 2,2 h 10 z"
     id="path18" />
  <path
     fill="#fafafa"
     d="m28 4v10c0 1.1046 0.89543 2 2 2h10l-12-12z"
     id="path20"
     style="fill:#a21ffd;fill-opacity:1" />
  <path
     inkscape:connector-curvature="0"
     style="fill:#ffffff;stroke-width:1.33333325"
     d="m 28.734376,19.374959 c -0.5,0 -0.927083,0.265624 -1.161458,0.651041 h -4.927084 c 0,0 -0.979166,-0.01563 -1.984374,0.46875 -1.010418,0.489584 -2.072918,1.598958 -2.072918,3.447917 0,1.848958 1.0625,2.958333 2.072918,3.442708 0.473957,0.229166 0.947916,0.328125 1.30729,0.385416 v 0.286458 l -1.859374,1.796875 c -0.05729,-0.01563 -0.104174,-0.04167 -0.166667,-0.04167 -0.375,0 -0.677083,0.291667 -0.677083,0.651043 0,0.359375 0.302083,0.651041 0.677083,0.651041 0.375,0 0.677084,-0.291666 0.677084,-0.651041 0,-0.06249 -0.02604,-0.109373 -0.04167,-0.161459 l 1.859375,-1.796871 h 2.239583 v -0.651043 h 0.677084 c 0,0 0.708333,0.01563 1.390625,0.348959 0.6875,0.328125 1.3125,0.848958 1.3125,2.260417 0,1.411459 -0.625,1.932291 -1.3125,2.260416 -0.682292,0.333333 -1.390625,0.348959 -1.390625,0.348959 h -4.927084 c -0.234375,-0.390626 -0.661458,-0.651042 -1.161458,-0.651042 -0.744792,0 -1.354166,0.583334 -1.354166,1.302083 0,0.718751 0.609374,1.302084 1.354166,1.302084 0.5,0 0.927083,-0.260417 1.161458,-0.651041 h 4.927084 c 0,0 0.979166,0.01563 1.984374,-0.468751 1.010418,-0.484375 2.072918,-1.593751 2.072918,-3.442708 0,-1.848959 -1.0625,-2.958333 -2.072918,-3.442709 -1.005208,-0.489583 -1.984374,-0.46875 -1.984374,-0.46875 h -0.677084 v -0.203125 l 1.859376,-1.796875 c 0.05729,0.01563 0.109374,0.04167 0.166666,0.04167 0.375,0 0.677083,-0.291666 0.677083,-0.651041 0,-0.359375 -0.302083,-0.651041 -0.677083,-0.651041 -0.369792,0 -0.671873,0.291666 -0.671873,0.651041 0,0.05729 0.02604,0.109373 0.04167,0.161457 l -1.859376,1.791667 H 21.96875 v 0.552084 c -0.218749,-0.05208 -0.463541,-0.119787 -0.713541,-0.244792 -0.6875,-0.328124 -1.3125,-0.848959 -1.3125,-2.260416 0,-1.416667 0.625,-1.932292 1.3125,-2.265625 0.682292,-0.328126 1.390625,-0.34375 1.390625,-0.34375 h 4.927084 c 0.234375,0.390624 0.661458,0.651042 1.161458,0.651042 0.744792,0 1.354166,-0.583334 1.354166,-1.302084 0,-0.723958 -0.609374,-1.307291 -1.354166,-1.307291 z m 0,0"
     id="path21" />
</svg>
