<?xml version="1.0" encoding="UTF-8" standalone="no"?>
<svg
   xmlns:dc="http://purl.org/dc/elements/1.1/"
   xmlns:cc="http://creativecommons.org/ns#"
   xmlns:rdf="http://www.w3.org/1999/02/22-rdf-syntax-ns#"
   xmlns:svg="http://www.w3.org/2000/svg"
   xmlns="http://www.w3.org/2000/svg"
   xmlns:sodipodi="http://sodipodi.sourceforge.net/DTD/sodipodi-0.dtd"
   xmlns:inkscape="http://www.inkscape.org/namespaces/inkscape"
   width="36pt"
   height="36pt"
   version="1.1"
   viewBox="0 0 36 36"
   id="svg10"
   sodipodi:docname="audio-x-generic.svg"
   inkscape:version="0.92.2 2405546, 2018-03-11">
  <metadata
     id="metadata16">
    <rdf:RDF>
      <cc:Work
         rdf:about="">
        <dc:format>image/svg+xml</dc:format>
        <dc:type
           rdf:resource="http://purl.org/dc/dcmitype/StillImage" />
        <dc:title></dc:title>
      </cc:Work>
    </rdf:RDF>
  </metadata>
  <defs
     id="defs14" />
  <sodipodi:namedview
     pagecolor="#ffffff"
     bordercolor="#666666"
     borderopacity="1"
     objecttolerance="10"
     gridtolerance="10"
     guidetolerance="10"
     inkscape:pageopacity="0"
     inkscape:pageshadow="2"
     inkscape:window-width="1366"
     inkscape:window-height="690"
     id="namedview12"
     showgrid="false"
     inkscape:zoom="4.9166667"
     inkscape:cx="-18"
     inkscape:cy="24"
     inkscape:window-x="0"
     inkscape:window-y="0"
     inkscape:window-maximized="1"
     inkscape:current-layer="svg10" />
  <g
     id="g8">
    <path
       style="fill:#ec5600;fill-opacity:0.99607801"
       d="M 12.75 7.5 L 12.75 19.777344 C 12.277344 19.605469 11.78125 19.5 11.25 19.5 C 8.765625 19.5 6.75 21.515625 6.75 24 C 6.75 26.484375 8.765625 28.5 11.25 28.5 C 13.734375 28.5 15.75 26.484375 15.75 24 L 15.75 10.5 L 26.25 10.5 L 26.25 19.777344 C 25.777344 19.605469 25.28125 19.5 24.75 19.5 C 22.265625 19.5 20.25 21.515625 20.25 24 C 20.25 26.484375 22.265625 28.5 24.75 28.5 C 27.234375 28.5 29.25 26.484375 29.25 24 L 29.25 7.5 Z M 12.75 7.5"
       id="path2" />
    <path
       style="fill:rgb(100%,100%,100%);fill-opacity:0.2"
       d="M 12.75 7.5 L 12.75 8.25 L 29.25 8.25 L 29.25 7.5 Z M 11.25 19.5 C 8.765625 19.5 6.75 21.515625 6.75 24 C 6.75 24.125 6.757812 24.25 6.769531 24.375 C 6.960938 22.066406 8.894531 20.25 11.25 20.25 C 11.78125 20.25 12.277344 20.355469 12.75 20.527344 L 12.75 19.777344 C 12.277344 19.605469 11.78125 19.5 11.25 19.5 Z M 24.75 19.5 C 22.265625 19.5 20.25 21.515625 20.25 24 C 20.25 24.125 20.257812 24.25 20.269531 24.375 C 20.460938 22.066406 22.394531 20.25 24.75 20.25 C 25.28125 20.25 25.777344 20.355469 26.25 20.527344 L 26.25 19.777344 C 25.777344 19.605469 25.28125 19.5 24.75 19.5 Z M 24.75 19.5"
       id="path4" />
    <path
       style="fill:rgb(0%,0%,0%);fill-opacity:0.2"
       d="M 15.75 9.75 L 15.75 10.5 L 26.25 10.5 L 26.25 9.75 Z M 15.75 23.25 C 15.75 25.734375 13.734375 27.75 11.25 27.75 C 8.894531 27.75 6.960938 25.933594 6.769531 23.625 C 6.757812 23.75 6.75 23.875 6.75 24 C 6.75 26.484375 8.765625 28.5 11.25 28.5 C 13.734375 28.5 15.75 26.484375 15.75 24 Z M 29.25 23.25 C 29.25 25.734375 27.234375 27.75 24.75 27.75 C 22.394531 27.75 20.460938 25.933594 20.269531 23.625 C 20.257812 23.75 20.25 23.875 20.25 24 C 20.25 26.484375 22.265625 28.5 24.75 28.5 C 27.234375 28.5 29.25 26.484375 29.25 24 Z M 29.25 23.25"
       id="path6" />
  </g>
</svg>
