<?xml version="1.0" encoding="UTF-8" standalone="no"?>
<svg
   xmlns:dc="http://purl.org/dc/elements/1.1/"
   xmlns:cc="http://creativecommons.org/ns#"
   xmlns:rdf="http://www.w3.org/1999/02/22-rdf-syntax-ns#"
   xmlns:svg="http://www.w3.org/2000/svg"
   xmlns="http://www.w3.org/2000/svg"
   xmlns:sodipodi="http://sodipodi.sourceforge.net/DTD/sodipodi-0.dtd"
   xmlns:inkscape="http://www.inkscape.org/namespaces/inkscape"
   width="36pt"
   height="36pt"
   version="1.1"
   viewBox="0 0 36 36"
   id="svg16"
   sodipodi:docname="application-x-executable.svg"
   inkscape:version="0.92.2 2405546, 2018-03-11">
  <metadata
     id="metadata22">
    <rdf:RDF>
      <cc:Work
         rdf:about="">
        <dc:format>image/svg+xml</dc:format>
        <dc:type
           rdf:resource="http://purl.org/dc/dcmitype/StillImage" />
        <dc:title></dc:title>
      </cc:Work>
    </rdf:RDF>
  </metadata>
  <defs
     id="defs20" />
  <sodipodi:namedview
     pagecolor="#ffffff"
     bordercolor="#666666"
     borderopacity="1"
     objecttolerance="10"
     gridtolerance="10"
     guidetolerance="10"
     inkscape:pageopacity="0"
     inkscape:pageshadow="2"
     inkscape:window-width="1366"
     inkscape:window-height="690"
     id="namedview18"
     showgrid="false"
     inkscape:zoom="4.9166667"
     inkscape:cx="1.846426"
     inkscape:cy="23.593221"
     inkscape:window-x="0"
     inkscape:window-y="0"
     inkscape:window-maximized="1"
     inkscape:current-layer="g14" />
  <g
     id="g14">
    <path
       style="fill:rgb(93.333333%,93.333333%,93.333333%)"
       d="M 4.714844 3 C 3.855469 3 3 3.855469 3 4.714844 L 3 31.332031 C 3 32.144531 3.855469 33 4.667969 33 L 31.332031 33 C 32.144531 33 33 32.144531 33 31.332031 L 33 4.667969 C 33 3.855469 32.140625 3 31.332031 3 Z M 4.714844 3"
       id="path2" />
    <path
       style="fill:rgb(66.666667%,66.666667%,66.666667%)"
       d="M 5.082031 3 C 4.527344 3 4.027344 3.273438 3.652344 3.652344 C 3.273438 4.027344 3 4.527344 3 5.082031 L 3 30.96875 C 3 31.507812 3.253906 32.003906 3.625 32.375 C 3.996094 32.746094 4.492188 33 5.03125 33 L 30.96875 33 C 31.507812 33 32.003906 32.746094 32.375 32.375 C 32.746094 32.003906 33 31.507812 33 30.96875 L 33 5.03125 C 33 4.492188 32.746094 3.996094 32.375 3.625 C 32.003906 3.253906 31.507812 3 30.96875 3 Z M 5.082031 3.832031 L 30.96875 3.832031 C 31.214844 3.832031 31.53125 3.980469 31.773438 4.222656 C 32.019531 4.46875 32.167969 4.785156 32.167969 5.03125 L 32.167969 30.96875 C 32.167969 31.214844 32.019531 31.53125 31.777344 31.777344 C 31.53125 32.019531 31.214844 32.167969 30.96875 32.167969 L 5.03125 32.167969 C 4.785156 32.167969 4.46875 32.019531 4.222656 31.777344 C 3.980469 31.53125 3.832031 31.214844 3.832031 30.96875 L 3.832031 5.082031 C 3.832031 4.804688 3.976562 4.472656 4.222656 4.222656 C 4.472656 3.976562 4.804688 3.832031 5.082031 3.832031 Z M 5.082031 3.832031"
       id="path4" />
    <path
       inkscape:connector-curvature="0"
       d="m 15.921005,9.75 -0.184251,2.171825 a 6.5402317,6.4826537 0 0 0 -1.910332,1.093704 l -1.992833,-0.928686 -2.0817509,3.57173 1.8104169,1.246805 a 6.5402317,6.4826537 0 0 0 -0.100835,1.093705 6.5402317,6.4826537 0 0 0 0.09533,1.097372 l -1.8067495,1.241305 2.0808335,3.573563 1.988249,-0.926853 a 6.5402317,6.4826537 0 0 0 1.915833,1.088205 L 15.918248,26.25 h 4.162583 l 0.18425,-2.173658 a 6.5402317,6.4826537 0 0 0 1.910333,-1.095539 l 1.992832,0.93052 2.08175,-3.573563 -1.810416,-1.244972 a 6.5402317,6.4826537 0 0 0 0.100833,-1.093705 6.5402317,6.4826537 0 0 0 -0.09533,-1.097372 l 1.804916,-1.239471 -2.080833,-3.57173 -1.988249,0.926853 A 6.5402317,6.4826537 0 0 0 20.265081,11.927325 L 20.081747,9.75 Z m 2.078999,5.498778 a 2.7499994,2.7503056 0 0 1 2.749999,2.750305 2.7499994,2.7503056 0 0 1 -2.749999,2.750306 2.7499994,2.7503056 0 0 1 -2.749999,-2.750306 2.7499994,2.7503056 0 0 1 2.749999,-2.750305 z"
       style="fill:#878787;fill-opacity:1;stroke-width:0.91671753"
       id="path12" />
  </g>
</svg>
