<?xml version="1.0" encoding="UTF-8" standalone="no"?>
<svg
   xmlns:dc="http://purl.org/dc/elements/1.1/"
   xmlns:cc="http://creativecommons.org/ns#"
   xmlns:rdf="http://www.w3.org/1999/02/22-rdf-syntax-ns#"
   xmlns:svg="http://www.w3.org/2000/svg"
   xmlns="http://www.w3.org/2000/svg"
   xmlns:sodipodi="http://sodipodi.sourceforge.net/DTD/sodipodi-0.dtd"
   xmlns:inkscape="http://www.inkscape.org/namespaces/inkscape"
   width="48"
   height="48"
   version="1"
   id="svg24"
   sodipodi:docname="application-ascii.svg"
   inkscape:version="0.92.2 2405546, 2018-03-11">
  <metadata
     id="metadata28">
    <rdf:RDF>
      <cc:Work
         rdf:about="">
        <dc:format>image/svg+xml</dc:format>
        <dc:type
           rdf:resource="http://purl.org/dc/dcmitype/StillImage" />
        <dc:title></dc:title>
      </cc:Work>
    </rdf:RDF>
  </metadata>
  <sodipodi:namedview
     pagecolor="#ffffff"
     bordercolor="#666666"
     borderopacity="1"
     objecttolerance="10"
     gridtolerance="10"
     guidetolerance="10"
     inkscape:pageopacity="0"
     inkscape:pageshadow="2"
     inkscape:window-width="1366"
     inkscape:window-height="690"
     id="namedview26"
     showgrid="false"
     inkscape:zoom="4.9166667"
     inkscape:cx="-0.61016949"
     inkscape:cy="24"
     inkscape:window-x="0"
     inkscape:window-y="0"
     inkscape:window-maximized="1"
     inkscape:current-layer="svg24" />
  <defs
     id="defs8">
    <clipPath
       id="clipPath4266-4"
       clipPathUnits="userSpaceOnUse">
      <path
         fill="#fff"
         d="m146 240c-1.108 0-2 0.892-2 2v36c0 1.108 0.892 2 2 2h28c1.108 0 2-0.892 2-2v-26l-12-12h-18z"
         id="path2" />
    </clipPath>
    <filter
       id="filter4987"
       width="1.26"
       height="1.223"
       x="-.13"
       y="-.11">
      <feGaussianBlur
         stdDeviation=".65"
         id="feGaussianBlur5" />
    </filter>
  </defs>
  <path
     style="opacity:0.2"
     d="M 10,5 C 8.892,5 8,5.892 8,7 v 36 c 0,1.108 0.892,2 2,2 h 28 c 1.108,0 2,-0.892 2,-2 V 17 L 29,16 28,5 Z"
     id="path10" />
  <path
     opacity=".1"
     d="m163.22 242.45v11c0 1.1046 0.89543 2 2 2h10l-1-1-10-9z"
     clip-path="url(#clipPath4266-4)"
     filter="url(#filter4987)"
     transform="translate(-135.61 -237.72)"
     id="path12" />
  <path
     fill="#e4e4e4"
     d="m10 4c-1.108 0-2 0.892-2 2v36c0 1.108 0.892 2 2 2h28c1.108 0 2-0.892 2-2v-26l-11-1-1-11z"
     id="path14" />
  <path
     fill="#fff"
     opacity=".2"
     d="m10 4c-1.108 0-2 0.892-2 2v1c0-1.108 0.892-2 2-2h18l11 11h1l-12-12z"
     id="path16" />
  <path
     style="opacity:0.2"
     d="m 28,5 v 10 c 0,1.1046 0.89543,2 2,2 h 10 z"
     id="path18" />
  <path
     fill="#fafafa"
     d="m28 4v10c0 1.1046 0.89543 2 2 2h10l-12-12z"
     id="path20" />
  <g
     id="g854"
     transform="translate(4.4661864,1.105866)">
    <path
       id="path11"
       d="M 11.051731,30.401878 10.760064,28.667504 H 9.1142297 L 8.8329804,30.401878 H 7.5569391 c 0.2916666,-1.479165 0.5885413,-2.822916 0.8854159,-4.036457 0.3020841,-1.218751 0.5885414,-2.375 0.8697921,-3.463542 h 1.3385409 c 0.291667,1.098958 0.583334,2.265625 0.869792,3.499999 0.291667,1.229168 0.572918,2.557292 0.848959,4 H 11.051731 M 9.9527724,24.355004 c -0.067707,0.28125 -0.1302134,0.552084 -0.192708,0.8125 -0.05208,0.25 -0.1041734,0.5 -0.1562507,0.75 -0.04688,0.239584 -0.093747,0.489584 -0.1406253,0.739584 -0.041667,0.25 -0.083333,0.505208 -0.1197867,0.776041 h 1.2083333 c -0.04167,-0.270833 -0.08333,-0.526041 -0.119787,-0.776041 -0.04167,-0.25 -0.08855,-0.5 -0.140625,-0.739584 -0.04688,-0.25 -0.09896,-0.5 -0.161459,-0.75 -0.05208,-0.260416 -0.109373,-0.53125 -0.1770823,-0.8125"
       style="fill:#000000;fill-opacity:0.635294;stroke-width:1.33333325"
       inkscape:connector-curvature="0" />
    <path
       id="path13"
       d="m 14.775688,29.308129 c 0.208334,0 0.375,-0.02084 0.510418,-0.07292 0.140625,-0.05729 0.25,-0.130213 0.328124,-0.218749 0.07812,-0.09375 0.135417,-0.197918 0.161458,-0.3125 0.03125,-0.119787 0.04688,-0.244792 0.04688,-0.364583 0,-0.151043 -0.03645,-0.291667 -0.109373,-0.411459 -0.07292,-0.119786 -0.166667,-0.223958 -0.281249,-0.3125 -0.109374,-0.09896 -0.239584,-0.182292 -0.375,-0.255209 C 14.91632,27.276879 14.775695,27.20396 14.635071,27.14146 14.44757,27.05813 14.254862,26.969585 14.056946,26.860209 13.85382,26.756049 13.671528,26.625834 13.504862,26.464377 13.348612,26.302918 13.213195,26.105001 13.109028,25.870626 12.999655,25.625834 12.94757,25.32896 12.94757,24.974793 c 0,-0.703125 0.187501,-1.255208 0.557292,-1.651041 0.380209,-0.395833 0.901041,-0.593751 1.557292,-0.593751 0.380208,0 0.713541,0.05208 0.989584,0.156251 0.286457,0.109373 0.526041,0.223957 0.718749,0.354167 l -0.359382,1.151043 c -0.166666,-0.114584 -0.348958,-0.208333 -0.557291,-0.291666 -0.197918,-0.07812 -0.432292,-0.119787 -0.697918,-0.119787 -0.656249,0 -0.979165,0.286459 -0.979165,0.859376 0,0.145832 0.03125,0.276041 0.09896,0.385416 0.06771,0.109373 0.151043,0.203125 0.25,0.291667 0.104173,0.08333 0.223959,0.15625 0.348959,0.218749 0.135417,0.06251 0.265625,0.125 0.390625,0.182292 0.192708,0.08855 0.390624,0.1875 0.598957,0.302084 0.213543,0.104173 0.406251,0.25 0.578125,0.4375 0.182292,0.177083 0.328126,0.401041 0.4375,0.677083 0.114587,0.265625 0.171876,0.604166 0.171876,1.015625 0,0.703125 -0.187501,1.25 -0.567709,1.640625 -0.375,0.375 -0.942708,0.567708 -1.708333,0.567708 -0.515624,0 -0.921875,-0.06771 -1.229167,-0.192708 -0.307294,-0.14063 -0.53646,-0.26563 -0.687502,-0.375005 l 0.359376,-1.213543 c 0.177082,0.130214 0.390624,0.25 0.635416,0.364584 0.255208,0.109374 0.5625,0.166667 0.921874,0.166667"
       style="fill:#000000;fill-opacity:0.635294;stroke-width:1.33333325"
       inkscape:connector-curvature="0" />
    <path
       id="path15"
       d="m 20.405896,30.558129 c -0.869791,0 -1.536457,-0.338541 -1.994791,-1.020833 -0.458333,-0.677084 -0.6875,-1.640626 -0.6875,-2.895834 0,-0.619792 0.06771,-1.171874 0.208334,-1.65625 0.140624,-0.484375 0.333333,-0.895832 0.578125,-1.223958 0.255208,-0.338541 0.552083,-0.59375 0.890624,-0.765625 0.343751,-0.177084 0.718751,-0.265625 1.125,-0.265625 0.223959,0 0.416667,0.02604 0.593751,0.07292 0.177082,0.04167 0.333333,0.08855 0.468749,0.145833 0.130213,0.05729 0.239584,0.114587 0.328125,0.182292 0.09375,0.06249 0.161459,0.114587 0.208334,0.145832 l -0.317708,1.187501 c -0.156251,-0.125 -0.338542,-0.223958 -0.557292,-0.302084 -0.213542,-0.09375 -0.463542,-0.135417 -0.739583,-0.135417 -0.192709,0 -0.385417,0.04167 -0.572917,0.135417 -0.177083,0.07812 -0.34375,0.218751 -0.489584,0.421875 -0.135416,0.192708 -0.255208,0.458333 -0.348958,0.786459 -0.08333,0.333333 -0.130213,0.744792 -0.130213,1.234374 0,0.859376 0.119787,1.515626 0.359375,1.973959 0.25,0.453125 0.645833,0.682292 1.197916,0.682292 0.322917,0 0.583333,-0.04688 0.791666,-0.135417 0.213542,-0.08855 0.380208,-0.177083 0.510418,-0.265626 l 0.307292,1.177084 c -0.171876,0.125 -0.406251,0.25 -0.708334,0.359375 -0.291666,0.109373 -0.630209,0.161459 -1.020834,0.161459"
       style="fill:#000000;fill-opacity:0.635294;stroke-width:1.33333325"
       inkscape:connector-curvature="0" />
    <path
       id="path17"
       d="m 22.984021,30.401878 v -1.239582 h 1.348959 v -5.026042 h -1.348959 v -1.234375 h 3.927084 v 1.234375 h -1.338542 v 5.026042 h 1.338542 v 1.239582 h -3.927084"
       style="fill:#000000;fill-opacity:0.635294;stroke-width:1.33333325"
       inkscape:connector-curvature="0" />
    <path
       id="path19"
       d="m 27.978813,30.401878 v -1.239582 h 1.348959 v -5.026042 h -1.348959 v -1.234375 h 3.921875 v 1.234375 h -1.338542 v 5.026042 h 1.338542 v 1.239582 h -3.921875"
       style="fill:#000000;fill-opacity:0.635294;stroke-width:1.33333325"
       inkscape:connector-curvature="0" />
  </g>
</svg>
