<?xml version="1.0" encoding="UTF-8" standalone="no"?>
<svg
   xmlns:dc="http://purl.org/dc/elements/1.1/"
   xmlns:cc="http://creativecommons.org/ns#"
   xmlns:rdf="http://www.w3.org/1999/02/22-rdf-syntax-ns#"
   xmlns:svg="http://www.w3.org/2000/svg"
   xmlns="http://www.w3.org/2000/svg"
   xmlns:sodipodi="http://sodipodi.sourceforge.net/DTD/sodipodi-0.dtd"
   xmlns:inkscape="http://www.inkscape.org/namespaces/inkscape"
   width="48"
   height="48"
   version="1"
   id="svg24"
   sodipodi:docname="application-postscript.svg"
   inkscape:version="0.92.2 2405546, 2018-03-11">
  <metadata
     id="metadata28">
    <rdf:RDF>
      <cc:Work
         rdf:about="">
        <dc:format>image/svg+xml</dc:format>
        <dc:type
           rdf:resource="http://purl.org/dc/dcmitype/StillImage" />
        <dc:title></dc:title>
      </cc:Work>
    </rdf:RDF>
  </metadata>
  <sodipodi:namedview
     pagecolor="#ffffff"
     bordercolor="#666666"
     borderopacity="1"
     objecttolerance="10"
     gridtolerance="10"
     guidetolerance="10"
     inkscape:pageopacity="0"
     inkscape:pageshadow="2"
     inkscape:window-width="1366"
     inkscape:window-height="690"
     id="namedview26"
     showgrid="false"
     inkscape:zoom="4.9166667"
     inkscape:cx="5.7966102"
     inkscape:cy="24"
     inkscape:window-x="0"
     inkscape:window-y="0"
     inkscape:window-maximized="1"
     inkscape:current-layer="svg24" />
  <defs
     id="defs8">
    <clipPath
       id="clipPath4266-4"
       clipPathUnits="userSpaceOnUse">
      <path
         fill="#fff"
         d="m146 240c-1.108 0-2 0.892-2 2v36c0 1.108 0.892 2 2 2h28c1.108 0 2-0.892 2-2v-26l-12-12h-18z"
         id="path2" />
    </clipPath>
    <filter
       id="filter4987"
       width="1.26"
       height="1.223"
       x="-.13"
       y="-.11">
      <feGaussianBlur
         stdDeviation=".65"
         id="feGaussianBlur5" />
    </filter>
  </defs>
  <path
     style="opacity:0.2"
     d="M 10,5 C 8.892,5 8,5.892 8,7 v 36 c 0,1.108 0.892,2 2,2 h 28 c 1.108,0 2,-0.892 2,-2 V 17 L 29,16 28,5 Z"
     id="path10" />
  <path
     opacity=".1"
     d="m163.22 242.45v11c0 1.1046 0.89543 2 2 2h10l-1-1-10-9z"
     clip-path="url(#clipPath4266-4)"
     filter="url(#filter4987)"
     transform="translate(-135.61 -237.72)"
     id="path12" />
  <path
     fill="#e4e4e4"
     d="m10 4c-1.108 0-2 0.892-2 2v36c0 1.108 0.892 2 2 2h28c1.108 0 2-0.892 2-2v-26l-11-1-1-11z"
     id="path14"
     style="fill:#ed0000;fill-opacity:1" />
  <path
     fill="#fff"
     opacity=".2"
     d="m10 4c-1.108 0-2 0.892-2 2v1c0-1.108 0.892-2 2-2h18l11 11h1l-12-12z"
     id="path16" />
  <path
     style="opacity:0.2"
     d="m 28,5 v 10 c 0,1.1046 0.89543,2 2,2 h 10 z"
     id="path18" />
  <path
     fill="#fafafa"
     d="m28 4v10c0 1.1046 0.89543 2 2 2h10l-12-12z"
     id="path20"
     style="fill:#ff3f3f;fill-opacity:1" />
  <g
     transform="matrix(1.3333333,0,0,1.3333333,-6.5146559e-4,1.8294044)"
     id="g855">
    <path
       inkscape:connector-curvature="0"
       id="path21"
       d="m 13.664062,17.863281 c 0.503907,0.02344 1.054688,0.34375 1.46875,0.617188 1.210938,0.804687 2.175782,2.136719 1.984376,3.667969 0.179687,-0.292969 0.191406,-0.71875 0.191406,-1.050782 0,-1.074218 -0.578125,-2.179687 -1.304688,-2.929687 -0.246094,-0.25 -0.5,-0.539063 -0.816406,-0.691407 l 3.59375,-4.253906 0.863281,-1.023437 c 0.06641,-0.07813 0.289063,-0.261719 0.242188,-0.378907 -0.04687,-0.109374 -0.253907,-0.175781 -0.351563,-0.21875 -0.109375,-0.05078 -0.308594,-0.15625 -0.433594,-0.113281 -0.125,0.04687 -0.230468,0.226563 -0.316406,0.324219 L 18.125,12.585938 15.015625,16.234375 14.09375,17.3125 c -0.144531,0.171875 -0.335938,0.34375 -0.429688,0.550781 z m 0,0"
       style="fill:#ffffff" />
    <path
       inkscape:connector-curvature="0"
       id="path23"
       d="m 11.625,19.105469 c 1.238281,-1.3125 2.328125,-2.777344 3.511719,-4.144531 l 1.496093,-1.765626 c 0.34375,-0.398437 0.753907,-0.796874 1.027344,-1.246093 -0.179687,-0.05078 -0.589844,-0.08594 -0.761718,0 -0.183594,0.09375 -0.335938,0.34375 -0.46875,0.5 l -0.851563,0.964843 c -0.125,0.148438 -0.273437,0.378907 -0.445313,0.46875 -0.25,0.128907 -0.703124,0.07813 -0.980468,0.08594 l -1.003906,0.07813 c -0.75,0.05469 -1.605469,0.05469 -1.976563,0.859375 -0.296875,0.644531 -0.253906,1.566406 -0.28125,2.265625 -0.06641,1.46875 -0.113281,2.957031 0.02344,4.421875 0.05859,0.628906 -0.01172,1.429688 0.308594,1.988281 0.3125,0.550781 0.917969,0.667969 1.488282,0.722657 1.105468,0.105468 2.425781,0.07422 3.316406,-0.703126 1.058594,-0.917968 0.910156,-2.5625 -0.05078,-3.46875 -1.054692,-0.992194 -2.980473,-1.4961 -4.351567,-1.02735 z m 0,0"
       style="fill:#ffffff" />
    <path
       inkscape:connector-curvature="0"
       id="path25"
       d="m 15.351562,24.441406 c 0.199219,0.08594 0.539063,0.05469 0.757813,0.05469 l 1.386719,0.02734 c 1.761718,0 3.496094,-0.113282 5.25,-0.191407 0.832031,-0.03906 1.773437,-0.07031 2.117187,-0.996093 0.21875,-0.589844 0.179688,-1.34375 0.222657,-1.960938 0.09766,-1.4375 0.136718,-2.90625 0.0039,-4.339844 -0.06641,-0.671875 0.01563,-1.507812 -0.277344,-2.128906 -0.445312,-0.960938 -1.800781,-0.890625 -2.691406,-0.910156 -0.222656,-0.0078 -0.632813,-0.136719 -0.832032,-0.03906 -0.152343,0.07422 -0.246093,0.46875 -0.316406,0.617188 l -0.792968,1.742187 c -0.929688,2.058594 -1.800782,4.167969 -2.8125,6.191406 -0.390626,0.78125 -1.097657,1.773438 -2.015626,1.933594 z m 0,0"
       style="fill:#ffffff" />
  </g>
</svg>
