<?xml version="1.0" encoding="UTF-8" standalone="no"?>
<svg
   xmlns:dc="http://purl.org/dc/elements/1.1/"
   xmlns:cc="http://creativecommons.org/ns#"
   xmlns:rdf="http://www.w3.org/1999/02/22-rdf-syntax-ns#"
   xmlns:svg="http://www.w3.org/2000/svg"
   xmlns="http://www.w3.org/2000/svg"
   xmlns:sodipodi="http://sodipodi.sourceforge.net/DTD/sodipodi-0.dtd"
   xmlns:inkscape="http://www.inkscape.org/namespaces/inkscape"
   width="48"
   height="48"
   version="1.1"
   viewBox="0 0 48 48"
   id="svg16"
   sodipodi:docname="gdnote.svg"
   inkscape:version="0.92.2 2405546, 2018-03-11">
  <metadata
     id="metadata22">
    <rdf:RDF>
      <cc:Work
         rdf:about="">
        <dc:format>image/svg+xml</dc:format>
        <dc:type
           rdf:resource="http://purl.org/dc/dcmitype/StillImage" />
        <dc:title></dc:title>
      </cc:Work>
    </rdf:RDF>
  </metadata>
  <defs
     id="defs20">
    <clipPath
       id="clip3">
      <path
         inkscape:connector-curvature="0"
         d="M 12,12 H 24 V 27 H 12 Z m 0,0"
         id="path9" />
    </clipPath>
    <clipPath
       id="clip4">
      <path
         inkscape:connector-curvature="0"
         d="m 31.617188,19.875 c 0,7.445312 -6.097657,13.472656 -13.613282,13.472656 -7.515625,0 -13.613281,-6.027344 -13.613281,-13.472656 0,-7.445312 6.097656,-13.476562 13.613281,-13.476562 7.515625,0 13.613282,6.03125 13.613282,13.476562 z m 0,0"
         id="path12" />
    </clipPath>
  </defs>
  <sodipodi:namedview
     pagecolor="#ffffff"
     bordercolor="#666666"
     borderopacity="1"
     objecttolerance="10"
     gridtolerance="10"
     guidetolerance="10"
     inkscape:pageopacity="0"
     inkscape:pageshadow="2"
     inkscape:window-width="815"
     inkscape:window-height="480"
     id="namedview18"
     showgrid="false"
     inkscape:zoom="4.9166667"
     inkscape:cx="23.79661"
     inkscape:cy="24"
     inkscape:window-x="0"
     inkscape:window-y="0"
     inkscape:window-maximized="0"
     inkscape:current-layer="svg16" />
  <path
     style="opacity:0.2"
     d="M 10,5 C 8.892,5 8,5.892 8,7 v 36 c 0,1.108 0.892,2 2,2 h 28 c 1.108,0 2,-0.892 2,-2 V 17 L 29,16 28,5 Z"
     id="path2" />
  <path
     fill="#fec006"
     d="m10 4c-1.108 0-2 0.892-2 2v36c0 1.108 0.892 2 2 2h28c1.108 0 2-0.892 2-2v-26l-11-1-1-11z"
     id="path4" />
  <path
     fill="#fff"
     opacity=".2"
     d="m10 4c-1.108 0-2 0.892-2 2v1c0-1.108 0.892-2 2-2h18l11 11h1l-12-12z"
     id="path6" />
  <path
     style="opacity:0.2"
     d="m 28,5 v 10 c 0,1.1046 0.89543,2 2,2 h 10 z"
     id="path8" />
  <path
     fill="#fed861"
     d="m28 4v10c0 1.1046 0.89543 2 2 2h10l-12-12z"
     id="path10" />
  <g
     clip-path="url(#clip3)"
     id="g31"
     transform="matrix(1.3333333,0,0,1.3333333,4.3104799e-4,1.1000009)">
    <g
       clip-path="url(#clip4)"
       id="g29">
      <path
         style="fill:#ffffff"
         d="m 18.007812,12.84375 c -1.714843,0.0039 -3.394531,0.761719 -4.425781,2.164062 -1.609375,2.1875 -1.023437,5.15625 1.269531,6.703126 v 4.609374 h 0.785157 v 0.585938 h 4.734375 v -0.585938 h 0.777344 v -4.609374 c 0.492187,-0.335938 0.929687,-0.738282 1.269531,-1.207032 1.640625,-2.242187 1.003906,-5.296875 -1.4375,-6.816406 -0.914063,-0.566406 -1.945313,-0.84375 -2.976563,-0.84375 m -0.0078,0.890625 c 0.839844,0 1.6875,0.226563 2.441406,0.691406 2,1.246094 2.523438,3.730469 1.171875,5.574219 -0.3125,0.421875 -0.707031,0.792969 -1.167969,1.082031 l -0.07813,1.136719 H 15.625 l -0.06641,-1.136719 c -2.007813,-1.246093 -2.53125,-3.730469 -1.171875,-5.570312 0.84375,-1.152344 2.214843,-1.777344 3.609375,-1.769531 m -2.367188,9.066406 h 4.734375 v 1.167968 h -4.734375 m 0,0.585938 h 4.734375 v 1.003906 h -4.734375 m 0,-1.003906"
         id="path27"
         inkscape:connector-curvature="0" />
    </g>
  </g>
</svg>
