<?xml version="1.0" encoding="UTF-8" standalone="no"?>
<svg
   xmlns:dc="http://purl.org/dc/elements/1.1/"
   xmlns:cc="http://creativecommons.org/ns#"
   xmlns:rdf="http://www.w3.org/1999/02/22-rdf-syntax-ns#"
   xmlns:svg="http://www.w3.org/2000/svg"
   xmlns="http://www.w3.org/2000/svg"
   xmlns:sodipodi="http://sodipodi.sourceforge.net/DTD/sodipodi-0.dtd"
   xmlns:inkscape="http://www.inkscape.org/namespaces/inkscape"
   width="48"
   height="48"
   version="1.1"
   id="svg14"
   sodipodi:docname="image-x-xcf.svg"
   inkscape:version="0.92.2 2405546, 2018-03-11">
  <metadata
     id="metadata20">
    <rdf:RDF>
      <cc:Work
         rdf:about="">
        <dc:format>image/svg+xml</dc:format>
        <dc:type
           rdf:resource="http://purl.org/dc/dcmitype/StillImage" />
        <dc:title></dc:title>
      </cc:Work>
    </rdf:RDF>
  </metadata>
  <defs
     id="defs18" />
  <sodipodi:namedview
     pagecolor="#ffffff"
     bordercolor="#666666"
     borderopacity="1"
     objecttolerance="10"
     gridtolerance="10"
     guidetolerance="10"
     inkscape:pageopacity="0"
     inkscape:pageshadow="2"
     inkscape:window-width="1366"
     inkscape:window-height="690"
     id="namedview16"
     showgrid="false"
     inkscape:zoom="3.7064667"
     inkscape:cx="-14.855199"
     inkscape:cy="20.478921"
     inkscape:window-x="0"
     inkscape:window-y="0"
     inkscape:window-maximized="1"
     inkscape:current-layer="svg14" />
  <path
     style="opacity:0.2"
     d="M 10,5 C 8.892,5 8,5.892 8,7 V 43 C 8,44.108 8.892,45 10,45 H 38 C 39.108,45 40,44.108 40,43 V 17 L 28,5 Z"
     id="path2" />
  <path
     style="fill:#ffc239;fill-opacity:1"
     d="M 10,4 C 8.892,4 8,4.892 8,6 V 42 C 8,43.108 8.892,44 10,44 H 38 C 39.108,44 40,43.108 40,42 V 16 L 28,4 Z"
     id="path4" />
  <path
     style="opacity:0.2"
     d="M 40,17 28,5 V 15 C 28,16.108 28.892,17 30,17 Z"
     id="path6" />
  <path
     style="fill:#ffcf65;fill-opacity:1"
     d="M 40,16 28,4 V 14 C 28,15.108 28.892,16 30,16 Z"
     id="path8" />
  <path
     style="opacity:0.2;fill:#ffffff"
     d="M 10 4 C 8.892 4 8 4.892 8 6 L 8 7 C 8 5.892 8.892 5 10 5 L 28 5 L 28 4 L 10 4 z"
     id="path10" />
  <path
     inkscape:connector-curvature="0"
     style="fill:#ffffff;stroke-width:1.33333325"
     d="m 29.596144,19.272427 c -0.380208,1.468749 -2.4375,2.5 -3.828126,3.161457 -0.135416,-0.906249 -0.380208,-1.8125 -0.765625,-2.671874 -0.442708,0.755208 -0.739582,1.588541 -1.265624,2.291666 -0.390625,0.510418 -0.817709,1.005208 -1.359376,1.395834 -0.04688,0.01563 -0.09375,0.03125 -0.135416,0.04688 -0.286458,0.104173 -0.557292,0.223958 -0.796874,0.359376 -1.104167,0.630207 -1.911459,1.489582 -2.536459,2.489582 -0.838541,1.338541 -0.255208,3.067708 -2.557292,4.354167 -0.04167,0.04167 -0.08855,0.08333 -0.140625,0.125 0.0052,-0.0052 0.0052,-0.0052 0.0104,-0.0052 0,0 0,0 0.0052,0.0052 -0.567708,0.401041 -1.677083,0.411458 -1.208334,1.286458 0.25521,0.390624 0.447918,0.708334 0.760418,1.015624 -0.0052,0.0052 -0.0104,0.0052 -0.01563,0.0104 0.817708,0.802084 2.010417,1.348959 3.296875,1.458334 0.635417,0.06771 1.53125,0.03645 1.911458,0.03645 3.213542,-0.0104 6.276041,-1.5 8.119792,-3.619792 0.135416,-0.166667 0.671875,-0.796875 0.682292,-0.911459 0.848957,-1.354166 1.791667,-2.74479 1.848957,-4.302082 -0.921874,0.270833 -1.885416,0.578124 -2.875,0.671874 0.0104,-0.0052 0.02084,-0.0052 0.03125,-0.0052 0.0052,0 0.0052,0 0.0104,0 0.0052,0 0.0052,0 0.0052,0 -0.25,0.0052 -0.729166,0.104174 -0.84375,-0.01563 1.083334,-1.213541 2.109375,-2.536458 2.338542,-4.057291 0.145833,-1.057292 -0.03645,-2.197916 -0.692708,-3.119791 z m 2.520833,2.348957 c -0.9375,0.161459 0.140625,1.140626 -0.08333,1.677084 0.8125,-0.223958 0.973958,-1.453125 0.08333,-1.677084 z m 0.390625,2.072918 c -0.04688,0 -0.09375,0.01563 -0.125,0.03645 -0.583333,0.427082 -0.182292,1.333333 -0.572917,1.859374 0.276041,0.01563 0.552084,-0.07292 0.796876,-0.171876 0.791667,-0.260416 0.5,-1.333333 -0.02604,-1.708333 -0.02084,-0.0104 -0.04688,-0.01563 -0.07292,-0.01563 z m -1.208333,0.04167 c -0.281251,-0.0052 -0.1875,0.739582 0.125,0.75 0.260416,0.0104 0.286457,-0.432292 0.177083,-0.625 -0.04688,-0.08333 -0.229167,-0.125 -0.302083,-0.125 z m -2.494792,2.729166 c 0.0052,0 0.0052,0 0.0104,0 0.0052,0 0.0104,0 0.01563,0 0.0052,0 0.0104,0.0052 0.02084,0.0052 0.0052,0 0.0052,0 0.0104,0 -0.01563,0 -0.03645,-0.0052 -0.05729,-0.0052 z m -8.031249,0.161457 c 0.656249,0 0.703124,1.020835 0.776041,1.479168 0.109374,0.682291 0.239583,1.453124 -0.776041,1.708333 -0.06771,0.03125 -0.333333,0.197916 -0.255209,-0.0104 0.286458,-0.5 -0.208334,-1.760417 -0.979167,-1.135417 -0.07812,-0.713541 0.177084,-1.526041 0.916667,-1.973957 0.119786,-0.04688 0.223958,-0.06771 0.317709,-0.06771 z m 8.989582,3.458333 c -0.03125,0 -0.119786,0.05729 -0.291666,0.197918 -0.119787,0.06771 -0.213542,0.09896 -0.28125,0.109373 0.0052,0 0.0104,0 0.0104,0 0.02084,-0.0052 0.03645,-0.0104 0.05729,-0.01563 0.0052,0 0.01563,-0.0052 0.02604,-0.0104 0.04167,-0.01563 0.08855,-0.03125 0.140625,-0.06249 0.01563,-0.0052 0.02604,-0.0104 0.04167,-0.02084 0.02604,-0.02084 0.05208,-0.04167 0.07292,-0.05729 0.0104,-0.0104 0.02084,-0.01563 0.02604,-0.02084 0.01563,-0.0104 0.02604,-0.02084 0.04167,-0.03125 0.0052,-0.0052 0.01563,-0.0104 0.02083,-0.01563 0.0104,-0.0052 0.02084,-0.01563 0.03125,-0.02084 0.0104,-0.0052 0.01563,-0.0104 0.02604,-0.01563 0,0 0,-0.0052 0,-0.0052 0.01563,-0.0052 0.02084,-0.0104 0.03125,-0.01563 0.0052,0 0.0052,-0.0052 0.0104,-0.0052 0,0 0,0 0.0052,0 0,-0.0052 0.0052,-0.0052 0.0104,-0.0052 0.0052,-0.0052 0.0052,-0.0052 0.0104,-0.0052 0.0052,0 0.0052,0 0.0104,0 z m -0.645833,0.307292 c 0.0052,0 0.0052,0 0.0052,0 0,0 0,0 -0.0052,0 z m 0.05729,0.0052 c -0.0104,0 -0.02084,0 -0.02604,0 0.0052,0 0.01563,0 0.02604,0 z m -12.979163,0.437499 c -0.0052,0.0052 -0.0104,0.0052 -0.01563,0.0104 0.0052,-0.0052 0.0104,-0.0052 0.01563,-0.0104 z m -0.453125,2.286459 c 0,0 0.0052,0.0052 0.0104,0.0052 -0.0052,0 -0.0104,-0.0052 -0.0104,-0.0052 z m 0,0"
     id="path13" />
</svg>
