<?xml version="1.0" encoding="UTF-8" standalone="no"?>
<svg
   xmlns:dc="http://purl.org/dc/elements/1.1/"
   xmlns:cc="http://creativecommons.org/ns#"
   xmlns:rdf="http://www.w3.org/1999/02/22-rdf-syntax-ns#"
   xmlns:svg="http://www.w3.org/2000/svg"
   xmlns="http://www.w3.org/2000/svg"
   xmlns:sodipodi="http://sodipodi.sourceforge.net/DTD/sodipodi-0.dtd"
   xmlns:inkscape="http://www.inkscape.org/namespaces/inkscape"
   width="48"
   height="48"
   version="1"
   id="svg24"
   sodipodi:docname="text-x-readme.svg"
   inkscape:version="0.92.2 2405546, 2018-03-11">
  <metadata
     id="metadata28">
    <rdf:RDF>
      <cc:Work
         rdf:about="">
        <dc:format>image/svg+xml</dc:format>
        <dc:type
           rdf:resource="http://purl.org/dc/dcmitype/StillImage" />
        <dc:title></dc:title>
      </cc:Work>
    </rdf:RDF>
  </metadata>
  <sodipodi:namedview
     pagecolor="#ffffff"
     bordercolor="#666666"
     borderopacity="1"
     objecttolerance="10"
     gridtolerance="10"
     guidetolerance="10"
     inkscape:pageopacity="0"
     inkscape:pageshadow="2"
     inkscape:window-width="1366"
     inkscape:window-height="690"
     id="namedview26"
     showgrid="false"
     inkscape:zoom="4.9166667"
     inkscape:cx="-0.61016949"
     inkscape:cy="24"
     inkscape:window-x="0"
     inkscape:window-y="0"
     inkscape:window-maximized="1"
     inkscape:current-layer="svg24" />
  <defs
     id="defs8">
    <clipPath
       id="clipPath4266-4"
       clipPathUnits="userSpaceOnUse">
      <path
         fill="#fff"
         d="m146 240c-1.108 0-2 0.892-2 2v36c0 1.108 0.892 2 2 2h28c1.108 0 2-0.892 2-2v-26l-12-12h-18z"
         id="path2" />
    </clipPath>
    <filter
       id="filter4987"
       width="1.26"
       height="1.223"
       x="-.13"
       y="-.11">
      <feGaussianBlur
         stdDeviation=".65"
         id="feGaussianBlur5" />
    </filter>
    <clipPath
       id="clip3">
      <path
         inkscape:connector-curvature="0"
         d="m 19,15 h 5 v 9 h -5 z m 0,0"
         id="path9" />
    </clipPath>
    <clipPath
       id="clip4">
      <path
         inkscape:connector-curvature="0"
         d="m 29.136719,19.933594 c 0,6.152344 -4.988281,11.136718 -11.136719,11.136718 -6.148438,0 -11.140625,-4.984374 -11.140625,-11.136718 0,-6.15625 4.992187,-11.140625 11.140625,-11.140625 6.148438,0 11.136719,4.984375 11.136719,11.140625 z m 0,0"
         id="path12-3" />
    </clipPath>
    <clipPath
       id="clip5">
      <path
         inkscape:connector-curvature="0"
         d="m 12,14 h 8 v 12 h -8 z m 0,0"
         id="path15" />
    </clipPath>
    <clipPath
       id="clip6">
      <path
         inkscape:connector-curvature="0"
         d="m 29.136719,19.933594 c 0,6.152344 -4.988281,11.136718 -11.136719,11.136718 -6.148438,0 -11.140625,-4.984374 -11.140625,-11.136718 0,-6.15625 4.992187,-11.140625 11.140625,-11.140625 6.148438,0 11.136719,4.984375 11.136719,11.140625 z m 0,0"
         id="path18-6" />
    </clipPath>
  </defs>
  <path
     style="opacity:0.2"
     d="M 10,5 C 8.892,5 8,5.892 8,7 v 36 c 0,1.108 0.892,2 2,2 h 28 c 1.108,0 2,-0.892 2,-2 V 17 L 29,16 28,5 Z"
     id="path10" />
  <path
     opacity=".1"
     d="m163.22 242.45v11c0 1.1046 0.89543 2 2 2h10l-1-1-10-9z"
     clip-path="url(#clipPath4266-4)"
     filter="url(#filter4987)"
     transform="translate(-135.61 -237.72)"
     id="path12" />
  <path
     fill="#e4e4e4"
     d="m10 4c-1.108 0-2 0.892-2 2v36c0 1.108 0.892 2 2 2h28c1.108 0 2-0.892 2-2v-26l-11-1-1-11z"
     id="path14"
     style="fill:#1402ea;fill-opacity:1" />
  <path
     fill="#fff"
     opacity=".2"
     d="m10 4c-1.108 0-2 0.892-2 2v1c0-1.108 0.892-2 2-2h18l11 11h1l-12-12z"
     id="path16" />
  <path
     style="opacity:0.2"
     d="m 28,5 v 10 c 0,1.1046 0.89543,2 2,2 h 10 z"
     id="path18" />
  <path
     fill="#fafafa"
     d="m28 4v10c0 1.1046 0.89543 2 2 2h10l-12-12z"
     id="path20"
     style="fill:#4131fd;fill-opacity:1" />
  <path
     inkscape:connector-curvature="0"
     style="fill:#000000;fill-opacity:0.352941;stroke-width:1.33333325"
     d="m 24.000003,19.951167 c -4.802083,0 -8.697917,3.895833 -8.692708,8.697917 0,4.802083 3.890625,8.697916 8.692708,8.697916 4.802083,0 8.692708,-3.895833 8.692708,-8.697916 0,-4.802084 -3.890625,-8.697917 -8.692708,-8.697917 z m 0,1.739584 c 3.843749,0 6.958333,3.114583 6.958333,6.958333 0,3.838541 -3.114584,6.953124 -6.958333,6.953124 -3.843749,0 -6.958333,-3.114583 -6.958333,-6.953124 0,-3.84375 3.114584,-6.958333 6.958333,-6.958333 z m 0.05208,1.739583 c -0.468749,-0.01563 -0.927083,0.161458 -1.265624,0.489582 -0.338541,0.328126 -0.526043,0.781251 -0.526043,1.25 3e-6,0.958334 0.776046,1.739584 1.739587,1.739584 0.958333,0 1.739584,-0.78125 1.739584,-1.739584 0,-0.942708 -0.75,-1.713541 -1.687501,-1.739582 z m -0.921875,4.348958 c -0.869792,0 -0.869792,0 -0.869792,0.869792 v 4.348957 c 0,0.869792 0,0.869792 0.869792,0.869792 h 1.739584 c 0.869792,0 0.869792,0 0.869792,-0.869792 v -4.348957 c 0,-0.875 0,-0.869792 -0.869792,-0.869792 z m 0,0"
     id="path21" />
</svg>
