<?xml version="1.0" encoding="UTF-8" standalone="no"?>
<svg
   xmlns:dc="http://purl.org/dc/elements/1.1/"
   xmlns:cc="http://creativecommons.org/ns#"
   xmlns:rdf="http://www.w3.org/1999/02/22-rdf-syntax-ns#"
   xmlns:svg="http://www.w3.org/2000/svg"
   xmlns="http://www.w3.org/2000/svg"
   xmlns:sodipodi="http://sodipodi.sourceforge.net/DTD/sodipodi-0.dtd"
   xmlns:inkscape="http://www.inkscape.org/namespaces/inkscape"
   width="512"
   height="512"
   version="1.1"
   viewBox="0 0 512 512"
   id="svg34"
   sodipodi:docname="cs-desktop.svg"
   inkscape:version="0.92.2 2405546, 2018-03-11">
  <metadata
     id="metadata40">
    <rdf:RDF>
      <cc:Work
         rdf:about="">
        <dc:format>image/svg+xml</dc:format>
        <dc:type
           rdf:resource="http://purl.org/dc/dcmitype/StillImage" />
        <dc:title />
      </cc:Work>
    </rdf:RDF>
  </metadata>
  <defs
     id="defs38" />
  <sodipodi:namedview
     pagecolor="#ffffff"
     bordercolor="#666666"
     borderopacity="1"
     objecttolerance="10"
     gridtolerance="10"
     guidetolerance="10"
     inkscape:pageopacity="0"
     inkscape:pageshadow="2"
     inkscape:window-width="1366"
     inkscape:window-height="690"
     id="namedview36"
     showgrid="false"
     inkscape:zoom="0.38221343"
     inkscape:cx="-456.01753"
     inkscape:cy="394.4956"
     inkscape:window-x="0"
     inkscape:window-y="0"
     inkscape:window-maximized="1"
     inkscape:current-layer="g863" />
  <g
     id="g863"
     transform="matrix(12,0,0,12,-32,-38)">
    <g
       id="g939"
       transform="matrix(0.9375,0,0,0.9009009,1.5,2.927928)">
      <path
         style="fill:#0088ff;fill-opacity:1"
         inkscape:connector-curvature="0"
         d="M 6,6 C 4.892,6 4,6.892 4,8 V 38 H 44 V 8 C 44,6.892 43.108,6 42,6 Z"
         id="path2" />
      <path
         style="fill:#373737;fill-opacity:1"
         inkscape:connector-curvature="0"
         d="M 6,42 C 4.892,42 4,41.108 4,40 v -2 h 40 v 2 c 0,1.108 -0.892,2 -2,2 z"
         id="path4" />
      <path
         style="opacity:0.2;fill:#ffffff"
         inkscape:connector-curvature="0"
         d="M 6,6 C 4.892,6 4,6.892 4,8 V 9 C 4,7.892 4.892,7 6,7 h 36 c 1.108,0 2,0.892 2,2 V 8 C 44,6.892 43.108,6 42,6 Z"
         id="path6" />
      <rect
         style="fill:#ffffff;fill-opacity:0.9729996;stroke-width:0.5"
         width="2"
         height="2"
         x="6.5"
         y="38.833332"
         rx="0.25"
         ry="0.25"
         id="rect24" />
      <path
         style="opacity:0.2;fill:#373737;fill-opacity:1"
         inkscape:connector-curvature="0"
         d="m 4,40 v 1 c 0,1.108 0.892,2 2,2 h 36 c 1.108,0 2,-0.892 2,-2 v -1 c 0,1.108 -0.892,2 -2,2 H 6 C 4.892,42 4,41.108 4,40 Z"
         id="path32" />
    </g>
  </g>
</svg>
