<?xml version="1.0" encoding="UTF-8" standalone="no"?>
<svg
   xmlns:dc="http://purl.org/dc/elements/1.1/"
   xmlns:cc="http://creativecommons.org/ns#"
   xmlns:rdf="http://www.w3.org/1999/02/22-rdf-syntax-ns#"
   xmlns:svg="http://www.w3.org/2000/svg"
   xmlns="http://www.w3.org/2000/svg"
   xmlns:sodipodi="http://sodipodi.sourceforge.net/DTD/sodipodi-0.dtd"
   xmlns:inkscape="http://www.inkscape.org/namespaces/inkscape"
   width="512"
   height="512"
   version="1"
   id="svg34"
   sodipodi:docname="applications-interfacedesign.svg"
   inkscape:version="0.92.2 2405546, 2018-03-11">
  <metadata
     id="metadata40">
    <rdf:RDF>
      <cc:Work
         rdf:about="">
        <dc:format>image/svg+xml</dc:format>
        <dc:type
           rdf:resource="http://purl.org/dc/dcmitype/StillImage" />
        <dc:title></dc:title>
      </cc:Work>
    </rdf:RDF>
  </metadata>
  <defs
     id="defs38" />
  <sodipodi:namedview
     pagecolor="#ffffff"
     bordercolor="#666666"
     borderopacity="1"
     objecttolerance="10"
     gridtolerance="10"
     guidetolerance="10"
     inkscape:pageopacity="0"
     inkscape:pageshadow="2"
     inkscape:window-width="1366"
     inkscape:window-height="690"
     id="namedview36"
     showgrid="false"
     inkscape:zoom="0.86915209"
     inkscape:cx="-4.7218904"
     inkscape:cy="192.27577"
     inkscape:window-x="0"
     inkscape:window-y="0"
     inkscape:window-maximized="1"
     inkscape:current-layer="svg34" />
  <g
     id="g2542"
     transform="matrix(12,0,0,12,-32,-38)">
    <path
       id="path2"
       d="m 4,11 v 29 c 0,1.1088 0.89125,2 2,2 H 42.001 C 43.109,42 44,41.109 44,40 V 11 Z"
       style="fill:#c7c7c7"
       inkscape:connector-curvature="0" />
    <rect
       id="rect4"
       ry="1.658"
       rx="1.523"
       y="31"
       x="8"
       height="4"
       width="32"
       style="opacity:0.2" />
    <path
       id="path6"
       d="M 6,6 C 4.8912,6 4,6.8915 4,7.9995 V 11 H 44 V 7.9995 C 44,6.8915 43.109,6 42,6 Z"
       inkscape:connector-curvature="0"
       style="fill:#616161;fill-opacity:1" />
    <path
       id="path8"
       d="M 6,6 C 4.8912,6 4,6.892 4,8 V 9 C 4,7.892 4.8912,7 6,7 h 36 c 1.1088,0 2,0.892 2,2 V 8 C 44,6.892 43.109,6 42,6 Z"
       inkscape:connector-curvature="0"
       style="opacity:0.1;fill:#ffffff" />
    <path
       id="path10"
       d="m 4,40 v 1 c 0,1.1088 0.89125,2 2,2 H 42.002 C 43.109,43 44,42.109 44,41 v -1 c 0,1.1088 -0.89055,2 -1.998,2 H 6 C 4.8912,42 4,41.109 4,40 Z"
       style="opacity:0.2"
       inkscape:connector-curvature="0" />
    <rect
       id="rect12"
       ry="1.658"
       rx="1.523"
       y="30"
       x="8"
       height="4"
       width="32"
       style="fill:#ffffff" />
    <path
       id="path14"
       d="m 36,33 c 0,3.311997 -2.688003,6 -6,6 -3.312,0 -6,-2.688003 -6,-6 0,-3.312 2.688,-6 6,-6 3.311997,0 6,2.688 6,6 z"
       style="opacity:0.1;fill-rule:evenodd"
       inkscape:connector-curvature="0" />
    <path
       id="path16"
       d="m 36,32 c 0,3.311997 -2.688003,6 -6,6 -3.312,0 -6,-2.688003 -6,-6 0,-3.312 2.688,-6 6,-6 3.311997,0 6,2.688 6,6 z"
       style="fill:#0f6ee3;fill-rule:evenodd;fill-opacity:1"
       inkscape:connector-curvature="0" />
    <circle
       id="circle18"
       r="2"
       cy="17"
       cx="10"
       style="opacity:0.2" />
    <circle
       id="circle20"
       r="2"
       cy="16"
       cx="10"
       style="fill:#fffff7" />
    <rect
       id="rect22"
       ry="0.68699998"
       rx="0.62900001"
       y="22"
       x="16"
       height="4"
       width="4"
       style="opacity:0.1" />
    <rect
       id="rect24"
       ry="0.68699998"
       rx="0.62900001"
       y="21"
       x="16"
       height="4"
       width="4"
       style="fill:#0f6ee3;fill-opacity:1" />
    <circle
       id="circle26"
       r="2"
       cy="24"
       cx="10"
       style="opacity:0.1" />
    <circle
       id="circle28"
       r="2"
       cy="23"
       cx="10"
       style="fill:#0f6ee3;fill-opacity:1" />
    <rect
       id="rect30"
       ry="0.68699998"
       rx="0.62900001"
       y="15"
       x="16"
       height="4"
       width="4"
       style="opacity:0.2" />
    <rect
       id="rect32"
       ry="0.68699998"
       rx="0.62900001"
       y="14"
       x="16"
       height="4"
       width="4"
       style="fill:#ffffff" />
  </g>
</svg>
