<?xml version="1.0" encoding="UTF-8" standalone="no"?>
<svg
   xmlns:dc="http://purl.org/dc/elements/1.1/"
   xmlns:cc="http://creativecommons.org/ns#"
   xmlns:rdf="http://www.w3.org/1999/02/22-rdf-syntax-ns#"
   xmlns:svg="http://www.w3.org/2000/svg"
   xmlns="http://www.w3.org/2000/svg"
   xmlns:sodipodi="http://sodipodi.sourceforge.net/DTD/sodipodi-0.dtd"
   xmlns:inkscape="http://www.inkscape.org/namespaces/inkscape"
   height="512"
   width="512"
   version="1.1"
   id="svg13"
   sodipodi:docname="comix.svg"
   inkscape:version="0.92.2 2405546, 2018-03-11">
  <metadata
     id="metadata19">
    <rdf:RDF>
      <cc:Work
         rdf:about="">
        <dc:format>image/svg+xml</dc:format>
        <dc:type
           rdf:resource="http://purl.org/dc/dcmitype/StillImage" />
        <dc:title></dc:title>
      </cc:Work>
    </rdf:RDF>
  </metadata>
  <defs
     id="defs17" />
  <sodipodi:namedview
     pagecolor="#ffffff"
     bordercolor="#666666"
     borderopacity="1"
     objecttolerance="10"
     gridtolerance="10"
     guidetolerance="10"
     inkscape:pageopacity="0"
     inkscape:pageshadow="2"
     inkscape:window-width="1366"
     inkscape:window-height="695"
     id="namedview15"
     showgrid="false"
     inkscape:zoom="0.43457604"
     inkscape:cx="-333.48436"
     inkscape:cy="68.921976"
     inkscape:window-x="0"
     inkscape:window-y="0"
     inkscape:window-maximized="1"
     inkscape:current-layer="svg13" />
  <linearGradient
     id="a"
     gradientUnits="userSpaceOnUse"
     x1="17.386789"
     x2="17.386789"
     y1="1045.8689"
     y2="1006.8689">
    <stop
       offset="0"
       stop-color="#ff9300"
       id="stop2" />
    <stop
       offset="1"
       stop-color="#ffd702"
       id="stop4" />
  </linearGradient>
  <circle
     cx="256"
     cy="262"
     r="225"
     id="circle7-3"
     style="fill:#000000;fill-opacity:0.53658537;stroke-width:11.24999714" />
  <g
     transform="matrix(9.3749997,0,0,9.3749997,-426.92726,-9343.2427)"
     id="g11">
    <circle
       cx="17.386787"
       cy="1026.8689"
       r="20.000006"
       transform="matrix(1.1999997,0,0,1.1999997,51.981437,-208.32311)"
       id="circle7"
       style="fill:#ffc700;fill-opacity:1" />
    <path
       d="m 72.845772,1032.4898 c -0.154344,0 -0.291578,-0.098 -0.341284,-0.2444 -0.342907,-1.0101 -1.479862,-3.7616 -2.607633,-4.3539 -0.363977,-0.1912 -0.694636,-0.2882 -0.982792,-0.2882 -0.510397,0 -0.798733,0.3032 -1.009267,0.5243 l -0.05871,0.061 c -0.2968,0.304 -0.852762,1.0433 -0.858344,1.0507 -0.06465,0.086 -0.16479,0.1387 -0.272308,0.1434 -0.107879,0 -0.211975,-0.04 -0.283833,-0.12 -0.01585,-0.018 -1.594585,-1.7577 -3.091915,-1.7713 h -0.02468 c -0.490044,0 -0.851141,0.1351 -1.07302,0.4017 -0.380727,0.4572 -0.284735,1.1742 -0.246194,1.3831 0.145879,0.7921 0.753167,1.8059 0.759291,1.816 0.07924,0.1315 0.06645,0.2986 -0.0317,0.4165 -0.09815,0.1176 -0.260241,0.1607 -0.403957,0.1068 -0.231426,-0.088 -5.677935,-2.1884 -6.402649,-6.4899 -0.495267,-2.9393 1.605751,-5.65 5.916024,-7.6325 1.529029,-0.7034 4.124593,-1.4038 4.234453,-1.4332 0.153984,-0.042 0.317692,0.024 0.400897,0.1603 0.0832,0.1365 0.06663,0.3116 -0.04107,0.4299 -0.08338,0.092 -2.032221,2.2899 -0.411343,4.0557 0.492566,0.5368 1.10886,0.8204 1.782064,0.8204 1.318135,0 2.501195,-1.0496 2.63933,-1.9525 0.251415,-1.6414 0.284194,-3.8473 0.284554,-3.8695 0.0024,-0.1624 0.112917,-0.3034 0.270327,-0.344 0.157764,-0.041 0.322374,0.03 0.402878,0.1708 l 0.896705,1.5758 0.546596,-0.012 0.561004,0.012 0.896705,-1.5758 c 0.08032,-0.141 0.245113,-0.2109 0.402698,-0.1708 0.157406,0.041 0.268165,0.1814 0.270507,0.344 3.6e-4,0.023 0.03314,2.2281 0.284373,3.8695 0.138496,0.9029 1.321556,1.9525 2.63951,1.9525 0.673384,0 1.289679,-0.2836 1.782246,-0.8204 1.62718,-1.7724 -0.327238,-3.9634 -0.411164,-4.0557 -0.107698,-0.1188 -0.124267,-0.2934 -0.04107,-0.4299 0.08302,-0.1365 0.246373,-0.202 0.400897,-0.1603 0.109678,0.03 2.705244,0.7299 4.234273,1.4332 4.310453,1.9825 6.411472,4.6932 5.916204,7.6325 -0.724894,4.3015 -6.171403,6.4025 -6.402827,6.4899 -0.143718,0.054 -0.305627,0.012 -0.403779,-0.1068 -0.09815,-0.1176 -0.110938,-0.285 -0.03188,-0.4165 0.0061,-0.012 0.613953,-1.0264 0.759472,-1.8162 0.03835,-0.2088 0.134172,-0.9259 -0.246373,-1.3831 -0.221881,-0.2664 -0.582797,-0.4015 -1.072842,-0.4015 h -0.02449 c -1.497511,0.013 -3.076246,1.7537 -3.092095,1.7713 -0.07186,0.08 -0.174515,0.1247 -0.283833,0.12 -0.107699,0 -0.207652,-0.058 -0.272488,-0.1434 -0.0054,-0.012 -0.561724,-0.747 -0.858345,-1.0507 l -0.05853,-0.061 c -0.210534,-0.2213 -0.498871,-0.5246 -1.009267,-0.5246 -0.287976,0 -0.618635,0.097 -0.982792,0.2882 -1.129032,0.593 -2.265087,3.3438 -2.607633,4.3536 -0.04952,0.1463 -0.18658,0.2446 -0.340924,0.2446 z"
       id="path9"
       inkscape:connector-curvature="0"
       style="fill-opacity:0.77600002" />
  </g>
</svg>
