<?xml version="1.0" encoding="UTF-8" standalone="no"?>
<svg
   xmlns:dc="http://purl.org/dc/elements/1.1/"
   xmlns:cc="http://creativecommons.org/ns#"
   xmlns:rdf="http://www.w3.org/1999/02/22-rdf-syntax-ns#"
   xmlns:svg="http://www.w3.org/2000/svg"
   xmlns="http://www.w3.org/2000/svg"
   xmlns:xlink="http://www.w3.org/1999/xlink"
   xmlns:sodipodi="http://sodipodi.sourceforge.net/DTD/sodipodi-0.dtd"
   xmlns:inkscape="http://www.inkscape.org/namespaces/inkscape"
   width="384pt"
   height="384pt"
   version="1.1"
   viewBox="0 0 384 384"
   id="svg39"
   sodipodi:docname="cs-panel.svg"
   inkscape:version="0.92.2 2405546, 2018-03-11">
  <metadata
     id="metadata43">
    <rdf:RDF>
      <cc:Work
         rdf:about="">
        <dc:format>image/svg+xml</dc:format>
        <dc:type
           rdf:resource="http://purl.org/dc/dcmitype/StillImage" />
      </cc:Work>
    </rdf:RDF>
  </metadata>
  <sodipodi:namedview
     pagecolor="#ffffff"
     bordercolor="#666666"
     borderopacity="1"
     objecttolerance="10"
     gridtolerance="10"
     guidetolerance="10"
     inkscape:pageopacity="0"
     inkscape:pageshadow="2"
     inkscape:window-width="773"
     inkscape:window-height="480"
     id="namedview41"
     showgrid="false"
     inkscape:zoom="0.4609375"
     inkscape:cx="256"
     inkscape:cy="256"
     inkscape:window-x="0"
     inkscape:window-y="0"
     inkscape:window-maximized="0"
     inkscape:current-layer="svg39" />
  <defs
     id="defs27">
    <filter
       id="alpha"
       width="100%"
       height="100%"
       x="0%"
       y="0%"
       filterUnits="objectBoundingBox">
      <feColorMatrix
         in="SourceGraphic"
         type="matrix"
         values="0 0 0 0 1 0 0 0 0 1 0 0 0 0 1 0 0 0 1 0"
         id="feColorMatrix2" />
    </filter>
    <mask
       id="mask0">
      <g
         filter="url(#alpha)"
         id="g7">
        <rect
           width="384"
           height="384"
           x="0"
           y="0"
           style="fill:rgb(0%,0%,0%);fill-opacity:0.101961"
           id="rect5" />
      </g>
    </mask>
    <clipPath
       id="clip1">
      <rect
         width="384"
         height="384"
         x="0"
         y="0"
         id="rect10" />
    </clipPath>
    <g
       id="surface5"
       clip-path="url(#clip1)">
      <path
         style="fill:rgb(100%,100%,100%)"
         d="M 48 48 C 39.136719 48 32 55.136719 32 64 L 32 72 C 32 63.136719 39.136719 56 48 56 L 336 56 C 344.863281 56 352 63.136719 352 72 L 352 64 C 352 55.136719 344.863281 48 336 48 Z M 48 48"
         id="path13" />
    </g>
    <mask
       id="mask1">
      <g
         filter="url(#alpha)"
         id="g18">
        <rect
           width="384"
           height="384"
           x="0"
           y="0"
           style="fill:rgb(0%,0%,0%);fill-opacity:0.2"
           id="rect16" />
      </g>
    </mask>
    <clipPath
       id="clip2">
      <rect
         width="384"
         height="384"
         x="0"
         y="0"
         id="rect21" />
    </clipPath>
    <g
       id="surface8"
       clip-path="url(#clip2)">
      <path
         style="fill:rgb(0%,0%,0%)"
         d="M 32 320 L 32 328 C 32 336.863281 39.136719 344 48 344 L 336 344 C 344.863281 344 352 336.863281 352 328 L 352 320 C 352 328.863281 344.863281 336 336 336 L 48 336 C 39.136719 336 32 328.863281 32 320 Z M 32 320"
         id="path24" />
    </g>
  </defs>
  <g
     id="g37">
    <path
       style="fill:#0088ff;fill-opacity:1"
       d="M 48 48 C 39.136719 48 32 55.136719 32 64 L 32 304 L 352 304 L 352 64 C 352 55.136719 344.863281 48 336 48 Z M 48 48"
       id="path29" />
    <path
       style="fill:#373737;fill-opacity:1"
       d="M 48 336 C 39.136719 336 32 328.863281 32 320 L 32 304 L 352 304 L 352 320 C 352 328.863281 344.863281 336 336 336 Z M 48 336"
       id="path31" />
    <use
       mask="url(#mask0)"
       xlink:href="#surface5"
       id="use33" />
    <use
       mask="url(#mask1)"
       xlink:href="#surface8"
       id="use35" />
  </g>
</svg>
