<?xml version="1.0" encoding="UTF-8" standalone="no"?>
<svg
   xmlns:dc="http://purl.org/dc/elements/1.1/"
   xmlns:cc="http://creativecommons.org/ns#"
   xmlns:rdf="http://www.w3.org/1999/02/22-rdf-syntax-ns#"
   xmlns:svg="http://www.w3.org/2000/svg"
   xmlns="http://www.w3.org/2000/svg"
   xmlns:xlink="http://www.w3.org/1999/xlink"
   xmlns:sodipodi="http://sodipodi.sourceforge.net/DTD/sodipodi-0.dtd"
   xmlns:inkscape="http://www.inkscape.org/namespaces/inkscape"
   width="384pt"
   height="384pt"
   version="1.1"
   viewBox="0 0 384 384"
   id="svg52"
   sodipodi:docname="chrome-dihbebhmaoagdpbcnfedokpfkkgmmpgc-Default.svg"
   inkscape:version="0.92.2 2405546, 2018-03-11">
  <metadata
     id="metadata56">
    <rdf:RDF>
      <cc:Work
         rdf:about="">
        <dc:format>image/svg+xml</dc:format>
        <dc:type
           rdf:resource="http://purl.org/dc/dcmitype/StillImage" />
      </cc:Work>
    </rdf:RDF>
  </metadata>
  <sodipodi:namedview
     pagecolor="#ffffff"
     bordercolor="#666666"
     borderopacity="1"
     objecttolerance="10"
     gridtolerance="10"
     guidetolerance="10"
     inkscape:pageopacity="0"
     inkscape:pageshadow="2"
     inkscape:window-width="811"
     inkscape:window-height="480"
     id="namedview54"
     showgrid="false"
     inkscape:zoom="0.4609375"
     inkscape:cx="256"
     inkscape:cy="256"
     inkscape:window-x="0"
     inkscape:window-y="0"
     inkscape:window-maximized="0"
     inkscape:current-layer="svg52" />
  <defs
     id="defs38">
    <filter
       id="alpha"
       width="100%"
       height="100%"
       x="0%"
       y="0%"
       filterUnits="objectBoundingBox">
      <feColorMatrix
         in="SourceGraphic"
         type="matrix"
         values="0 0 0 0 1 0 0 0 0 1 0 0 0 0 1 0 0 0 1 0"
         id="feColorMatrix2" />
    </filter>
    <mask
       id="mask0">
      <g
         filter="url(#alpha)"
         id="g7">
        <rect
           width="384"
           height="384"
           x="0"
           y="0"
           style="fill:rgb(0%,0%,0%);fill-opacity:0.2"
           id="rect5" />
      </g>
    </mask>
    <clipPath
       id="clip1">
      <rect
         width="384"
         height="384"
         x="0"
         y="0"
         id="rect10" />
    </clipPath>
    <g
       id="surface5"
       clip-path="url(#clip1)">
      <path
         style="fill:rgb(0%,0%,0%)"
         d="M 24.003906 328.804688 L 24.003906 340.804688 C 24.003906 354.765625 35.238281 366 49.199219 366 L 334.804688 366 C 348.765625 366 360 354.765625 360 340.804688 L 360 328.804688 C 360 342.765625 348.765625 354 334.804688 354 L 49.199219 354 C 35.234375 354 24 342 24 328.800781 Z M 24.003906 328.804688"
         id="path13" />
    </g>
    <mask
       id="mask1">
      <g
         filter="url(#alpha)"
         id="g18">
        <rect
           width="384"
           height="384"
           x="0"
           y="0"
           style="fill:rgb(0%,0%,0%);fill-opacity:0.2"
           id="rect16" />
      </g>
    </mask>
    <clipPath
       id="clip2">
      <rect
         width="384"
         height="384"
         x="0"
         y="0"
         id="rect21" />
    </clipPath>
    <g
       id="surface8"
       clip-path="url(#clip2)">
      <path
         style="fill:rgb(0%,0%,0%)"
         d="M 252 102.003906 C 252 102.003906 204 102.003906 204 150.003906 L 204 198.003906 L 168 198.003906 L 168 246.003906 L 204 246.003906 L 204 354 L 252 354 L 252 246.003906 L 294 246.003906 L 300 198.003906 L 252 198.003906 L 252 162.003906 C 252 150.003906 264 150.003906 264 150.003906 L 300 150.003906 L 300 102.003906 Z M 252 102.003906"
         id="path24" />
    </g>
    <mask
       id="mask2">
      <g
         filter="url(#alpha)"
         id="g29">
        <rect
           width="384"
           height="384"
           x="0"
           y="0"
           style="fill:rgb(0%,0%,0%);fill-opacity:0.101961"
           id="rect27" />
      </g>
    </mask>
    <clipPath
       id="clip3">
      <rect
         width="384"
         height="384"
         x="0"
         y="0"
         id="rect32" />
    </clipPath>
    <g
       id="surface11"
       clip-path="url(#clip3)">
      <path
         style="fill:rgb(100%,100%,100%)"
         d="M 49.195312 24.011719 C 35.234375 24.011719 24 34.808594 24 49.207031 L 24 55.207031 C 24 40.808594 35.234375 30.011719 49.195312 30.011719 L 49.195312 30.023438 L 334.804688 30.023438 C 348.765625 30.023438 360 41.246094 360 55.207031 L 360 49.207031 C 360 35.246094 348.765625 24.011719 334.804688 24.011719 Z M 49.195312 24.011719"
         id="path35" />
    </g>
  </defs>
  <g
     id="g50">
    <use
       mask="url(#mask0)"
       xlink:href="#surface5"
       id="use40" />
    <path
       style="fill:#3b5999;fill-opacity:1"
       d="M 360 334.800781 L 360 49.207031 C 360 35.289062 348.71875 24.007812 334.800781 24.007812 L 49.207031 24.007812 C 35.289062 24.007812 24.007812 35.289062 24.007812 49.207031 L 24.007812 334.800781 C 24.007812 348.71875 35.289062 360 49.207031 360 L 334.800781 360 C 348.71875 360 360 348.71875 360 334.800781 Z M 360 334.800781"
       id="path42" />
    <use
       mask="url(#mask1)"
       xlink:href="#surface8"
       id="use44" />
    <path
       style="fill:rgb(100%,100%,100%)"
       d="M 252 96.011719 C 252 96.011719 204 96.011719 204 144.007812 L 204 192.007812 L 168 192.007812 L 168 240.007812 L 204 240.007812 L 204 360.003906 L 252 360.003906 L 252 240.007812 L 294 240.007812 L 300 192.007812 L 252 192.007812 L 252 156.007812 C 252 144.007812 264 144.007812 264 144.007812 L 300 144.007812 L 300 96.011719 Z M 252 96.011719"
       id="path46" />
    <use
       mask="url(#mask2)"
       xlink:href="#surface11"
       id="use48" />
  </g>
</svg>
