<?xml version="1.0" encoding="UTF-8" standalone="no"?>
<svg
   xmlns:dc="http://purl.org/dc/elements/1.1/"
   xmlns:cc="http://creativecommons.org/ns#"
   xmlns:rdf="http://www.w3.org/1999/02/22-rdf-syntax-ns#"
   xmlns:svg="http://www.w3.org/2000/svg"
   xmlns="http://www.w3.org/2000/svg"
   xmlns:xlink="http://www.w3.org/1999/xlink"
   xmlns:sodipodi="http://sodipodi.sourceforge.net/DTD/sodipodi-0.dtd"
   xmlns:inkscape="http://www.inkscape.org/namespaces/inkscape"
   id="Firefox_-_Large"
   data-name="Firefox - Large"
   viewBox="0 0 512 512"
   version="1.1"
   sodipodi:docname="firefox-trunk.svg"
   width="512"
   height="512"
   inkscape:version="0.92.2 2405546, 2018-03-11">
  <metadata
     id="metadata230">
    <rdf:RDF>
      <cc:Work
         rdf:about="">
        <dc:format>image/svg+xml</dc:format>
        <dc:type
           rdf:resource="http://purl.org/dc/dcmitype/StillImage" />
        <dc:title>firefox-logo</dc:title>
      </cc:Work>
    </rdf:RDF>
  </metadata>
  <sodipodi:namedview
     pagecolor="#ffffff"
     bordercolor="#666666"
     borderopacity="1"
     objecttolerance="10"
     gridtolerance="10"
     guidetolerance="10"
     inkscape:pageopacity="0"
     inkscape:pageshadow="2"
     inkscape:window-width="1366"
     inkscape:window-height="695"
     id="namedview228"
     showgrid="false"
     inkscape:zoom="0.54087487"
     inkscape:cx="372.18043"
     inkscape:cy="241.69435"
     inkscape:window-x="0"
     inkscape:window-y="0"
     inkscape:window-maximized="1"
     inkscape:current-layer="Firefox_-_Large" />
  <defs
     id="defs194">
    <radialGradient
       id="radial-gradient"
       cx="-14480.522"
       cy="-8329.0791"
       fx="-14509.281"
       r="450.875"
       gradientTransform="matrix(0.762,0.034,-0.05,1.12,11560.893,10069.103)"
       gradientUnits="userSpaceOnUse">
      <stop
         offset="0.045"
         stop-color="#ffea00"
         id="stop2" />
      <stop
         offset="0.12"
         stop-color="#ffde00"
         id="stop4" />
      <stop
         offset="0.254"
         stop-color="#ffbf00"
         id="stop6" />
      <stop
         offset="0.429"
         stop-color="#ff8e00"
         id="stop8" />
      <stop
         offset="0.769"
         stop-color="#ff272d"
         id="stop10" />
      <stop
         offset="0.872"
         stop-color="#e0255a"
         id="stop12" />
      <stop
         offset="0.953"
         stop-color="#cc2477"
         id="stop14" />
      <stop
         offset="1"
         stop-color="#c42482"
         id="stop16" />
    </radialGradient>
    <radialGradient
       id="radial-gradient-2"
       cx="-7529.6689"
       cy="-7921.6079"
       r="791.229"
       gradientTransform="matrix(1.225,0,0,1.225,9921.963,9899.103)"
       gradientUnits="userSpaceOnUse">
      <stop
         offset="0"
         stop-color="#00ccda"
         id="stop19" />
      <stop
         offset="0.22"
         stop-color="#0083ff"
         id="stop21" />
      <stop
         offset="0.261"
         stop-color="#007af9"
         id="stop23" />
      <stop
         offset="0.33"
         stop-color="#0060e8"
         id="stop25" />
      <stop
         offset="0.333"
         stop-color="#005fe7"
         id="stop27" />
      <stop
         offset="0.438"
         stop-color="#2639ad"
         id="stop29" />
      <stop
         offset="0.522"
         stop-color="#401e84"
         id="stop31" />
      <stop
         offset="0.566"
         stop-color="#4a1475"
         id="stop33" />
    </radialGradient>
    <linearGradient
       id="linear-gradient"
       x1="575.66901"
       y1="731.18799"
       x2="384.23099"
       y2="104.96"
       gradientUnits="userSpaceOnUse">
      <stop
         offset="0"
         stop-color="#000f43"
         stop-opacity="0.4"
         id="stop36" />
      <stop
         offset="0.485"
         stop-color="#001962"
         stop-opacity="0.173"
         id="stop38" />
      <stop
         offset="1"
         stop-color="#002079"
         stop-opacity="0"
         id="stop40" />
    </linearGradient>
    <radialGradient
       id="radial-gradient-3"
       cx="-8260.9404"
       cy="-6516.5562"
       r="266.88599"
       gradientTransform="matrix(1.219,0.123,-0.123,1.219,10296.265,9597.23)"
       gradientUnits="userSpaceOnUse">
      <stop
         offset="0.003"
         stop-color="#ffea00"
         id="stop43" />
      <stop
         offset="0.497"
         stop-color="#ff272d"
         id="stop45" />
      <stop
         offset="1"
         stop-color="#c42482"
         id="stop47" />
    </radialGradient>
    <radialGradient
       id="radial-gradient-4"
       cx="-8285.0869"
       cy="-6772.4678"
       r="445.67801"
       gradientTransform="matrix(1.219,0.123,-0.123,1.219,10296.265,9597.23)"
       gradientUnits="userSpaceOnUse">
      <stop
         offset="0.003"
         stop-color="#ffe900"
         id="stop50" />
      <stop
         offset="0.157"
         stop-color="#ffaf0e"
         id="stop52" />
      <stop
         offset="0.316"
         stop-color="#ff7a1b"
         id="stop54" />
      <stop
         offset="0.472"
         stop-color="#ff4e26"
         id="stop56" />
      <stop
         offset="0.621"
         stop-color="#ff2c2e"
         id="stop58" />
      <stop
         offset="0.762"
         stop-color="#ff1434"
         id="stop60" />
      <stop
         offset="0.892"
         stop-color="#ff0538"
         id="stop62" />
      <stop
         offset="1"
         stop-color="#ff0039"
         id="stop64" />
    </radialGradient>
    <radialGradient
       id="radial-gradient-5"
       cx="-8222.0508"
       cy="-6359.332"
       r="408.95801"
       gradientTransform="matrix(1.219,0.123,-0.123,1.219,10296.265,9597.23)"
       gradientUnits="userSpaceOnUse">
      <stop
         offset="0.003"
         stop-color="#ff272d"
         id="stop67" />
      <stop
         offset="0.497"
         stop-color="#c42482"
         id="stop69" />
      <stop
         offset="0.986"
         stop-color="#620700"
         id="stop71" />
    </radialGradient>
    <radialGradient
       id="radial-gradient-6"
       cx="750.18903"
       cy="396.04099"
       fx="778.1665"
       fy="382.2124"
       r="782.17999"
       gradientUnits="userSpaceOnUse">
      <stop
         offset="0.156"
         stop-color="#ffea00"
         id="stop74" />
      <stop
         offset="0.231"
         stop-color="#ffde00"
         id="stop76" />
      <stop
         offset="0.365"
         stop-color="#ffbf00"
         id="stop78" />
      <stop
         offset="0.541"
         stop-color="#ff8e00"
         id="stop80" />
      <stop
         offset="0.763"
         stop-color="#ff272d"
         id="stop82" />
      <stop
         offset="0.796"
         stop-color="#f92433"
         id="stop84" />
      <stop
         offset="0.841"
         stop-color="#e91c45"
         id="stop86" />
      <stop
         offset="0.893"
         stop-color="#cf0e62"
         id="stop88" />
      <stop
         offset="0.935"
         stop-color="#b5007f"
         id="stop90" />
    </radialGradient>
    <radialGradient
       id="radial-gradient-7"
       cx="691.33899"
       cy="3.289"
       r="923.61499"
       gradientUnits="userSpaceOnUse">
      <stop
         offset="0.279"
         stop-color="#ffea00"
         id="stop93" />
      <stop
         offset="0.402"
         stop-color="#fd0"
         id="stop95" />
      <stop
         offset="0.63"
         stop-color="#ffba00"
         id="stop97" />
      <stop
         offset="0.856"
         stop-color="#ff9100"
         id="stop99" />
      <stop
         offset="0.933"
         stop-color="#ff6711"
         id="stop101" />
      <stop
         offset="0.994"
         stop-color="#ff4a1d"
         id="stop103" />
    </radialGradient>
    <linearGradient
       id="linear-gradient-2"
       x1="-8944.6504"
       y1="-6677.7422"
       x2="-8660.2891"
       y2="-6750.2261"
       gradientTransform="matrix(1.219,0.123,-0.123,1.219,10296.265,9597.23)"
       gradientUnits="userSpaceOnUse">
      <stop
         offset="0"
         stop-color="#c42482"
         stop-opacity="0.5"
         id="stop106" />
      <stop
         offset="0.474"
         stop-color="#ff272d"
         stop-opacity="0.5"
         id="stop108" />
      <stop
         offset="0.486"
         stop-color="#ff2c2c"
         stop-opacity="0.513"
         id="stop110" />
      <stop
         offset="0.675"
         stop-color="#ff7a1a"
         stop-opacity="0.72"
         id="stop112" />
      <stop
         offset="0.829"
         stop-color="#ffb20d"
         stop-opacity="0.871"
         id="stop114" />
      <stop
         offset="0.942"
         stop-color="#ffd605"
         stop-opacity="0.964"
         id="stop116" />
      <stop
         offset="1"
         stop-color="#ffe302"
         id="stop118" />
    </linearGradient>
    <linearGradient
       id="linear-gradient-3"
       x1="245.347"
       y1="-1082.012"
       x2="190.77499"
       y2="-1221.859"
       gradientTransform="matrix(0.995,0.1,-0.1,0.995,-173.696,1313.941)"
       gradientUnits="userSpaceOnUse">
      <stop
         offset="0"
         stop-color="#891551"
         stop-opacity="0.6"
         id="stop121" />
      <stop
         offset="1"
         stop-color="#c42482"
         stop-opacity="0"
         id="stop123" />
    </linearGradient>
    <linearGradient
       id="linear-gradient-4"
       x1="22.040001"
       y1="718.82703"
       x2="116.148"
       y2="825.71399"
       gradientTransform="matrix(0.995,0.1,-0.1,0.995,305.439,-246.471)"
       gradientUnits="userSpaceOnUse">
      <stop
         offset="0.005"
         stop-color="#891551"
         stop-opacity="0.5"
         id="stop126" />
      <stop
         offset="0.484"
         stop-color="#ff272d"
         stop-opacity="0.5"
         id="stop128" />
      <stop
         offset="1"
         stop-color="#ff272d"
         stop-opacity="0"
         id="stop130" />
    </linearGradient>
    <linearGradient
       id="linear-gradient-5"
       x1="200.104"
       y1="904.61603"
       x2="200.17101"
       y2="829.83502"
       gradientTransform="matrix(0.995,0.1,-0.1,0.995,305.439,-246.471)"
       gradientUnits="userSpaceOnUse">
      <stop
         offset="0"
         stop-color="#c42482"
         id="stop133" />
      <stop
         offset="0.083"
         stop-color="#c42482"
         stop-opacity="0.81"
         id="stop135" />
      <stop
         offset="0.206"
         stop-color="#c42482"
         stop-opacity="0.565"
         id="stop137" />
      <stop
         offset="0.328"
         stop-color="#c42482"
         stop-opacity="0.362"
         id="stop139" />
      <stop
         offset="0.447"
         stop-color="#c42482"
         stop-opacity="0.204"
         id="stop141" />
      <stop
         offset="0.562"
         stop-color="#c42482"
         stop-opacity="0.091"
         id="stop143" />
      <stop
         offset="0.673"
         stop-color="#c42482"
         stop-opacity="0.023"
         id="stop145" />
      <stop
         offset="0.773"
         stop-color="#c42482"
         stop-opacity="0"
         id="stop147" />
    </linearGradient>
    <linearGradient
       id="linear-gradient-6"
       x1="655.53101"
       y1="38.119999"
       x2="961.18701"
       y2="721.61499"
       gradientUnits="userSpaceOnUse">
      <stop
         offset="0"
         stop-color="#fff14f"
         id="stop150" />
      <stop
         offset="0.268"
         stop-color="#ffee4c"
         id="stop152" />
      <stop
         offset="0.452"
         stop-color="#ffe643"
         id="stop154" />
      <stop
         offset="0.612"
         stop-color="#ffd834"
         id="stop156" />
      <stop
         offset="0.757"
         stop-color="#ffc41e"
         id="stop158" />
      <stop
         offset="0.892"
         stop-color="#ffab02"
         id="stop160" />
      <stop
         offset="0.902"
         stop-color="#ffa900"
         id="stop162" />
      <stop
         offset="0.949"
         stop-color="#ffa000"
         id="stop164" />
      <stop
         offset="1"
         stop-color="#ff9100"
         id="stop166" />
    </linearGradient>
    <linearGradient
       id="linear-gradient-7"
       x1="715.88501"
       y1="431.20999"
       x2="571.09802"
       y2="819.96002"
       gradientUnits="userSpaceOnUse">
      <stop
         offset="0"
         stop-color="#ff8e00"
         id="stop169" />
      <stop
         offset="0.04"
         stop-color="#ff8e00"
         stop-opacity="0.858"
         id="stop171" />
      <stop
         offset="0.084"
         stop-color="#ff8e00"
         stop-opacity="0.729"
         id="stop173" />
      <stop
         offset="0.13"
         stop-color="#ff8e00"
         stop-opacity="0.628"
         id="stop175" />
      <stop
         offset="0.178"
         stop-color="#ff8e00"
         stop-opacity="0.557"
         id="stop177" />
      <stop
         offset="0.227"
         stop-color="#ff8e00"
         stop-opacity="0.514"
         id="stop179" />
      <stop
         offset="0.282"
         stop-color="#ff8e00"
         stop-opacity="0.5"
         id="stop181" />
      <stop
         offset="0.389"
         stop-color="#ff8e00"
         stop-opacity="0.478"
         id="stop183" />
      <stop
         offset="0.524"
         stop-color="#ff8e00"
         stop-opacity="0.416"
         id="stop185" />
      <stop
         offset="0.676"
         stop-color="#ff8e00"
         stop-opacity="0.314"
         id="stop187" />
      <stop
         offset="0.838"
         stop-color="#ff8e00"
         stop-opacity="0.172"
         id="stop189" />
      <stop
         offset="1"
         stop-color="#ff8e00"
         stop-opacity="0"
         id="stop191" />
    </linearGradient>
    <linearGradient
       id="linear-gradient-36"
       x1="-14694.371"
       y1="-8233.5605"
       x2="-14431.129"
       y2="-8233.5605"
       gradientTransform="matrix(0.762,0.034,-0.05,1.12,11560.893,10069.103)"
       gradientUnits="userSpaceOnUse">
      <stop
         offset="0"
         stop-color="#0083ff"
         id="stop2-7" />
      <stop
         offset="0.098"
         stop-color="#0092f8"
         id="stop4-5" />
      <stop
         offset="0.306"
         stop-color="#00abeb"
         id="stop6-3" />
      <stop
         offset="0.521"
         stop-color="#00bee1"
         id="stop8-5" />
      <stop
         offset="0.747"
         stop-color="#00c8dc"
         id="stop10-6" />
      <stop
         offset="0.999"
         stop-color="#00ccda"
         id="stop12-2" />
    </linearGradient>
    <radialGradient
       id="radial-gradient-9"
       cx="-7529.5332"
       cy="-7923.085"
       r="791.229"
       gradientTransform="matrix(1.225,0,0,1.225,9921.963,9899.103)"
       gradientUnits="userSpaceOnUse">
      <stop
         offset="0.025"
         stop-color="#005fe7"
         id="stop15" />
      <stop
         offset="0.177"
         stop-color="#0042b4"
         id="stop17" />
      <stop
         offset="0.323"
         stop-color="#002989"
         id="stop19-1" />
      <stop
         offset="0.397"
         stop-color="#002079"
         id="stop21-2" />
      <stop
         offset="0.473"
         stop-color="#131d78"
         id="stop23-7" />
      <stop
         offset="0.658"
         stop-color="#3b1676"
         id="stop25-0" />
      <stop
         offset="0.753"
         stop-color="#4a1475"
         id="stop27-9" />
    </radialGradient>
    <linearGradient
       inkscape:collect="always"
       xlink:href="#linear-gradient-2-3"
       id="linearGradient1059"
       gradientUnits="userSpaceOnUse"
       gradientTransform="translate(1)"
       x1="575.987"
       y1="731.18799"
       x2="384.54901"
       y2="104.96" />
    <linearGradient
       id="linear-gradient-2-3"
       x1="575.987"
       y1="731.18799"
       x2="384.54901"
       y2="104.96"
       gradientTransform="translate(1)"
       gradientUnits="userSpaceOnUse">
      <stop
         offset="0"
         stop-color="#000f43"
         stop-opacity="0.4"
         id="stop30" />
      <stop
         offset="0.485"
         stop-color="#001962"
         stop-opacity="0.173"
         id="stop32" />
      <stop
         offset="1"
         stop-color="#002079"
         stop-opacity="0"
         id="stop34" />
    </linearGradient>
    <linearGradient
       id="linear-gradient-3-6"
       x1="576.987"
       y1="731.18799"
       x2="385.54901"
       y2="104.96"
       xlink:href="#linear-gradient-2-3" />
    <linearGradient
       id="linear-gradient-4-0"
       x1="-8290.0605"
       y1="-6383.7168"
       x2="-8405.3047"
       y2="-6392.6128"
       gradientTransform="matrix(1.219,0.123,-0.123,1.219,10296.265,9597.23)"
       gradientUnits="userSpaceOnUse">
      <stop
         offset="0"
         stop-color="#812cc9"
         id="stop38-6" />
      <stop
         offset="1"
         stop-color="#005fe7"
         id="stop40-2" />
    </linearGradient>
    <linearGradient
       id="linear-gradient-5-6"
       x1="-8375.0332"
       y1="-6548.7749"
       x2="-8267.083"
       y2="-6660.8979"
       gradientTransform="matrix(1.219,0.123,-0.123,1.219,10296.265,9597.23)"
       gradientUnits="userSpaceOnUse">
      <stop
         offset="0.049"
         stop-color="#005fe7"
         id="stop43-1" />
      <stop
         offset="0.177"
         stop-color="#065de6"
         id="stop45-8" />
      <stop
         offset="0.353"
         stop-color="#1856e1"
         id="stop47-7" />
      <stop
         offset="0.557"
         stop-color="#354adb"
         id="stop49" />
      <stop
         offset="0.78"
         stop-color="#5d3ad1"
         id="stop51" />
      <stop
         offset="0.951"
         stop-color="#812cc9"
         id="stop53" />
    </linearGradient>
    <linearGradient
       id="linear-gradient-6-9"
       x1="-8575.3213"
       y1="-6281.0332"
       x2="-8344.4326"
       y2="-6280.4912"
       gradientTransform="matrix(1.219,0.123,-0.123,1.219,10296.265,9597.23)"
       gradientUnits="userSpaceOnUse">
      <stop
         offset="0"
         stop-color="#002079"
         id="stop56-2" />
      <stop
         offset="0.995"
         stop-color="#a238ff"
         id="stop58-0" />
    </linearGradient>
    <radialGradient
       id="radial-gradient-2-2"
       cx="680.43103"
       cy="386.17401"
       fx="821.36304"
       fy="257.02893"
       r="793.95001"
       gradientUnits="userSpaceOnUse">
      <stop
         offset="0.203"
         stop-color="#00fdff"
         id="stop61" />
      <stop
         offset="0.264"
         stop-color="#0af1ff"
         id="stop63" />
      <stop
         offset="0.372"
         stop-color="#23d2ff"
         id="stop65" />
      <stop
         offset="0.517"
         stop-color="#4da0ff"
         id="stop67-3" />
      <stop
         offset="0.689"
         stop-color="#855bff"
         id="stop69-7" />
      <stop
         offset="0.77"
         stop-color="#a238ff"
         id="stop71-5" />
      <stop
         offset="0.809"
         stop-color="#a738fd"
         id="stop73" />
      <stop
         offset="0.855"
         stop-color="#b539f9"
         id="stop75" />
      <stop
         offset="0.905"
         stop-color="#cd39f1"
         id="stop77" />
      <stop
         offset="0.956"
         stop-color="#ee3ae6"
         id="stop79" />
      <stop
         offset="0.979"
         stop-color="#ff3be0"
         id="stop81" />
    </radialGradient>
    <linearGradient
       id="linear-gradient-7-9"
       x1="-7424.6079"
       y1="-8151.9331"
       x2="-7496.6992"
       y2="-7341.604"
       gradientTransform="matrix(1.225,0,0,1.225,9921.963,9899.103)"
       gradientUnits="userSpaceOnUse">
      <stop
         offset="0"
         stop-color="#00ec00"
         id="stop84-2" />
      <stop
         offset="0.096"
         stop-color="#00e244"
         id="stop86-2" />
      <stop
         offset="0.219"
         stop-color="#00d694"
         id="stop88-8" />
      <stop
         offset="0.306"
         stop-color="#00cfc7"
         id="stop90-9" />
      <stop
         offset="0.348"
         stop-color="#00ccda"
         id="stop92" />
      <stop
         offset="0.422"
         stop-color="#0bc2dd"
         stop-opacity="0.923"
         id="stop94" />
      <stop
         offset="0.567"
         stop-color="#29a7e4"
         stop-opacity="0.723"
         id="stop96" />
      <stop
         offset="0.77"
         stop-color="#597df0"
         stop-opacity="0.401"
         id="stop98" />
      <stop
         offset="1"
         stop-color="#9448ff"
         stop-opacity="0"
         id="stop100" />
    </linearGradient>
    <linearGradient
       id="linear-gradient-8"
       x1="-8848.4951"
       y1="-6716.1431"
       x2="-8712.0273"
       y2="-6716.1431"
       gradientTransform="matrix(1.219,0.123,-0.123,1.219,10296.265,9597.23)"
       gradientUnits="userSpaceOnUse">
      <stop
         offset="0"
         stop-color="#005fe7"
         id="stop103-7" />
      <stop
         offset="0.464"
         stop-color="#0071f3"
         stop-opacity="0.508"
         id="stop105" />
      <stop
         offset="0.833"
         stop-color="#007efc"
         stop-opacity="0.143"
         id="stop107" />
      <stop
         offset="1"
         stop-color="#0083ff"
         stop-opacity="0"
         id="stop109" />
    </linearGradient>
    <radialGradient
       id="radial-gradient-3-3"
       cx="-8836.5039"
       cy="-6769.7178"
       r="165.97301"
       gradientTransform="matrix(1.219,0.123,-0.123,1.219,10296.265,9597.23)"
       gradientUnits="userSpaceOnUse">
      <stop
         offset="0.625"
         stop-color="#ffe302"
         stop-opacity="0"
         id="stop112-6" />
      <stop
         offset="0.67"
         stop-color="#ffe302"
         stop-opacity="0.051"
         id="stop114-1" />
      <stop
         offset="0.751"
         stop-color="#ffe302"
         stop-opacity="0.185"
         id="stop116-2" />
      <stop
         offset="0.862"
         stop-color="#ffe302"
         stop-opacity="0.403"
         id="stop118-9" />
      <stop
         offset="0.995"
         stop-color="#ffe302"
         stop-opacity="0.7"
         id="stop120" />
    </radialGradient>
    <linearGradient
       id="linear-gradient-9"
       x1="271.573"
       y1="-1032.953"
       x2="153.75101"
       y2="-1284.791"
       gradientTransform="matrix(0.995,0.1,-0.1,0.995,-173.696,1313.941)"
       gradientUnits="userSpaceOnUse">
      <stop
         offset="0.187"
         stop-color="#4a1475"
         stop-opacity="0.5"
         id="stop123-3" />
      <stop
         offset="0.617"
         stop-color="#2277ac"
         stop-opacity="0.23"
         id="stop125" />
      <stop
         offset="0.944"
         stop-color="#00ccda"
         stop-opacity="0"
         id="stop127" />
    </linearGradient>
    <linearGradient
       id="linear-gradient-10"
       x1="23.351"
       y1="718.69501"
       x2="117.458"
       y2="825.58197"
       gradientTransform="matrix(0.995,0.1,-0.1,0.995,305.439,-246.471)"
       gradientUnits="userSpaceOnUse">
      <stop
         offset="0.005"
         stop-color="#002079"
         stop-opacity="0.5"
         id="stop130-1" />
      <stop
         offset="1"
         stop-color="#0083ff"
         stop-opacity="0"
         id="stop132" />
    </linearGradient>
    <linearGradient
       id="linear-gradient-11"
       x1="201.41701"
       y1="902.047"
       x2="201.465"
       y2="848.62402"
       gradientTransform="matrix(0.995,0.1,-0.1,0.995,305.439,-246.471)"
       gradientUnits="userSpaceOnUse">
      <stop
         offset="0.005"
         stop-color="#4a1475"
         stop-opacity="0.9"
         id="stop135-9" />
      <stop
         offset="0.184"
         stop-color="#6720a2"
         stop-opacity="0.603"
         id="stop137-4" />
      <stop
         offset="0.382"
         stop-color="#812acb"
         stop-opacity="0.341"
         id="stop139-7" />
      <stop
         offset="0.575"
         stop-color="#9332e8"
         stop-opacity="0.152"
         id="stop141-8" />
      <stop
         offset="0.759"
         stop-color="#9e36f9"
         stop-opacity="0.039"
         id="stop143-4" />
      <stop
         offset="0.926"
         stop-color="#a238ff"
         stop-opacity="0"
         id="stop145-5" />
    </linearGradient>
    <linearGradient
       id="linear-gradient-12"
       x1="656.84802"
       y1="38.119999"
       x2="962.50403"
       y2="721.61499"
       gradientUnits="userSpaceOnUse">
      <stop
         offset="0"
         stop-color="#00ec00"
         stop-opacity="0"
         id="stop148" />
      <stop
         offset="0.28"
         stop-color="#00dc6d"
         stop-opacity="0.499"
         id="stop150-0" />
      <stop
         offset="0.499"
         stop-color="#00d1bb"
         stop-opacity="0.859"
         id="stop152-3" />
      <stop
         offset="0.598"
         stop-color="#00ccda"
         id="stop154-6" />
      <stop
         offset="0.677"
         stop-color="#04c9db"
         id="stop156-1" />
      <stop
         offset="0.753"
         stop-color="#0fc1df"
         id="stop158-0" />
      <stop
         offset="0.828"
         stop-color="#23b2e6"
         id="stop160-6" />
      <stop
         offset="0.902"
         stop-color="#3e9ef0"
         id="stop162-3" />
      <stop
         offset="0.975"
         stop-color="#6184fc"
         id="stop164-2" />
      <stop
         offset="0.985"
         stop-color="#6680fe"
         id="stop166-0" />
    </linearGradient>
    <linearGradient
       id="linear-gradient-13"
       x1="717.20203"
       y1="431.20999"
       x2="572.41602"
       y2="819.96002"
       gradientUnits="userSpaceOnUse">
      <stop
         offset="0"
         stop-color="#0083ff"
         id="stop169-6" />
      <stop
         offset="0.036"
         stop-color="#0083ff"
         stop-opacity="0.923"
         id="stop171-1" />
      <stop
         offset="0.145"
         stop-color="#0083ff"
         stop-opacity="0.709"
         id="stop173-5" />
      <stop
         offset="0.258"
         stop-color="#0083ff"
         stop-opacity="0.52"
         id="stop175-5" />
      <stop
         offset="0.372"
         stop-color="#0083ff"
         stop-opacity="0.36"
         id="stop177-4" />
      <stop
         offset="0.489"
         stop-color="#0083ff"
         stop-opacity="0.23"
         id="stop179-7" />
      <stop
         offset="0.607"
         stop-color="#0083ff"
         stop-opacity="0.129"
         id="stop181-6" />
      <stop
         offset="0.73"
         stop-color="#0083ff"
         stop-opacity="0.057"
         id="stop183-5" />
      <stop
         offset="0.857"
         stop-color="#0083ff"
         stop-opacity="0.014"
         id="stop185-6" />
      <stop
         offset="1"
         stop-color="#0083ff"
         stop-opacity="0"
         id="stop187-9" />
    </linearGradient>
  </defs>
  <title
     id="title196">firefox-logo</title>
  <g
     id="g1057"
     transform="matrix(0.48780476,0,0,0.48780476,5.7560874,15.024391)">
    <path
       id="path194"
       style="fill:url(#linear-gradient-36)"
       d="m 806.6,93.558 c -23.947,27.884 -35.1,90.639 -10.818,154.256 24.282,63.617 61.5,49.8 84.7,114.673 30.623,85.6 16.369,200.589 16.369,200.589 0,0 36.814,106.609 62.468,-6.633 C 1016.1,343.74 806.6,145.937 806.6,93.558 Z"
       inkscape:connector-curvature="0" />
    <path
       style="fill:url(#radial-gradient-9)"
       d="m 513.238,974.829 c 245.236,0 443.9,-199.739 443.9,-446.028 C 957.138,282.512 758.475,82.774 513.476,82.774 268.477,82.774 69.817,282.512 69.817,528.8 69.341,775.328 268.24,974.829 513.238,974.829 Z"
       data-name="&lt;Path&gt;"
       id="_Path_-3"
       inkscape:connector-curvature="0" />
    <g
       id="g201">
      <path
         id="path197"
         style="fill:url(#linearGradient1059)"
         d="m 846.993,805.636 a 246.888,246.888 0 0 1 -30.123,18.183 704,704 0 0 0 38.3,-62.961 c 9.46,-10.47 18.126,-20.648 25.188,-31.653 3.437,-5.407 7.313,-12.079 11.416,-19.819 24.921,-44.9 52.4,-117.563 53.179,-192.2 v -0.18 c 0.018,-1.837 0.029,-3.675 0.014,-5.515 a 257.6,257.6 0 0 0 -5.712,-55.748 c 0.2,1.431 0.376,2.861 0.556,4.291 -0.221,-1.1 -0.407,-2.212 -0.644,-3.314 0.366,2.034 0.66,4 0.976,5.983 5.094,43.217 1.466,85.372 -16.682,116.45 -0.286,0.454 -0.58,0.879 -0.869,1.323 9.41,-47.234 12.558,-99.387 2.088,-151.6 0,0 -4.187,-25.383 -35.376,-102.441 -17.952,-44.353 -49.833,-80.716 -78,-107.207 -24.69,-30.546 -47.114,-51.045 -59.475,-64.06 C 726,127.971 715.179,107.591 710.735,94.293 706.882,92.361 657.6,44.486 653.685,42.662 632.174,76.015 564.523,180.337 596.7,277.809 c 14.584,44.172 51.467,90.017 90.067,115.736 1.695,1.936 22.969,25.042 33.086,77.157 10.453,53.848 4.958,95.862 -16.543,157.989 -25.286,54.505 -90.067,108.388 -150.724,113.9 -129.672,11.782 -177.145,-65.107 -177.145,-65.107 46.336,18.525 97.568,14.65 128.724,-4.556 31.4,-19.425 50.394,-33.827 65.81,-28.148 15.2,5.653 27.3,-10.756 16.442,-27.767 a 78.5,78.5 0 0 0 -79.4,-34.573 c -31.433,5.109 -60.226,30.009 -101.412,5.894 a 85.528,85.528 0 0 1 -7.729,-5.062 c -2.715,-1.785 8.826,2.717 6.133,0.688 -8.015,-4.354 -22.2,-13.842 -25.88,-17.217 -0.613,-0.562 6.219,2.179 5.606,1.616 -38.51,-31.712 -33.7,-53.134 -32.49,-66.57 0.969,-10.749 7.964,-24.523 19.751,-30.11 5.693,3.107 9.24,5.479 9.24,5.479 0,0 -2.428,-4.961 -3.741,-7.576 0.46,-0.2 0.9,-0.147 1.358,-0.342 4.664,2.251 14.977,8.1 20.407,11.667 7.072,4.988 9.326,9.436 9.326,9.436 0,0 1.862,-1.025 0.485,-5.375 -0.5,-1.784 -2.647,-7.453 -9.652,-13.174 l 0.438,0.049 a 81.2,81.2 0 0 1 11.867,8.241 c 1.975,-7.181 5.527,-14.679 4.746,-28.092 -0.477,-9.431 -0.257,-11.873 -1.919,-15.515 -1.488,-3.128 0.834,-4.348 3.418,-1.1 a 32.826,32.826 0 0 0 -2.208,-7.4 l 0.022,-0.244 c 3.225,-11.236 68.248,-40.461 72.981,-43.877 a 67.355,67.355 0 0 0 19.132,-20.8 c 3.617,-5.763 6.337,-13.848 7,-26.112 0.355,-8.844 -3.759,-14.734 -69.507,-21.618 -17.981,-1.771 -28.531,-14.8 -34.526,-26.823 -1.094,-2.59 -2.209,-4.937 -3.325,-7.282 a 58,58 0 0 1 -2.558,-8.431 c 10.749,-30.873 28.81,-56.977 55.367,-76.7 1.447,-1.318 -5.782,0.338 -4.336,-0.98 1.687,-1.538 12.706,-5.977 14.787,-6.977 2.542,-1.2 -10.882,-6.9 -22.732,-5.512 -12.069,1.36 -14.632,2.8 -21.073,5.531 2.673,-2.661 11.173,-6.149 9.18,-6.126 -13.011,1.995 -29.179,9.558 -43,18.124 A 10.731,10.731 0 0 1 393,195.8 c -6.441,2.732 -22.26,13.788 -26.865,23.142 a 44.329,44.329 0 0 0 0.266,-5.4 84.483,84.483 0 0 0 -13.193,13.819 l -0.241,0.219 c -37.358,-15.05 -70.233,-16.024 -98.053,-9.276 -6.086,-6.112 -9.059,-1.644 -22.907,-32.069 -0.941,-1.832 0.722,1.809 0,0 -2.278,-5.9 1.389,7.872 0,0 -23.284,18.372 -53.92,39.193 -68.626,53.89 -0.182,0.586 17.156,-4.9 0,0 -6.008,1.716 -5.6,5.281 -6.513,37.5 -0.22,2.443 -0.025,5.179 -0.223,7.378 -11.748,14.968 -19.749,27.643 -22.775,34.211 -15.193,26.18 -31.926,66.992 -48.146,131.551 a 334.364,334.364 0 0 1 25.784,-50.407 C 98.02,434.625 84.981,488.436 82.374,571.303 a 483.614,483.614 0 0 1 12.533,-50.66 473.038,473.038 0 0 0 34.74,201.061 c 9.329,22.821 24.76,57.455 51.029,95.4 82.533,86.839 198.945,140.9 327.852,140.9 134.581,0.008 255.425,-58.871 338.465,-152.368 z"
         inkscape:connector-curvature="0" />
      <path
         id="path199"
         style="fill:url(#linear-gradient-3-6)"
         d="m 846.993,805.636 a 246.888,246.888 0 0 1 -30.123,18.183 704,704 0 0 0 38.3,-62.961 c 9.46,-10.47 18.126,-20.648 25.188,-31.653 3.437,-5.407 7.313,-12.079 11.416,-19.819 24.921,-44.9 52.4,-117.563 53.179,-192.2 v -0.18 c 0.018,-1.837 0.029,-3.675 0.014,-5.515 a 257.6,257.6 0 0 0 -5.712,-55.748 c 0.2,1.431 0.376,2.861 0.556,4.291 -0.221,-1.1 -0.407,-2.212 -0.644,-3.314 0.366,2.034 0.66,4 0.976,5.983 5.094,43.217 1.466,85.372 -16.682,116.45 -0.286,0.454 -0.58,0.879 -0.869,1.323 9.41,-47.234 12.558,-99.387 2.088,-151.6 0,0 -4.187,-25.383 -35.376,-102.441 -17.952,-44.353 -49.833,-80.716 -78,-107.207 -24.69,-30.546 -47.114,-51.045 -59.475,-64.06 C 726,127.971 715.179,107.591 710.735,94.293 706.882,92.361 657.6,44.486 653.685,42.662 632.174,76.015 564.523,180.337 596.7,277.809 c 14.584,44.172 51.467,90.017 90.067,115.736 1.695,1.936 22.969,25.042 33.086,77.157 10.453,53.848 4.958,95.862 -16.543,157.989 -25.286,54.505 -90.067,108.388 -150.724,113.9 -129.672,11.782 -177.145,-65.107 -177.145,-65.107 46.336,18.525 97.568,14.65 128.724,-4.556 31.4,-19.425 50.394,-33.827 65.81,-28.148 15.2,5.653 27.3,-10.756 16.442,-27.767 a 78.5,78.5 0 0 0 -79.4,-34.573 c -31.433,5.109 -60.226,30.009 -101.412,5.894 a 85.528,85.528 0 0 1 -7.729,-5.062 c -2.715,-1.785 8.826,2.717 6.133,0.688 -8.015,-4.354 -22.2,-13.842 -25.88,-17.217 -0.613,-0.562 6.219,2.179 5.606,1.616 -38.51,-31.712 -33.7,-53.134 -32.49,-66.57 0.969,-10.749 7.964,-24.523 19.751,-30.11 5.693,3.107 9.24,5.479 9.24,5.479 0,0 -2.428,-4.961 -3.741,-7.576 0.46,-0.2 0.9,-0.147 1.358,-0.342 4.664,2.251 14.977,8.1 20.407,11.667 7.072,4.988 9.326,9.436 9.326,9.436 0,0 1.862,-1.025 0.485,-5.375 -0.5,-1.784 -2.647,-7.453 -9.652,-13.174 l 0.438,0.049 a 81.2,81.2 0 0 1 11.867,8.241 c 1.975,-7.181 5.527,-14.679 4.746,-28.092 -0.477,-9.431 -0.257,-11.873 -1.919,-15.515 -1.488,-3.128 0.834,-4.348 3.418,-1.1 a 32.826,32.826 0 0 0 -2.208,-7.4 l 0.022,-0.244 c 3.225,-11.236 68.248,-40.461 72.981,-43.877 a 67.355,67.355 0 0 0 19.132,-20.8 c 3.617,-5.763 6.337,-13.848 7,-26.112 0.355,-8.844 -3.759,-14.734 -69.507,-21.618 -17.981,-1.771 -28.531,-14.8 -34.526,-26.823 -1.094,-2.59 -2.209,-4.937 -3.325,-7.282 a 58,58 0 0 1 -2.558,-8.431 c 10.749,-30.873 28.81,-56.977 55.367,-76.7 1.447,-1.318 -5.782,0.338 -4.336,-0.98 1.687,-1.538 12.706,-5.977 14.787,-6.977 2.542,-1.2 -10.882,-6.9 -22.732,-5.512 -12.069,1.36 -14.632,2.8 -21.073,5.531 2.673,-2.661 11.173,-6.149 9.18,-6.126 -13.011,1.995 -29.179,9.558 -43,18.124 A 10.731,10.731 0 0 1 393,195.8 c -6.441,2.732 -22.26,13.788 -26.865,23.142 a 44.329,44.329 0 0 0 0.266,-5.4 84.483,84.483 0 0 0 -13.193,13.819 l -0.241,0.219 c -37.358,-15.05 -70.233,-16.024 -98.053,-9.276 -6.086,-6.112 -9.059,-1.644 -22.907,-32.069 -0.941,-1.832 0.722,1.809 0,0 -2.278,-5.9 1.389,7.872 0,0 -23.284,18.372 -53.92,39.193 -68.626,53.89 -0.182,0.586 17.156,-4.9 0,0 -6.008,1.716 -5.6,5.281 -6.513,37.5 -0.22,2.443 -0.025,5.179 -0.223,7.378 -11.748,14.968 -19.749,27.643 -22.775,34.211 -15.193,26.18 -31.926,66.992 -48.146,131.551 a 334.364,334.364 0 0 1 25.784,-50.407 C 98.02,434.625 84.981,488.436 82.374,571.303 a 483.614,483.614 0 0 1 12.533,-50.66 473.038,473.038 0 0 0 34.74,201.061 c 9.329,22.821 24.76,57.455 51.029,95.4 82.533,86.839 198.945,140.9 327.852,140.9 134.581,0.008 255.425,-58.871 338.465,-152.368 z"
         inkscape:connector-curvature="0" />
    </g>
    <path
       id="path203-7"
       style="fill:url(#linear-gradient-4-0)"
       d="m 747.417,868.708 c 162.87,-18.86 234.969,-186.7 142.381,-190 -83.633,-2.673 -219.527,198.9 -142.381,190 z"
       inkscape:connector-curvature="0" />
    <path
       id="path205-4"
       style="fill:url(#linear-gradient-5-6)"
       d="m 901.524,644.424 c 112.056,-65.214 82.839,-206.08 82.839,-206.08 0,0 -43.247,50.239 -72.625,130.321 -29.025,79.298 -77.583,115.147 -10.214,75.759 z"
       inkscape:connector-curvature="0" />
    <path
       id="path207-5"
       style="fill:url(#linear-gradient-6-9)"
       d="m 545.792,952.062 c 156.227,49.851 290.5,-73.22 207.733,-114.32 -75.251,-37.066 -281.883,90.748 -207.733,114.32 z"
       inkscape:connector-curvature="0" />
    <path
       id="path209-2"
       style="fill:url(#radial-gradient-2-2)"
       d="m 674.9,23.42 c 0.347,-0.379 0.531,-0.573 0.531,-0.573 A 1.784,1.784 0 0 0 674.9,23.42 Z m 238.27,680.814 c 3.8,-5.363 8.94,-22.535 13.48,-30.211 27.578,-44.523 27.773,-80.023 27.773,-80.836 16.659,-83.219 15.148,-117.2 4.9,-180.043 -8.251,-50.6 -44.322,-123.092 -75.57,-158 -32.2,-35.965 -9.514,-24.247 -40.692,-50.518 C 815.734,174.333 789.238,144.335 774.808,132.271 670.533,45.094 672.888,26.577 674.9,23.42 c -0.339,0.371 -0.837,0.922 -1.472,1.643 -1.239,-4.923 -2.11,-9.063 -2.11,-9.063 0,0 -57,57 -69,152 -7.834,62.021 15.383,126.676 49,168 a 381.367,381.367 0 0 0 59,58 v -0.026 c 25.4,36.477 39.38,81.489 39.38,129.909 0,121.244 -98.341,219.531 -219.652,219.531 A 220.455,220.455 0 0 1 480.91,737.9 c -57.236,-10.908 -90.288,-39.781 -106.772,-59.382 -9.447,-11.234 -13.464,-19.423 -13.464,-19.423 51.283,18.371 107.986,14.528 142.468,-4.518 34.749,-19.265 55.774,-33.546 72.837,-27.915 16.82,5.606 30.211,-10.667 18.2,-27.536 -11.771,-16.845 -42.4,-40.97 -87.878,-34.286 -34.789,5.067 -66.657,29.76 -112.24,5.845 a 96.313,96.313 0 0 1 -8.554,-5.02 c -3.005,-1.771 9.768,2.695 6.787,0.682 -8.87,-4.318 -24.573,-13.728 -28.643,-17.074 -0.679,-0.557 6.883,2.161 6.2,1.6 -42.621,-31.449 -37.3,-52.693 -35.959,-66.018 1.073,-10.66 8.814,-24.32 21.859,-29.86 6.3,3.081 10.226,5.433 10.226,5.433 0,0 -2.688,-4.92 -4.141,-7.513 0.509,-0.194 0.994,-0.145 1.5,-0.339 5.162,2.232 16.576,8.029 22.586,11.57 7.827,4.947 10.322,9.358 10.322,9.358 0,0 2.061,-1.016 0.536,-5.33 -0.557,-1.769 -2.929,-7.391 -10.682,-13.065 l 0.485,0.049 a 90.851,90.851 0 0 1 13.134,8.173 c 2.186,-7.121 6.118,-14.557 5.253,-27.859 -0.528,-9.352 -0.284,-11.775 -2.124,-15.386 -1.647,-3.1 0.924,-4.312 3.782,-1.088 a 30.038,30.038 0 0 0 -2.444,-7.343 l 0.025,-0.242 c 3.57,-11.143 75.535,-40.125 80.773,-43.513 a 70.31,70.31 0 0 0 21.175,-20.63 c 4,-5.715 7.014,-13.733 7.748,-25.895 0.246,-5.48 -1.441,-9.817 -20.5,-13.965 -11.439,-2.49 -29.136,-4.913 -56.433,-7.474 -19.9,-1.756 -31.577,-14.676 -38.212,-26.6 -1.211,-2.569 -2.445,-4.9 -3.68,-7.222 a 53.108,53.108 0 0 1 -2.831,-8.36 158.47,158.47 0 0 1 61.279,-76.063 c 1.6,-1.308 -6.4,0.335 -4.8,-0.972 1.868,-1.525 14.063,-5.927 16.367,-6.919 2.813,-1.186 -12.044,-6.84 -25.159,-5.466 -13.357,1.349 -16.194,2.776 -23.323,5.486 2.959,-2.639 12.366,-6.1 10.161,-6.075 -14.4,1.978 -32.3,9.479 -47.6,17.973 a 9.676,9.676 0 0 1 0.924,-4.312 c -7.129,2.709 -24.637,13.674 -29.734,22.95 a 39.488,39.488 0 0 0 0.306,-5.356 88.678,88.678 0 0 0 -14.6,13.7 l -0.267,0.218 c -41.347,-14.925 -77.732,-15.891 -108.522,-9.2 -6.736,-6.061 -17.566,-15.226 -32.892,-45.4 -1.041,-1.817 -1.6,3.755 -2.4,1.961 -5.955,-13.813 -9.553,-36.444 -8.962,-52.046 0,0 -12.318,5.614 -22.513,29.06 -1.893,4.215 -3.107,6.54 -4.32,8.865 -0.558,0.678 1.265,-7.7 0.974,-7.244 -1.772,3 -6.356,7.192 -8.371,12.618 -1.384,4.021 -3.325,6.273 -4.564,11.288 l -0.291,0.46 c -0.1,-1.478 0.367,-6.081 0.027,-5.137 a 236.1,236.1 0 0 0 -12.308,29.841 c -5.489,18.046 -11.879,42.61 -12.892,74.565 -0.244,2.423 -0.027,5.136 -0.247,7.317 -13,14.844 -21.858,27.413 -25.207,33.928 C 76.5,329.762 57.978,370.236 40.025,434.259 A 319.143,319.143 0 0 1 68.562,384.27 C 53.634,418.253 39.2,471.618 36.318,553.8 A 438.522,438.522 0 0 1 50.19,503.56 c -2.578,54.8 3.805,122.74 38.449,199.393 20.57,45.087 67.921,136.649 183.62,208.1 l -0.01,0.007 c 0,0 39.36,29.3 107.017,51.259 5,1.814 10.065,3.6 15.234,5.333 -1.622,-0.655 -3.191,-1.344 -4.715,-2.052 a 484.883,484.883 0 0 0 138.8,20.4 c 175.18,0.149 226.846,-70.2 226.846,-70.2 0,0 -0.182,0.137 -0.513,0.377 q 3.708,-3.491 7.143,-7.257 c -27.639,26.1 -90.715,27.832 -114.3,25.949 40.223,-11.813 66.691,-21.806 118.175,-41.519 q 9.032,-3.355 18.478,-7.645 c 0.681,-0.3 1.368,-0.625 2.052,-0.936 1.249,-0.582 2.486,-1.132 3.747,-1.744 a 349.205,349.205 0 0 0 70.262,-43.987 c 51.7,-41.3 62.949,-81.557 68.829,-108.1 -0.82,2.544 -3.375,8.475 -5.17,12.316 -13.315,28.482 -42.841,45.959 -74.908,60.948 a 688.993,688.993 0 0 0 42.384,-62.438 c 10.475,-10.374 13.741,-26.616 21.556,-37.53 z"
       inkscape:connector-curvature="0" />
    <path
       id="path211-5"
       style="fill:url(#linear-gradient-7-9)"
       d="m 850.239,802.982 c 21.08,-23.241 40.01,-49.824 54.349,-79.968 36.9,-77.582 93.952,-206.58 49.018,-341.306 C 918.092,275.225 869.333,217 807.424,160.122 706.881,67.756 678.8,26.521 678.8,2 678.8,2 562.711,131.409 613.058,266.381 663.405,401.353 766.52,396.405 834.737,537.255 915.011,703 769.788,883.869 649.693,934.493 c 7.353,-1.633 266.97,-60.383 280.614,-208.882 -0.307,2.731 -6.159,43.803 -80.068,77.371 z"
       inkscape:connector-curvature="0" />
    <g
       id="g217">
      <path
         id="path213-4"
         style="fill:url(#linear-gradient-8)"
         d="m 513.91,321.373 c 0.393,-8.77 -4.156,-14.66 -76.682,-21.463 -29.839,-2.755 -41.265,-30.334 -44.748,-41.941 -10.61,27.565 -14.991,56.49 -12.636,91.477 1.61,22.92 17.009,47.521 24.37,61.965 0,0 1.636,-2.126 2.391,-2.912 13.861,-14.431 71.936,-36.419 77.392,-39.541 6.014,-3.799 28.903,-20.523 29.913,-47.585 z"
         inkscape:connector-curvature="0" />
      <path
         id="path215-7"
         style="opacity:0.5;fill:url(#radial-gradient-3-3)"
         d="m 513.91,321.373 c 0.393,-8.77 -4.156,-14.66 -76.682,-21.463 -29.839,-2.755 -41.265,-30.334 -44.748,-41.941 -10.61,27.565 -14.991,56.49 -12.636,91.477 1.61,22.92 17.009,47.521 24.37,61.965 0,0 1.636,-2.126 2.391,-2.912 13.861,-14.431 71.936,-36.419 77.392,-39.541 6.014,-3.799 28.903,-20.523 29.913,-47.585 z"
         inkscape:connector-curvature="0" />
    </g>
    <path
       id="path219-4"
       style="fill:url(#linear-gradient-9)"
       d="m 194.632,158.471 c -1.041,-1.818 -1.6,3.754 -2.4,1.961 -5.955,-13.813 -9.578,-36.2 -8.72,-52.022 0,0 -12.318,5.614 -22.513,29.06 -1.893,4.215 -3.107,6.54 -4.32,8.865 -0.558,0.678 1.265,-7.7 0.974,-7.244 -1.771,3 -6.355,7.192 -8.346,12.375 -1.651,4.239 -3.349,6.515 -4.613,11.772 -0.389,1.429 0.392,-6.323 0.052,-5.379 -23.711,45.825 -28.237,115.114 -25.738,112.184 50.478,-53.9 108.325,-66.683 108.325,-66.683 -6.155,-4.534 -19.528,-17.625 -32.7,-44.889 z"
       inkscape:connector-curvature="0" />
    <path
       id="path221-4"
       style="fill:url(#linear-gradient-10)"
       d="M 386.162,722.1 C 316.438,692.331 237.17,650.345 240.162,554.962 244.235,429.347 357.3,454.175 357.3,454.175 c -4.267,1.039 -15.675,9.162 -19.718,17.82 -4.273,10.827 -12.069,35.276 11.551,60.9 37.089,40.192 -76.2,95.356 98.663,199.567 4.41,2.4 -40.991,-1.43 -61.639,-10.358 z"
       inkscape:connector-curvature="0" />
    <path
       id="path223-3"
       style="opacity:0.5;fill:url(#linear-gradient-11)"
       d="m 361.391,659.5 c 49.442,17.207 107.04,14.189 141.523,-4.858 23.085,-12.851 52.7,-33.434 70.922,-28.353 -15.777,-6.236 -27.726,-9.15 -42.1,-9.862 -2.448,0 -5.382,-0.052 -8.048,-0.32 a 136.228,136.228 0 0 0 -15.757,0.863 c -8.9,0.818 -18.766,6.433 -27.735,5.532 -0.485,-0.049 8.7,-3.774 7.953,-3.605 -4.752,0.991 -9.915,1.205 -15.37,1.881 -3.467,0.386 -6.449,0.82 -9.891,0.963 -102.982,8.733 -190.017,-55.813 -190.017,-55.813 -7.408,24.95 33.166,74.3 88.521,93.572 z"
       inkscape:connector-curvature="0" />
    <path
       id="path225"
       style="fill:url(#linear-gradient-12)"
       d="m 850.055,803.646 c 104.164,-102.269 156.858,-226.585 134.584,-366.018 0,0 8.9,71.5 -24.848,144.628 16.213,-71.393 18.1,-160.114 -24.975,-251.988 C 877.323,207.636 782.768,143.109 746.669,116.189 691.974,75.4 669.3,33.87 668.892,25.3 c -16.339,33.477 -65.766,148.2 -5.31,247 56.64,92.564 145.865,120.039 208.328,204.947 115.074,156.42 -21.855,326.399 -21.855,326.399 z"
       inkscape:connector-curvature="0" />
    <path
       id="path227"
       style="fill:url(#linear-gradient-13)"
       d="m 835.132,537.551 c -36.4,-75.2 -81.837,-108 -124.814,-143.551 5,7 6.232,9.473 9,14 37.827,40.316 93.607,138.656 53.11,262.107 -76.228,232.375 -381.144,122.95 -413.11,92.212 12.932,134.489 238.036,198.845 384.6,111.63 83.4,-78.949 150.868,-213.161 91.214,-336.398 z"
       inkscape:connector-curvature="0" />
  </g>
</svg>
