<?xml version="1.0" encoding="UTF-8" standalone="no"?>
<svg
   xmlns:dc="http://purl.org/dc/elements/1.1/"
   xmlns:cc="http://creativecommons.org/ns#"
   xmlns:rdf="http://www.w3.org/1999/02/22-rdf-syntax-ns#"
   xmlns:svg="http://www.w3.org/2000/svg"
   xmlns="http://www.w3.org/2000/svg"
   xmlns:sodipodi="http://sodipodi.sourceforge.net/DTD/sodipodi-0.dtd"
   xmlns:inkscape="http://www.inkscape.org/namespaces/inkscape"
   width="512"
   height="512"
   version="1"
   id="svg26"
   sodipodi:docname="goa-account-owncloud.svg"
   inkscape:version="0.92.2 2405546, 2018-03-11">
  <metadata
     id="metadata32">
    <rdf:RDF>
      <cc:Work
         rdf:about="">
        <dc:format>image/svg+xml</dc:format>
        <dc:type
           rdf:resource="http://purl.org/dc/dcmitype/StillImage" />
        <dc:title></dc:title>
      </cc:Work>
    </rdf:RDF>
  </metadata>
  <defs
     id="defs30" />
  <sodipodi:namedview
     pagecolor="#ffffff"
     bordercolor="#666666"
     borderopacity="1"
     objecttolerance="10"
     gridtolerance="10"
     guidetolerance="10"
     inkscape:pageopacity="0"
     inkscape:pageshadow="2"
     inkscape:window-width="1366"
     inkscape:window-height="695"
     id="namedview28"
     showgrid="false"
     inkscape:zoom="0.61458333"
     inkscape:cx="-207.8802"
     inkscape:cy="170.55426"
     inkscape:window-x="0"
     inkscape:window-y="0"
     inkscape:window-maximized="1"
     inkscape:current-layer="svg26" />
  <g
     id="g851"
     transform="matrix(11.25,0,0,11.25,-14,-19.625)">
    <rect
       id="rect2"
       transform="matrix(0,-1,-1,0,0,0)"
       ry="2"
       rx="2"
       y="-44"
       x="-44"
       height="40"
       width="40"
       style="fill:#394e6f" />
    <path
       id="path4"
       d="M 6,4 C 4.892,4 4,4.892 4,6 V 7 C 4,5.892 4.892,5 6,5 h 36 c 1.108,0 2,0.892 2,2 V 6 C 44,4.892 43.108,4 42,4 Z"
       inkscape:connector-curvature="0"
       style="opacity:0.1;fill:#ffffff" />
    <path
       id="path6"
       d="M 6,45 C 4.892,45 4,44.108 4,43 v -1 c 0,1.108 0.892,2 2,2 h 36 c 1.108,0 2,-0.892 2,-2 v 1 c 0,1.108 -0.892,2 -2,2 z"
       inkscape:connector-curvature="0"
       style="opacity:0.2" />
    <circle
       id="circle8"
       r="4.5"
       cy="22"
       cx="28"
       style="fill:#ffffff;stroke:#394e6f;stroke-linecap:round;stroke-linejoin:round" />
    <circle
       id="circle10"
       r="2.5"
       cy="30"
       cx="37"
       style="fill:#ffffff;stroke:#394e6f;stroke-linecap:round;stroke-linejoin:round" />
    <circle
       id="circle12"
       r="5"
       cy="27.5"
       cx="31.5"
       style="fill:#ffffff;stroke:#394e6f;stroke-linecap:round;stroke-linejoin:round" />
    <circle
       id="circle14"
       r="4.5"
       cy="28"
       cx="13"
       style="fill:#ffffff;stroke:#394e6f;stroke-linecap:round;stroke-linejoin:round" />
    <circle
       id="circle16"
       r="3"
       cy="18.5"
       cx="17.5"
       style="fill:#ffffff;stroke:#394e6f;stroke-linecap:round;stroke-linejoin:round" />
    <circle
       id="circle18"
       r="5.5"
       cy="24"
       cx="18"
       style="fill:#ffffff;stroke:#394e6f;stroke-linecap:round;stroke-linejoin:round" />
    <circle
       id="circle20"
       r="2.5"
       cy="30"
       cx="17.5"
       style="fill:#ffffff;stroke:#394e6f;stroke-linecap:round;stroke-linejoin:round" />
    <circle
       id="circle22"
       r="5"
       cy="19.5"
       cx="22.5"
       style="fill:#ffffff;stroke:#394e6f;stroke-linecap:round;stroke-linejoin:round" />
    <circle
       id="circle24"
       r="6.4980001"
       cy="26.002001"
       cx="23.997999"
       style="fill:#ffffff;stroke:#394e6f;stroke-linecap:round;stroke-linejoin:round" />
  </g>
</svg>
