<?xml version="1.0" encoding="UTF-8" standalone="no"?>
<svg
   xmlns:dc="http://purl.org/dc/elements/1.1/"
   xmlns:cc="http://creativecommons.org/ns#"
   xmlns:rdf="http://www.w3.org/1999/02/22-rdf-syntax-ns#"
   xmlns:svg="http://www.w3.org/2000/svg"
   xmlns="http://www.w3.org/2000/svg"
   xmlns:xlink="http://www.w3.org/1999/xlink"
   xmlns:sodipodi="http://sodipodi.sourceforge.net/DTD/sodipodi-0.dtd"
   xmlns:inkscape="http://www.inkscape.org/namespaces/inkscape"
   width="384pt"
   height="384pt"
   version="1.1"
   viewBox="0 0 384 384"
   id="svg52"
   sodipodi:docname="preferences-system-search.svg"
   inkscape:version="0.92.2 2405546, 2018-03-11">
  <metadata
     id="metadata56">
    <rdf:RDF>
      <cc:Work
         rdf:about="">
        <dc:format>image/svg+xml</dc:format>
        <dc:type
           rdf:resource="http://purl.org/dc/dcmitype/StillImage" />
      </cc:Work>
    </rdf:RDF>
  </metadata>
  <sodipodi:namedview
     pagecolor="#ffffff"
     bordercolor="#666666"
     borderopacity="1"
     objecttolerance="10"
     gridtolerance="10"
     guidetolerance="10"
     inkscape:pageopacity="0"
     inkscape:pageshadow="2"
     inkscape:window-width="781"
     inkscape:window-height="480"
     id="namedview54"
     showgrid="false"
     inkscape:zoom="0.4609375"
     inkscape:cx="256"
     inkscape:cy="256"
     inkscape:window-x="0"
     inkscape:window-y="0"
     inkscape:window-maximized="0"
     inkscape:current-layer="svg52" />
  <defs
     id="defs38">
    <filter
       id="alpha"
       width="100%"
       height="100%"
       x="0%"
       y="0%"
       filterUnits="objectBoundingBox">
      <feColorMatrix
         in="SourceGraphic"
         type="matrix"
         values="0 0 0 0 1 0 0 0 0 1 0 0 0 0 1 0 0 0 1 0"
         id="feColorMatrix2" />
    </filter>
    <mask
       id="mask0">
      <g
         filter="url(#alpha)"
         id="g7">
        <rect
           width="384"
           height="384"
           x="0"
           y="0"
           style="fill:rgb(0%,0%,0%);fill-opacity:0.301961"
           id="rect5" />
      </g>
    </mask>
    <clipPath
       id="clip1">
      <rect
         width="384"
         height="384"
         x="0"
         y="0"
         id="rect10" />
    </clipPath>
    <g
       id="surface5"
       clip-path="url(#clip1)">
      <path
         style="fill:rgb(0.784314%,0%,0%)"
         d="M 241.933594 223.785156 L 232.375 223.785156 L 228.984375 220.515625 C 240.84375 206.722656 247.980469 188.816406 247.980469 169.335938 C 247.980469 125.902344 212.773438 90.695312 169.335938 90.695312 C 125.902344 90.695312 90.695312 125.902344 90.695312 169.335938 C 90.695312 212.773438 125.902344 247.984375 169.335938 247.984375 C 188.816406 247.984375 206.722656 240.84375 220.515625 228.988281 L 223.785156 232.375 L 223.785156 241.929688 L 284.277344 302.304688 L 302.304688 284.28125 Z M 169.335938 223.785156 C 139.210938 223.785156 114.890625 199.464844 114.890625 169.335938 C 114.890625 139.210938 139.210938 114.890625 169.335938 114.890625 C 199.464844 114.890625 223.785156 139.210938 223.785156 169.335938 C 223.785156 199.464844 199.464844 223.785156 169.335938 223.785156 Z M 169.335938 223.785156"
         id="path13" />
    </g>
    <mask
       id="mask1">
      <g
         filter="url(#alpha)"
         id="g18">
        <rect
           width="384"
           height="384"
           x="0"
           y="0"
           style="fill:rgb(0%,0%,0%);fill-opacity:0.301961"
           id="rect16" />
      </g>
    </mask>
    <clipPath
       id="clip2">
      <rect
         width="384"
         height="384"
         x="0"
         y="0"
         id="rect21" />
    </clipPath>
    <g
       id="surface8"
       clip-path="url(#clip2)">
      <path
         style="fill:rgb(100%,100%,100%)"
         d="M 192 23.25 C 98.800781 23.25 23.25 98.800781 23.25 192 C 23.28125 193.464844 23.335938 194.925781 23.40625 196.390625 C 25.097656 104.46875 100.0625 30.820312 192 30.75 C 283.449219 30.804688 358.214844 103.691406 360.59375 195.109375 C 360.65625 194.074219 360.707031 193.035156 360.75 192 C 360.75 98.800781 285.199219 23.25 192 23.25 Z M 192 23.25"
         id="path24" />
    </g>
    <mask
       id="mask2">
      <g
         filter="url(#alpha)"
         id="g29">
        <rect
           width="384"
           height="384"
           x="0"
           y="0"
           style="fill:rgb(0%,0%,0%);fill-opacity:0.301961"
           id="rect27" />
      </g>
    </mask>
    <clipPath
       id="clip3">
      <rect
         width="384"
         height="384"
         x="0"
         y="0"
         id="rect32" />
    </clipPath>
    <g
       id="surface11"
       clip-path="url(#clip3)">
      <path
         style="fill:rgb(0%,0%,0%)"
         d="M 360.59375 187.609375 C 358.902344 279.53125 283.9375 353.179688 192 353.25 C 100.550781 353.195312 25.785156 280.308594 23.40625 188.890625 C 23.34375 189.925781 23.292969 190.964844 23.25 192 C 23.25 285.199219 98.800781 360.75 192 360.75 C 285.199219 360.75 360.75 285.199219 360.75 192 C 360.71875 190.535156 360.664062 189.074219 360.59375 187.609375 Z M 360.59375 187.609375"
         id="path35" />
    </g>
  </defs>
  <g
     id="g50">
    <path
       style="fill:#8b00c9;fill-opacity:1"
       d="M 360.75 192 C 360.75 285.199219 285.199219 360.75 192 360.75 C 98.800781 360.75 23.25 285.199219 23.25 192 C 23.25 98.800781 98.800781 23.25 192 23.25 C 285.199219 23.25 360.75 98.800781 360.75 192 Z M 360.75 192"
       id="path40" />
    <use
       mask="url(#mask0)"
       xlink:href="#surface5"
       id="use42" />
    <path
       style="fill:rgb(99.607843%,99.607843%,99.607843%)"
       d="M 237.433594 219.285156 L 227.875 219.285156 L 224.484375 216.015625 C 236.34375 202.222656 243.480469 184.316406 243.480469 164.835938 C 243.480469 121.402344 208.273438 86.195312 164.835938 86.195312 C 121.402344 86.195312 86.195312 121.402344 86.195312 164.835938 C 86.195312 208.273438 121.402344 243.484375 164.835938 243.484375 C 184.316406 243.484375 202.222656 236.34375 216.015625 224.488281 L 219.285156 227.875 L 219.285156 237.429688 L 279.777344 297.804688 L 297.804688 279.78125 Z M 164.835938 219.285156 C 134.710938 219.285156 110.390625 194.964844 110.390625 164.835938 C 110.390625 134.710938 134.710938 110.390625 164.835938 110.390625 C 194.964844 110.390625 219.285156 134.710938 219.285156 164.835938 C 219.285156 194.964844 194.964844 219.285156 164.835938 219.285156 Z M 164.835938 219.285156"
       id="path44" />
    <use
       mask="url(#mask1)"
       xlink:href="#surface8"
       id="use46" />
    <use
       mask="url(#mask2)"
       xlink:href="#surface11"
       id="use48" />
  </g>
</svg>
