<?xml version="1.0" encoding="UTF-8" standalone="no"?>
<svg
   xmlns:dc="http://purl.org/dc/elements/1.1/"
   xmlns:cc="http://creativecommons.org/ns#"
   xmlns:rdf="http://www.w3.org/1999/02/22-rdf-syntax-ns#"
   xmlns:svg="http://www.w3.org/2000/svg"
   xmlns="http://www.w3.org/2000/svg"
   xmlns:xlink="http://www.w3.org/1999/xlink"
   xmlns:sodipodi="http://sodipodi.sourceforge.net/DTD/sodipodi-0.dtd"
   xmlns:inkscape="http://www.inkscape.org/namespaces/inkscape"
   width="384pt"
   height="384pt"
   version="1.1"
   viewBox="0 0 384 384"
   id="svg57"
   sodipodi:docname="preferences-desktop-sound.svg"
   inkscape:version="0.92.2 2405546, 2018-03-11">
  <metadata
     id="metadata61">
    <rdf:RDF>
      <cc:Work
         rdf:about="">
        <dc:format>image/svg+xml</dc:format>
        <dc:type
           rdf:resource="http://purl.org/dc/dcmitype/StillImage" />
      </cc:Work>
    </rdf:RDF>
  </metadata>
  <sodipodi:namedview
     pagecolor="#ffffff"
     bordercolor="#666666"
     borderopacity="1"
     objecttolerance="10"
     gridtolerance="10"
     guidetolerance="10"
     inkscape:pageopacity="0"
     inkscape:pageshadow="2"
     inkscape:window-width="1366"
     inkscape:window-height="690"
     id="namedview59"
     showgrid="false"
     inkscape:zoom="0.74272518"
     inkscape:cx="-8.4632462"
     inkscape:cy="233.4825"
     inkscape:window-x="0"
     inkscape:window-y="0"
     inkscape:window-maximized="1"
     inkscape:current-layer="svg57" />
  <defs
     id="defs43">
    <linearGradient
       id="linear0"
       x1="775.604"
       x2="-164.119"
       y1="-174.257"
       y2="625.426"
       gradientTransform="matrix(0.75,0,0,0.75,0,0)"
       gradientUnits="userSpaceOnUse">
      <stop
         offset="0"
         style="stop-color:rgb(16.078431%,50.196078%,72.54902%)"
         id="stop2" />
      <stop
         offset="1"
         style="stop-color:rgb(72.941176%,9.019608%,30.588235%);stop-opacity:0.996078"
         id="stop4" />
    </linearGradient>
    <filter
       id="alpha"
       width="100%"
       height="100%"
       x="0%"
       y="0%"
       filterUnits="objectBoundingBox">
      <feColorMatrix
         in="SourceGraphic"
         type="matrix"
         values="0 0 0 0 1 0 0 0 0 1 0 0 0 0 1 0 0 0 1 0"
         id="feColorMatrix7" />
    </filter>
    <mask
       id="mask0">
      <g
         filter="url(#alpha)"
         id="g12">
        <rect
           width="384"
           height="384"
           x="0"
           y="0"
           style="fill:rgb(0%,0%,0%);fill-opacity:0.301961"
           id="rect10" />
      </g>
    </mask>
    <clipPath
       id="clip1">
      <rect
         width="384"
         height="384"
         x="0"
         y="0"
         id="rect15" />
    </clipPath>
    <g
       id="surface5"
       clip-path="url(#clip1)">
      <path
         style="fill:rgb(0%,0%,0%)"
         d="M 92.285156 166.703125 L 92.285156 232.296875 L 136.601562 232.296875 L 192 286.960938 L 192 112.042969 L 136.601562 166.703125 Z M 241.859375 199.5 C 241.859375 180.148438 230.558594 163.523438 214.160156 155.4375 L 214.160156 243.445312 C 230.558594 235.476562 241.859375 218.851562 241.859375 199.5 Z M 214.160156 103.621094 L 214.160156 126.132812 C 246.179688 135.53125 269.554688 164.835938 269.554688 199.5 C 269.554688 234.164062 246.179688 263.46875 214.160156 272.867188 L 214.160156 295.378906 C 258.585938 285.429688 291.714844 246.292969 291.714844 199.5 C 291.714844 152.707031 258.585938 113.570312 214.160156 103.621094 Z M 214.160156 103.621094"
         id="path18" />
    </g>
    <mask
       id="mask1">
      <g
         filter="url(#alpha)"
         id="g23">
        <rect
           width="384"
           height="384"
           x="0"
           y="0"
           style="fill:rgb(0%,0%,0%);fill-opacity:0.101961"
           id="rect21" />
      </g>
    </mask>
    <clipPath
       id="clip2">
      <rect
         width="384"
         height="384"
         x="0"
         y="0"
         id="rect26" />
    </clipPath>
    <g
       id="surface8"
       clip-path="url(#clip2)">
      <path
         style="fill:rgb(100%,100%,100%)"
         d="M 192 23.25 C 98.804688 23.25 23.25 98.804688 23.25 192 C 23.285156 193.464844 23.335938 194.929688 23.40625 196.394531 C 25.097656 104.472656 100.0625 30.820312 192 30.75 C 283.449219 30.804688 358.210938 103.6875 360.59375 195.105469 C 360.65625 194.070312 360.707031 193.035156 360.75 192 C 360.75 98.804688 285.195312 23.25 192 23.25 Z M 192 23.25"
         id="path29" />
    </g>
    <mask
       id="mask2">
      <g
         filter="url(#alpha)"
         id="g34">
        <rect
           width="384"
           height="384"
           x="0"
           y="0"
           style="fill:rgb(0%,0%,0%);fill-opacity:0.301961"
           id="rect32" />
      </g>
    </mask>
    <clipPath
       id="clip3">
      <rect
         width="384"
         height="384"
         x="0"
         y="0"
         id="rect37" />
    </clipPath>
    <g
       id="surface11"
       clip-path="url(#clip3)">
      <path
         style="fill:rgb(0%,0%,0%)"
         d="M 360.59375 187.605469 C 358.902344 279.527344 283.9375 353.179688 192 353.25 C 100.550781 353.195312 25.789062 280.3125 23.40625 188.894531 C 23.34375 189.929688 23.292969 190.964844 23.25 192 C 23.25 285.195312 98.804688 360.75 192 360.75 C 285.195312 360.75 360.75 285.195312 360.75 192 C 360.714844 190.535156 360.664062 189.070312 360.59375 187.605469 Z M 360.59375 187.605469"
         id="path40" />
    </g>
  </defs>
  <g
     id="g1514"
     transform="translate(0,0.3574125)">
    <g
       id="g55">
      <path
         id="path45"
         d="M 360.75,192 C 360.75,285.19922 285.19922,360.75 192,360.75 98.800781,360.75 23.25,285.19922 23.25,192 23.25,98.800781 98.800781,23.25 192,23.25 c 93.19922,0 168.75,75.550781 168.75,168.75 z m 0,0"
         style="fill:#00d11a;fill-opacity:1"
         inkscape:connector-curvature="0" />
      <use
         id="use47"
         xlink:href="#surface5"
         mask="url(#mask0)"
         x="0"
         y="0"
         width="100%"
         height="100%" />
      <path
         id="path49"
         d="m 92.285156,159.20312 v 65.59375 H 136.60156 L 192,279.46094 V 104.54297 l -55.39844,54.66015 z M 241.85937,192 c 0,-19.35156 -11.30078,-35.97656 -27.69921,-44.0625 v 88.00781 C 230.55859,227.97656 241.85937,211.35156 241.85937,192 Z M 214.16016,96.121094 v 22.511716 c 32.01953,9.39844 55.39453,38.70313 55.39453,73.36719 0,34.66406 -23.375,63.96875 -55.39453,73.36719 v 22.51172 c 44.42578,-9.94922 77.55468,-49.08594 77.55468,-95.87891 0,-46.79297 -33.1289,-85.92969 -77.55468,-95.878906 z m 0,0"
         style="fill:#ffffff"
         inkscape:connector-curvature="0" />
      <use
         id="use53"
         xlink:href="#surface11"
         mask="url(#mask2)"
         x="0"
         y="0"
         width="100%"
         height="100%" />
    </g>
    <path
       inkscape:connector-curvature="0"
       id="path853"
       d="m 192.00054,22.535175 c -61.70704,0 -115.652341,33.148432 -145.082026,82.578125 -15.019531,25.22655 -23.667969,54.67577 -23.667969,86.17186 0,1.2422 0.01953,2.48438 0.04699,3.72266 0.66405,-30.07031 9.203122,-58.17969 23.621092,-82.39452 C 76.348313,63.183607 130.29361,30.035175 192.00065,30.035175 h 0.29687 v -7.5 z m 0.29687,0 v 7.5 c 24.63281,0.03896 48.01562,5.367182 69.09374,14.894522 2.46874,1.117178 4.90626,2.28905 7.3086,3.519533 28.39454,14.527344 52.13281,36.859375 68.3867,64.16407 14.41018,24.21873 22.95315,52.32421 23.6172,82.3867 0.0273,-1.23435 0.0458,-2.47264 0.0458,-3.71484 0,-31.49219 -8.64844,-60.94141 -23.66407,-86.17186 -16.25279,-27.304695 -39.99107,-49.636726 -68.38561,-64.16407 -2.40233,-1.230461 -4.83984,-2.402332 -7.30859,-3.519539 -21.07815,-9.527328 -44.46096,-14.855455 -69.09377,-14.894516 z m 0,0"
       style="fill:#ffffff;fill-opacity:0.26492537;fill-rule:evenodd;stroke-width:0.99999994" />
  </g>
</svg>
