<?xml version="1.0" encoding="UTF-8" standalone="no"?>
<svg
   xmlns:dc="http://purl.org/dc/elements/1.1/"
   xmlns:cc="http://creativecommons.org/ns#"
   xmlns:rdf="http://www.w3.org/1999/02/22-rdf-syntax-ns#"
   xmlns:svg="http://www.w3.org/2000/svg"
   xmlns="http://www.w3.org/2000/svg"
   xmlns:xlink="http://www.w3.org/1999/xlink"
   xmlns:sodipodi="http://sodipodi.sourceforge.net/DTD/sodipodi-0.dtd"
   xmlns:inkscape="http://www.inkscape.org/namespaces/inkscape"
   width="384pt"
   height="384pt"
   version="1.1"
   viewBox="0 0 384 384"
   id="svg1364"
   sodipodi:docname="preferences-system-privacy.svg"
   inkscape:version="0.92.2 2405546, 2018-03-11">
  <metadata
     id="metadata1368">
    <rdf:RDF>
      <cc:Work
         rdf:about="">
        <dc:format>image/svg+xml</dc:format>
        <dc:type
           rdf:resource="http://purl.org/dc/dcmitype/StillImage" />
        <dc:title></dc:title>
      </cc:Work>
    </rdf:RDF>
  </metadata>
  <sodipodi:namedview
     pagecolor="#ffffff"
     bordercolor="#666666"
     borderopacity="1"
     objecttolerance="10"
     gridtolerance="10"
     guidetolerance="10"
     inkscape:pageopacity="0"
     inkscape:pageshadow="2"
     inkscape:window-width="815"
     inkscape:window-height="480"
     id="namedview1366"
     showgrid="false"
     inkscape:zoom="0.4609375"
     inkscape:cx="256"
     inkscape:cy="256"
     inkscape:window-x="0"
     inkscape:window-y="0"
     inkscape:window-maximized="0"
     inkscape:current-layer="g1362" />
  <defs
     id="defs1350">
    <filter
       id="alpha"
       width="100%"
       height="100%"
       x="0%"
       y="0%"
       filterUnits="objectBoundingBox">
      <feColorMatrix
         in="SourceGraphic"
         type="matrix"
         values="0 0 0 0 1 0 0 0 0 1 0 0 0 0 1 0 0 0 1 0"
         id="feColorMatrix1325" />
    </filter>
    <mask
       id="mask0">
      <g
         filter="url(#alpha)"
         id="g1330">
        <rect
           width="384"
           height="384"
           x="0"
           y="0"
           style="fill:rgb(0%,0%,0%);fill-opacity:0.301961"
           id="rect1328" />
      </g>
    </mask>
    <clipPath
       id="clip1">
      <rect
         width="384"
         height="384"
         x="0"
         y="0"
         id="rect1333" />
    </clipPath>
    <g
       id="surface5"
       clip-path="url(#clip1)">
      <path
         style="fill:rgb(0%,0%,0%)"
         d="M 48.5625 342.683594 L 48.5625 350.183594 C 48.5625 356.035156 53.273438 360.746094 59.125 360.746094 L 324.871094 360.746094 C 330.722656 360.746094 335.433594 356.035156 335.433594 350.183594 L 335.433594 342.683594 C 335.433594 348.535156 330.722656 353.242188 324.871094 353.242188 L 59.125 353.242188 C 53.273438 353.242188 48.5625 348.535156 48.5625 342.683594 Z M 48.5625 342.683594"
         id="path1336" />
    </g>
    <mask
       id="mask1">
      <g
         filter="url(#alpha)"
         id="g1341">
        <rect
           width="384"
           height="384"
           x="0"
           y="0"
           style="fill:rgb(0%,0%,0%);fill-opacity:0.301961"
           id="rect1339" />
      </g>
    </mask>
    <clipPath
       id="clip2">
      <rect
         width="384"
         height="384"
         x="0"
         y="0"
         id="rect1344" />
    </clipPath>
    <g
       id="surface8"
       clip-path="url(#clip2)">
      <path
         style="fill:rgb(100%,100%,100%)"
         d="M 59.125 191.996094 C 53.273438 191.996094 48.5625 196.707031 48.5625 202.558594 L 48.5625 210.058594 C 48.5625 204.207031 53.273438 199.496094 59.125 199.496094 L 324.871094 199.496094 C 330.722656 199.496094 335.433594 204.207031 335.433594 210.058594 L 335.433594 202.558594 C 335.433594 196.707031 330.722656 191.996094 324.871094 191.996094 Z M 59.125 191.996094"
         id="path1347" />
    </g>
  </defs>
  <g
     id="g1362">
    <path
       style="fill:rgb(100%,100%,100%);stroke-width:3.175;stroke:rgb(13.333333%,21.176471%,33.72549%)"
       d="M 34.129377 275.642853 C 10.384128 275.642853 -8.732312 294.759293 -8.732312 318.504543 L -8.732312 402.643337 L 0.792834 402.643337 L 0.792834 318.504543 C 0.792834 300.036342 15.661176 285.168 34.129377 285.168 C 52.599048 285.168 67.46739 300.036342 67.46739 318.504543 L 67.46739 402.643337 L 76.992536 402.643337 L 76.992536 318.504543 C 76.992536 294.759293 57.876096 275.642853 34.129377 275.642853 Z M 34.129377 275.642853"
       transform="matrix(2.657439,0,0,2.657439,101.299341,-709.254192)"
       id="path1352" />
    <path
       style="fill:rgb(97.647059%,87.058824%,41.176471%)"
       d="M 59.136719 360.738281 L 324.886719 360.738281 C 330.71875 360.738281 335.445312 356.007812 335.445312 350.175781 L 335.445312 202.550781 C 335.445312 196.71875 330.71875 191.988281 324.886719 191.988281 L 59.136719 191.988281 C 53.304688 191.988281 48.574219 196.71875 48.574219 202.550781 L 48.574219 350.175781 C 48.574219 356.007812 53.304688 360.738281 59.136719 360.738281 Z M 59.136719 360.738281"
       id="path1354" />
    <path
       style="fill:rgb(13.333333%,21.176471%,33.72549%)"
       d="M 191.996094 225.746094 C 180.347656 225.746094 170.902344 235.191406 170.902344 246.839844 C 170.910156 255.21875 175.878906 262.800781 183.558594 266.152344 L 183.558594 326.996094 L 200.433594 326.996094 L 200.433594 266.152344 C 208.113281 262.800781 213.082031 255.21875 213.089844 246.839844 C 213.089844 235.191406 203.648438 225.746094 191.996094 225.746094 Z M 191.996094 225.746094"
       id="path1356" />
    <use
       mask="url(#mask0)"
       xlink:href="#surface5"
       id="use1358" />
    <use
       mask="url(#mask1)"
       xlink:href="#surface8"
       id="use1360" />
  </g>
</svg>
