<?xml version="1.0" encoding="UTF-8" standalone="no"?>
<svg
   xmlns:dc="http://purl.org/dc/elements/1.1/"
   xmlns:cc="http://creativecommons.org/ns#"
   xmlns:rdf="http://www.w3.org/1999/02/22-rdf-syntax-ns#"
   xmlns:svg="http://www.w3.org/2000/svg"
   xmlns="http://www.w3.org/2000/svg"
   xmlns:xlink="http://www.w3.org/1999/xlink"
   xmlns:sodipodi="http://sodipodi.sourceforge.net/DTD/sodipodi-0.dtd"
   xmlns:inkscape="http://www.inkscape.org/namespaces/inkscape"
   width="384pt"
   height="384pt"
   version="1.1"
   viewBox="0 0 384 384"
   id="svg69"
   sodipodi:docname="preferences-system-windows.svg"
   inkscape:version="0.92.2 2405546, 2018-03-11">
  <metadata
     id="metadata73">
    <rdf:RDF>
      <cc:Work
         rdf:about="">
        <dc:format>image/svg+xml</dc:format>
        <dc:type
           rdf:resource="http://purl.org/dc/dcmitype/StillImage" />
      </cc:Work>
    </rdf:RDF>
  </metadata>
  <sodipodi:namedview
     pagecolor="#ffffff"
     bordercolor="#666666"
     borderopacity="1"
     objecttolerance="10"
     gridtolerance="10"
     guidetolerance="10"
     inkscape:pageopacity="0"
     inkscape:pageshadow="2"
     inkscape:window-width="1366"
     inkscape:window-height="695"
     id="namedview71"
     showgrid="false"
     inkscape:zoom="0.4609375"
     inkscape:cx="-159.45763"
     inkscape:cy="251.66102"
     inkscape:window-x="0"
     inkscape:window-y="0"
     inkscape:window-maximized="1"
     inkscape:current-layer="svg69" />
  <defs
     id="defs49">
    <filter
       id="alpha"
       width="100%"
       height="100%"
       x="0%"
       y="0%"
       filterUnits="objectBoundingBox">
      <feColorMatrix
         in="SourceGraphic"
         type="matrix"
         values="0 0 0 0 1 0 0 0 0 1 0 0 0 0 1 0 0 0 1 0"
         id="feColorMatrix2" />
    </filter>
    <mask
       id="mask0">
      <g
         filter="url(#alpha)"
         id="g7">
        <rect
           width="384"
           height="384"
           x="0"
           y="0"
           style="fill:rgb(0%,0%,0%);fill-opacity:0.2"
           id="rect5" />
      </g>
    </mask>
    <clipPath
       id="clip1">
      <rect
         width="384"
         height="384"
         x="0"
         y="0"
         id="rect10" />
    </clipPath>
    <g
       id="surface5"
       clip-path="url(#clip1)">
      <path
         style="fill:rgb(0%,0%,0%)"
         d="M 96 234 L 96 240 C 96 249.972656 104.027344 258 114 258 L 342 258 C 351.972656 258 360 249.972656 360 240 L 360 234 C 360 243.972656 351.972656 252 342 252 L 114 252 C 104.027344 252 96 243.972656 96 234 Z M 96 234"
         id="path13" />
    </g>
    <mask
       id="mask1">
      <g
         filter="url(#alpha)"
         id="g18">
        <rect
           width="384"
           height="384"
           x="0"
           y="0"
           style="fill:rgb(0%,0%,0%);fill-opacity:0.101961"
           id="rect16" />
      </g>
    </mask>
    <clipPath
       id="clip2">
      <rect
         width="384"
         height="384"
         x="0"
         y="0"
         id="rect21" />
    </clipPath>
    <g
       id="surface8"
       clip-path="url(#clip2)">
      <path
         style="fill:rgb(100%,100%,100%)"
         d="M 42 132 C 32.027344 132 24 140.027344 24 150 L 24 156 C 24 146.027344 32.027344 138 42 138 L 270 138 C 279.972656 138 288 146.027344 288 156 L 288 150 C 288 140.027344 279.972656 132 270 132 Z M 42 132"
         id="path24" />
    </g>
    <mask
       id="mask2">
      <g
         filter="url(#alpha)"
         id="g29">
        <rect
           width="384"
           height="384"
           x="0"
           y="0"
           style="fill:rgb(0%,0%,0%);fill-opacity:0.101961"
           id="rect27" />
      </g>
    </mask>
    <clipPath
       id="clip3">
      <rect
         width="384"
         height="384"
         x="0"
         y="0"
         id="rect32" />
    </clipPath>
    <g
       id="surface11"
       clip-path="url(#clip3)">
      <path
         style="fill:rgb(100%,100%,100%)"
         d="M 114 24 C 104.027344 24 96 32.027344 96 42 L 96 48 C 96 38.027344 104.027344 30 114 30 L 342 30 C 351.972656 30 360 38.027344 360 48 L 360 42 C 360 32.027344 351.972656 24 342 24 Z M 114 24"
         id="path35" />
    </g>
    <mask
       id="mask3">
      <g
         filter="url(#alpha)"
         id="g40">
        <rect
           width="384"
           height="384"
           x="0"
           y="0"
           style="fill:rgb(0%,0%,0%);fill-opacity:0.2"
           id="rect38" />
      </g>
    </mask>
    <clipPath
       id="clip4">
      <rect
         width="384"
         height="384"
         x="0"
         y="0"
         id="rect43" />
    </clipPath>
    <g
       id="surface14"
       clip-path="url(#clip4)">
      <path
         style="fill:rgb(0%,0%,0%)"
         d="M 24 342 L 24 348 C 24 357.972656 32.027344 366 42 366 L 270 366 C 279.972656 366 288 357.972656 288 348 L 288 342 C 288 351.972656 279.972656 360 270 360 L 42 360 C 32.027344 360 24 351.972656 24 342 Z M 24 342"
         id="path46" />
    </g>
  </defs>
  <g
     id="g67">
    <path
       style="fill:#bababa;fill-opacity:1"
       d="M 114 24 C 112.226562 24 110.554688 24.34375 108.9375 24.820312 C 110.578125 24.429688 112.199219 24 114 24 Z M 96 60 L 96 234 C 96 243.972656 104.027344 252 114 252 L 342 252 C 351.972656 252 360 243.972656 360 234 L 360 60 Z M 96 60"
       id="path51" />
    <use
       mask="url(#mask0)"
       xlink:href="#surface5"
       id="use53" />
    <path
       style="fill:#e6e6e6;fill-opacity:1"
       d="M 24 168 L 24 342 C 24 351.972656 32.027344 360 42 360 L 270 360 C 279.972656 360 288 351.972656 288 342 L 288 168 Z M 24 168"
       id="path55" />
    <path
       style="fill:rgb(29.803922%,29.803922%,29.803922%)"
       d="M 42 132 C 32.027344 132 24 140.027344 24 150 L 24 168 L 288 168 L 288 150 C 288 140.027344 279.972656 132 270 132 Z M 42 132"
       id="path57" />
    <use
       mask="url(#mask1)"
       xlink:href="#surface8"
       id="use59" />
    <path
       style="fill:rgb(29.803922%,29.803922%,29.803922%)"
       d="M 114 24 C 104.027344 24 96 30 96 42 L 96 60 L 360 60 L 360 42 C 360 32.027344 351.972656 24 342 24 Z M 114 24"
       id="path61" />
    <use
       mask="url(#mask2)"
       xlink:href="#surface11"
       id="use63" />
    <use
       mask="url(#mask3)"
       xlink:href="#surface14"
       id="use65" />
  </g>
</svg>
