<?xml version="1.0" encoding="UTF-8" standalone="no"?>
<svg
   xmlns:dc="http://purl.org/dc/elements/1.1/"
   xmlns:cc="http://creativecommons.org/ns#"
   xmlns:rdf="http://www.w3.org/1999/02/22-rdf-syntax-ns#"
   xmlns:svg="http://www.w3.org/2000/svg"
   xmlns="http://www.w3.org/2000/svg"
   xmlns:xlink="http://www.w3.org/1999/xlink"
   xmlns:sodipodi="http://sodipodi.sourceforge.net/DTD/sodipodi-0.dtd"
   xmlns:inkscape="http://www.inkscape.org/namespaces/inkscape"
   width="384pt"
   height="384pt"
   version="1.1"
   viewBox="0 0 384 384"
   id="svg43"
   sodipodi:docname="steam.svg"
   inkscape:version="0.92.2 2405546, 2018-03-11">
  <metadata
     id="metadata47">
    <rdf:RDF>
      <cc:Work
         rdf:about="">
        <dc:format>image/svg+xml</dc:format>
        <dc:type
           rdf:resource="http://purl.org/dc/dcmitype/StillImage" />
      </cc:Work>
    </rdf:RDF>
  </metadata>
  <sodipodi:namedview
     pagecolor="#ffffff"
     bordercolor="#666666"
     borderopacity="1"
     objecttolerance="10"
     gridtolerance="10"
     guidetolerance="10"
     inkscape:pageopacity="0"
     inkscape:pageshadow="2"
     inkscape:window-width="1366"
     inkscape:window-height="690"
     id="namedview45"
     showgrid="false"
     inkscape:zoom="0.4609375"
     inkscape:cx="-173.55932"
     inkscape:cy="-4.3389831"
     inkscape:window-x="0"
     inkscape:window-y="0"
     inkscape:window-maximized="1"
     inkscape:current-layer="svg43" />
  <defs
     id="defs27">
    <linearGradient
       inkscape:collect="always"
       id="linearGradient907">
      <stop
         style="stop-color:#001cbf;stop-opacity:1"
         offset="0"
         id="stop903" />
      <stop
         style="stop-color:#007fbf;stop-opacity:1"
         offset="1"
         id="stop905" />
    </linearGradient>
    <linearGradient
       y2="503.71112"
       y1="543.88501"
       x2="409.57578"
       x1="409.57578"
       gradientUnits="userSpaceOnUse"
       id="linearGradient901">
      <stop
         id="stop897"
         stop-color="#2e3e46"
         offset="0"
         style="stop-color:#007fbf;stop-opacity:1" />
      <stop
         id="stop899"
         stop-color="#47606a"
         offset="1"
         style="stop-color:#0009b1;stop-opacity:1" />
    </linearGradient>
    <filter
       id="alpha"
       width="100%"
       height="100%"
       x="0%"
       y="0%"
       filterUnits="objectBoundingBox">
      <feColorMatrix
         in="SourceGraphic"
         type="matrix"
         values="0 0 0 0 1 0 0 0 0 1 0 0 0 0 1 0 0 0 1 0"
         id="feColorMatrix2" />
    </filter>
    <mask
       id="mask0">
      <g
         filter="url(#alpha)"
         id="g7">
        <rect
           width="384"
           height="384"
           x="0"
           y="0"
           style="fill:rgb(0%,0%,0%);fill-opacity:0.301961"
           id="rect5" />
      </g>
    </mask>
    <clipPath
       id="clip1">
      <rect
         width="384"
         height="384"
         x="0"
         y="0"
         id="rect10" />
    </clipPath>
    <g
       id="surface5"
       clip-path="url(#clip1)">
      <path
         style="fill:rgb(0%,0%,0%)"
         d="M 291.871094 88.699219 C 279.792969 88.609375 272.34375 89.90625 262.511719 93.808594 C 235.558594 104.511719 216.242188 130.640625 214.503906 158.746094 C 214.300781 162.027344 214.164062 163.832031 213.691406 165.449219 C 213.699219 165.445312 213.707031 165.429688 213.710938 165.421875 C 214.042969 165.390625 214.546875 169.636719 214.8125 172.523438 C 215.988281 185.300781 222.941406 201.835938 231.878906 213.117188 C 244.03125 228.460938 264.316406 240.09375 282.765625 242.304688 C 285.023438 242.574219 287.183594 242.519531 287.453125 242.804688 C 288.957031 242.269531 291.246094 242.039062 296.105469 241.785156 C 314.445312 240.839844 331.636719 233.097656 345.101562 219.71875 C 368.125 196.847656 374.289062 162.140625 360.539062 132.78125 C 350.734375 111.851562 332.546875 96.765625 309.871094 90.761719 C 303.578125 89.09375 300.679688 88.761719 291.871094 88.699219 Z M 66.210938 141.652344 C 56.726562 141.625 48.917969 144.609375 42.492188 150.71875 C 29.632812 162.949219 27.359375 181.847656 36.976562 196.578125 C 39.835938 200.953125 44.519531 205.46875 48.28125 207.46875 C 53.488281 210.242188 87.3125 230.527344 87.371094 231.433594 C 87.375 231.46875 87.355469 231.503906 87.347656 231.535156 L 87.652344 231.425781 L 97.136719 237.609375 C 102.351562 241.007812 113.578125 248.421875 122.078125 254.082031 L 137.539062 264.375 L 137.578125 264.722656 C 137.609375 264.609375 137.644531 264.511719 137.695312 264.460938 C 137.960938 264.191406 144.199219 270.085938 147.703125 272.472656 C 151.207031 274.855469 154.328125 277.117188 154.328125 277.117188 C 154.765625 277.457031 160.054688 281.246094 167.136719 286.472656 C 182.183594 297.585938 186.445312 298.773438 195.4375 298.847656 C 207.734375 298.945312 217.960938 293.578125 224.523438 283.589844 C 230.359375 274.703125 232.125 263.3125 229.160156 253.628906 C 225.96875 243.210938 221.371094 238.226562 205.757812 228.261719 C 199.871094 224.507812 193.800781 221.003906 192.296875 220.167969 C 190.960938 219.425781 182.300781 215.296875 179.015625 213.03125 C 177.117188 211.722656 174.597656 210.089844 174.761719 209.882812 C 172.261719 208.960938 164.769531 204.226562 148.621094 193.425781 L 123.121094 176.371094 L 123.105469 176.238281 C 123.09375 176.257812 123.085938 176.289062 123.070312 176.300781 C 122.855469 176.523438 117.605469 170.371094 114.464844 167.929688 C 111.535156 165.644531 108.625 163.117188 108.105469 162.8125 C 107.65625 162.546875 101.917969 158.195312 95.015625 153.421875 C 80.386719 143.304688 74.921875 141.675781 66.210938 141.648438 Z M 120.738281 162.425781 C 121.230469 164.230469 121.667969 166.054688 122.03125 167.773438 C 121.699219 165.96875 121.273438 164.183594 120.738281 162.425781 Z M 204.1875 181.78125 C 203.332031 183.160156 202.75 184.097656 201.824219 185.589844 C 202.671875 184.238281 203.464844 182.960938 204.1875 181.78125 Z M 138.386719 271.363281 C 139.117188 276.066406 140.394531 280.585938 142.175781 284.859375 C 140.691406 280.636719 139.265625 275.460938 138.386719 271.363281 Z M 138.386719 271.363281"
         id="path13" />
    </g>
    <mask
       id="mask1">
      <g
         filter="url(#alpha)"
         id="g18">
        <rect
           width="384"
           height="384"
           x="0"
           y="0"
           style="fill:rgb(0%,0%,0%);fill-opacity:0.301961"
           id="rect16" />
      </g>
    </mask>
    <clipPath
       id="clip2">
      <rect
         width="384"
         height="384"
         x="0"
         y="0"
         id="rect21" />
    </clipPath>
    <g
       id="surface8"
       clip-path="url(#clip2)">
      <path
         style="fill:rgb(0%,0%,0%);fill-opacity:0.996078"
         d="M 280.515625 215.042969 C 269.210938 212.507812 257.386719 204.90625 250.640625 195.84375 C 242.667969 185.128906 239.238281 173.988281 239.824219 160.707031 C 240.785156 138.976562 254.585938 120.289062 274.914062 113.195312 C 280.765625 111.15625 282.144531 110.980469 291.980469 111.015625 C 302.070312 111.054688 303.042969 111.199219 309.003906 113.496094 C 322.199219 118.578125 331.933594 127.410156 337.917969 139.726562 C 342.375 148.898438 343.84375 156.074219 343.324219 166.148438 C 342.183594 188.351562 328.128906 206.867188 307.265625 213.648438 C 299.425781 216.195312 288.25 216.78125 280.515625 215.042969 Z M 280.515625 215.042969"
         id="path24" />
    </g>
    <linearGradient
       id="b"
       gradientUnits="userSpaceOnUse"
       x1="409.57578"
       x2="409.57578"
       y1="543.88501"
       y2="503.71112">
      <stop
         offset="0"
         stop-color="#2e3e46"
         id="stop7" />
      <stop
         offset="1"
         stop-color="#47606a"
         id="stop9" />
    </linearGradient>
    <linearGradient
       id="d"
       gradientUnits="userSpaceOnUse"
       x1="404.23123"
       x2="404.23123"
       xlink:href="#a"
       y1="537.38159"
       y2="507.83929" />
    <linearGradient
       id="a">
      <stop
         offset="0"
         stop-color="#d8d8d8"
         id="stop2" />
      <stop
         offset="1"
         stop-color="#fff"
         id="stop4" />
    </linearGradient>
    <linearGradient
       id="c"
       gradientUnits="userSpaceOnUse"
       x1="408.46902"
       x2="408.36667"
       xlink:href="#a"
       y1="545.60425"
       y2="501.78708" />
    <linearGradient
       inkscape:collect="always"
       xlink:href="#b"
       id="linearGradient895"
       gradientUnits="userSpaceOnUse"
       x1="409.57578"
       y1="543.88501"
       x2="409.57578"
       y2="503.71112" />
    <linearGradient
       inkscape:collect="always"
       xlink:href="#linearGradient907"
       id="linearGradient909"
       x1="397.83246"
       y1="505.70087"
       x2="421.89572"
       y2="539.50873"
       gradientUnits="userSpaceOnUse" />
  </defs>
  <g
     transform="matrix(7.6704549,0,0,7.6704549,-2941.9289,-3825.7691)"
     id="g24">
    <rect
       style="fill:url(#linearGradient895)"
       height="40.173874"
       ry="20.086937"
       width="40.173912"
       x="388.48447"
       y="503.71112"
       id="rect14" />
    <rect
       style="fill:url(#linearGradient909);fill-opacity:1"
       height="40.173874"
       ry="20.086937"
       width="40.173912"
       x="388.48447"
       y="503.71112"
       id="rect16-3" />
    <path
       style="fill:url(#d)"
       inkscape:connector-curvature="0"
       d="m 387.97637,529.33583 9.49272,3.39293 c 0.58079,2.66943 2.96002,4.67698 5.79935,4.67698 3.07544,0 5.61454,-2.35789 5.90847,-5.35824 l 7.61588,-5.57222 c 4.39149,0 7.95656,-3.55311 7.95656,-7.94341 0,-4.39276 -3.56469,-7.95656 -7.95656,-7.95656 -4.36777,0 -7.91252,3.52368 -7.95215,7.88232 l -4.95646,7.10066 c -0.20186,-0.0202 -0.40848,-0.0309 -0.61574,-0.0309 -1.10742,0 -2.14172,0.30287 -3.0307,0.83412 l -12.54322,-4.43321 m 29.09827,-8.73284 c 2.94242,0 5.33637,2.39391 5.33637,5.33637 -1e-5,2.94257 -2.39395,5.32333 -5.33637,5.32333 -2.94243,0 -5.33206,-2.38076 -5.33206,-5.32333 0,-2.94246 2.38963,-5.33637 5.33206,-5.33637 z m 0.022,1.04801 c -2.35152,0 -4.25776,1.91055 -4.25776,4.26217 0,2.35153 1.90624,4.26208 4.25776,4.26208 2.35161,0 4.26212,-1.91055 4.26212,-4.26208 0,-2.35162 -1.91051,-4.26217 -4.26212,-4.26217 z m -13.54622,12.85625 c 2.42065,0 4.36693,1.94629 4.36693,4.36701 -2e-5,2.42059 -1.94628,4.3669 -4.36693,4.3669 -1.68377,0 -3.13546,-0.9397 -3.86474,-2.32757 0.71811,0.28979 1.43567,0.57717 2.15291,0.86896 1.77981,0.71522 3.80871,-0.14562 4.52414,-1.9258 0.7154,-1.77977 -0.15442,-3.80025 -1.93456,-4.51537 l -1.82103,-0.7293 c 0.30305,-0.0655 0.61971,-0.10496 0.94325,-0.10496 z"
       id="path20" />
    <rect
       style="fill:none;stroke:#d8d8d8;stroke-width:1.89603996;stroke-opacity:1"
       height="42.10392"
       ry="21.05196"
       width="42.103958"
       x="387.51947"
       y="502.74606"
       id="rect22" />
  </g>
</svg>
