<?xml version="1.0" encoding="UTF-8" standalone="no"?>
<svg
   xmlns:dc="http://purl.org/dc/elements/1.1/"
   xmlns:cc="http://creativecommons.org/ns#"
   xmlns:rdf="http://www.w3.org/1999/02/22-rdf-syntax-ns#"
   xmlns:svg="http://www.w3.org/2000/svg"
   xmlns="http://www.w3.org/2000/svg"
   xmlns:sodipodi="http://sodipodi.sourceforge.net/DTD/sodipodi-0.dtd"
   xmlns:inkscape="http://www.inkscape.org/namespaces/inkscape"
   width="384pt"
   height="384pt"
   version="1.1"
   viewBox="0 0 384 384"
   id="svg12"
   sodipodi:docname="bijiben.svg"
   inkscape:version="0.92.2 2405546, 2018-03-11">
  <metadata
     id="metadata18">
    <rdf:RDF>
      <cc:Work
         rdf:about="">
        <dc:format>image/svg+xml</dc:format>
        <dc:type
           rdf:resource="http://purl.org/dc/dcmitype/StillImage" />
      </cc:Work>
    </rdf:RDF>
  </metadata>
  <defs
     id="defs16" />
  <sodipodi:namedview
     pagecolor="#ffffff"
     bordercolor="#666666"
     borderopacity="1"
     objecttolerance="10"
     gridtolerance="10"
     guidetolerance="10"
     inkscape:pageopacity="0"
     inkscape:pageshadow="2"
     inkscape:window-width="1366"
     inkscape:window-height="690"
     id="namedview14"
     showgrid="false"
     inkscape:zoom="0.4609375"
     inkscape:cx="-284.83688"
     inkscape:cy="256"
     inkscape:window-x="0"
     inkscape:window-y="0"
     inkscape:window-maximized="1"
     inkscape:current-layer="g10" />
  <g
     id="g10">
    <g
       id="g3013"
       transform="matrix(0.95744681,0,0,0.95744681,8.1702125,8.1702115)">
      <path
         id="path2"
         d="M 15.75,60.039062 V 330.75 c 0,18.36328 8.851562,28.46094 28.320312,28.46094 H 262.5 L 368.25,259.48828 V 60.039062 Z m 0,0"
         style="fill:#ffc730"
         inkscape:connector-curvature="0" />
      <path
         id="path4"
         d="M 15.75,77.664062 V 53.957031 c 0,-19.386719 8.113281,-29.167969 27.582031,-29.167969 H 339.19531 c 19.47266,0 29.05469,7.753907 29.05469,27.140626 v 25.734374 z m 0,0"
         style="fill:#ffc730"
         inkscape:connector-curvature="0" />
      <path
         id="path6"
         d="m 68.625,130.3125 c -5.875,0 -5.875,17.625 0,17.625 h 246.75 c 5.875,0 5.875,-17.625 0,-17.625 z m 0,52.875 c -5.875,0 -5.875,17.625 0,17.625 71.0625,0 177.32812,0 246.75,0 5.875,0 5.875,-17.625 0,-17.625 -78.36328,0 -180.38672,0 -246.75,0 z m 0,52.875 c -5.875,0 -5.875,17.625 0,17.625 37.48828,0 94.25781,0 123.375,0 5.875,0 5.875,-17.625 0,-17.625 -29.84766,0 -84.26562,0 -123.375,0 z m 0,0"
         style="fill:#000000;fill-opacity:0.68584074"
         inkscape:connector-curvature="0" />
      <path
         id="path8"
         d="M 368.25,259.48828 262.5,359.21094 v -66.48438 c 0,-18.28125 15.77344,-33.23828 35.25,-33.23828 z m 0,0"
         style="fill:#ffe8a8"
         inkscape:connector-curvature="0" />
    </g>
  </g>
</svg>
