<?xml version="1.0" encoding="UTF-8" standalone="no"?>
<svg
   xmlns:dc="http://purl.org/dc/elements/1.1/"
   xmlns:cc="http://creativecommons.org/ns#"
   xmlns:rdf="http://www.w3.org/1999/02/22-rdf-syntax-ns#"
   xmlns:svg="http://www.w3.org/2000/svg"
   xmlns="http://www.w3.org/2000/svg"
   xmlns:sodipodi="http://sodipodi.sourceforge.net/DTD/sodipodi-0.dtd"
   xmlns:inkscape="http://www.inkscape.org/namespaces/inkscape"
   width="512"
   height="512"
   version="1"
   id="svg22"
   sodipodi:docname="cheese.svg"
   inkscape:version="0.92.2 2405546, 2018-03-11">
  <metadata
     id="metadata28">
    <rdf:RDF>
      <cc:Work
         rdf:about="">
        <dc:format>image/svg+xml</dc:format>
        <dc:type
           rdf:resource="http://purl.org/dc/dcmitype/StillImage" />
        <dc:title></dc:title>
      </cc:Work>
    </rdf:RDF>
  </metadata>
  <defs
     id="defs26" />
  <sodipodi:namedview
     pagecolor="#ffffff"
     bordercolor="#666666"
     borderopacity="1"
     objecttolerance="10"
     gridtolerance="10"
     guidetolerance="10"
     inkscape:pageopacity="0"
     inkscape:pageshadow="2"
     inkscape:window-width="1366"
     inkscape:window-height="695"
     id="namedview24"
     showgrid="false"
     inkscape:zoom="0.33894329"
     inkscape:cx="-634.35877"
     inkscape:cy="555.76508"
     inkscape:window-x="0"
     inkscape:window-y="0"
     inkscape:window-maximized="1"
     inkscape:current-layer="svg22" />
  <g
     id="g845"
     transform="matrix(12,0,0,12,-32,-38)">
    <rect
       id="rect2"
       transform="matrix(0,-1,-1,0,0,0)"
       ry="2"
       rx="2"
       y="-44"
       x="-42"
       height="40"
       width="32"
       style="opacity:0.2" />
    <rect
       id="rect4"
       ry="1"
       rx="1"
       y="7"
       x="7"
       height="4"
       width="7"
       style="fill:#4f4f4f" />
    <rect
       id="rect6"
       transform="matrix(0,-1,-1,0,0,0)"
       ry="2"
       rx="2"
       y="-44"
       x="-41"
       height="40"
       width="32"
       style="fill:#bebebe;fill-opacity:1" />
    <circle
       id="circle8"
       r="13"
       cy="25"
       cx="24"
       style="opacity:0.4" />
    <circle
       id="circle10"
       transform="scale(1,-1)"
       r="11"
       cy="-26"
       cx="24"
       style="opacity:0.2" />
    <circle
       id="circle12"
       transform="scale(1,-1)"
       r="11"
       cy="-25"
       cx="24"
       style="fill:#2d2f43;fill-opacity:1" />
    <circle
       id="circle14"
       r="2"
       cy="14"
       cx="39"
       style="opacity:0.4" />
    <circle
       id="circle16"
       r="6"
       cy="26"
       cx="24"
       style="opacity:0.2" />
    <circle
       id="circle18"
       r="6"
       cy="25"
       cx="24"
       style="fill:#14151e;fill-opacity:1" />
    <path
       id="path20"
       d="m 42,9 c 1.108,0 2,0.892 2,2 v 1 c 0,-1.108 -0.892,-2 -2,-2 H 6 C 4.892,10 4,10.892 4,12 V 11 C 4,9.892 4.892,9 6,9 Z"
       style="opacity:0.1;fill:#ffffff"
       inkscape:connector-curvature="0" />
  </g>
</svg>
