<?xml version="1.0" encoding="UTF-8" standalone="no"?>
<svg
   xmlns:dc="http://purl.org/dc/elements/1.1/"
   xmlns:cc="http://creativecommons.org/ns#"
   xmlns:rdf="http://www.w3.org/1999/02/22-rdf-syntax-ns#"
   xmlns:svg="http://www.w3.org/2000/svg"
   xmlns="http://www.w3.org/2000/svg"
   xmlns:xlink="http://www.w3.org/1999/xlink"
   xmlns:sodipodi="http://sodipodi.sourceforge.net/DTD/sodipodi-0.dtd"
   xmlns:inkscape="http://www.inkscape.org/namespaces/inkscape"
   width="384pt"
   height="384pt"
   version="1.1"
   viewBox="0 0 384 384"
   id="svg63"
   sodipodi:docname="chrome-store.svg"
   inkscape:version="0.92.2 2405546, 2018-03-11">
  <metadata
     id="metadata67">
    <rdf:RDF>
      <cc:Work
         rdf:about="">
        <dc:format>image/svg+xml</dc:format>
        <dc:type
           rdf:resource="http://purl.org/dc/dcmitype/StillImage" />
      </cc:Work>
    </rdf:RDF>
  </metadata>
  <sodipodi:namedview
     pagecolor="#ffffff"
     bordercolor="#666666"
     borderopacity="1"
     objecttolerance="10"
     gridtolerance="10"
     guidetolerance="10"
     inkscape:pageopacity="0"
     inkscape:pageshadow="2"
     inkscape:window-width="1366"
     inkscape:window-height="690"
     id="namedview65"
     showgrid="false"
     inkscape:zoom="0.4609375"
     inkscape:cx="256"
     inkscape:cy="256"
     inkscape:window-x="0"
     inkscape:window-y="0"
     inkscape:window-maximized="1"
     inkscape:current-layer="svg63" />
  <defs
     id="defs35">
    <filter
       id="alpha"
       width="100%"
       height="100%"
       x="0%"
       y="0%"
       filterUnits="objectBoundingBox">
      <feColorMatrix
         in="SourceGraphic"
         type="matrix"
         values="0 0 0 0 1 0 0 0 0 1 0 0 0 0 1 0 0 0 1 0"
         id="feColorMatrix2" />
    </filter>
    <filter
       id="alpha-3"
       width="100%"
       height="100%"
       x="0%"
       y="0%"
       filterUnits="objectBoundingBox">
      <feColorMatrix
         in="SourceGraphic"
         type="matrix"
         values="0 0 0 0 1 0 0 0 0 1 0 0 0 0 1 0 0 0 1 0"
         id="feColorMatrix5" />
    </filter>
    <linearGradient
       id="linear0"
       x1="166.473"
       x2="283.557"
       y1="270.989"
       y2="370.274"
       gradientTransform="matrix(0.753855,0,0,0.695416,-7.619448,6.117046)"
       gradientUnits="userSpaceOnUse">
      <stop
         offset="0"
         style="stop-color:rgb(93.333333%,93.333333%,93.333333%)"
         id="stop8" />
      <stop
         offset="1"
         style="stop-color:rgb(98.431373%,98.431373%,98.431373%)"
         id="stop10" />
    </linearGradient>
    <mask
       id="mask1">
      <g
         filter="url(#alpha)"
         style="filter:url(#alpha-3)"
         id="g15">
        <rect
           width="384"
           height="384"
           x="0"
           y="0"
           style="fill:rgb(0%,0%,0%);fill-opacity:0.301961"
           id="rect13" />
      </g>
    </mask>
    <clipPath
       id="clip1-6">
      <rect
         width="384"
         height="384"
         x="0"
         y="0"
         id="rect18" />
    </clipPath>
    <g
       id="surface9"
       clip-path="url(#clip1-6)">
      <path
         style="fill:rgb(0%,0%,0%)"
         d="M 354.910156 313.488281 C 354.910156 316.863281 352.339844 319.609375 349.042969 319.898438 L 21.292969 319.898438 C 18.683594 319.671875 16.535156 317.902344 15.75 315.5 L 15.75 323 C 16.535156 325.402344 18.683594 327.171875 21.292969 327.398438 L 349.042969 327.398438 C 352.339844 327.109375 354.910156 324.363281 354.910156 320.988281 Z M 354.910156 313.488281"
         id="path21" />
    </g>
    <mask
       id="mask4">
      <g
         filter="url(#alpha)"
         style="filter:url(#alpha-3)"
         id="g26">
        <rect
           width="384"
           height="384"
           x="0"
           y="0"
           style="fill:rgb(0%,0%,0%);fill-opacity:0.501961"
           id="rect24" />
      </g>
    </mask>
    <clipPath
       id="clip3-9">
      <rect
         width="384"
         height="384"
         x="0"
         y="0"
         id="rect29" />
    </clipPath>
    <g
       id="surface19"
       clip-path="url(#clip3-9)">
      <path
         style="fill:rgb(100%,100%,100%)"
         d="M 15.75 102.65625 C 15.75 99.28125 18.320312 96.535156 21.617188 96.246094 L 349.367188 96.246094 C 351.972656 96.476562 354.125 98.242188 354.910156 100.644531 L 354.910156 93.144531 C 354.125 90.742188 351.972656 88.976562 349.367188 88.746094 L 21.617188 88.746094 C 18.320312 89.035156 15.75 91.78125 15.75 95.15625 Z M 15.75 102.65625"
         id="path32" />
    </g>
  </defs>
  <path
     d="m 131.90621,49.148438 -14.0098,11.90625 v 27.75 H 29.501421 c -1.880979,0.613281 -3.360732,2.164062 -3.971775,4.144531 V 323 c 0.732515,2.38672 2.734966,4.14844 5.168092,4.39844 H 339.6569 c 3.0773,-0.31641 5.47361,-3.05469 5.47361,-6.41016 V 94.960938 c 0,-2.90625 -1.79631,-5.347657 -4.27729,-6.15625 H 252.83736 V 61.78125 l -14.4552,-12.632812 0.0368,39.65625 H 131.82519 Z m 0,0"
     style="opacity:0.3"
     id="path37" />
  <path
     d="M 128.67187,49.132812 H 241.63281 V 61.644531 H 128.67187 Z m 0,0"
     style="fill:#999999"
     id="path39" />
  <path
     d="m 128.63672,49.148438 -14.86719,11.90625 v 27.75 H 19.964844 C 17.96875,89.417969 16.398438,90.96875 15.75,92.949219 V 323 c 0.777344,2.38672 2.902344,4.14844 5.484375,4.39844 H 349.10156 c 3.26563,-0.31641 5.8086,-3.05469 5.8086,-6.41016 V 94.960938 c 0,-2.90625 -1.90625,-5.347657 -4.53907,-6.15625 H 256.96875 V 61.78125 l -15.33984,-12.632812 0.0391,39.65625 H 128.55078 Z m 0,0"
     style="fill:url(#linear0)"
     id="path41" />
  <path
     d="M 15.75,248.27344 V 323 c 0.785156,2.40234 2.933594,4.17187 5.542969,4.39844 H 349.04297 c 3.29687,-0.28907 5.86719,-3.03516 5.86719,-6.41016 v -72.71484 z m 0,0"
     style="fill:#fafafa"
     id="path43" />
  <use
     width="100%"
     height="100%"
     x="0"
     y="0"
     mask="url(#mask4)"
     xlink:href="#surface19"
     id="use45" />
  <path
     d="m 183.02637,253.21875 c -37.49937,0 -67.89991,30.40054 -67.89991,67.8999 0,2.11793 0.10176,4.21134 0.29151,6.27979 h 135.2168 c 0.18975,-2.06845 0.2915,-4.16186 0.2915,-6.27979 0,-37.49936 -30.40054,-67.8999 -67.8999,-67.8999 z"
     style="fill:#ffffff"
     id="path57" />
  <use
     width="100%"
     height="100%"
     x="0"
     y="0"
     mask="url(#mask1)"
     xlink:href="#surface9"
     id="use61" />
  <g
     transform="matrix(0.45521658,0,0,0.45521658,104.59842,120.36404)"
     id="g1616">
    <g
       id="g8">
      <path
         inkscape:connector-curvature="0"
         id="path2"
         style="fill:#ffc730"
         d="m 341.53906,113.75391 c -236.35937,188.83203 -118.17969,94.41406 0,0 z m 0,0 -136.62109,0.0547 46.32812,130.70703 -67.7539,116.02344 c 2.8164,0.13672 5.65625,0.21094 8.50781,0.21094 93.19922,0 168.75,-75.55078 168.75,-168.75 0,-28.24219 -6.94922,-54.85547 -19.21094,-78.24609 z" />
      <path
         inkscape:connector-curvature="0"
         id="path4"
         style="fill:#e83f3f;fill-opacity:1"
         d="m 192,23.25 c -60.66797,0 -113.851562,32.023438 -143.59375,80.08203 L 116.44542,214.79514 192,112.75391 c 4.10937,0.0352 8.21094,0.38672 12.26172,1.05468 l 137.27734,-0.0547 C 313.33203,59.957031 256.95703,23.25 192,23.25 Z M 48.386719,103.36328 c -40.925781,195.75781 -20.460938,97.87891 0,0 z" />
      <path
         inkscape:connector-curvature="0"
         id="path6"
         style="fill:#0ca15e"
         d="M 48.40625,103.33203 C 32.460938,129.09766 23.25,159.47266 23.25,192 c 0,90.34375 70.996094,164.10547 160.24219,168.53906 l 67.7539,-116.02344 C 236.22656,261.48828 214.66406,271.21875 192,271.24609 l -75.55458,-56.45095 z" />
    </g>
    <path
       inkscape:connector-curvature="0"
       id="path10"
       style="opacity:0.05;fill:#000000;fill-opacity:1"
       d="M 341.55415,113.71483 230.072,149.55823 201.35217,113.79676 Z" />
    <path
       inkscape:connector-curvature="0"
       id="path12"
       style="opacity:0.05;fill:#000000;fill-opacity:1"
       d="m 183.48828,360.55469 25.32008,-114.33246 45.36749,-6.74548 z" />
    <path
       inkscape:connector-curvature="0"
       id="path14"
       style="opacity:0.05;fill:#000000;fill-opacity:1"
       d="M 48.277344,103.33594 136.9627,179.80768 121.40623,222.9552 Z" />
    <path
       inkscape:connector-curvature="0"
       id="path16"
       d="m 271.24609,192 c 0,43.76562 -35.48047,79.24609 -79.24609,79.24609 -43.76563,0 -79.24609,-35.48047 -79.24609,-79.24609 0,-43.76563 35.48046,-79.24609 79.24609,-79.24609 43.76562,0 79.24609,35.48046 79.24609,79.24609 z m 0,0"
       style="fill:#ffffff" />
    <path
       inkscape:connector-curvature="0"
       id="path18"
       d="m 257.39062,192 c 0,36.11328 -29.27734,65.39062 -65.39062,65.39062 -36.11328,0 -65.39062,-29.27734 -65.39062,-65.39062 0,-36.11328 29.27734,-65.39062 65.39062,-65.39062 36.11328,0 65.39062,29.27734 65.39062,65.39062 z m 0,0"
       style="fill:#4685f1;fill-opacity:1" />
  </g>
</svg>
