<?xml version="1.0" encoding="UTF-8" standalone="no"?>
<svg
   xmlns:dc="http://purl.org/dc/elements/1.1/"
   xmlns:cc="http://creativecommons.org/ns#"
   xmlns:rdf="http://www.w3.org/1999/02/22-rdf-syntax-ns#"
   xmlns:svg="http://www.w3.org/2000/svg"
   xmlns="http://www.w3.org/2000/svg"
   xmlns:xlink="http://www.w3.org/1999/xlink"
   xmlns:sodipodi="http://sodipodi.sourceforge.net/DTD/sodipodi-0.dtd"
   xmlns:inkscape="http://www.inkscape.org/namespaces/inkscape"
   width="384pt"
   height="384pt"
   version="1.1"
   viewBox="0 0 384 384"
   id="svg73"
   sodipodi:docname="clock.svg"
   inkscape:version="0.92.2 2405546, 2018-03-11">
  <metadata
     id="metadata77">
    <rdf:RDF>
      <cc:Work
         rdf:about="">
        <dc:format>image/svg+xml</dc:format>
        <dc:type
           rdf:resource="http://purl.org/dc/dcmitype/StillImage" />
      </cc:Work>
    </rdf:RDF>
  </metadata>
  <sodipodi:namedview
     pagecolor="#ffffff"
     bordercolor="#666666"
     borderopacity="1"
     objecttolerance="10"
     gridtolerance="10"
     guidetolerance="10"
     inkscape:pageopacity="0"
     inkscape:pageshadow="2"
     inkscape:window-width="1366"
     inkscape:window-height="690"
     id="namedview75"
     showgrid="false"
     inkscape:zoom="0.4297216"
     inkscape:cx="10.633906"
     inkscape:cy="215.47462"
     inkscape:window-x="0"
     inkscape:window-y="0"
     inkscape:window-maximized="1"
     inkscape:current-layer="svg73" />
  <defs
     id="defs49">
    <filter
       id="alpha"
       width="100%"
       height="100%"
       x="0%"
       y="0%"
       filterUnits="objectBoundingBox">
      <feColorMatrix
         in="SourceGraphic"
         type="matrix"
         values="0 0 0 0 1 0 0 0 0 1 0 0 0 0 1 0 0 0 1 0"
         id="feColorMatrix2" />
    </filter>
    <mask
       id="mask0">
      <g
         filter="url(#alpha)"
         id="g7">
        <rect
           width="384"
           height="384"
           x="0"
           y="0"
           style="fill:rgb(0%,0%,0%);fill-opacity:0.301961"
           id="rect5" />
      </g>
    </mask>
    <clipPath
       id="clip1">
      <rect
         width="384"
         height="384"
         x="0"
         y="0"
         id="rect10" />
    </clipPath>
    <g
       id="surface5"
       clip-path="url(#clip1)">
      <path
         style="fill:rgb(0%,0%,0%)"
         d="M 265.878906 186.644531 C 263.507812 224.644531 232.109375 254.3125 194.035156 254.523438 C 155.960938 254.734375 124.234375 225.417969 121.441406 187.449219 C 121.359375 188.570312 121.300781 189.691406 121.273438 190.8125 C 121.273438 230.792969 153.679688 263.199219 193.660156 263.199219 C 233.636719 263.199219 266.046875 230.792969 266.046875 190.8125 C 266.03125 189.421875 265.972656 188.03125 265.878906 186.644531 Z M 265.878906 186.644531"
         id="path13" />
    </g>
    <mask
       id="mask1">
      <g
         filter="url(#alpha)"
         id="g18">
        <rect
           width="384"
           height="384"
           x="0"
           y="0"
           style="fill:rgb(0%,0%,0%);fill-opacity:0.301961"
           id="rect16" />
      </g>
    </mask>
    <clipPath
       id="clip2">
      <rect
         width="384"
         height="384"
         x="0"
         y="0"
         id="rect21" />
    </clipPath>
    <g
       id="surface8"
       clip-path="url(#clip2)">
      <path
         style="fill:rgb(1.176471%,0%,0%)"
         d="M 280.886719 104.0625 C 279.035156 104.0625 277.1875 104.769531 275.769531 106.183594 L 195.007812 186.949219 C 194.824219 186.738281 194.628906 186.535156 194.414062 186.34375 L 122.734375 123.015625 C 119.988281 120.585938 115.820312 120.84375 113.394531 123.59375 C 110.964844 126.339844 111.222656 130.503906 113.972656 132.933594 L 185.652344 196.261719 C 187.082031 197.527344 188.898438 198.058594 190.652344 197.890625 C 191.003906 198.671875 191.492188 199.40625 192.132812 200.050781 L 192.136719 200.050781 C 194.96875 202.882812 199.53125 202.882812 202.363281 200.050781 L 286 116.414062 C 288.832031 113.582031 288.832031 109.019531 286 106.1875 L 286 106.183594 C 284.582031 104.769531 282.734375 104.0625 280.886719 104.0625 Z M 280.886719 104.0625"
         id="path24" />
    </g>
    <mask
       id="mask2">
      <g
         filter="url(#alpha)"
         id="g29">
        <rect
           width="384"
           height="384"
           x="0"
           y="0"
           style="fill:rgb(0%,0%,0%);fill-opacity:0.301961"
           id="rect27" />
      </g>
    </mask>
    <clipPath
       id="clip3">
      <rect
         width="384"
         height="384"
         x="0"
         y="0"
         id="rect32" />
    </clipPath>
    <g
       id="surface11"
       clip-path="url(#clip3)">
      <path
         style="fill:rgb(0%,0%,0%)"
         d="M 138.984375 300.8125 L 190.183594 206.527344 C 191.097656 204.847656 193.15625 204.296875 194.789062 205.296875 C 196.417969 206.296875 197 208.46875 196.085938 210.152344 L 144.886719 304.4375 C 143.976562 306.117188 141.914062 306.667969 140.285156 305.667969 C 138.65625 304.667969 138.074219 302.492188 138.984375 300.8125 Z M 138.984375 300.8125"
         id="path35" />
    </g>
    <mask
       id="mask3">
      <g
         filter="url(#alpha)"
         id="g40">
        <rect
           width="384"
           height="384"
           x="0"
           y="0"
           style="fill:rgb(0%,0%,0%);fill-opacity:0.301961"
           id="rect38" />
      </g>
    </mask>
    <clipPath
       id="clip4">
      <rect
         width="384"
         height="384"
         x="0"
         y="0"
         id="rect43" />
    </clipPath>
    <g
       id="surface14"
       clip-path="url(#clip4)">
      <path
         style="fill:rgb(0%,0%,0%)"
         d="M 208.136719 195.316406 C 208.132812 203.308594 201.652344 209.789062 193.660156 209.789062 C 185.664062 209.789062 179.183594 203.308594 179.183594 195.316406 C 179.179688 187.320312 185.660156 180.835938 193.660156 180.835938 C 201.65625 180.835938 208.140625 187.320312 208.136719 195.316406"
         id="path46" />
    </g>
    <linearGradient
       id="c"
       gradientUnits="userSpaceOnUse"
       x1="412.17783"
       x2="411.36191"
       xlink:href="#b"
       y1="529.71393"
       y2="508.09421" />
    <linearGradient
       id="b"
       gradientUnits="userSpaceOnUse"
       x1="408.57135"
       x2="408.57135"
       y1="546.7981"
       y2="500.79807"
       spreadMethod="pad">
      <stop
         offset="0"
         stop-color="#2a2c2f"
         id="stop7" />
      <stop
         offset="1"
         stop-color="#424649"
         id="stop9" />
    </linearGradient>
    <linearGradient
       id="d"
       gradientUnits="userSpaceOnUse"
       x1="408.57135"
       x2="408.57135"
       xlink:href="#b"
       y1="546.7981"
       y2="500.79807" />
  </defs>
  <g
     transform="matrix(7.03125,0,0,7.03125,-2680.7679,-3490.9547)"
     id="g22">
    <rect
       height="46"
       ry="23"
       width="46"
       x="385.57144"
       y="500.798"
       id="rect14"
       style="fill:#313437;fill-opacity:1" />
    <path
       inkscape:connector-curvature="0"
       d="m 411.04034,523.82005 c -0.0635,-0.52672 -0.26365,-1.00708 -0.57132,-1.4082 l 2.11232,-13.10924 c 0.0787,-0.48776 -0.23428,-0.9528 -0.71558,-1.06398 l -0.0237,-0.005 c -0.48129,-0.11132 -0.96632,0.16974 -1.10954,0.64255 l -3.84809,12.70827 c -0.94832,0.47684 -1.60662,1.44885 -1.60662,2.58091 0,1.59844 1.29982,2.89904 2.89818,2.89904 0.29785,0 0.57951,-0.0582 0.85006,-0.14191 l 8.03911,4.17771 c 0.4423,0.22977 0.98673,0.0863 1.25815,-0.33178 l 0.0115,-0.0184 c 0.2715,-0.41791 0.18124,-0.97374 -0.20884,-1.28424 z m -4.29579,0.34496 c 0,-0.78925 0.64239,-1.43162 1.43161,-1.43162 0.78994,0 1.43231,0.64237 1.43231,1.43162 0,0.78982 -0.64237,1.4323 -1.43231,1.4323 -0.78922,0 -1.43161,-0.64239 -1.43161,-1.4323 z"
       id="path18"
       style="fill:#f9f9fa;fill-opacity:1" />
    <rect
       style="fill:none;stroke:#ffffff;stroke-width:2;stroke-opacity:1"
       height="46"
       ry="23"
       width="46"
       x="385.57144"
       y="500.798"
       id="rect20" />
  </g>
</svg>
