<?xml version="1.0" encoding="UTF-8" standalone="no"?>
<svg
   xmlns:dc="http://purl.org/dc/elements/1.1/"
   xmlns:cc="http://creativecommons.org/ns#"
   xmlns:rdf="http://www.w3.org/1999/02/22-rdf-syntax-ns#"
   xmlns:svg="http://www.w3.org/2000/svg"
   xmlns="http://www.w3.org/2000/svg"
   xmlns:xlink="http://www.w3.org/1999/xlink"
   xmlns:sodipodi="http://sodipodi.sourceforge.net/DTD/sodipodi-0.dtd"
   xmlns:inkscape="http://www.inkscape.org/namespaces/inkscape"
   width="384pt"
   height="384pt"
   version="1.1"
   viewBox="0 0 384 384"
   id="svg63"
   sodipodi:docname="cs-overview.svg"
   inkscape:version="0.92.2 2405546, 2018-03-11">
  <metadata
     id="metadata67">
    <rdf:RDF>
      <cc:Work
         rdf:about="">
        <dc:format>image/svg+xml</dc:format>
        <dc:type
           rdf:resource="http://purl.org/dc/dcmitype/StillImage" />
      </cc:Work>
    </rdf:RDF>
  </metadata>
  <sodipodi:namedview
     pagecolor="#ffffff"
     bordercolor="#666666"
     borderopacity="1"
     objecttolerance="10"
     gridtolerance="10"
     guidetolerance="10"
     inkscape:pageopacity="0"
     inkscape:pageshadow="2"
     inkscape:window-width="1920"
     inkscape:window-height="1024"
     id="namedview65"
     showgrid="false"
     inkscape:zoom="2.0200971"
     inkscape:cx="51.738087"
     inkscape:cy="256"
     inkscape:window-x="0"
     inkscape:window-y="0"
     inkscape:window-maximized="1"
     inkscape:current-layer="svg63" />
  <defs
     id="defs49">
    <filter
       id="alpha"
       width="100%"
       height="100%"
       x="0%"
       y="0%"
       filterUnits="objectBoundingBox">
      <feColorMatrix
         in="SourceGraphic"
         type="matrix"
         values="0 0 0 0 1 0 0 0 0 1 0 0 0 0 1 0 0 0 1 0"
         id="feColorMatrix2" />
    </filter>
    <mask
       id="mask0">
      <g
         filter="url(#alpha)"
         id="g7">
        <rect
           width="384"
           height="384"
           x="0"
           y="0"
           style="fill:rgb(0%,0%,0%);fill-opacity:0.4"
           id="rect5" />
      </g>
    </mask>
    <clipPath
       id="clip1">
      <rect
         width="384"
         height="384"
         x="0"
         y="0"
         id="rect10" />
    </clipPath>
    <g
       id="surface5"
       clip-path="url(#clip1)">
      <path
         style="fill-rule:evenodd;fill:rgb(100%,100%,100%)"
         d="M 352 240.015625 C 330.910156 239.625 310.558594 247.878906 295.511719 262.921875 C 280.472656 277.96875 272 298.527344 272 320 L 336 320 C 337.136719 320 338.472656 319.734375 339.769531 319.511719 C 346.792969 317.824219 352 311.558594 352 304 Z M 352 240.015625"
         id="path13" />
    </g>
    <mask
       id="mask1">
      <g
         filter="url(#alpha)"
         id="g18">
        <rect
           width="384"
           height="384"
           x="0"
           y="0"
           style="fill:rgb(0%,0%,0%);fill-opacity:0.2"
           id="rect16" />
      </g>
    </mask>
    <clipPath
       id="clip2">
      <rect
         width="384"
         height="384"
         x="0"
         y="0"
         id="rect21" />
    </clipPath>
    <g
       id="surface8"
       clip-path="url(#clip2)">
      <path
         style="fill:rgb(0%,0%,0%)"
         d="M 32 304 L 32 312 C 32 320.863281 39.136719 328 48 328 L 336 328 C 344.863281 328 352 320.863281 352 312 L 352 304 C 352 312.863281 344.863281 320 336 320 L 48 320 C 39.136719 320 32 312.863281 32 304 Z M 32 304"
         id="path24" />
    </g>
    <mask
       id="mask2">
      <g
         filter="url(#alpha)"
         id="g29">
        <rect
           width="384"
           height="384"
           x="0"
           y="0"
           style="fill:rgb(0%,0%,0%);fill-opacity:0.101961"
           id="rect27" />
      </g>
    </mask>
    <clipPath
       id="clip3">
      <rect
         width="384"
         height="384"
         x="0"
         y="0"
         id="rect32" />
    </clipPath>
    <g
       id="surface11"
       clip-path="url(#clip3)">
      <path
         style="fill:rgb(100%,100%,100%)"
         d="M 48 64 C 39.136719 64 32 71.136719 32 80 L 32 88 C 32 79.136719 39.136719 72 48 72 L 336 72 C 344.863281 72 352 79.136719 352 88 L 352 80 C 352 71.136719 344.863281 64 336 64 Z M 48 64"
         id="path35" />
    </g>
    <mask
       id="mask3">
      <g
         filter="url(#alpha)"
         id="g40">
        <rect
           width="384"
           height="384"
           x="0"
           y="0"
           style="fill:rgb(0%,0%,0%);fill-opacity:0.4"
           id="rect38" />
      </g>
    </mask>
    <clipPath
       id="clip4">
      <rect
         width="384"
         height="384"
         x="0"
         y="0"
         id="rect43" />
    </clipPath>
    <g
       id="surface14"
       clip-path="url(#clip4)">
      <path
         style="fill-rule:evenodd;fill:rgb(100%,100%,100%)"
         d="M 32 143.984375 C 53.085938 144.375 73.4375 136.121094 88.484375 121.078125 C 103.53125 106.039062 112.003906 85.46875 112.003906 64 L 48.003906 64 C 46.871094 64 45.535156 64.261719 44.238281 64.484375 C 37.210938 66.175781 32.003906 72.441406 32.003906 79.996094 L 32.003906 143.980469 Z M 32 143.984375"
         id="path46" />
    </g>
  </defs>
  <g
     id="g61">
    <path
       style="fill:#0088ff;fill-opacity:1"
       d="M 48 64 C 48 64 32 64 32 80 L 32 304 C 32 312.863281 39.136719 320 48 320 L 336 320 C 344.863281 320 352 312.863281 352 304 L 352 80 C 352 71.136719 344.863281 64 336 64 Z M 48 64"
       id="path51" />
    <use
       mask="url(#mask0)"
       xlink:href="#surface5"
       id="use53" />
    <use
       mask="url(#mask1)"
       xlink:href="#surface8"
       id="use55" />
    <use
       mask="url(#mask2)"
       xlink:href="#surface11"
       id="use57" />
    <use
       mask="url(#mask3)"
       xlink:href="#surface14"
       id="use59" />
  </g>
</svg>
