<?xml version="1.0" encoding="UTF-8" standalone="no"?>
<svg
   xmlns:dc="http://purl.org/dc/elements/1.1/"
   xmlns:cc="http://creativecommons.org/ns#"
   xmlns:rdf="http://www.w3.org/1999/02/22-rdf-syntax-ns#"
   xmlns:svg="http://www.w3.org/2000/svg"
   xmlns="http://www.w3.org/2000/svg"
   xmlns:xlink="http://www.w3.org/1999/xlink"
   xmlns:sodipodi="http://sodipodi.sourceforge.net/DTD/sodipodi-0.dtd"
   xmlns:inkscape="http://www.inkscape.org/namespaces/inkscape"
   width="384pt"
   height="384pt"
   version="1.1"
   viewBox="0 0 384 384"
   id="svg67"
   sodipodi:docname="disk-utility.svg"
   inkscape:version="0.92.2 2405546, 2018-03-11">
  <metadata
     id="metadata71">
    <rdf:RDF>
      <cc:Work
         rdf:about="">
        <dc:format>image/svg+xml</dc:format>
        <dc:type
           rdf:resource="http://purl.org/dc/dcmitype/StillImage" />
      </cc:Work>
    </rdf:RDF>
  </metadata>
  <sodipodi:namedview
     pagecolor="#ffffff"
     bordercolor="#666666"
     borderopacity="1"
     objecttolerance="10"
     gridtolerance="10"
     guidetolerance="10"
     inkscape:pageopacity="0"
     inkscape:pageshadow="2"
     inkscape:window-width="1366"
     inkscape:window-height="695"
     id="namedview69"
     showgrid="false"
     inkscape:zoom="0.4609375"
     inkscape:cx="256"
     inkscape:cy="256"
     inkscape:window-x="0"
     inkscape:window-y="0"
     inkscape:window-maximized="1"
     inkscape:current-layer="svg67" />
  <defs
     id="defs49">
    <filter
       id="alpha"
       width="100%"
       height="100%"
       x="0%"
       y="0%"
       filterUnits="objectBoundingBox">
      <feColorMatrix
         in="SourceGraphic"
         type="matrix"
         values="0 0 0 0 1 0 0 0 0 1 0 0 0 0 1 0 0 0 1 0"
         id="feColorMatrix2" />
    </filter>
    <mask
       id="mask0">
      <g
         filter="url(#alpha)"
         id="g7">
        <rect
           width="384"
           height="384"
           x="0"
           y="0"
           style="fill:rgb(0%,0%,0%);fill-opacity:0.2"
           id="rect5" />
      </g>
    </mask>
    <clipPath
       id="clip1">
      <rect
         width="384"
         height="384"
         x="0"
         y="0"
         id="rect10" />
    </clipPath>
    <g
       id="surface5"
       clip-path="url(#clip1)">
      <path
         style="fill:rgb(0%,0%,0%)"
         d="M 60 330 L 60 342 C 60 355.296875 70.703125 366 84 366 L 300 366 C 313.296875 366 324 355.296875 324 342 L 324 330 C 324 343.296875 313.296875 354 300 354 L 84 354 C 70.703125 354 60 343.296875 60 330 Z M 60 330"
         id="path13" />
    </g>
    <mask
       id="mask1">
      <g
         filter="url(#alpha)"
         id="g18">
        <rect
           width="384"
           height="384"
           x="0"
           y="0"
           style="fill:rgb(0%,0%,0%);fill-opacity:0.501961"
           id="rect16" />
      </g>
    </mask>
    <clipPath
       id="clip2">
      <rect
         width="384"
         height="384"
         x="0"
         y="0"
         id="rect21" />
    </clipPath>
    <g
       id="surface8"
       clip-path="url(#clip2)">
      <path
         style="fill:rgb(0%,0%,0%)"
         d="M 192 72 C 145.609375 72 108 109.609375 108 156 L 108 240 L 192 240 C 238.390625 240 276 202.390625 276 156 C 276 109.609375 238.390625 72 192 72 Z M 192 108 C 218.507812 108 240 129.492188 240 156 C 240 182.507812 218.507812 204 192 204 C 165.492188 204 144 182.507812 144 156 C 144 129.492188 165.492188 108 192 108 Z M 192 108"
         id="path24" />
    </g>
    <mask
       id="mask2">
      <g
         filter="url(#alpha)"
         id="g29">
        <rect
           width="384"
           height="384"
           x="0"
           y="0"
           style="fill:rgb(0%,0%,0%);fill-opacity:0.101961"
           id="rect27" />
      </g>
    </mask>
    <clipPath
       id="clip3">
      <rect
         width="384"
         height="384"
         x="0"
         y="0"
         id="rect32" />
    </clipPath>
    <g
       id="surface11"
       clip-path="url(#clip3)">
      <path
         style="fill:rgb(100%,100%,100%)"
         d="M 84 24 C 70.703125 24 60 34.703125 60 48 L 60 54 C 60 40.703125 70.703125 30 84 30 L 300 30 C 313.296875 30 324 40.703125 324 54 L 324 48 C 324 34.703125 313.296875 24 300 24 Z M 84 24"
         id="path35" />
    </g>
    <mask
       id="mask3">
      <g
         filter="url(#alpha)"
         id="g40">
        <rect
           width="384"
           height="384"
           x="0"
           y="0"
           style="fill:rgb(0%,0%,0%);fill-opacity:0.2"
           id="rect38" />
      </g>
    </mask>
    <clipPath
       id="clip4">
      <rect
         width="384"
         height="384"
         x="0"
         y="0"
         id="rect43" />
    </clipPath>
    <g
       id="surface14"
       clip-path="url(#clip4)">
      <path
         style="fill:rgb(0%,0%,0%)"
         d="M 383.746094 275.089844 C 381.046875 326.011719 338.996094 365.9375 288 366 C 237.664062 366 195.875 327.117188 192.253906 276.910156 C 192.121094 278.605469 192.039062 280.300781 192 282 C 192 335.019531 234.980469 378 288 378 C 341.019531 378 384 335.019531 384 282 C 383.996094 279.691406 383.910156 277.386719 383.742188 275.085938 Z M 383.746094 275.089844"
         id="path46" />
    </g>
  </defs>
  <g
     id="g819"
     transform="matrix(8.2317075,0,0,8.2317075,-5.56098,-9.6768338)">
    <rect
       id="rect2"
       transform="matrix(0,-1,-1,0,0,0)"
       ry="2"
       rx="2"
       y="-40"
       x="-45"
       height="32"
       width="40"
       style="opacity:0.2" />
    <rect
       id="rect4"
       transform="matrix(0,-1,-1,0,0,0)"
       ry="2"
       rx="2"
       y="-40"
       x="-44"
       height="32"
       width="40"
       style="fill:#b5b5b5;fill-opacity:1" />
    <path
       id="path6"
       d="m 24,10 c 5.5228,0 10,4.4772 10,10 0,5.5228 -4.4772,10 -10,10 H 14 V 20 c 0,-5.5228 4.4772,-10 10,-10 z m 0,5 c -2.7614,0 -5,2.2386 -5,5 0,2.7614 2.2386,5 5,5 2.7614,0 5,-2.2386 5,-5 0,-2.7614 -2.2386,-5 -5,-5 z"
       style="opacity:0.5"
       inkscape:connector-curvature="0" />
    <path
       id="path8"
       d="M 10,4 C 8.892,4 8,4.892 8,6 V 7 C 8,5.892 8.892,5 10,5 h 28 c 1.108,0 2,0.892 2,2 V 6 C 40,4.892 39.108,4 38,4 Z"
       style="opacity:0.2;fill:#ffffff"
       inkscape:connector-curvature="0" />
  </g>
  <use
     height="100%"
     width="100%"
     y="0"
     x="0"
     id="use57"
     xlink:href="#surface11"
     mask="url(#mask2)" />
  <use
     height="100%"
     width="100%"
     y="0"
     x="0"
     id="use59"
     xlink:href="#surface14"
     mask="url(#mask3)" />
  <path
     inkscape:connector-curvature="0"
     id="path61"
     d="m 384,276 c 0,53.01953 -42.98047,96 -96,96 -53.01953,0 -96,-42.98047 -96,-96 0,-53.01953 42.98047,-96 96,-96 53.01953,0 96,42.98047 96,96 z m 0,0"
     style="fill:#8c42ab;fill-rule:evenodd" />
  <path
     inkscape:connector-curvature="0"
     id="path63"
     d="m 276,228 -1.05859,12.64453 c -4.00782,1.48438 -7.73438,3.64063 -11.02344,6.375 l -11.48828,-5.41016 -12,20.78516 10.42968,7.24219 c -0.37109,2.10156 -0.5625,4.23047 -0.57421,6.36328 0,2.14062 0.18359,4.27734 0.54687,6.38672 l -10.40625,7.21875 12,20.78515 11.46484,-5.39453 c 3.29688,2.72266 7.03516,4.86328 11.05079,6.33203 L 276,324 h 24 l 1.05859,-12.64453 c 4.00782,-1.48438 7.73438,-3.64063 11.01953,-6.375 l 11.49219,5.41015 12,-20.78515 -10.43359,-7.2461 c 0.37109,-2.09765 0.5664,-4.22656 0.57812,-6.35937 -0.004,-2.14063 -0.1875,-4.27734 -0.55078,-6.39063 l 10.40625,-7.21875 -12,-20.78515 -11.46484,5.39844 c -3.29688,-2.72266 -7.03516,-4.86719 -11.05078,-6.33594 L 300,227.99609 h -24 z m 12,34.28516 c 7.57422,0 13.71484,6.14062 13.71484,13.71875 0,7.57421 -6.14062,13.71484 -13.71484,13.71484 -7.57422,0 -13.71484,-6.14063 -13.71484,-13.71484 0,-7.57813 6.14062,-13.71875 13.71484,-13.71875 z m 0,0"
     style="fill:#ffffff" />
</svg>
