<?xml version="1.0" encoding="UTF-8" standalone="no"?>
<svg
   xmlns:dc="http://purl.org/dc/elements/1.1/"
   xmlns:cc="http://creativecommons.org/ns#"
   xmlns:rdf="http://www.w3.org/1999/02/22-rdf-syntax-ns#"
   xmlns:svg="http://www.w3.org/2000/svg"
   xmlns="http://www.w3.org/2000/svg"
   xmlns:sodipodi="http://sodipodi.sourceforge.net/DTD/sodipodi-0.dtd"
   xmlns:inkscape="http://www.inkscape.org/namespaces/inkscape"
   width="384pt"
   height="384pt"
   version="1.1"
   viewBox="0 0 384 384"
   id="svg69"
   sodipodi:docname="gnome-screenshot.svg"
   inkscape:version="0.92.2 2405546, 2018-03-11">
  <metadata
     id="metadata73">
    <rdf:RDF>
      <cc:Work
         rdf:about="">
        <dc:format>image/svg+xml</dc:format>
        <dc:type
           rdf:resource="http://purl.org/dc/dcmitype/StillImage" />
      </cc:Work>
    </rdf:RDF>
  </metadata>
  <sodipodi:namedview
     pagecolor="#ffffff"
     bordercolor="#666666"
     borderopacity="1"
     objecttolerance="10"
     gridtolerance="10"
     guidetolerance="10"
     inkscape:pageopacity="0"
     inkscape:pageshadow="2"
     inkscape:window-width="1366"
     inkscape:window-height="690"
     id="namedview71"
     showgrid="false"
     inkscape:zoom="0.3588598"
     inkscape:cx="-520.11968"
     inkscape:cy="332.27908"
     inkscape:window-x="0"
     inkscape:window-y="0"
     inkscape:window-maximized="1"
     inkscape:current-layer="svg69" />
  <defs
     id="defs43">
    <linearGradient
       id="linear0"
       x1="32.987"
       x2="763.265"
       y1="976.668"
       y2="390.876"
       gradientTransform="matrix(0.714496,0,0,0.527311,9.089072,-260.118553)"
       gradientUnits="userSpaceOnUse">
      <stop
         offset="0"
         style="stop-color:rgb(16.078431%,50.196078%,72.54902%)"
         id="stop2" />
      <stop
         offset="1"
         style="stop-color:rgb(72.941176%,9.019608%,30.588235%);stop-opacity:0.996078"
         id="stop4" />
    </linearGradient>
    <filter
       id="alpha"
       width="100%"
       height="100%"
       x="0%"
       y="0%"
       filterUnits="objectBoundingBox">
      <feColorMatrix
         in="SourceGraphic"
         type="matrix"
         values="0 0 0 0 1 0 0 0 0 1 0 0 0 0 1 0 0 0 1 0"
         id="feColorMatrix7" />
    </filter>
    <mask
       id="mask0">
      <g
         filter="url(#alpha)"
         id="g12">
        <rect
           width="384"
           height="384"
           x="0"
           y="0"
           style="fill:rgb(0%,0%,0%);fill-opacity:0.301961"
           id="rect10" />
      </g>
    </mask>
    <clipPath
       id="clip1">
      <rect
         width="384"
         height="384"
         x="0"
         y="0"
         id="rect15" />
    </clipPath>
    <g
       id="surface5"
       clip-path="url(#clip1)">
      <path
         style="fill:rgb(0%,0%,0%)"
         d="M 282.726562 283.148438 C 269.269531 301.785156 266.386719 315.390625 261.8125 314.101562 C 258.234375 313.089844 259.945312 310.027344 250.5 307.890625 C 241.429688 305.839844 232.183594 313.304688 230.277344 322.289062 C 227.734375 331.097656 231.914062 342.152344 241.214844 344.863281 C 250.421875 348.171875 261.371094 342.734375 264.625 333.566406 C 269.34375 323.082031 271.742188 309.246094 287.042969 297.339844 L 298.789062 288.199219 L 339.371094 230.632812 C 343.90625 223.191406 346.617188 213.300781 340.695312 203.902344 Z M 239.128906 317.9375 C 246.949219 310.097656 260.832031 314.835938 260.832031 325.277344 C 261.40625 334.882812 249.75 343.660156 241.058594 338.195312 C 233.742188 334.367188 233.773438 323.304688 239.128906 317.9375 Z M 239.128906 317.9375"
         id="path18" />
    </g>
    <mask
       id="mask1">
      <g
         filter="url(#alpha)"
         id="g23">
        <rect
           width="384"
           height="384"
           x="0"
           y="0"
           style="fill:rgb(0%,0%,0%);fill-opacity:0.301961"
           id="rect21" />
      </g>
    </mask>
    <clipPath
       id="clip2">
      <rect
         width="384"
         height="384"
         x="0"
         y="0"
         id="rect26" />
    </clipPath>
    <g
       id="surface8"
       clip-path="url(#clip2)">
      <path
         style="fill:rgb(0%,0%,0%)"
         d="M 303.519531 283.65625 C 317.015625 302.261719 319.933594 315.863281 324.503906 314.558594 C 328.078125 313.542969 326.359375 310.484375 335.800781 308.328125 C 344.867188 306.257812 354.132812 313.699219 356.054688 322.679688 C 358.621094 331.480469 354.464844 342.546875 345.167969 345.277344 C 335.972656 348.605469 325.007812 343.195312 321.734375 334.03125 C 316.992188 323.558594 314.558594 309.726562 299.234375 297.855469 L 287.46875 288.742188 L 246.757812 231.265625 C 242.207031 223.835938 239.472656 213.949219 245.375 204.539062 Z M 347.195312 318.347656 C 339.355469 310.527344 325.484375 315.296875 325.507812 325.738281 C 324.953125 335.34375 336.628906 344.09375 345.308594 338.609375 C 352.617188 334.765625 352.566406 323.703125 347.195312 318.347656 Z M 347.195312 318.347656"
         id="path29" />
    </g>
    <mask
       id="mask2">
      <g
         filter="url(#alpha)"
         id="g34">
        <rect
           width="384"
           height="384"
           x="0"
           y="0"
           style="fill:rgb(0%,0%,0%);fill-opacity:0.101961"
           id="rect32" />
      </g>
    </mask>
    <clipPath
       id="clip3">
      <rect
         width="384"
         height="384"
         x="0"
         y="0"
         id="rect37" />
    </clipPath>
    <g
       id="surface11"
       clip-path="url(#clip3)">
      <path
         style="fill:rgb(0%,0%,0%)"
         d="M 297.519531 280.65625 C 311.015625 299.261719 313.933594 312.863281 318.503906 311.558594 C 322.078125 310.542969 320.359375 307.484375 329.800781 305.328125 C 338.867188 303.257812 348.132812 310.699219 350.054688 319.679688 C 352.621094 328.480469 348.464844 339.546875 339.167969 342.277344 C 329.972656 345.605469 319.007812 340.195312 315.734375 331.03125 C 310.992188 320.558594 308.558594 306.726562 293.234375 294.855469 L 281.46875 285.742188 L 240.757812 228.265625 C 236.207031 220.835938 233.472656 210.949219 239.375 201.539062 Z M 341.195312 315.347656 C 333.355469 307.527344 319.484375 312.296875 319.507812 322.738281 C 318.953125 332.34375 330.628906 341.09375 339.308594 335.609375 C 346.617188 331.765625 346.566406 320.703125 341.195312 315.347656 Z M 341.195312 315.347656"
         id="path40" />
    </g>
  </defs>
  <g
     id="g859"
     transform="matrix(1.0658579,0,0,1.0658579,-12.644717,-12.644717)">
    <g
       id="g849"
       transform="matrix(7.6672401,0,0,7.6672401,8.1850033,4.8086766)">
      <rect
         height="36.342266"
         ry="2.590095"
         width="44"
         x="1.9481519"
         y="6.6577339"
         id="rect7-5"
         style="opacity:0.98799995;fill:#777777;fill-opacity:0.99607843;stroke-width:1.29504704" />
      <rect
         height="36.342266"
         ry="2.590095"
         width="44"
         x="2"
         y="5.828867"
         id="rect7"
         style="opacity:0.98799995;fill:#cbcbcb;fill-opacity:1;stroke-width:1.29504704" />
      <g
         transform="matrix(0.91666667,0,0,0.91666667,1.96425,1.959715)"
         id="g21"
         style="fill:#ffffff">
        <g
           transform="matrix(1.0015158,0,0,1.0015158,-292.11673,-499.3199)"
           id="g17">
          <path
             d="m 294.90044,506.26511 v 1 4 h 1 v -4 h 4 v -1 z"
             id="path9"
             style="opacity:0.75;fill:#000000;fill-opacity:1"
             inkscape:connector-curvature="0" />
          <path
             d="m 294.90044,538.56511 h 1 4 v -1 h -4 v -4 h -1 z"
             id="path11"
             style="opacity:0.75;fill:#000000;fill-opacity:1"
             inkscape:connector-curvature="0" />
          <path
             d="m 336.2007,538.06511 v -1 -4 h -1 v 4 h -4 v 1 z"
             id="path13"
             style="opacity:0.75;fill:#000000;fill-opacity:1"
             inkscape:connector-curvature="0" />
          <path
             d="m 336.3007,506.56472 h -1 -4 v 1 h 4 v 4 h 1 z"
             id="path15"
             style="opacity:0.75;fill:#000000;fill-opacity:1"
             inkscape:connector-curvature="0" />
        </g>
        <path
           d="m 401.93651,543.63887 c -0.42228,-0.4126 -0.93162,-0.61895 -1.52845,-0.61895 h -1.89163 l -0.43056,-1.12246 c -0.10697,-0.26957 -0.30255,-0.50207 -0.58698,-0.69748 -0.28431,-0.19533 -0.57567,-0.29308 -0.87408,-0.29308 H 392.301 c -0.29841,0 -0.58978,0.0978 -0.8741,0.29308 -0.2843,0.19541 -0.4799,0.42791 -0.58687,0.69748 l -0.43067,1.12246 h -1.89163 c -0.59683,0 -1.10627,0.20635 -1.52854,0.61895 -0.42217,0.41272 -0.63331,0.91063 -0.63331,1.49394 v 7.39521 c 0,0.58331 0.21114,1.08133 0.63331,1.49383 0.42227,0.41272 0.93171,0.61907 1.52854,0.61907 h 11.89024 c 0.59681,0 1.10616,-0.20635 1.52844,-0.61907 0.42216,-0.4125 0.63331,-0.91052 0.63331,-1.49383 v -7.39521 c 7e-5,-0.58331 -0.21104,-1.08122 -0.63321,-1.49394 z m -4.80092,7.80387 c -0.74027,0.72362 -1.63116,1.08538 -2.67274,1.08538 -1.04159,0 -1.93237,-0.36176 -2.67275,-1.08538 -0.74039,-0.72352 -1.11051,-1.59431 -1.11051,-2.61222 0,-1.018 0.37023,-1.88862 1.11051,-2.61223 0.74027,-0.72362 1.63116,-1.08538 2.67275,-1.08538 1.04158,0 1.93237,0.36186 2.67274,1.08538 0.74038,0.72351 1.11053,1.59423 1.11053,2.61223 0,1.01791 -0.37025,1.8886 -1.11053,2.61222 z m -2.67274,-4.98933 c -0.67,0 -1.24278,0.23249 -1.71854,0.69749 -0.47576,0.46498 -0.71363,1.02478 -0.71363,1.67962 0,0.65482 0.23787,1.21463 0.71363,1.67961 0.47576,0.46489 1.04854,0.69739 1.71854,0.69739 0.66989,0 1.24278,-0.2325 1.71854,-0.69739 0.47575,-0.46498 0.71363,-1.02479 0.71363,-1.67961 0,-0.65484 -0.23788,-1.21464 -0.71363,-1.67962 -0.47576,-0.465 -1.04865,-0.69749 -1.71854,-0.69749 z"
           transform="matrix(1.2989443,0,0,1.2949407,-488.6671,-685.93328)"
           id="path19"
           style="opacity:0.75;fill:#000000;fill-opacity:1"
           inkscape:connector-curvature="0" />
      </g>
    </g>
    <path
       id="path20"
       d="m 37.312498,50.24475 c -7.79063,0 -14.0625,6.271875 -14.0625,14.0625 v 9.375 c 0,-7.790625 6.27187,-14.0625 14.0625,-14.0625 H 346.6875 c 7.79062,0 14.0625,6.271875 14.0625,14.0625 v -9.375 c 0,-7.790625 -6.27188,-14.0625 -14.0625,-14.0625 z"
       style="opacity:0.15;fill:#ffffff;fill-opacity:1;stroke-width:9.375"
       inkscape:connector-curvature="0" />
  </g>
</svg>
