<?xml version="1.0" encoding="UTF-8" standalone="no"?>
<svg
   xmlns:dc="http://purl.org/dc/elements/1.1/"
   xmlns:cc="http://creativecommons.org/ns#"
   xmlns:rdf="http://www.w3.org/1999/02/22-rdf-syntax-ns#"
   xmlns:svg="http://www.w3.org/2000/svg"
   xmlns="http://www.w3.org/2000/svg"
   xmlns:sodipodi="http://sodipodi.sourceforge.net/DTD/sodipodi-0.dtd"
   xmlns:inkscape="http://www.inkscape.org/namespaces/inkscape"
   width="512"
   height="512"
   version="1"
   id="svg16"
   sodipodi:docname="goa-account-flickr.svg"
   inkscape:version="0.92.2 2405546, 2018-03-11">
  <metadata
     id="metadata22">
    <rdf:RDF>
      <cc:Work
         rdf:about="">
        <dc:format>image/svg+xml</dc:format>
        <dc:type
           rdf:resource="http://purl.org/dc/dcmitype/StillImage" />
        <dc:title />
      </cc:Work>
    </rdf:RDF>
  </metadata>
  <defs
     id="defs20" />
  <sodipodi:namedview
     pagecolor="#ffffff"
     bordercolor="#666666"
     borderopacity="1"
     objecttolerance="10"
     gridtolerance="10"
     guidetolerance="10"
     inkscape:pageopacity="0"
     inkscape:pageshadow="2"
     inkscape:window-width="1366"
     inkscape:window-height="695"
     id="namedview18"
     showgrid="false"
     inkscape:zoom="0.86915209"
     inkscape:cx="552.14411"
     inkscape:cy="304.949"
     inkscape:window-x="0"
     inkscape:window-y="0"
     inkscape:window-maximized="1"
     inkscape:current-layer="svg16" />
  <g
     id="g836"
     transform="matrix(11.25,0,0,11.25,-14,-19.625)">
    <rect
       id="rect2"
       style="opacity:0.2;fill:none"
       transform="matrix(0,-1,-1,0,0,0)"
       ry="12"
       rx="12"
       y="-44"
       x="-45"
       height="40"
       width="40" />
    <rect
       id="rect4"
       transform="matrix(0,-1,-1,0,0,0)"
       ry="12"
       rx="12"
       y="-44"
       x="-44"
       height="40"
       width="40"
       style="fill:none" />
    <circle
       id="circle6"
       r="7"
       cy="25"
       cx="16"
       style="opacity:0.1" />
    <circle
       id="circle8"
       r="7"
       cy="24"
       cx="16"
       style="fill:#296ec6" />
    <circle
       id="circle10"
       r="7"
       cy="25"
       cx="32"
       style="opacity:0.1" />
    <circle
       id="circle12"
       r="7"
       cy="24"
       cx="32"
       style="fill:#e03c90" />
    <path
       id="path14"
       d="M 16,4 C 9.352,4 4,9.352 4,16 v 1 C 4,10.352 9.352,5 16,5 h 16 c 6.648,0 12,5.352 12,12 V 16 C 44,9.352 38.648,4 32,4 Z"
       style="opacity:0.2;fill:none"
       inkscape:connector-curvature="0" />
  </g>
</svg>
