<?xml version="1.0" encoding="UTF-8" standalone="no"?>
<svg
   xmlns:dc="http://purl.org/dc/elements/1.1/"
   xmlns:cc="http://creativecommons.org/ns#"
   xmlns:rdf="http://www.w3.org/1999/02/22-rdf-syntax-ns#"
   xmlns:svg="http://www.w3.org/2000/svg"
   xmlns="http://www.w3.org/2000/svg"
   xmlns:sodipodi="http://sodipodi.sourceforge.net/DTD/sodipodi-0.dtd"
   xmlns:inkscape="http://www.inkscape.org/namespaces/inkscape"
   width="384pt"
   height="384pt"
   version="1.1"
   viewBox="0 0 384 384"
   id="svg20"
   sodipodi:docname="google-chrome.svg"
   inkscape:version="0.92.2 2405546, 2018-03-11">
  <metadata
     id="metadata26">
    <rdf:RDF>
      <cc:Work
         rdf:about="">
        <dc:format>image/svg+xml</dc:format>
        <dc:type
           rdf:resource="http://purl.org/dc/dcmitype/StillImage" />
      </cc:Work>
    </rdf:RDF>
  </metadata>
  <defs
     id="defs24" />
  <sodipodi:namedview
     pagecolor="#ffffff"
     bordercolor="#666666"
     borderopacity="1"
     objecttolerance="10"
     gridtolerance="10"
     guidetolerance="10"
     inkscape:pageopacity="0"
     inkscape:pageshadow="2"
     inkscape:window-width="811"
     inkscape:window-height="480"
     id="namedview22"
     showgrid="false"
     inkscape:zoom="0.4609375"
     inkscape:cx="256"
     inkscape:cy="256"
     inkscape:window-x="561"
     inkscape:window-y="19"
     inkscape:window-maximized="0"
     inkscape:current-layer="svg20" />
  <g
     id="g1616">
    <g
       id="g8">
      <path
         id="path2"
         style="fill:#ffc730"
         d="m 341.53906,113.75391 c -236.35937,188.83203 -118.17969,94.41406 0,0 z m 0,0 -136.62109,0.0547 46.32812,130.70703 -67.7539,116.02344 c 2.8164,0.13672 5.65625,0.21094 8.50781,0.21094 93.19922,0 168.75,-75.55078 168.75,-168.75 0,-28.24219 -6.94922,-54.85547 -19.21094,-78.24609 z" />
      <path
         id="path4"
         style="fill:#e83f3f;fill-opacity:1"
         d="m 192,23.25 c -60.66797,0 -113.851562,32.023438 -143.59375,80.08203 L 116.44542,214.79514 192,112.75391 c 4.10937,0.0352 8.21094,0.38672 12.26172,1.05468 l 137.27734,-0.0547 C 313.33203,59.957031 256.95703,23.25 192,23.25 Z M 48.386719,103.36328 c -40.925781,195.75781 -20.460938,97.87891 0,0 z" />
      <path
         id="path6"
         style="fill:#0ca15e"
         d="M 48.40625,103.33203 C 32.460938,129.09766 23.25,159.47266 23.25,192 c 0,90.34375 70.996094,164.10547 160.24219,168.53906 l 67.7539,-116.02344 C 236.22656,261.48828 214.66406,271.21875 192,271.24609 l -75.55458,-56.45095 z" />
    </g>
    <path
       id="path10"
       style="fill-opacity:1;opacity:0.05;fill:#000000"
       d="M 341.55415,113.71483 230.072,149.55823 201.35217,113.79676 Z" />
    <path
       id="path12"
       style="fill-opacity:1;opacity:0.05;fill:#000000"
       d="m 183.48828,360.55469 25.32008,-114.33246 45.36749,-6.74548 z" />
    <path
       id="path14"
       style="fill-opacity:1;opacity:0.05;fill:#000000"
       d="M 48.277344,103.33594 136.9627,179.80768 121.40623,222.9552 Z" />
    <path
       id="path16"
       d="m 271.24609,192 c 0,43.76562 -35.48047,79.24609 -79.24609,79.24609 -43.76563,0 -79.24609,-35.48047 -79.24609,-79.24609 0,-43.76563 35.48046,-79.24609 79.24609,-79.24609 43.76562,0 79.24609,35.48046 79.24609,79.24609 z m 0,0"
       style="fill:#ffffff" />
    <path
       id="path18"
       d="m 257.39062,192 c 0,36.11328 -29.27734,65.39062 -65.39062,65.39062 -36.11328,0 -65.39062,-29.27734 -65.39062,-65.39062 0,-36.11328 29.27734,-65.39062 65.39062,-65.39062 36.11328,0 65.39062,29.27734 65.39062,65.39062 z m 0,0"
       style="fill:#4685f1;fill-opacity:1" />
  </g>
</svg>
