<?xml version="1.0" encoding="UTF-8" standalone="no"?>
<svg
   xmlns:dc="http://purl.org/dc/elements/1.1/"
   xmlns:cc="http://creativecommons.org/ns#"
   xmlns:rdf="http://www.w3.org/1999/02/22-rdf-syntax-ns#"
   xmlns:svg="http://www.w3.org/2000/svg"
   xmlns="http://www.w3.org/2000/svg"
   xmlns:sodipodi="http://sodipodi.sourceforge.net/DTD/sodipodi-0.dtd"
   xmlns:inkscape="http://www.inkscape.org/namespaces/inkscape"
   width="512"
   height="512"
   version="1"
   id="svg16"
   sodipodi:docname="input-mouse.svg"
   inkscape:version="0.92.2 2405546, 2018-03-11">
  <metadata
     id="metadata22">
    <rdf:RDF>
      <cc:Work
         rdf:about="">
        <dc:format>image/svg+xml</dc:format>
        <dc:type
           rdf:resource="http://purl.org/dc/dcmitype/StillImage" />
        <dc:title></dc:title>
      </cc:Work>
    </rdf:RDF>
  </metadata>
  <defs
     id="defs20" />
  <sodipodi:namedview
     pagecolor="#ffffff"
     bordercolor="#666666"
     borderopacity="1"
     objecttolerance="10"
     gridtolerance="10"
     guidetolerance="10"
     inkscape:pageopacity="0"
     inkscape:pageshadow="2"
     inkscape:window-width="1366"
     inkscape:window-height="695"
     id="namedview18"
     showgrid="false"
     inkscape:zoom="0.61458333"
     inkscape:cx="-3.1543312"
     inkscape:cy="262.62364"
     inkscape:window-x="0"
     inkscape:window-y="0"
     inkscape:window-maximized="1"
     inkscape:current-layer="svg16" />
  <g
     id="g825"
     transform="matrix(10.97561,0,0,10.97561,-7.41464,-12.902447)">
    <path
       id="path2"
       d="m 24,5.0000007 c -0.01733,0 -0.03611,0.00286 -0.05344,0.00286 h -0.0058 C 17.461,5.0428578 11,11.684287 11,16.668572 V 33.147143 C 11,39.92 15.875,45 24,45 32.124999,45.0014 36.999999,39.922857 36.999999,33.15 V 17.122858 c 0,-5.18 -6.491333,-12.0757144 -12.999999,-12.117143 z"
       style="opacity:0.2"
       inkscape:connector-curvature="0" />
    <path
       id="path4"
       d="m 24,4 c -0.01733,0 -0.03611,0.00286 -0.05344,0.00286 h -0.0058 C 17.461,4.0428571 11,10.684286 11,15.668571 v 16.478571 c 0,6.772857 4.875,11.852857 13,11.852857 8.124999,0.0014 12.999999,-5.077143 12.999999,-11.85 V 16.122857 c 0,-5.18 -6.491333,-12.0757141 -12.999999,-12.1171427 z"
       style="fill:#dddddd;fill-opacity:1"
       inkscape:connector-curvature="0" />
    <path
       id="path6"
       d="m 24,4 c -0.01733,0 -0.0354,0.00195 -0.05273,0.00195 h -0.0059 C 17.461646,4.0419502 11,10.683684 11,15.667969 V 24 h 26 v -7.876953 c 0,-5.18 -6.491334,-12.075759 -13,-12.1171876 z"
       style="opacity:0.1"
       inkscape:connector-curvature="0" />
    <path
       id="path8"
       d="m 24,4 c -0.01733,0 -0.0354,0.00195 -0.05273,0.00195 h -0.0059 C 17.461646,4.0419502 11,10.683684 11,15.667969 V 24 h 13 c 0,0 0,-20 0,-19.9941406 z"
       style="opacity:0.1"
       inkscape:connector-curvature="0" />
    <path
       id="path10"
       d="m 24,11.000499 c 1.102,0 2,0.960066 2,2.142977 v 5.714715 C 26,20.039936 25.102,21 24,21 22.898,21 22,20.039936 22,18.856524 V 13.141809 C 22,11.960064 22.898,11 24,11"
       style="opacity:0.2"
       inkscape:connector-curvature="0" />
    <path
       id="path12"
       d="m 24,10.000499 c 1.102,0 2,0.960066 2,2.142977 v 5.714715 C 26,19.039936 25.102,20 24,20 22.898,20 22,19.039936 22,17.856524 V 12.141809 C 22,10.960064 22.898,10 24,10"
       style="fill:#e4e4e4"
       inkscape:connector-curvature="0" />
    <path
       id="path14"
       d="m 24,4 c -0.01733,0 -0.0354,0.00195 -0.05273,0.00195 h -0.0059 C 17.461646,4.0419502 11,10.683684 11,15.667969 v 1 C 11,11.683684 17.461646,5.0419502 23.941406,5.0019531 h 0.0059 C 23.964596,5.0019531 23.98267,5 24,5 v 0.00586 c 6.508666,0.041429 13,6.937188 13,12.117188 v -1 C 37,10.943048 30.508666,4.0472886 24,4.00586 Z"
       style="opacity:0.1;fill:#ffffff"
       inkscape:connector-curvature="0" />
  </g>
</svg>
