<?xml version="1.0" encoding="UTF-8" standalone="no"?>
<svg
   xmlns:dc="http://purl.org/dc/elements/1.1/"
   xmlns:cc="http://creativecommons.org/ns#"
   xmlns:rdf="http://www.w3.org/1999/02/22-rdf-syntax-ns#"
   xmlns:svg="http://www.w3.org/2000/svg"
   xmlns="http://www.w3.org/2000/svg"
   xmlns:xlink="http://www.w3.org/1999/xlink"
   xmlns:sodipodi="http://sodipodi.sourceforge.net/DTD/sodipodi-0.dtd"
   xmlns:inkscape="http://www.inkscape.org/namespaces/inkscape"
   width="512"
   height="512"
   version="1"
   id="svg20"
   sodipodi:docname="launcher.svg"
   inkscape:version="0.92.2 2405546, 2018-03-11">
  <metadata
     id="metadata26">
    <rdf:RDF>
      <cc:Work
         rdf:about="">
        <dc:format>image/svg+xml</dc:format>
        <dc:type
           rdf:resource="http://purl.org/dc/dcmitype/StillImage" />
        <dc:title />
      </cc:Work>
    </rdf:RDF>
  </metadata>
  <defs
     id="defs24">
    <linearGradient
       id="coso"
       inkscape:collect="always">
      <stop
         id="stop4602"
         offset="0"
         style="stop-color:#8508b9;stop-opacity:1" />
      <stop
         id="stop4604"
         offset="1"
         style="stop-color:#ea0028;stop-opacity:1" />
    </linearGradient>
    <linearGradient
       inkscape:collect="always"
       xlink:href="#coso"
       id="linearGradient4600"
       x1="-60"
       y1="-60"
       x2="-4"
       y2="-4"
       gradientUnits="userSpaceOnUse"
       gradientTransform="translate(-448)" />
  </defs>
  <sodipodi:namedview
     pagecolor="#ffffff"
     bordercolor="#666666"
     borderopacity="1"
     objecttolerance="10"
     gridtolerance="10"
     guidetolerance="10"
     inkscape:pageopacity="0"
     inkscape:pageshadow="2"
     inkscape:window-width="1366"
     inkscape:window-height="690"
     id="namedview22"
     showgrid="false"
     inkscape:zoom="0.25195313"
     inkscape:cx="-462.82588"
     inkscape:cy="87.032323"
     inkscape:window-x="0"
     inkscape:window-y="0"
     inkscape:window-maximized="1"
     inkscape:current-layer="svg20"
     showguides="false" />
  <g
     id="g852"
     transform="matrix(7.7586207,0,0,7.7586207,7.7241376,-3468.1379)">
    <rect
       id="rect2"
       transform="matrix(0,-1,-1,0,0,0)"
       ry="28"
       rx="28"
       y="-60"
       x="-508"
       height="56"
       width="56"
       style="fill:url(#linearGradient4600);fill-opacity:1;stroke:#ffffff;stroke-width:2;stroke-miterlimit:4;stroke-dasharray:none;stroke-opacity:1" />
    <path
       inkscape:connector-curvature="0"
       id="path4"
       d="m 32,452 c -15.511557,0 -28,12.488 -28,28 0,0.11356 0.011285,0.22403 0.017578,0.33594 C 4.3691112,465.13418 16.711164,453 32,453 47.288835,453 59.630889,465.13418 59.982422,480.33594 59.988693,480.22411 60,480.11345 60,480 60,464.488 47.511556,452 32,452 Z"
       style="opacity:0;fill:#ffffff" />
    <g
       id="g10"
       transform="matrix(1.33256,0,0,1.33256,15.9998,465.00011)"
       style="opacity:0.2">
      <g
         id="g8">
        <path
           inkscape:connector-curvature="0"
           id="path6"
           d="m 24.013,0.001 c 0,0 -3.601,-0.101 -7.2,1.7 -1.1,0.5 -2.3,1.3 -3.3,2.3 -1.617,1.617 -4.129,4.594 -6.107,7 H 3.013 l -2,3 3.392,0.917 c 0.01,0.121 0.042,0.292 0.136,0.523 L 4.014,16.6 c 0,0 -0.2,0.4 1.3,2 1.6,1.601 2.1,1.4 2.1,1.4 l 1.243,-0.564 c 0.186,0.058 0.324,0.078 0.414,0.078 l 0.943,3.486 3,-2 v -4.527 c 2.423,-1.959 5.396,-4.421 7,-5.973 1,-1 1.8,-2.2 2.399,-3.3 1.699,-3.599 1.6,-7.199 1.6,-7.199 z m -7,9 c -1.101,0 -2,-0.9 -2,-2 0,-1.101 0.899,-2 2,-2 1.1,0 2,0.899 2,2 0,1.1 -0.901,2 -2,2 z m -10.5,12 c 0.2,0.101 0.3,0.2 0.5,0.3 -0.2,0.2 -0.4,0.5 -0.601,0.7 -2.301,2.3 -6.399,2 -6.399,2 0,0 -0.3,-4.101 2,-6.399 0.2,-0.201 0.5,-0.399 0.7,-0.601 0.1,0.2 0.199,0.3 0.3,0.5 -1.5,1.899 -1.3,4.8 -1.3,4.8 0,0 2.899,0.2 4.8,-1.3 z" />
      </g>
    </g>
    <g
       id="g16"
       transform="matrix(1.33256,0,0,1.33256,15.9998,464)"
       style="fill:#ffffff">
      <g
         id="g14">
        <path
           inkscape:connector-curvature="0"
           id="path12"
           d="m 24.013,0.001 c 0,0 -3.601,-0.101 -7.2,1.7 -1.1,0.5 -2.3,1.3 -3.3,2.3 -1.617,1.617 -4.129,4.594 -6.107,7 H 3.013 l -2,3 3.392,0.917 c 0.01,0.121 0.042,0.292 0.136,0.523 L 4.014,16.6 c 0,0 -0.2,0.4 1.3,2 1.6,1.601 2.1,1.4 2.1,1.4 l 1.243,-0.564 c 0.186,0.058 0.324,0.078 0.414,0.078 l 0.943,3.486 3,-2 v -4.527 c 2.423,-1.959 5.396,-4.421 7,-5.973 1,-1 1.8,-2.2 2.399,-3.3 1.699,-3.599 1.6,-7.199 1.6,-7.199 z m -7,9 c -1.101,0 -2,-0.9 -2,-2 0,-1.101 0.899,-2 2,-2 1.1,0 2,0.899 2,2 0,1.1 -0.901,2 -2,2 z m -10.5,12 c 0.2,0.101 0.3,0.2 0.5,0.3 -0.2,0.2 -0.4,0.5 -0.601,0.7 -2.301,2.3 -6.399,2 -6.399,2 0,0 -0.3,-4.101 2,-6.399 0.2,-0.201 0.5,-0.399 0.7,-0.601 0.1,0.2 0.199,0.3 0.3,0.5 -1.5,1.899 -1.3,4.8 -1.3,4.8 0,0 2.899,0.2 4.8,-1.3 z" />
      </g>
    </g>
    <path
       inkscape:connector-curvature="0"
       id="path18"
       d="M 59.982422,480.66406 C 59.630879,495.86582 47.289272,508 32,508 16.712037,508 4.3711461,495.8679 4.0175781,480.66797 4.0114012,480.77859 4,480.88776 4,481 c 0,15.512 12.488,28 28,28 15.512,0 28,-12.488 28,-28 0,-0.11345 -0.01128,-0.22411 -0.01758,-0.33594 z"
       style="opacity:0.2" />
  </g>
</svg>
