<?xml version="1.0" encoding="UTF-8" standalone="no"?>
<svg
   xmlns:dc="http://purl.org/dc/elements/1.1/"
   xmlns:cc="http://creativecommons.org/ns#"
   xmlns:rdf="http://www.w3.org/1999/02/22-rdf-syntax-ns#"
   xmlns:svg="http://www.w3.org/2000/svg"
   xmlns="http://www.w3.org/2000/svg"
   xmlns:sodipodi="http://sodipodi.sourceforge.net/DTD/sodipodi-0.dtd"
   xmlns:inkscape="http://www.inkscape.org/namespaces/inkscape"
   width="384pt"
   height="384pt"
   version="1.1"
   viewBox="0 0 384 384"
   id="svg62"
   sodipodi:docname="lollypop.svg"
   inkscape:version="0.92.2 2405546, 2018-03-11">
  <metadata
     id="metadata66">
    <rdf:RDF>
      <cc:Work
         rdf:about="">
        <dc:format>image/svg+xml</dc:format>
        <dc:type
           rdf:resource="http://purl.org/dc/dcmitype/StillImage" />
      </cc:Work>
    </rdf:RDF>
  </metadata>
  <sodipodi:namedview
     pagecolor="#ffffff"
     bordercolor="#666666"
     borderopacity="1"
     objecttolerance="10"
     gridtolerance="10"
     guidetolerance="10"
     inkscape:pageopacity="0"
     inkscape:pageshadow="2"
     inkscape:window-width="1366"
     inkscape:window-height="690"
     id="namedview64"
     showgrid="false"
     inkscape:zoom="0.48222578"
     inkscape:cx="73.524597"
     inkscape:cy="350.00281"
     inkscape:window-x="0"
     inkscape:window-y="0"
     inkscape:window-maximized="1"
     inkscape:current-layer="svg62" />
  <defs
     id="defs38">
    <filter
       id="alpha"
       width="100%"
       height="100%"
       x="0%"
       y="0%"
       filterUnits="objectBoundingBox">
      <feColorMatrix
         in="SourceGraphic"
         type="matrix"
         values="0 0 0 0 1 0 0 0 0 1 0 0 0 0 1 0 0 0 1 0"
         id="feColorMatrix2" />
    </filter>
    <mask
       id="mask0">
      <g
         filter="url(#alpha)"
         id="g7">
        <rect
           width="384"
           height="384"
           x="0"
           y="0"
           style="fill:rgb(0%,0%,0%);fill-opacity:0.301961"
           id="rect5" />
      </g>
    </mask>
    <clipPath
       id="clip1">
      <rect
         width="384"
         height="384"
         x="0"
         y="0"
         id="rect10" />
    </clipPath>
    <g
       id="surface5"
       clip-path="url(#clip1)">
      <path
         style="fill:rgb(0%,0%,0%)"
         d="M 276.367188 199.496094 C 276.367188 246.09375 238.59375 283.871094 191.996094 283.871094 C 145.394531 283.871094 107.621094 246.09375 107.621094 199.496094 C 107.621094 152.898438 145.394531 115.121094 191.996094 115.121094 C 238.59375 115.121094 276.367188 152.898438 276.367188 199.496094 Z M 276.367188 199.496094"
         id="path13" />
    </g>
    <mask
       id="mask1">
      <g
         filter="url(#alpha)"
         id="g18">
        <rect
           width="384"
           height="384"
           x="0"
           y="0"
           style="fill:rgb(0%,0%,0%);fill-opacity:0.301961"
           id="rect16" />
      </g>
    </mask>
    <clipPath
       id="clip2">
      <rect
         width="384"
         height="384"
         x="0"
         y="0"
         id="rect21" />
    </clipPath>
    <g
       id="surface8"
       clip-path="url(#clip2)">
      <path
         style="fill:rgb(100%,100%,100%)"
         d="M 191.996094 23.25 C 98.800781 23.25 23.25 98.800781 23.25 191.996094 C 23.28125 193.460938 23.332031 194.921875 23.40625 196.386719 C 25.097656 104.464844 100.0625 30.816406 191.996094 30.75 C 283.441406 30.800781 358.207031 103.6875 360.585938 195.105469 C 360.648438 194.070312 360.699219 193.03125 360.742188 191.996094 C 360.742188 98.800781 285.191406 23.25 191.996094 23.25 Z M 191.996094 23.25"
         id="path24" />
    </g>
    <mask
       id="mask2">
      <g
         filter="url(#alpha)"
         id="g29">
        <rect
           width="384"
           height="384"
           x="0"
           y="0"
           style="fill:rgb(0%,0%,0%);fill-opacity:0.301961"
           id="rect27" />
      </g>
    </mask>
    <clipPath
       id="clip3">
      <rect
         width="384"
         height="384"
         x="0"
         y="0"
         id="rect32" />
    </clipPath>
    <g
       id="surface11"
       clip-path="url(#clip3)">
      <path
         style="fill:rgb(0%,0%,0%)"
         d="M 360.585938 187.605469 C 358.890625 279.523438 283.929688 353.171875 191.996094 353.242188 C 100.546875 353.1875 25.785156 280.300781 23.40625 188.886719 C 23.34375 189.921875 23.292969 190.957031 23.25 191.996094 C 23.25 285.191406 98.800781 360.742188 191.996094 360.742188 C 285.191406 360.742188 360.742188 285.191406 360.742188 191.996094 C 360.707031 190.53125 360.65625 189.066406 360.585938 187.605469 Z M 360.585938 187.605469"
         id="path35" />
    </g>
  </defs>
  <g
     id="g852"
     transform="matrix(0.93750014,0,0,0.93750014,11.999973,8.9540351)">
    <path
       d="M 371.99997,198.58583 A 179.99998,179.91217 0 0 1 192.00001,378.498 179.99998,179.91217 0 0 1 12.000032,198.58583 179.99998,179.91217 0 0 1 192.00001,18.673658 179.99998,179.91217 0 0 1 371.99997,198.58583 Z"
       id="path14-6"
       style="fill:#000000;fill-opacity:0.33208954;stroke-width:1.86357284"
       inkscape:connector-curvature="0" />
    <g
       id="g833"
       transform="matrix(8.181818,0,0,8.181818,-4.3635969,-4.363695)">
      <g
         transform="matrix(0.22782561,0,0,0.22771447,-59.065216,-117.82753)"
         id="g28"
         style="fill:#ffffff;fill-opacity:0.85483901">
        <g
           id="g20"
           style="fill-opacity:1">
          <path
             d="m 461.16505,622.82306 a 96.565079,96.565079 0 0 1 -96.56507,96.56508 96.565079,96.565079 0 0 1 -96.56508,-96.56508 96.565079,96.565079 0 0 1 96.56508,-96.56508 96.565079,96.565079 0 0 1 96.56507,96.56508 z"
             id="path14"
             style="fill:#f0f0f0;fill-opacity:1"
             inkscape:connector-curvature="0" />
          <path
             d="m 364.61336,526.22676 c -9.50753,0 -18.68765,1.39881 -27.36826,3.96119 -6.23761,13.27397 -5.98996,36.12536 -2.9425,46.82854 2.97609,10.46795 7.17786,20.51585 11.50138,30.44613 -7.44652,-1.78947 -14.53205,-4.28044 -21.07187,-7.96439 -11.44683,-6.61599 -27.69148,-25.63639 -32.05698,-41.0947 -11.24533,12.55986 -19.25852,28.07697 -22.71733,45.24492 7.79072,10.60237 25.69762,20.82248 38.91163,24.12837 10.64507,2.66321 21.41608,3.80997 32.11991,4.73411 -4.94474,5.10796 -10.32185,9.66143 -16.47132,13.29917 -11.4594,6.63698 -36.10343,11.20727 -51.65969,7.22927 5.26377,16.01277 14.67564,30.21711 26.85284,41.30675 14.73354,-1.16778 33.80647,-12.6249 41.31596,-20.67329 7.53047,-8.05259 14.02413,-17.04192 20.35828,-26.08167 1.91411,7.09485 3.144,14.21491 3.20697,21.44418 0,13.33278 -7.93764,37.19653 -18.55333,48.60121 6.00674,1.17198 12.20237,1.80626 18.55333,1.80626 10.01543,0 19.66989,-1.51641 28.75346,-4.34763 5.2176,-11.95078 5.16303,-33.10931 1.59088,-46.41689 -2.90053,-10.8292 -7.1401,-20.98211 -11.52656,-30.96278 7.45911,1.75165 14.6034,4.24262 21.29015,8.01478 11.48459,6.62017 27.78801,25.73721 32.09473,41.22072 10.89275,-12.27843 18.7558,-27.35447 22.28177,-44.01834 -8.43715,-12.12719 -27.83517,-22.94801 -38.52221,-25.45577 -10.64929,-2.47837 -21.5924,-3.62094 -32.49773,-4.58708 5.00354,-5.14577 10.38065,-9.69924 16.43775,-13.27397 11.472,-6.62858 36.23972,-11.12028 51.79177,-7.12549 -5.31794,-16.34958 -15.207,-31.1632 -28.14999,-42.37885 -14.70032,3.16768 -30.27277,11.68248 -40.1547,21.62481 -7.69837,7.96857 -14.12906,16.80248 -20.33309,25.71201 -1.80917,-6.80501 -2.9719,-13.69825 -3.04326,-20.8057 -0.0126,-13.33277 7.92085,-37.1965 18.53654,-48.6012 -6.00675,-1.17197 -12.20238,-1.80626 -18.55334,-1.80626 v -0.0168 z"
             id="path16"
             style="fill:#ee526c;fill-opacity:1"
             inkscape:connector-curvature="0" />
          <path
             d="m 419.49796,622.61694 a 54.897981,54.897981 3.6261016e-8 0 1 -54.89798,54.89799 54.897981,54.897981 3.6261016e-8 0 1 -54.89798,-54.89799 54.897981,54.897981 3.6261016e-8 0 1 54.89798,-54.89798 54.897981,54.897981 3.6261016e-8 0 1 54.89798,54.89798 z"
             id="path18"
             style="fill:#f0f0f0;fill-opacity:1;stroke-width:0.85276145"
             inkscape:connector-curvature="0" />
        </g>
        <path
           d="m 388.54091,626.18449 -41.12465,25.87944 c -1.61344,1.00589 -2.93719,0.14083 -2.93719,-2.37791 v -50.70069 c 0,-2.88086 1.28754,-3.36771 2.93719,-2.37791 l 41.12465,25.87944 c 1.83072,1.15475 1.75427,2.58714 0,3.69763 z"
           id="path24-3"
           inkscape:connector-curvature="0"
           style="fill:#ee526c;fill-opacity:1" />
        <path
           d="m 457.30247,622.82306 a 92.702469,92.702469 0 0 1 -92.70246,92.70247 92.702469,92.702469 0 0 1 -92.70247,-92.70247 92.702469,92.702469 0 0 1 92.70247,-92.70247 92.702469,92.702469 0 0 1 92.70246,92.70247 z"
           id="path26"
           style="fill:none;stroke:none;stroke-width:7.72520494;stroke-linecap:round;stroke-linejoin:round;stroke-opacity:1"
           inkscape:connector-curvature="0" />
      </g>
    </g>
  </g>
</svg>
