<?xml version="1.0" encoding="UTF-8" standalone="no"?>
<svg
   xmlns:dc="http://purl.org/dc/elements/1.1/"
   xmlns:cc="http://creativecommons.org/ns#"
   xmlns:rdf="http://www.w3.org/1999/02/22-rdf-syntax-ns#"
   xmlns:svg="http://www.w3.org/2000/svg"
   xmlns="http://www.w3.org/2000/svg"
   xmlns:sodipodi="http://sodipodi.sourceforge.net/DTD/sodipodi-0.dtd"
   xmlns:inkscape="http://www.inkscape.org/namespaces/inkscape"
   width="384pt"
   height="384pt"
   version="1.1"
   viewBox="0 0 384 384"
   id="svg8"
   sodipodi:docname="preferences-system-sharing.svg"
   inkscape:version="0.92.2 2405546, 2018-03-11">
  <metadata
     id="metadata14">
    <rdf:RDF>
      <cc:Work
         rdf:about="">
        <dc:format>image/svg+xml</dc:format>
        <dc:type
           rdf:resource="http://purl.org/dc/dcmitype/StillImage" />
      </cc:Work>
    </rdf:RDF>
  </metadata>
  <defs
     id="defs12" />
  <sodipodi:namedview
     pagecolor="#ffffff"
     bordercolor="#666666"
     borderopacity="1"
     objecttolerance="10"
     gridtolerance="10"
     guidetolerance="10"
     inkscape:pageopacity="0"
     inkscape:pageshadow="2"
     inkscape:window-width="1366"
     inkscape:window-height="690"
     id="namedview10"
     showgrid="false"
     inkscape:zoom="0.43822708"
     inkscape:cx="214.79628"
     inkscape:cy="303.3036"
     inkscape:window-x="0"
     inkscape:window-y="0"
     inkscape:window-maximized="1"
     inkscape:current-layer="svg8" />
  <g
     style="stroke-width:1.31742203"
     transform="matrix(7.3734016,0,0,7.3734016,-3574.0411,-3691.7612)"
     id="g19">
    <rect
       height="28.000027"
       ry="14.000006"
       transform="matrix(1.6347353,0,0,1.6347353,-144.06794,-342.6231)"
       width="28.000011"
       x="386.57144"
       y="517.79797"
       id="rect15"
       style="fill:#0a24de;fill-opacity:1" />
    <path
       style="fill:#ffffff;fill-opacity:0.90650409"
       inkscape:connector-curvature="0"
       d="m 409.03112,539.84875 c -0.81855,0 -1.54059,0.39154 -2.01228,0.99113 l -4.37528,-2.24653 c 0.0573,-0.2145 0.0985,-0.43612 0.0985,-0.66937 0,-0.25391 -0.0489,-0.49298 -0.11711,-0.72557 l 4.35596,-2.23618 c 0.46913,0.62672 1.20981,1.03635 2.05088,1.03635 1.42476,0 2.57731,-1.15718 2.57731,-2.58638 0,-1.42789 -1.15255,-2.58572 -2.57731,-2.58572 -1.42152,0 -2.57534,1.15783 -2.57534,2.58572 0,0.2339 0.0412,0.45616 0.0991,0.67131 l -4.37399,2.24652 c -0.47234,-0.60022 -1.19566,-0.99306 -2.01549,-0.99306 -1.42346,0 -2.57536,1.15847 -2.57536,2.58701 0,1.42855 1.1519,2.58638 2.57536,2.58638 0.84236,0 1.58241,-0.41093 2.05346,-1.03829 l 4.35405,2.23618 c -0.0682,0.23195 -0.11777,0.47295 -0.11777,0.72751 0,1.42855 1.15383,2.58638 2.57536,2.58638 1.42475,0 2.57729,-1.15783 2.57729,-2.58638 0,-1.42983 -1.15254,-2.58701 -2.57729,-2.58701 z"
       transform="matrix(1.6958847,0,0,1.6906576,-176.89465,-382.32001)"
       id="path17" />
  </g>
</svg>
