<?xml version="1.0" encoding="UTF-8" standalone="no"?>
<svg
   xmlns:dc="http://purl.org/dc/elements/1.1/"
   xmlns:cc="http://creativecommons.org/ns#"
   xmlns:rdf="http://www.w3.org/1999/02/22-rdf-syntax-ns#"
   xmlns:svg="http://www.w3.org/2000/svg"
   xmlns="http://www.w3.org/2000/svg"
   xmlns:sodipodi="http://sodipodi.sourceforge.net/DTD/sodipodi-0.dtd"
   xmlns:inkscape="http://www.inkscape.org/namespaces/inkscape"
   width="384pt"
   height="384pt"
   version="1.1"
   viewBox="0 0 384 384"
   id="svg8"
   sodipodi:docname="qt.svg"
   inkscape:version="0.92.2 2405546, 2018-03-11">
  <metadata
     id="metadata14">
    <rdf:RDF>
      <cc:Work
         rdf:about="">
        <dc:format>image/svg+xml</dc:format>
        <dc:type
           rdf:resource="http://purl.org/dc/dcmitype/StillImage" />
      </cc:Work>
    </rdf:RDF>
  </metadata>
  <defs
     id="defs12">
    <linearGradient
       id="a"
       gradientTransform="matrix(0.93656781,0,0,0.94442665,143.00429,52.34307)"
       gradientUnits="userSpaceOnUse"
       x1="41.749325"
       x2="41.357147"
       y1="226.20387"
       y2="102.25676">
      <stop
         offset="0"
         stop-color="#49b202"
         id="stop2" />
      <stop
         offset="1"
         stop-color="#8cd958"
         id="stop4" />
    </linearGradient>
  </defs>
  <sodipodi:namedview
     pagecolor="#ffffff"
     bordercolor="#666666"
     borderopacity="1"
     objecttolerance="10"
     gridtolerance="10"
     guidetolerance="10"
     inkscape:pageopacity="0"
     inkscape:pageshadow="2"
     inkscape:window-width="1366"
     inkscape:window-height="695"
     id="namedview10"
     showgrid="false"
     inkscape:zoom="0.4609375"
     inkscape:cx="-159.45763"
     inkscape:cy="256"
     inkscape:window-x="0"
     inkscape:window-y="0"
     inkscape:window-maximized="1"
     inkscape:current-layer="svg8" />
  <g
     transform="matrix(7.1003487,0,0,7.1003487,21.123003,20.487088)"
     id="g874">
    <g
       style="fill:#687681"
       id="g17"
       transform="matrix(0.39267013,-0.03514644,0.03605893,0.38731713,7.1833942,-55.474581)">
      <path
         style="fill:#687681;fill-rule:evenodd"
         inkscape:connector-curvature="0"
         id="path7"
         d="m -23.525211,154.66937 47.828584,0.0363 -0.0419,55.16792 -55.437374,-0.0422 0.0365,-48.05392 c 0.006,-7.63847 7.21097,-7.10853 7.61419,-7.10821 z" />
      <g
         style="fill:#687681;fill-rule:evenodd"
         id="g15"
         transform="matrix(1.0014519,3.763e-5,3.763e-5,0.95188387,0.03652959,11.689947)">
        <path
           style="fill:#347d02"
           inkscape:connector-curvature="0"
           id="path9"
           d="m -23.87675,265.80577 47.759246,0.0362 0.044,-57.95657 -55.356996,-0.042 -0.03833,50.48297 c -0.0061,8.02458 7.189449,7.47907 7.59208,7.47936 z" />
        <path
           style="fill:#687681"
           inkscape:connector-curvature="0"
           id="path11"
           d="m 71.568966,150.27986 -47.759241,-0.0362 -0.044,57.95657 55.356991,0.042 0.03835,-50.48297 c 0.0062,-8.02458 -7.189452,-7.47907 -7.592072,-7.47936 z" />
        <path
           style="fill:#347d02"
           inkscape:connector-curvature="0"
           id="path13"
           d="m 71.368015,265.8766 -47.75924,-0.0363 0.044,-57.95657 55.35699,0.0421 -0.0383,50.48297 c -0.006,8.02458 -7.2008,7.46814 -7.60343,7.46782 z" />
      </g>
    </g>
    <rect
       style="fill:#52c702;fill-opacity:1"
       id="rect19"
       y="148.01404"
       x="127.69567"
       width="120.8718"
       transform="matrix(0.36105078,-0.03258853,0.0314661,0.35518908,-50.437798,-44.333163)"
       ry="8.0415115"
       height="121.89765" />
    <g
       style="fill:#ffffff;fill-opacity:0.85;enable-background:new"
       id="g25"
       transform="matrix(0.17120602,-0.01688042,0.01688042,0.17120602,-2.8829233,-3.5735197)">
      <path
         style="fill:#ffffff;fill-opacity:0.85"
         inkscape:connector-curvature="0"
         id="path21"
         d="m 169.38,209.42 c 0,-11.268 0.0413,-47.099 0.0413,-47.099 h -9.2023 l -0.0413,-16 c 13.531,0 9.0207,0.37559 15.786,-26.667 h 17.457 v 26.667 h 18.625 l 0.0413,16 h -18.625 l -0.0413,40.338 c -9e-5,4.196 0.87209,7.3592 2.6164,9.4894 1.7442,2.1303 4.0375,3.1954 6.88,3.1954 3.6152,0.35253 9.129,-1.4172 9.129,-1.4172 v 15.775 c -0.45223,0.32276 -22.225,6.9566 -33.828,0 -11.276,-6.7606 -8.8391,-20.282 -8.8391,-20.282 z" />
      <path
         style="fill:#ffffff;fill-opacity:0.85"
         inkscape:connector-curvature="0"
         id="path23"
         d="m 106.27,99 c -15.242,1.35e-4 -26.627,5.7792 -34.109,17.324 -7.4826,11.48 -11.205,28.069 -11.205,49.789 0,22.176 3.7229,39.094 11.205,50.704 5.2336,8.1205 12.23,13.385 20.99,15.819 0,0 1.7799,-0.0942 1.9247,1.8062 3.015,24.51 18.331,24.558 35.79,24.558 0,0 2.2552,0 2.2552,-2.2535 v -13.521 c 0,-2.2535 -2.2552,-2.2535 -2.2552,-2.2535 -8.723,0 -10.984,0.57341 -13.32,-8.169 2.9545,-0.73167 5.6982,-1.728 8.2455,-3.0282 5.7504,-3.0003 10.494,-7.3588 14.236,-13.099 3.7412,-5.805 6.5144,-12.929 8.316,-21.408 1.8705,-8.4792 2.8189,-18.197 2.8189,-29.155 0,-21.981 -3.7957,-38.651 -11.417,-50 C 132.1238,104.699 120.9581,99 106.2701,99 Z m -0.14094,10.986 c 3.1951,1.3e-4 5.6415,1.1248 7.6817,3.4507 1.2032,1.3229 2.2614,3.0622 3.2418,5.1409 0.55407,1.5313 1.1063,3.1555 1.5505,5 1.1986,4.9784 2.049,11.015 2.5371,18.169 0.4871,7.142 0.70463,15.28 0.70472,24.366 -9e-5,9.1515 -0.21771,17.376 -0.70472,24.648 -0.488,7.2183 -1.34,13.346 -2.5371,18.451 -0.45033,1.8953 -0.97887,3.6211 -1.5505,5.2113 -0.0943,0.20575 -0.18526,0.43498 -0.28189,0.6338 -0.8968,1.8452 -1.8788,3.3984 -2.9599,4.6479 -2.0471,2.4535 -4.5009,3.5916 -7.6817,3.5916 -3.1809,2e-5 -5.6347,-1.1381 -7.6816,-3.5916 -2.002,-2.4917 -3.6488,-6.1311 -4.8627,-10.986 -1.2181,-4.9351 -2.0445,-10.97 -2.5371,-18.099 -0.49366,-7.2077 -0.77528,-15.396 -0.77519,-24.507 -9e-5,-9.0457 0.28162,-17.079 0.77519,-24.155 0.49249,-7.0624 1.3206,-13.016 2.5371,-17.817 1.2129,-4.7866 2.875,-8.3508 4.8627,-10.704 2.0401,-2.3258 4.4866,-3.4506 7.6816,-3.4507 z" />
    </g>
  </g>
</svg>
