<?xml version="1.0" encoding="UTF-8" standalone="no"?>
<svg
   xmlns:dc="http://purl.org/dc/elements/1.1/"
   xmlns:cc="http://creativecommons.org/ns#"
   xmlns:rdf="http://www.w3.org/1999/02/22-rdf-syntax-ns#"
   xmlns:svg="http://www.w3.org/2000/svg"
   xmlns="http://www.w3.org/2000/svg"
   xmlns:sodipodi="http://sodipodi.sourceforge.net/DTD/sodipodi-0.dtd"
   xmlns:inkscape="http://www.inkscape.org/namespaces/inkscape"
   width="48"
   height="48"
   version="1"
   id="svg24"
   sodipodi:docname="application-audio-playlist.svg"
   inkscape:version="0.92.2 2405546, 2018-03-11">
  <metadata
     id="metadata28">
    <rdf:RDF>
      <cc:Work
         rdf:about="">
        <dc:format>image/svg+xml</dc:format>
        <dc:type
           rdf:resource="http://purl.org/dc/dcmitype/StillImage" />
        <dc:title></dc:title>
      </cc:Work>
    </rdf:RDF>
  </metadata>
  <sodipodi:namedview
     pagecolor="#ffffff"
     bordercolor="#666666"
     borderopacity="1"
     objecttolerance="10"
     gridtolerance="10"
     guidetolerance="10"
     inkscape:pageopacity="0"
     inkscape:pageshadow="2"
     inkscape:window-width="1366"
     inkscape:window-height="690"
     id="namedview26"
     showgrid="false"
     inkscape:zoom="4.9166667"
     inkscape:cx="-0.61016949"
     inkscape:cy="24"
     inkscape:window-x="0"
     inkscape:window-y="0"
     inkscape:window-maximized="1"
     inkscape:current-layer="svg24" />
  <defs
     id="defs8">
    <clipPath
       id="clipPath4266-4"
       clipPathUnits="userSpaceOnUse">
      <path
         fill="#fff"
         d="m146 240c-1.108 0-2 0.892-2 2v36c0 1.108 0.892 2 2 2h28c1.108 0 2-0.892 2-2v-26l-12-12h-18z"
         id="path2" />
    </clipPath>
    <filter
       id="filter4987"
       width="1.26"
       height="1.223"
       x="-.13"
       y="-.11">
      <feGaussianBlur
         stdDeviation=".65"
         id="feGaussianBlur5" />
    </filter>
  </defs>
  <path
     style="opacity:0.2"
     d="M 10,5 C 8.892,5 8,5.892 8,7 v 36 c 0,1.108 0.892,2 2,2 h 28 c 1.108,0 2,-0.892 2,-2 V 17 L 29,16 28,5 Z"
     id="path10" />
  <path
     opacity=".1"
     d="m163.22 242.45v11c0 1.1046 0.89543 2 2 2h10l-1-1-10-9z"
     clip-path="url(#clipPath4266-4)"
     filter="url(#filter4987)"
     transform="translate(-135.61 -237.72)"
     id="path12" />
  <path
     fill="#e4e4e4"
     d="m10 4c-1.108 0-2 0.892-2 2v36c0 1.108 0.892 2 2 2h28c1.108 0 2-0.892 2-2v-26l-11-1-1-11z"
     id="path14"
     style="fill:#7900fd;fill-opacity:1" />
  <path
     fill="#fff"
     opacity=".2"
     d="m10 4c-1.108 0-2 0.892-2 2v1c0-1.108 0.892-2 2-2h18l11 11h1l-12-12z"
     id="path16" />
  <path
     style="opacity:0.2"
     d="m 28,5 v 10 c 0,1.1046 0.89543,2 2,2 h 10 z"
     id="path18" />
  <path
     fill="#fafafa"
     d="m28 4v10c0 1.1046 0.89543 2 2 2h10l-12-12z"
     id="path20"
     style="fill:#9737ff;fill-opacity:1" />
  <g
     id="g937"
     transform="translate(-1.4321185,-8.188983)">
    <path
       id="path21"
       d="m 20.637535,23.948358 c -0.08855,0 -0.385417,0.07292 -0.385417,0.166667 l 0.0104,12.427082 c -0.338524,-0.260416 -0.583316,-0.385416 -1.057275,-0.385416 -0.677083,0 -1.343749,0.25 -1.9375,0.593749 -0.781249,0.463543 -1.703124,1.276043 -1.703124,2.468751 0,1.026041 0.875,1.510417 1.802083,1.510417 0.682292,0 1.343749,-0.25 1.9375,-0.598958 0.781249,-0.463543 1.708333,-1.276042 1.708333,-2.468751 0,-0.04688 -0.0104,-0.08333 -0.01563,-0.125 0.0052,-0.01563 0.01563,-0.02604 0.01563,-0.03645 v -9.244794 c 1.192708,1.239583 2.765625,2.963542 2.765625,4.6875 0,1.093749 -0.265625,2.171875 -0.692709,3.182291 -0.05208,0.260417 0.161459,0.442709 0.380209,0.442709 0.114587,0 0.229167,-0.06249 0.3125,-0.197917 0.432291,-1.09375 0.697916,-2.25 0.697916,-3.427083 0,-3.276042 -3.447916,-5.541666 -3.463541,-8.8125 v -0.01563 c 0,-0.09375 -0.07292,-0.166667 -0.166667,-0.166667 z m 0,0"
       style="fill:#ffffff;stroke-width:1.33333325"
       inkscape:connector-curvature="0" />
    <path
       id="path23"
       d="m 25.627117,32.599399 v 1.218751 h 10 v -1.218751 z m 0,0"
       style="fill:#ffffff;stroke-width:1.33333325"
       inkscape:connector-curvature="0" />
    <path
       id="path25"
       d="m 25.689619,35.833774 v 1.223958 h 9.999999 v -1.223958 z m 0,0"
       style="fill:#ffffff;stroke-width:1.33333325"
       inkscape:connector-curvature="0" />
    <path
       id="path27"
       d="m 25.668784,39.083774 v 1.21875 h 10 v -1.21875 z m 0,0"
       style="fill:#ffffff;stroke-width:1.33333325"
       inkscape:connector-curvature="0" />
  </g>
</svg>
