<?xml version="1.0" encoding="UTF-8" standalone="no"?>
<svg
   xmlns:dc="http://purl.org/dc/elements/1.1/"
   xmlns:cc="http://creativecommons.org/ns#"
   xmlns:rdf="http://www.w3.org/1999/02/22-rdf-syntax-ns#"
   xmlns:svg="http://www.w3.org/2000/svg"
   xmlns="http://www.w3.org/2000/svg"
   xmlns:sodipodi="http://sodipodi.sourceforge.net/DTD/sodipodi-0.dtd"
   xmlns:inkscape="http://www.inkscape.org/namespaces/inkscape"
   width="48"
   height="48"
   version="1.1"
   id="svg14"
   sodipodi:docname="application-x-mono-develop.svg"
   inkscape:version="0.92.2 2405546, 2018-03-11">
  <metadata
     id="metadata20">
    <rdf:RDF>
      <cc:Work
         rdf:about="">
        <dc:format>image/svg+xml</dc:format>
        <dc:type
           rdf:resource="http://purl.org/dc/dcmitype/StillImage" />
        <dc:title></dc:title>
      </cc:Work>
    </rdf:RDF>
  </metadata>
  <defs
     id="defs18" />
  <sodipodi:namedview
     pagecolor="#ffffff"
     bordercolor="#666666"
     borderopacity="1"
     objecttolerance="10"
     gridtolerance="10"
     guidetolerance="10"
     inkscape:pageopacity="0"
     inkscape:pageshadow="2"
     inkscape:window-width="1366"
     inkscape:window-height="690"
     id="namedview16"
     showgrid="false"
     inkscape:zoom="3.7064667"
     inkscape:cx="22.107227"
     inkscape:cy="20.478921"
     inkscape:window-x="0"
     inkscape:window-y="0"
     inkscape:window-maximized="1"
     inkscape:current-layer="svg14" />
  <path
     style="opacity:0.2"
     d="M 10,5 C 8.892,5 8,5.892 8,7 V 43 C 8,44.108 8.892,45 10,45 H 38 C 39.108,45 40,44.108 40,43 V 17 L 28,5 Z"
     id="path2" />
  <path
     style="fill:#0028cc;fill-opacity:1"
     d="M 10,4 C 8.892,4 8,4.892 8,6 V 42 C 8,43.108 8.892,44 10,44 H 38 C 39.108,44 40,43.108 40,42 V 16 L 28,4 Z"
     id="path4" />
  <path
     style="opacity:0.2"
     d="M 40,17 28,5 V 15 C 28,16.108 28.892,17 30,17 Z"
     id="path6" />
  <path
     style="fill:#1342ff;fill-opacity:1"
     d="M 40,16 28,4 V 14 C 28,15.108 28.892,16 30,16 Z"
     id="path8" />
  <path
     style="opacity:0.2;fill:#ffffff"
     d="M 10 4 C 8.892 4 8 4.892 8 6 L 8 7 C 8 5.892 8.892 5 10 5 L 28 5 L 28 4 L 10 4 z"
     id="path10" />
  <g
     id="g1093"
     transform="translate(-4.3288662)">
    <path
       id="path21"
       d="m 24.27418,22.888097 c -2.96875,0 -6.708333,2.807292 -6.671875,7.15625 0.03125,4.208332 1.432292,6.489583 2.505209,9.072916 l 3.171874,-1.322917 c -0.729166,-1.484375 -1.682292,-2.953124 -2.015625,-3.687499 -0.947916,-2.057291 -1.265625,-2.979167 -1.1875,-4.546875 0.07292,-1.515625 0.578125,-2.442708 1.505208,-3.338541 0.927084,-0.890626 2.213541,-1.343751 3.744792,-1.130208 2.208333,0.302082 3.369792,1.536457 3.927083,2.666666 0.317709,-0.04688 0.640625,-0.08333 1,-0.08333 0.276042,0 0.557292,0.02084 0.833333,0.08333 -0.593749,-2.34375 -3.515624,-4.869792 -6.812499,-4.869792 z m 1.348958,4.088542 c -1.354167,-0.08855 -3.322916,0.567708 -3.3125,2.635417 0.0104,1.958333 1.234374,3.421874 2.692708,4.010415 -0.03125,-0.489582 0,-1.036458 0.07812,-1.588541 -0.786459,-0.427082 -1.265624,-1.192708 -1.34375,-2.260415 -0.08855,-1.182292 1.088542,-2.38021 2.958334,-1.776043 0.302082,0.09896 0.3125,-0.421875 -0.02604,-0.697916 -0.21875,-0.177084 -0.598958,-0.291667 -1.046875,-0.322917 z m 4.630208,1.5625 c -0.239583,0 -0.463542,0.0052 -0.677083,0.02604 0.05729,0.208333 0.09896,0.421874 0.109373,0.588541 0.135418,-0.0052 0.286459,-0.0052 0.432292,0 0.395834,0.02084 0.765626,0.08333 1.104167,0.192708 0.0104,-0.223959 0.0052,-0.4375 0,-0.645833 -0.322916,-0.104174 -0.645833,-0.161459 -0.968751,-0.161459 z m -0.645832,1.453125 c -0.213543,0.90625 -0.848959,2.026041 -2.156251,2.338541 -0.03125,0.1875 -0.05729,0.364584 -0.05208,0.484376 0.01563,0.25 0.06771,0.598957 0.213541,0.968749 2.234375,-0.406251 3.192708,-1.973958 3.5,-3.578125 -0.296874,-0.119786 -0.640625,-0.197916 -1.052084,-0.213541 -0.156249,-0.0104 -0.317708,-0.01563 -0.453124,0 z m -3.687502,2.364584 c -0.04688,0.416666 -0.07812,0.833333 -0.05729,1.213541 0.0052,0.08855 0.0104,0.177082 0.02604,0.270833 0.166667,0.02084 0.322916,0.07812 0.484375,0.07812 0.140625,0 0.276043,-0.02083 0.406251,-0.02604 -0.130214,-0.369791 -0.223959,-0.723959 -0.244792,-1.020833 -0.0052,-0.130213 -0.0104,-0.281249 0,-0.432291 -0.213542,-0.0104 -0.427083,-0.04167 -0.614584,-0.08333 z m 0,0"
       style="fill:#ffffff;stroke-width:1.33333325"
       inkscape:connector-curvature="0" />
    <path
       id="path23"
       d="m 36.529388,22.898515 c 1.072916,2.578124 2.494792,4.843749 2.526041,9.05729 0.03645,4.348958 -3.723958,7.161458 -6.692708,7.161458 -3.59375,0 -6.760417,-3.010416 -6.927083,-5.505208 -0.151042,-2.255207 0.65625,-5.53125 4.828125,-5.510416 1.989582,0.01563 4.057292,1.734374 4.067708,4.291666 0.01563,2.760417 -3.468749,3.03125 -4.348957,2.328125 -0.338543,-0.276041 -0.328126,-0.817708 -0.03125,-0.718751 1.880208,0.604168 3.036459,-0.588541 2.947917,-1.776041 -0.11459,-1.614582 -1.078129,-2.572915 -2.807295,-2.651041 -2.489584,-0.119786 -3.1875,2.281251 -3.125,3.260416 0.07812,1.192709 1.11979,3.630209 4.364582,4.078125 1.531251,0.208333 2.802084,-0.244792 3.729167,-1.135416 0.921876,-0.895833 1.447917,-1.822917 1.526041,-3.333333 0.07812,-1.5625 -0.265624,-2.484376 -1.208333,-4.541666 -0.338542,-0.734376 -1.28125,-2.208334 -2.010416,-3.69271 l 3.161458,-1.312498 m 0,0"
       style="fill:#ffffff;stroke-width:1.33333325"
       inkscape:connector-curvature="0" />
  </g>
</svg>
