<?xml version="1.0" encoding="UTF-8" standalone="no"?>
<svg
   xmlns:dc="http://purl.org/dc/elements/1.1/"
   xmlns:cc="http://creativecommons.org/ns#"
   xmlns:rdf="http://www.w3.org/1999/02/22-rdf-syntax-ns#"
   xmlns:svg="http://www.w3.org/2000/svg"
   xmlns="http://www.w3.org/2000/svg"
   xmlns:sodipodi="http://sodipodi.sourceforge.net/DTD/sodipodi-0.dtd"
   xmlns:inkscape="http://www.inkscape.org/namespaces/inkscape"
   width="48"
   height="48"
   version="1.1"
   id="svg14"
   sodipodi:docname="application-x-desktop.svg"
   inkscape:version="0.92.2 2405546, 2018-03-11">
  <metadata
     id="metadata20">
    <rdf:RDF>
      <cc:Work
         rdf:about="">
        <dc:format>image/svg+xml</dc:format>
        <dc:type
           rdf:resource="http://purl.org/dc/dcmitype/StillImage" />
        <dc:title></dc:title>
      </cc:Work>
    </rdf:RDF>
  </metadata>
  <defs
     id="defs18" />
  <sodipodi:namedview
     pagecolor="#ffffff"
     bordercolor="#666666"
     borderopacity="1"
     objecttolerance="10"
     gridtolerance="10"
     guidetolerance="10"
     inkscape:pageopacity="0"
     inkscape:pageshadow="2"
     inkscape:window-width="1366"
     inkscape:window-height="690"
     id="namedview16"
     showgrid="false"
     inkscape:zoom="3.7064667"
     inkscape:cx="-14.855199"
     inkscape:cy="20.478921"
     inkscape:window-x="0"
     inkscape:window-y="0"
     inkscape:window-maximized="1"
     inkscape:current-layer="svg14" />
  <path
     style="opacity:0.2"
     d="M 10,5 C 8.892,5 8,5.892 8,7 V 43 C 8,44.108 8.892,45 10,45 H 38 C 39.108,45 40,44.108 40,43 V 17 L 28,5 Z"
     id="path2" />
  <path
     style="fill:#e4e4e4;fill-opacity:1"
     d="M 10,4 C 8.892,4 8,4.892 8,6 V 42 C 8,43.108 8.892,44 10,44 H 38 C 39.108,44 40,43.108 40,42 V 16 L 28,4 Z"
     id="path4" />
  <path
     style="opacity:0.2"
     d="M 40,17 28,5 V 15 C 28,16.108 28.892,17 30,17 Z"
     id="path6" />
  <path
     style="fill:#ffffff;fill-opacity:1"
     d="M 40,16 28,4 V 14 C 28,15.108 28.892,16 30,16 Z"
     id="path8" />
  <path
     style="opacity:0.2;fill:#ffffff"
     d="M 10 4 C 8.892 4 8 4.892 8 6 L 8 7 C 8 5.892 8.892 5 10 5 L 28 5 L 28 4 L 10 4 z"
     id="path10" />
  <path
     inkscape:connector-curvature="0"
     style="fill:#999999;fill-opacity:1;stroke-width:1.33333325"
     d="m 22.489294,39.744083 c -0.19271,-0.08333 -0.401043,-0.307292 -0.494792,-0.53125 -0.04688,-0.114587 -0.09375,-0.552083 -0.135418,-1.255208 -0.03125,-0.593751 -0.07812,-1.125 -0.09896,-1.1875 -0.03125,-0.07292 -0.166666,-0.145834 -0.505208,-0.265626 -0.255208,-0.08855 -0.640624,-0.25 -0.859374,-0.359374 -0.213542,-0.109374 -0.4375,-0.197918 -0.494792,-0.197918 -0.06249,0 -0.416667,0.286459 -0.916667,0.744792 -0.447916,0.411459 -0.885416,0.786459 -0.973959,0.833334 -0.18229,0.09375 -0.593749,0.109373 -0.80729,0.02604 -0.166667,-0.06249 -1.942709,-1.8125 -2.057292,-2.03125 -0.114587,-0.213542 -0.104173,-0.609374 0.02604,-0.854166 0.05729,-0.109374 0.432292,-0.557292 0.833333,-0.994792 0.432292,-0.46875 0.734376,-0.833334 0.734376,-0.890626 0,-0.05729 -0.08855,-0.276041 -0.197917,-0.49479 C 16.432,32.072206 16.27054,31.68679 16.181999,31.431581 c -0.08855,-0.255208 -0.197917,-0.479166 -0.244792,-0.505208 -0.04167,-0.02084 -0.567708,-0.06771 -1.161458,-0.09896 -0.6875,-0.04167 -1.15625,-0.08855 -1.291667,-0.135418 -0.255205,-0.09375 -0.55208,-0.406245 -0.593747,-0.630204 -0.01563,-0.09375 -0.02083,-0.770833 -0.01042,-1.510417 l 0.01042,-1.338541 0.15625,-0.192708 c 0.270833,-0.338543 0.401042,-0.375 1.697917,-0.453125 0.739583,-0.04688 1.1875,-0.09375 1.223957,-0.130214 0.03125,-0.03645 0.140625,-0.286458 0.244792,-0.5625 0.09896,-0.276042 0.260417,-0.65625 0.354167,-0.84375 0.09375,-0.182292 0.171876,-0.375 0.171876,-0.427083 0,-0.04688 -0.307292,-0.427084 -0.687502,-0.838543 -0.374999,-0.411457 -0.734374,-0.817708 -0.796874,-0.906249 -0.182291,-0.234375 -0.239583,-0.526041 -0.171875,-0.8125 0.05729,-0.218749 0.156251,-0.338541 0.968749,-1.166667 0.5,-0.505207 0.994792,-0.963541 1.098959,-1.015625 0.239584,-0.119786 0.614584,-0.125 0.854167,-0.0052 0.09896,0.05208 0.53125,0.421875 0.96875,0.817708 0.432292,0.401043 0.817708,0.739584 0.854167,0.760417 0.03645,0.02084 0.270833,-0.05729 0.557291,-0.192708 0.265625,-0.130213 0.671876,-0.296876 0.895834,-0.369792 0.302083,-0.104173 0.421875,-0.166666 0.463542,-0.255208 0.03125,-0.06771 0.08333,-0.609375 0.114586,-1.203125 0.06771,-1.140625 0.104174,-1.322917 0.343751,-1.567709 0.260416,-0.276041 0.411459,-0.296875 1.875,-0.281249 l 1.333333,0.01563 0.213542,0.135416 c 0.359374,0.239584 0.401041,0.390626 0.484374,1.661459 0.04167,0.614584 0.08855,1.166666 0.09896,1.223958 0.02084,0.08333 0.130214,0.140626 0.489584,0.265626 0.25,0.08855 0.661458,0.265624 0.901042,0.385416 0.24479,0.119786 0.463541,0.223958 0.484374,0.223958 0.02604,0 0.416667,-0.34375 0.869792,-0.760417 0.453126,-0.416666 0.911459,-0.796874 1.010416,-0.854166 0.244792,-0.125 0.604167,-0.125 0.869792,0.0052 0.125,0.06249 0.552083,0.447916 1.088541,0.989582 0.921875,0.932292 0.994792,1.041667 0.994792,1.463541 0.0052,0.296876 -0.130213,0.489584 -0.921874,1.359375 -0.432292,0.473959 -0.786459,0.880209 -0.786459,0.906251 0,0.02084 0.114587,0.276041 0.25,0.5625 0.140625,0.286458 0.302083,0.6875 0.364584,0.890625 0.07812,0.255208 0.145832,0.385416 0.218749,0.416667 0.05208,0.02084 0.609375,0.07292 1.234375,0.114586 1.234375,0.07292 1.4375,0.125 1.645833,0.416667 0.19271,0.276041 0.218751,0.484375 0.197918,1.833333 l -0.01563,1.286459 -0.151041,0.21875 c -0.270834,0.385416 -0.338542,0.401042 -1.713542,0.494791 -0.666666,0.04167 -1.229168,0.08855 -1.244792,0.104173 -0.01563,0.01563 -0.09896,0.229167 -0.182292,0.473959 -0.08855,0.25 -0.260417,0.651041 -0.385417,0.895833 -0.119787,0.244792 -0.213541,0.473959 -0.208333,0.510416 0.0104,0.03645 0.34375,0.427084 0.744792,0.864584 0.401042,0.4375 0.78125,0.890626 0.84375,1.015626 0.130214,0.260416 0.140626,0.536457 0.03645,0.796874 -0.09896,0.229167 -1.729165,1.890626 -1.994791,2.026042 -0.223958,0.114586 -0.625,0.125 -0.859374,0.02604 -0.08855,-0.03645 -0.536459,-0.411459 -0.989584,-0.828126 -0.458334,-0.416666 -0.864584,-0.760417 -0.911459,-0.760417 -0.04167,0 -0.302083,0.104173 -0.567708,0.229167 -0.270833,0.124997 -0.671875,0.286456 -0.890625,0.359373 -0.302083,0.09896 -0.401042,0.156249 -0.421875,0.239583 -0.01563,0.05729 -0.05729,0.604166 -0.09896,1.21875 -0.08855,1.354166 -0.140625,1.505208 -0.614583,1.739583 -0.135417,0.07292 -0.359376,0.08333 -1.505208,0.08333 -1.015625,-0.0052 -1.385417,-0.02084 -1.5,-0.07292 z m 1.984374,-6.010417 c 1.21875,-0.125 2.234375,-0.609375 3.098959,-1.473959 0.656249,-0.661458 1.083333,-1.401041 1.338541,-2.333333 0.161459,-0.583333 0.15625,-1.875 -0.0052,-2.468749 -0.489584,-1.791667 -1.770834,-3.114584 -3.552084,-3.651043 -0.411458,-0.125 -0.526041,-0.135416 -1.328125,-0.140624 -0.770833,-0.0052 -0.932292,0.0104 -1.307292,0.114587 -1.869791,0.510417 -3.302083,2.010417 -3.692708,3.875 -0.348959,1.677084 0.161459,3.385417 1.385417,4.614584 0.640624,0.645833 1.473958,1.11979 2.369792,1.348958 0.260416,0.06771 0.625,0.119787 1.140624,0.161458 0.04167,0 0.291667,-0.01563 0.552084,-0.04688 z m -1.244792,-2.104167 c -1.281249,-0.348958 -2.177084,-1.4375 -2.255208,-2.744792 -0.05729,-0.916666 0.239583,-1.687499 0.885416,-2.333333 1.182292,-1.177082 3.072918,-1.1875 4.239584,-0.02604 0.958334,0.958334 1.192708,2.322916 0.59375,3.515625 -0.510416,1.020834 -1.442708,1.625 -2.59375,1.666667 -0.390625,0.01563 -0.583333,0 -0.869792,-0.07812 z m 1.432292,-1.265625 c 0.354167,-0.135416 0.776042,-0.526041 0.958334,-0.890625 0.25,-0.583334 0.114586,-1.130208 -0.03645,-1.604166 -0.328129,-0.609375 -0.817712,-0.916666 -1.51042,-0.953125 -0.552084,-0.03125 -0.885417,0.08855 -1.286458,0.453126 -0.510418,0.468749 -0.713542,1.114582 -0.546875,1.749999 0.140624,0.552083 0.437499,0.927083 0.942708,1.182291 0.468749,0.239584 0.953124,0.255208 1.479167,0.06249 z m 0,0"
     id="path21" />
</svg>
