<?xml version="1.0" encoding="UTF-8" standalone="no"?>
<svg
   xmlns:dc="http://purl.org/dc/elements/1.1/"
   xmlns:cc="http://creativecommons.org/ns#"
   xmlns:rdf="http://www.w3.org/1999/02/22-rdf-syntax-ns#"
   xmlns:svg="http://www.w3.org/2000/svg"
   xmlns="http://www.w3.org/2000/svg"
   xmlns:sodipodi="http://sodipodi.sourceforge.net/DTD/sodipodi-0.dtd"
   xmlns:inkscape="http://www.inkscape.org/namespaces/inkscape"
   width="48"
   height="48"
   version="1.1"
   id="svg14"
   sodipodi:docname="application-x-php.svg"
   inkscape:version="0.92.2 2405546, 2018-03-11">
  <metadata
     id="metadata20">
    <rdf:RDF>
      <cc:Work
         rdf:about="">
        <dc:format>image/svg+xml</dc:format>
        <dc:type
           rdf:resource="http://purl.org/dc/dcmitype/StillImage" />
        <dc:title></dc:title>
      </cc:Work>
    </rdf:RDF>
  </metadata>
  <defs
     id="defs18" />
  <sodipodi:namedview
     pagecolor="#ffffff"
     bordercolor="#666666"
     borderopacity="1"
     objecttolerance="10"
     gridtolerance="10"
     guidetolerance="10"
     inkscape:pageopacity="0"
     inkscape:pageshadow="2"
     inkscape:window-width="1366"
     inkscape:window-height="690"
     id="namedview16"
     showgrid="false"
     inkscape:zoom="3.7064667"
     inkscape:cx="22.107227"
     inkscape:cy="20.478921"
     inkscape:window-x="0"
     inkscape:window-y="0"
     inkscape:window-maximized="1"
     inkscape:current-layer="svg14" />
  <path
     style="opacity:0.2"
     d="M 10,5 C 8.892,5 8,5.892 8,7 V 43 C 8,44.108 8.892,45 10,45 H 38 C 39.108,45 40,44.108 40,43 V 17 L 28,5 Z"
     id="path2" />
  <path
     style="fill:#8c42ab;fill-opacity:1"
     d="M 10,4 C 8.892,4 8,4.892 8,6 V 42 C 8,43.108 8.892,44 10,44 H 38 C 39.108,44 40,43.108 40,42 V 16 L 28,4 Z"
     id="path4" />
  <path
     style="opacity:0.2"
     d="M 40,17 28,5 V 15 C 28,16.108 28.892,17 30,17 Z"
     id="path6" />
  <path
     style="fill:#a561c2;fill-opacity:1"
     d="M 40,16 28,4 V 14 C 28,15.108 28.892,16 30,16 Z"
     id="path8" />
  <path
     style="opacity:0.2;fill:#ffffff"
     d="M 10 4 C 8.892 4 8 4.892 8 6 L 8 7 C 8 5.892 8.892 5 10 5 L 28 5 L 28 4 L 10 4 z"
     id="path10" />
  <g
     transform="matrix(1.3333333,0,0,1.3333333,6e-7,1.9651179)"
     id="g855">
    <path
       inkscape:connector-curvature="0"
       id="path21"
       d="m 25.824219,19.957031 c 0,2.882813 -3.503907,5.21875 -7.824219,5.21875 -4.320312,0 -7.824219,-2.335937 -7.824219,-5.21875 0,-2.882812 3.503907,-5.21875 7.824219,-5.21875 4.320312,0 7.824219,2.335938 7.824219,5.21875 z m 0,0"
       style="fill:#ffffff;fill-rule:evenodd" />
    <path
       inkscape:connector-curvature="0"
       id="path23"
       d="m 15.804688,18.023438 c 0.332031,0 0.59375,0.113281 0.789062,0.34375 0.191406,0.226562 0.289062,0.546874 0.289062,0.957031 0,0.40625 -0.07812,0.796875 -0.234374,1.171875 -0.15625,0.371094 -0.371094,0.667968 -0.644532,0.890625 -0.269531,0.21875 -0.570312,0.328125 -0.894531,0.328125 -0.191406,0 -0.355469,-0.03906 -0.492187,-0.117188 -0.136719,-0.07813 -0.265626,-0.214844 -0.378907,-0.402344 h -0.02734 c -0.02734,0.335938 -0.07813,0.652344 -0.148438,0.941407 L 13.816406,23.21875 H 12.78125 l 1.175781,-5.128906 h 0.785157 l -0.05469,0.542968 h 0.02734 c 0.316406,-0.40625 0.679687,-0.609374 1.089844,-0.609374 m -0.417969,0.777343 c -0.152344,0 -0.304688,0.07031 -0.449219,0.214844 -0.144531,0.144531 -0.261719,0.335937 -0.351562,0.574219 -0.08594,0.238281 -0.128907,0.5 -0.128907,0.789062 0,0.171875 0.04297,0.304688 0.125,0.410156 0.08594,0.101563 0.203125,0.152344 0.351563,0.152344 0.152344,0 0.296875,-0.07422 0.4375,-0.222656 0.140625,-0.144531 0.25,-0.34375 0.335937,-0.601562 0.08594,-0.253907 0.128907,-0.507813 0.128907,-0.757813 0,-0.371094 -0.148438,-0.558594 -0.449219,-0.558594"
       style="fill:#8c42ab" />
    <path
       inkscape:connector-curvature="0"
       id="path25"
       d="m 19.503906,21.652344 h -1.03125 l 0.46875,-2.082032 c 0.03906,-0.144531 0.05469,-0.269531 0.05469,-0.378906 0,-0.261718 -0.121094,-0.390625 -0.367188,-0.390625 -0.210937,0 -0.402344,0.121094 -0.574218,0.363281 -0.171876,0.242188 -0.304688,0.578126 -0.40625,1.011719 l -0.33594,1.476563 h -1.03125 l 1.132812,-4.957032 h 1.03125 c -0.08984,0.382813 -0.15625,0.679688 -0.207031,0.886719 -0.04687,0.203125 -0.144531,0.53125 -0.292969,0.984375 h 0.02734 c 0.140625,-0.164062 0.300782,-0.296875 0.472656,-0.394531 0.175782,-0.09766 0.375,-0.148437 0.605469,-0.148437 0.3125,0 0.558594,0.08984 0.730469,0.269531 0.171875,0.175781 0.257812,0.425781 0.257812,0.757812 0,0.152344 -0.02344,0.34375 -0.07812,0.570313 l -0.457032,2.03125"
       style="fill:#8c42ab" />
    <path
       inkscape:connector-curvature="0"
       id="path27"
       d="m 22.136719,18.023438 c 0.335937,0 0.597656,0.113281 0.789062,0.34375 0.195313,0.226562 0.292969,0.546874 0.292969,0.957031 0,0.40625 -0.08203,0.796875 -0.238281,1.171875 -0.15625,0.371094 -0.367188,0.667968 -0.640625,0.890625 -0.273438,0.21875 -0.570313,0.328125 -0.898438,0.328125 -0.191406,0 -0.351562,-0.03906 -0.492187,-0.117188 C 20.8125,21.519531 20.6875,21.382812 20.570312,21.195312 h -0.02734 c -0.02734,0.335938 -0.07813,0.652344 -0.148438,0.9375 l -0.246093,1.085938 h -1.03125 l 1.171874,-5.128906 h 0.789063 l -0.05859,0.542968 h 0.03125 c 0.316407,-0.40625 0.679688,-0.609374 1.085938,-0.609374 m -0.414063,0.777343 c -0.15625,0 -0.304687,0.07031 -0.453125,0.214844 -0.144531,0.144531 -0.261719,0.335937 -0.347656,0.574219 -0.08984,0.238281 -0.132813,0.5 -0.132813,0.789062 0,0.171875 0.04297,0.308594 0.128907,0.410156 0.08203,0.101563 0.199219,0.152344 0.347656,0.152344 0.15625,0 0.300781,-0.07422 0.441406,-0.222656 0.136719,-0.144531 0.25,-0.34375 0.335938,-0.601562 0.08594,-0.253907 0.128906,-0.507813 0.128906,-0.757813 0,-0.371094 -0.148437,-0.558594 -0.449219,-0.558594"
       style="fill:#8c42ab" />
  </g>
</svg>
