<?xml version="1.0" encoding="UTF-8" standalone="no"?>
<svg
   xmlns:dc="http://purl.org/dc/elements/1.1/"
   xmlns:cc="http://creativecommons.org/ns#"
   xmlns:rdf="http://www.w3.org/1999/02/22-rdf-syntax-ns#"
   xmlns:svg="http://www.w3.org/2000/svg"
   xmlns="http://www.w3.org/2000/svg"
   xmlns:sodipodi="http://sodipodi.sourceforge.net/DTD/sodipodi-0.dtd"
   xmlns:inkscape="http://www.inkscape.org/namespaces/inkscape"
   width="48"
   height="48"
   version="1.1"
   id="svg16"
   sodipodi:docname="application-epub+zip.svg"
   inkscape:version="0.92.2 2405546, 2018-03-11">
  <metadata
     id="metadata22">
    <rdf:RDF>
      <cc:Work
         rdf:about="">
        <dc:format>image/svg+xml</dc:format>
        <dc:type
           rdf:resource="http://purl.org/dc/dcmitype/StillImage" />
        <dc:title></dc:title>
      </cc:Work>
    </rdf:RDF>
  </metadata>
  <defs
     id="defs20" />
  <sodipodi:namedview
     pagecolor="#ffffff"
     bordercolor="#666666"
     borderopacity="1"
     objecttolerance="10"
     gridtolerance="10"
     guidetolerance="10"
     inkscape:pageopacity="0"
     inkscape:pageshadow="2"
     inkscape:window-width="1366"
     inkscape:window-height="690"
     id="namedview18"
     showgrid="false"
     inkscape:zoom="4.9166667"
     inkscape:cx="-0.61016949"
     inkscape:cy="24"
     inkscape:window-x="0"
     inkscape:window-y="0"
     inkscape:window-maximized="1"
     inkscape:current-layer="svg16" />
  <path
     style="opacity:0.2"
     d="M 10,5 C 8.892,5 8,5.892 8,7 v 36 c 0,1.108 0.892,2 2,2 h 28 c 1.108,0 2,-0.892 2,-2 V 17 L 29,16 28,5 Z"
     id="path2" />
  <path
     style="fill:#13a553"
     d="M 10,4 C 8.892,4 8,4.892 8,6 v 36 c 0,1.108 0.892,2 2,2 h 28 c 1.108,0 2,-0.892 2,-2 V 16 L 29,15 28,4 Z"
     id="path4" />
  <path
     fill="#ffffff"
     opacity=".2"
     d="m10 4c-1.108 0-2 0.892-2 2v1c0-1.108 0.892-2 2-2h18l11 11h1l-12-12z"
     id="path8" />
  <path
     style="opacity:0.2"
     d="m 28,5 v 10 c 0,1.1046 0.89543,2 2,2 h 10 z"
     id="path10" />
  <path
     style="fill:#70c896"
     d="m 28,4 v 10 c 0,1.1046 0.89543,2 2,2 h 10 z"
     id="path12" />
  <path
     inkscape:connector-curvature="0"
     style="fill:#000000;fill-opacity:0.19402986;stroke-width:1.33333325"
     d="M 24,34.758229 18.536459,29.294687 24,23.831145 25.822917,25.648853 22.177083,29.294687 24,31.117603 l 5.463541,-5.46875 -4.760416,-4.760416 c -0.385417,-0.385416 -1.020833,-0.385416 -1.40625,0 l -7.703126,7.703125 c -0.385416,0.385416 -0.385416,1.020833 0,1.406249 l 7.703126,7.703126 c 0.390625,0.385417 1.020833,0.385417 1.40625,0 l 7.703125,-7.703126 c 0.385417,-0.390625 0.385417,-1.020833 0,-1.406249 L 31.286459,27.47177 Z m 0,0"
     id="path21-3" />
  <path
     inkscape:connector-curvature="0"
     style="fill:#ffffff;stroke-width:1.33333325"
     d="M 24,33.563229 18.536459,28.099687 24,22.636145 25.822917,24.453853 22.177083,28.099687 24,29.922603 l 5.463541,-5.46875 -4.760416,-4.760416 c -0.385417,-0.385416 -1.020833,-0.385416 -1.40625,0 l -7.703126,7.703125 c -0.385416,0.385416 -0.385416,1.020833 0,1.406249 l 7.703126,7.703126 c 0.390625,0.385417 1.020833,0.385417 1.40625,0 l 7.703125,-7.703126 c 0.385417,-0.390625 0.385417,-1.020833 0,-1.406249 L 31.286459,26.27677 Z m 0,0"
     id="path21" />
</svg>
