<?xml version="1.0" encoding="UTF-8" standalone="no"?>
<svg
   xmlns:dc="http://purl.org/dc/elements/1.1/"
   xmlns:cc="http://creativecommons.org/ns#"
   xmlns:rdf="http://www.w3.org/1999/02/22-rdf-syntax-ns#"
   xmlns:svg="http://www.w3.org/2000/svg"
   xmlns="http://www.w3.org/2000/svg"
   xmlns:sodipodi="http://sodipodi.sourceforge.net/DTD/sodipodi-0.dtd"
   xmlns:inkscape="http://www.inkscape.org/namespaces/inkscape"
   width="48"
   height="48"
   version="1.1"
   id="svg14"
   sodipodi:docname="text-x-iptables.svg"
   inkscape:version="0.92.2 2405546, 2018-03-11">
  <metadata
     id="metadata20">
    <rdf:RDF>
      <cc:Work
         rdf:about="">
        <dc:format>image/svg+xml</dc:format>
        <dc:type
           rdf:resource="http://purl.org/dc/dcmitype/StillImage" />
        <dc:title></dc:title>
      </cc:Work>
    </rdf:RDF>
  </metadata>
  <defs
     id="defs18" />
  <sodipodi:namedview
     pagecolor="#ffffff"
     bordercolor="#666666"
     borderopacity="1"
     objecttolerance="10"
     gridtolerance="10"
     guidetolerance="10"
     inkscape:pageopacity="0"
     inkscape:pageshadow="2"
     inkscape:window-width="1366"
     inkscape:window-height="690"
     id="namedview16"
     showgrid="false"
     inkscape:zoom="3.7064667"
     inkscape:cx="4.43541"
     inkscape:cy="20.478921"
     inkscape:window-x="0"
     inkscape:window-y="0"
     inkscape:window-maximized="1"
     inkscape:current-layer="svg14" />
  <path
     style="opacity:0.2"
     d="M 10,5 C 8.892,5 8,5.892 8,7 V 43 C 8,44.108 8.892,45 10,45 H 38 C 39.108,45 40,44.108 40,43 V 17 L 28,5 Z"
     id="path2" />
  <path
     style="fill:#000000;fill-opacity:1"
     d="M 10,4 C 8.892,4 8,4.892 8,6 V 42 C 8,43.108 8.892,44 10,44 H 38 C 39.108,44 40,43.108 40,42 V 16 L 28,4 Z"
     id="path4" />
  <path
     style="opacity:0.2"
     d="M 40,17 28,5 V 15 C 28,16.108 28.892,17 30,17 Z"
     id="path6" />
  <path
     style="fill:#444444;fill-opacity:1"
     d="M 40,16 28,4 V 14 C 28,15.108 28.892,16 30,16 Z"
     id="path8" />
  <path
     style="opacity:0.2;fill:#ffffff"
     d="M 10 4 C 8.892 4 8 4.892 8 6 L 8 7 C 8 5.892 8.892 5 10 5 L 28 5 L 28 4 L 10 4 z"
     id="path10" />
  <path
     inkscape:connector-curvature="0"
     style="fill:#fd7d00;stroke-width:1.33333325"
     d="m 21.437075,18.758667 c -0.375,0.536458 -0.677084,2.369791 0.401042,3.281248 1.276042,1.083333 1.546874,2.390625 1.546874,4.369793 0,2.781251 -2.197916,5.010417 -0.651041,7.651043 -4.3125,-3.807292 0.03125,-9.510418 -3.244791,-11.822918 1.296875,3.473959 -3.25,5.5625 -3.239584,8.9375 -0.0104,3.578126 2.588542,5.666667 5.703126,5.65625 -2.218751,-0.963543 -3.229167,-3.885416 -3.114584,-5.552083 1.5625,3.791667 3.895833,5.5625 7.791666,5.5625 -1.5,-2.09896 -1.744792,-2.364583 -1.833333,-3.703125 0.0104,-1.234375 0.473959,-1.505208 1.286459,-3.052083 2.041666,-3.432292 1.104166,-6.895833 -1.671875,-8.510417 -0.567709,-0.302083 -0.718751,-0.385416 -1.75,-0.817708 -0.593751,-0.296875 -1.182292,-0.9375 -1.223959,-2 m 6.963541,5.8125 c 2.0625,2.822917 -0.286457,5.114584 -1.359374,6.843748 -0.885416,1.359377 -0.03645,3.604169 0.890625,5.427085 0.07812,-1.541667 1.041667,-2.59896 1.817708,-3.151041 2.375,-1.916667 2.453125,-4.421875 1.1875,-6.645834 -0.791667,-1.223958 -1.489583,-1.619792 -2.536459,-2.473958 m 0,0"
     id="path21" />
</svg>
