<?xml version="1.0" encoding="UTF-8" standalone="no"?>
<svg
   xmlns:dc="http://purl.org/dc/elements/1.1/"
   xmlns:cc="http://creativecommons.org/ns#"
   xmlns:rdf="http://www.w3.org/1999/02/22-rdf-syntax-ns#"
   xmlns:svg="http://www.w3.org/2000/svg"
   xmlns="http://www.w3.org/2000/svg"
   xmlns:sodipodi="http://sodipodi.sourceforge.net/DTD/sodipodi-0.dtd"
   xmlns:inkscape="http://www.inkscape.org/namespaces/inkscape"
   width="48"
   height="48"
   version="1.1"
   id="svg14"
   sodipodi:docname="text-x-emacs-lisp.svg"
   inkscape:version="0.92.2 2405546, 2018-03-11">
  <metadata
     id="metadata20">
    <rdf:RDF>
      <cc:Work
         rdf:about="">
        <dc:format>image/svg+xml</dc:format>
        <dc:type
           rdf:resource="http://purl.org/dc/dcmitype/StillImage" />
        <dc:title></dc:title>
      </cc:Work>
    </rdf:RDF>
  </metadata>
  <defs
     id="defs18" />
  <sodipodi:namedview
     pagecolor="#ffffff"
     bordercolor="#666666"
     borderopacity="1"
     objecttolerance="10"
     gridtolerance="10"
     guidetolerance="10"
     inkscape:pageopacity="0"
     inkscape:pageshadow="2"
     inkscape:window-width="1366"
     inkscape:window-height="690"
     id="namedview16"
     showgrid="false"
     inkscape:zoom="3.7064667"
     inkscape:cx="4.43541"
     inkscape:cy="20.478921"
     inkscape:window-x="0"
     inkscape:window-y="0"
     inkscape:window-maximized="1"
     inkscape:current-layer="svg14" />
  <path
     style="opacity:0.2"
     d="M 10,5 C 8.892,5 8,5.892 8,7 V 43 C 8,44.108 8.892,45 10,45 H 38 C 39.108,45 40,44.108 40,43 V 17 L 28,5 Z"
     id="path2" />
  <path
     style="fill:#9100f7;fill-opacity:1"
     d="M 10,4 C 8.892,4 8,4.892 8,6 V 42 C 8,43.108 8.892,44 10,44 H 38 C 39.108,44 40,43.108 40,42 V 16 L 28,4 Z"
     id="path4" />
  <path
     style="opacity:0.2"
     d="M 40,17 28,5 V 15 C 28,16.108 28.892,17 30,17 Z"
     id="path6" />
  <path
     style="fill:#b448ff;fill-opacity:1"
     d="M 40,16 28,4 V 14 C 28,15.108 28.892,16 30,16 Z"
     id="path8" />
  <path
     style="opacity:0.2;fill:#ffffff"
     d="M 10 4 C 8.892 4 8 4.892 8 6 L 8 7 C 8 5.892 8.892 5 10 5 L 28 5 L 28 4 L 10 4 z"
     id="path10" />
  <path
     inkscape:connector-curvature="0"
     style="fill:#ffffff;fill-rule:evenodd;stroke-width:1.33333325"
     d="m 19.145507,36.351542 c 2.161459,0.510417 4.427084,0.484374 6.666667,0.536458 0,0 1.958333,-0.06771 3.036458,-0.255208 1.125,-0.203125 1.760416,-0.427084 2.098959,-0.848958 0.0104,-0.09896 0.161457,-0.421875 -0.291667,-0.713542 -1.151042,-0.739584 -2.609376,-0.90625 -5.458333,-1.473958 -3.151042,-0.671875 -4.109376,-1.385418 -4.59375,-1.916667 -0.463542,-0.526041 0.02604,-1.671875 2.520833,-2.3125 1.265625,-0.354167 6.005208,-0.578125 6.005208,-0.578125 -1.395834,-1.026042 -4.020833,-2.864583 -4.557291,-3.255208 -0.46875,-0.34375 -1.223958,-0.869792 -1.322917,-1.359375 -0.125,-0.479167 0.625,-0.734375 1.026041,-0.776041 2.031251,-0.09896 3.708333,0.05729 5.578125,0.312498 1.125,0.0104 1.979167,-0.609374 1.890626,-1.838541 -0.05729,-1.25 -1.343751,-2.213541 -2.739584,-2.208333 -1.3125,0.0052 -4.531249,0.34375 -4.531249,0.34375 3.791666,0.640626 4.411457,0.817708 4.624999,1.260416 -1.052084,0.994792 -2.927083,0.4375 -4.671875,0.3125 -2.213542,-0.260416 -3.760416,-0.520833 -4.401042,0.369792 -0.416666,0.578126 0.109374,1.260416 0.317708,1.656251 1.270835,1.895832 3.098959,2.880208 4.953126,4.020832 -3.453126,-0.812499 -6.166667,-0.192708 -7.869792,0.770835 -1.947916,1.24479 -1.541667,3.213541 1.687501,4.953124 1.895832,1.026041 3.130208,1.46875 5.906249,1.786458 1.802084,0.223959 2.067708,0.328126 2.0625,0.479167 -0.0104,0.208333 -2.104166,0.359375 -2.677082,0.421875 -1.463543,0.151042 -5.244792,0.307292 -5.265626,0.307292"
     id="path21" />
</svg>
