<?xml version="1.0" encoding="UTF-8" standalone="no"?>
<svg
   xmlns:dc="http://purl.org/dc/elements/1.1/"
   xmlns:cc="http://creativecommons.org/ns#"
   xmlns:rdf="http://www.w3.org/1999/02/22-rdf-syntax-ns#"
   xmlns:svg="http://www.w3.org/2000/svg"
   xmlns="http://www.w3.org/2000/svg"
   xmlns:sodipodi="http://sodipodi.sourceforge.net/DTD/sodipodi-0.dtd"
   xmlns:inkscape="http://www.inkscape.org/namespaces/inkscape"
   width="48"
   height="48"
   version="1.1"
   id="svg14"
   sodipodi:docname="text-x-gtkrc.svg"
   inkscape:version="0.92.2 2405546, 2018-03-11">
  <metadata
     id="metadata20">
    <rdf:RDF>
      <cc:Work
         rdf:about="">
        <dc:format>image/svg+xml</dc:format>
        <dc:type
           rdf:resource="http://purl.org/dc/dcmitype/StillImage" />
        <dc:title></dc:title>
      </cc:Work>
    </rdf:RDF>
  </metadata>
  <defs
     id="defs18" />
  <sodipodi:namedview
     pagecolor="#ffffff"
     bordercolor="#666666"
     borderopacity="1"
     objecttolerance="10"
     gridtolerance="10"
     guidetolerance="10"
     inkscape:pageopacity="0"
     inkscape:pageshadow="2"
     inkscape:window-width="1366"
     inkscape:window-height="690"
     id="namedview16"
     showgrid="false"
     inkscape:zoom="3.7064667"
     inkscape:cx="4.43541"
     inkscape:cy="20.478921"
     inkscape:window-x="0"
     inkscape:window-y="0"
     inkscape:window-maximized="1"
     inkscape:current-layer="svg14" />
  <path
     style="opacity:0.2"
     d="M 10,5 C 8.892,5 8,5.892 8,7 V 43 C 8,44.108 8.892,45 10,45 H 38 C 39.108,45 40,44.108 40,43 V 17 L 28,5 Z"
     id="path2" />
  <path
     style="fill:#0f6ee3;fill-opacity:1"
     d="M 10,4 C 8.892,4 8,4.892 8,6 V 42 C 8,43.108 8.892,44 10,44 H 38 C 39.108,44 40,43.108 40,42 V 16 L 28,4 Z"
     id="path4" />
  <path
     style="opacity:0.2"
     d="M 40,17 28,5 V 15 C 28,16.108 28.892,17 30,17 Z"
     id="path6" />
  <path
     style="fill:#4b96f3;fill-opacity:1"
     d="M 40,16 28,4 V 14 C 28,15.108 28.892,16 30,16 Z"
     id="path8" />
  <path
     style="opacity:0.2;fill:#ffffff"
     d="M 10 4 C 8.892 4 8 4.892 8 6 L 8 7 C 8 5.892 8.892 5 10 5 L 28 5 L 28 4 L 10 4 z"
     id="path10" />
  <g
     transform="matrix(1.3333333,0,0,1.3333333,6e-7,1.6937089)"
     id="g846">
    <path
       inkscape:connector-curvature="0"
       id="path21"
       d="m 23.21875,14.738281 v -0.652343 h -10.4375 v 0.652343 H 12.128906 V 18 h 0.652344 v 0.652344 h 10.4375 V 18 h 0.652344 v -3.261719 z m -10.4375,0 h 6.523438 V 18 H 12.78125 Z m 7.828125,0.652344 h 1.957031 v 1.304687 h -0.652344 v 0.652344 h -0.652343 v -0.652344 h -0.652344 z m 0,0"
       style="fill:#ffffff" />
    <path
       inkscape:connector-curvature="0"
       id="path23"
       d="m 12.78125,20.609375 v 0.652344 h -0.652344 v 3.914062 h 0.652344 v 0.648438 h 3.914062 v -0.648438 h 0.652344 v -3.914062 h -0.652344 v -0.652344 z m 3.261719,1.304687 h 0.652343 v 0.652344 l -0.652343,-0.02344 v 0.675781 h -0.652344 v 0.652344 h -0.652344 v 0.652344 H 14.085938 V 23.871094 H 13.433594 V 23.21875 h 0.652344 v 0.652344 h 0.652343 V 23.21875 h 0.652344 v -0.652344 h 0.652344 z m 0,0"
       style="fill:#ffffff" />
    <path
       inkscape:connector-curvature="0"
       id="path25"
       d="m 19.945312,20.609375 v 0.652344 h 2.609376 v -0.652344 z m 2.609376,0.652344 v 0.652343 h 0.652343 v -0.652343 z m 0.652343,0.652343 v 2.609376 h 0.652344 v -2.609376 z m 0,2.609376 h -0.652343 v 0.652343 h 0.652343 z m -0.652343,0.652343 h -2.609376 v 0.648438 h 2.609376 z m -2.609376,0 v -0.652343 h -0.652343 v 0.652343 z m -0.652343,-0.652343 v -2.609376 h -0.652344 v 2.609376 z m 0,-2.609376 h 0.652343 v -0.652343 h -0.652343 z m 0,0"
       style="fill:#ffffff" />
    <path
       inkscape:connector-curvature="0"
       id="path27"
       d="m 20.597656,23.871094 h -0.652344 v -1.304688 h 0.652344 v -0.652344 h 1.304688 v 0.652344 h 0.652344 v 1.304688 h -0.652344 v 0.652344 h -1.304688 z m 0,0"
       style="fill:#ffffff" />
  </g>
</svg>
