<?xml version="1.0" encoding="UTF-8" standalone="no"?>
<svg
   xmlns:dc="http://purl.org/dc/elements/1.1/"
   xmlns:cc="http://creativecommons.org/ns#"
   xmlns:rdf="http://www.w3.org/1999/02/22-rdf-syntax-ns#"
   xmlns:svg="http://www.w3.org/2000/svg"
   xmlns="http://www.w3.org/2000/svg"
   xmlns:sodipodi="http://sodipodi.sourceforge.net/DTD/sodipodi-0.dtd"
   xmlns:inkscape="http://www.inkscape.org/namespaces/inkscape"
   width="48"
   height="48"
   version="1"
   id="svg24"
   sodipodi:docname="text-x-r.svg"
   inkscape:version="0.92.2 2405546, 2018-03-11">
  <metadata
     id="metadata28">
    <rdf:RDF>
      <cc:Work
         rdf:about="">
        <dc:format>image/svg+xml</dc:format>
        <dc:type
           rdf:resource="http://purl.org/dc/dcmitype/StillImage" />
        <dc:title></dc:title>
      </cc:Work>
    </rdf:RDF>
  </metadata>
  <sodipodi:namedview
     pagecolor="#ffffff"
     bordercolor="#666666"
     borderopacity="1"
     objecttolerance="10"
     gridtolerance="10"
     guidetolerance="10"
     inkscape:pageopacity="0"
     inkscape:pageshadow="2"
     inkscape:window-width="1366"
     inkscape:window-height="690"
     id="namedview26"
     showgrid="false"
     inkscape:zoom="4.9166667"
     inkscape:cx="-0.61016949"
     inkscape:cy="24"
     inkscape:window-x="0"
     inkscape:window-y="0"
     inkscape:window-maximized="1"
     inkscape:current-layer="svg24" />
  <defs
     id="defs8">
    <clipPath
       id="clipPath4266-4"
       clipPathUnits="userSpaceOnUse">
      <path
         fill="#fff"
         d="m146 240c-1.108 0-2 0.892-2 2v36c0 1.108 0.892 2 2 2h28c1.108 0 2-0.892 2-2v-26l-12-12h-18z"
         id="path2" />
    </clipPath>
    <filter
       id="filter4987"
       width="1.26"
       height="1.223"
       x="-.13"
       y="-.11">
      <feGaussianBlur
         stdDeviation=".65"
         id="feGaussianBlur5" />
    </filter>
  </defs>
  <path
     style="opacity:0.2"
     d="M 10,5 C 8.892,5 8,5.892 8,7 v 36 c 0,1.108 0.892,2 2,2 h 28 c 1.108,0 2,-0.892 2,-2 V 17 L 29,16 28,5 Z"
     id="path10" />
  <path
     opacity=".1"
     d="m163.22 242.45v11c0 1.1046 0.89543 2 2 2h10l-1-1-10-9z"
     clip-path="url(#clipPath4266-4)"
     filter="url(#filter4987)"
     transform="translate(-135.61 -237.72)"
     id="path12" />
  <path
     fill="#e4e4e4"
     d="m10 4c-1.108 0-2 0.892-2 2v36c0 1.108 0.892 2 2 2h28c1.108 0 2-0.892 2-2v-26l-11-1-1-11z"
     id="path14"
     style="fill:#4cc0f5;fill-opacity:1" />
  <path
     fill="#fff"
     opacity=".2"
     d="m10 4c-1.108 0-2 0.892-2 2v1c0-1.108 0.892-2 2-2h18l11 11h1l-12-12z"
     id="path16" />
  <path
     style="opacity:0.2"
     d="m 28,5 v 10 c 0,1.1046 0.89543,2 2,2 h 10 z"
     id="path18" />
  <path
     fill="#fafafa"
     d="m28 4v10c0 1.1046 0.89543 2 2 2h10l-12-12z"
     id="path20"
     style="fill:#81d3f8;fill-opacity:1" />
  <g
     transform="matrix(1.3333333,0,0,1.3333333,6e-7,1.519907)"
     id="g840">
    <path
       inkscape:connector-curvature="0"
       id="path21"
       d="m 18,14.691406 c -4.28125,0 -7.75,2.316406 -7.75,5.167969 0,2.25 2.199219,4.15625 5.207031,4.867187 v -1.710937 c -1.5625,-0.703125 -2.625,-1.855469 -2.625,-3.15625 0,-2.140625 2.75,-3.875 6.136719,-3.875 3.386719,0 6.136719,1.734375 6.136719,3.875 0,1.675781 -1.625,3.15625 -3.980469,3.699219 0.1875,0.3125 0.378906,0.621094 0.566406,0.925781 2.449219,-0.867187 4.058594,-2.648437 4.058594,-4.625 0,-2.851563 -3.46875,-5.167969 -7.75,-5.167969 z m 0,0"
       style="fill:#ffffff" />
    <path
       inkscape:connector-curvature="0"
       id="path23"
       d="m 16.0625,17.277344 v 9.683594 H 18 v -3.230469 h 0.644531 l 1.9375,3.230469 h 1.9375 l -1.9375,-3.230469 -0.140625,-0.222657 c 1.210938,-0.460937 2.078125,-1.628906 2.078125,-3.003906 0,-1.78125 -1.445312,-3.226562 -3.230469,-3.226562 M 18,19.214844 h 1.289062 c 0.714844,0 1.292969,0.578125 1.292969,1.289062 0,0.714844 -0.582031,1.289063 -1.292969,1.289063 H 18 v -2.582031 m 0,0.0039"
       style="fill:#ffffff" />
  </g>
</svg>
