<?xml version="1.0" encoding="UTF-8" standalone="no"?>
<svg
   xmlns:dc="http://purl.org/dc/elements/1.1/"
   xmlns:cc="http://creativecommons.org/ns#"
   xmlns:rdf="http://www.w3.org/1999/02/22-rdf-syntax-ns#"
   xmlns:svg="http://www.w3.org/2000/svg"
   xmlns="http://www.w3.org/2000/svg"
   xmlns:sodipodi="http://sodipodi.sourceforge.net/DTD/sodipodi-0.dtd"
   xmlns:inkscape="http://www.inkscape.org/namespaces/inkscape"
   width="48"
   height="48"
   version="1"
   id="svg16"
   sodipodi:docname="x-office-contact.svg"
   inkscape:version="0.92.2 2405546, 2018-03-11">
  <metadata
     id="metadata22">
    <rdf:RDF>
      <cc:Work
         rdf:about="">
        <dc:format>image/svg+xml</dc:format>
        <dc:type
           rdf:resource="http://purl.org/dc/dcmitype/StillImage" />
        <dc:title></dc:title>
      </cc:Work>
    </rdf:RDF>
  </metadata>
  <defs
     id="defs20" />
  <sodipodi:namedview
     pagecolor="#ffffff"
     bordercolor="#666666"
     borderopacity="1"
     objecttolerance="10"
     gridtolerance="10"
     guidetolerance="10"
     inkscape:pageopacity="0"
     inkscape:pageshadow="2"
     inkscape:window-width="1366"
     inkscape:window-height="690"
     id="namedview18"
     showgrid="false"
     inkscape:zoom="4.9166667"
     inkscape:cx="24"
     inkscape:cy="24"
     inkscape:window-x="0"
     inkscape:window-y="0"
     inkscape:window-maximized="1"
     inkscape:current-layer="svg16" />
  <path
     style="opacity:0.2"
     d="M 10,5 C 8.892,5 8,5.892 8,7 v 36 c 0,1.108 0.892,2 2,2 h 28 c 1.108,0 2,-0.892 2,-2 V 17 L 29,16 28,5 Z"
     id="path2" />
  <path
     fill="#dc682a"
     d="m10 4c-1.108 0-2 0.892-2 2v36c0 1.108 0.892 2 2 2h28c1.108 0 2-0.892 2-2v-26l-11-1-1-11z"
     id="path4" />
  <path
     fill="#fff"
     style="opacity:0.2"
     d="m10 4c-1.108 0-2 0.892-2 2v1c0-1.108 0.892-2 2-2h18l11 11h1l-12-12z"
     id="path6" />
  <path
     style="opacity:0.2"
     d="m 28,5 v 10 c 0,1.1046 0.89543,2 2,2 h 10 z"
     id="path8" />
  <path
     fill="#f5c97c"
     d="m28 4v10c0 1.1046 0.89543 2 2 2h10l-12-12z"
     id="path10" />
  <path
     inkscape:connector-curvature="0"
     style="fill:#000000;fill-opacity:0.70454544;stroke-width:1.33333325"
     d="m 23.535083,19.595676 h 1.729168 c 2.583333,0 3.010416,3.031251 3.010416,3.031251 v 3.015624 c 0,1.015625 -2.156251,3.083333 -2.156251,3.083333 v 1.015625 l 3.447917,1.994792 V 33.76755 L 23.972584,33.804 H 19.233 v -2.026042 l 3.447917,-2.03125 v -1.015622 c 0,0 -2.161458,-2.057291 -2.15625,-3.078124 v -3.010416 c 0,0 0.427083,-3.046875 3.010416,-3.046875 z m 0,0"
     id="path8-3-6" />
  <g
     id="g870"
     transform="translate(0,1.2)">
    <path
       id="path8-3"
       d="m 23.135416,18.095676 h 1.729168 c 2.583333,0 3.010416,3.031251 3.010416,3.031251 v 3.015624 c 0,1.015625 -2.156251,3.083333 -2.156251,3.083333 v 1.015625 l 3.447917,1.994792 V 32.26755 L 23.572917,32.304 h -4.739584 v -2.026042 l 3.447917,-2.03125 v -1.015622 c 0,0 -2.161458,-2.057291 -2.15625,-3.078124 v -3.010416 c 0,0 0.427083,-3.046875 3.010416,-3.046875 z m 0,0"
       style="fill:#ffffff;stroke-width:1.33333325"
       inkscape:connector-curvature="0" />
  </g>
</svg>
