<?xml version="1.0" encoding="UTF-8" standalone="no"?>
<svg
   xmlns:dc="http://purl.org/dc/elements/1.1/"
   xmlns:cc="http://creativecommons.org/ns#"
   xmlns:rdf="http://www.w3.org/1999/02/22-rdf-syntax-ns#"
   xmlns:svg="http://www.w3.org/2000/svg"
   xmlns="http://www.w3.org/2000/svg"
   xmlns:xlink="http://www.w3.org/1999/xlink"
   xmlns:sodipodi="http://sodipodi.sourceforge.net/DTD/sodipodi-0.dtd"
   xmlns:inkscape="http://www.inkscape.org/namespaces/inkscape"
   height="512"
   width="512"
   version="1.1"
   id="svg41"
   sodipodi:docname="computer-laptop.svg"
   inkscape:version="0.92.2 2405546, 2018-03-11">
  <metadata
     id="metadata47">
    <rdf:RDF>
      <cc:Work
         rdf:about="">
        <dc:format>image/svg+xml</dc:format>
        <dc:type
           rdf:resource="http://purl.org/dc/dcmitype/StillImage" />
        <dc:title></dc:title>
      </cc:Work>
    </rdf:RDF>
  </metadata>
  <defs
     id="defs45" />
  <sodipodi:namedview
     pagecolor="#ffffff"
     bordercolor="#666666"
     borderopacity="1"
     objecttolerance="10"
     gridtolerance="10"
     guidetolerance="10"
     inkscape:pageopacity="0"
     inkscape:pageshadow="2"
     inkscape:window-width="1366"
     inkscape:window-height="695"
     id="namedview43"
     showgrid="false"
     inkscape:zoom="0.74788476"
     inkscape:cx="112.93364"
     inkscape:cy="350.8477"
     inkscape:window-x="0"
     inkscape:window-y="0"
     inkscape:window-maximized="1"
     inkscape:current-layer="svg41" />
  <linearGradient
     id="a">
    <stop
       offset="0"
       stop-color="#c1c3c3"
       id="stop2" />
    <stop
       offset="1"
       stop-color="#e6e7e8"
       id="stop4" />
  </linearGradient>
  <linearGradient
     id="b">
    <stop
       offset="0"
       stop-color="#141414"
       id="stop7" />
    <stop
       offset="1"
       stop-color="#2d2d2f"
       id="stop9" />
  </linearGradient>
  <linearGradient
     id="c"
     gradientTransform="matrix(1.1939599,0,0,0.69532731,-79.246451,166.00503)"
     gradientUnits="userSpaceOnUse"
     x1="409.06189"
     x2="409.17279"
     xlink:href="#a"
     y1="544.83264"
     y2="540.72473" />
  <linearGradient
     id="d"
     gradientTransform="matrix(1.0741978,0,0,0.95636635,-30.315117,21.385098)"
     gradientUnits="userSpaceOnUse"
     x1="408.70813"
     x2="408.78354"
     xlink:href="#b"
     y1="538.93011"
     y2="503.87836" />
  <linearGradient
     id="e"
     gradientTransform="matrix(1.0741978,0,0,0.95636635,-30.315117,21.385098)"
     gradientUnits="userSpaceOnUse"
     x1="408.33063"
     x2="407.33252"
     y1="534.90588"
     y2="506.0513">
    <stop
       offset="0"
       stop-color="#08f"
       id="stop14" />
    <stop
       offset="1"
       stop-color="#02c3ff"
       id="stop16" />
  </linearGradient>
  <linearGradient
     id="f"
     gradientTransform="matrix(0.9352708,0,0,1,27.228417,4.401296)"
     gradientUnits="userSpaceOnUse"
     x1="406.56601"
     x2="406.82758"
     xlink:href="#a"
     y1="547.64539"
     y2="530.64264" />
  <linearGradient
     id="g"
     gradientUnits="userSpaceOnUse"
     x1="408.45584"
     x2="408.55862"
     xlink:href="#b"
     y1="544.01703"
     y2="525.80902" />
  <g
     id="g864"
     transform="matrix(7.2873696,0,0,7.2873696,22.687152,22.806578)">
    <g
       id="g39"
       transform="translate(-376.57144,-491.79797)">
      <g
         id="g27"
         style="fill-rule:evenodd">
        <rect
           style="fill:#141414;fill-opacity:1"
           id="rect21"
           y="503.07016"
           x="380.6423"
           width="55.858288"
           ry="0.91615498"
           height="33.603188" />
        <path
           id="path23"
           d="m 381.55859,502.87131 c -0.61403,0 -1.11523,0.5012 -1.11523,1.11524 v 31.77148 c 0,0.61404 0.5012,1.11328 1.11523,1.11328 h 54.02539 c 0.61404,0 1.11524,-0.49924 1.11524,-1.11328 v -31.77148 c 0,-0.61404 -0.5012,-1.11524 -1.11524,-1.11524 z m 0,0.39649 h 54.02539 c 0.40107,0 0.71875,0.31768 0.71875,0.71875 v 31.77148 c 0,0.40107 -0.31768,0.7168 -0.71875,0.7168 h -54.02539 c -0.40106,0 -0.71875,-0.31573 -0.71875,-0.7168 v -31.77148 c 0,-0.40107 0.31769,-0.71875 0.71875,-0.71875 z"
           inkscape:connector-curvature="0"
           style="fill:#c3c5ca" />
        <rect
           style="fill:#0088ff;fill-opacity:1"
           id="rect25"
           y="505.0874"
           x="382.88052"
           width="51.381828"
           ry="0.478183"
           height="28.839331" />
      </g>
      <path
         style="fill:#c1c3c3;fill-opacity:1"
         id="path29"
         d="m 380.73269,535.73487 55.67475,-0.0109 c 0.35105,-7e-5 0.82182,0.83998 0.94142,1.17 l 2.01424,5.55817 c 0.1196,0.33003 -0.20056,0.91877 -0.55159,0.91877 h -60.46574 c -0.35102,0 -0.67158,-0.65284 -0.54767,-0.98127 l 2.07334,-5.49567 c 0.1239,-0.32843 0.45553,-1.15902 0.86125,-1.1591 z"
         inkscape:connector-curvature="0" />
      <path
         style="fill:#141414;fill-opacity:1"
         id="path31"
         d="m 382.08035,536.17346 53.74602,-0.0393 c 0.33318,-2.4e-4 0.5305,0.61663 0.61224,0.8585 l 1.36453,4.03787 c 0.0817,0.24188 -0.2682,0.43953 -0.60135,0.43953 h -57.38681 c -0.33314,0 -0.69231,-0.20031 -0.60135,-0.43953 l 1.56497,-4.11599 c 0.091,-0.23923 0.26141,-0.66752 0.6455,-0.6947 z"
         inkscape:connector-curvature="0" />
      <path
         style="fill:#c1c3c3;fill-opacity:1"
         id="path33"
         d="m 377.71216,543.3709 c 0,0.74728 0.98687,1.35307 2.20424,1.35307 h 57.31008 c 1.21737,0 2.20424,-0.60579 2.20424,-1.35307 0.0136,-1.33712 -0.005,-1.39931 -2.20424,-1.35307 H 379.9164 c -2.17074,-0.0326 -2.18883,-0.0326 -2.20424,1.35307 z"
         inkscape:connector-curvature="0" />
      <circle
         id="circle35"
         r="0.59056002"
         cy="543.37885"
         cx="435.84473"
         style="fill:#151515;fill-rule:evenodd" />
      <path
         style="fill:none;fill-opacity:0.07843101;fill-rule:evenodd"
         id="path37"
         d="m 381.55777,503.06967 c -0.50755,0 -0.91602,0.40847 -0.91602,0.91602 v 31.77148 c 0,0.25377 0.10199,0.48285 0.26758,0.64844 l 8.31836,8.31836 h 47.99805 c 1.21737,0 2.20507,-0.60624 2.20507,-1.35352 0.002,-0.15126 -0.0113,-0.23319 -0.0137,-0.35351 0.043,-0.087 0.063,-0.17981 0.0273,-0.2793 l -0.041,-0.11719 c -0.0196,-0.12347 -0.057,-0.22512 -0.11133,-0.30468 l -1.94336,-5.42188 c -0.0897,-0.25012 -0.38092,-0.79048 -0.66992,-1.03906 0.003,-0.0338 0.0195,-0.0631 0.0195,-0.0977 v -31.77148 c 0,-0.0816 -0.0301,-0.15376 -0.0469,-0.23047 l -0.41797,-0.41797 c -0.16558,-0.16547 -0.39478,-0.26758 -0.64844,-0.26758 h -54.02734 z"
         inkscape:connector-curvature="0" />
    </g>
  </g>
</svg>
