<?xml version="1.0" encoding="UTF-8" standalone="no"?>
<svg
   xmlns:dc="http://purl.org/dc/elements/1.1/"
   xmlns:cc="http://creativecommons.org/ns#"
   xmlns:rdf="http://www.w3.org/1999/02/22-rdf-syntax-ns#"
   xmlns:svg="http://www.w3.org/2000/svg"
   xmlns="http://www.w3.org/2000/svg"
   xmlns:xlink="http://www.w3.org/1999/xlink"
   xmlns:sodipodi="http://sodipodi.sourceforge.net/DTD/sodipodi-0.dtd"
   xmlns:inkscape="http://www.inkscape.org/namespaces/inkscape"
   width="384pt"
   height="384pt"
   version="1.1"
   viewBox="0 0 384 384"
   id="svg112"
   sodipodi:docname="network-modem.svg"
   inkscape:version="0.92.2 2405546, 2018-03-11">
  <metadata
     id="metadata116">
    <rdf:RDF>
      <cc:Work
         rdf:about="">
        <dc:format>image/svg+xml</dc:format>
        <dc:type
           rdf:resource="http://purl.org/dc/dcmitype/StillImage" />
      </cc:Work>
    </rdf:RDF>
  </metadata>
  <sodipodi:namedview
     pagecolor="#ffffff"
     bordercolor="#666666"
     borderopacity="1"
     objecttolerance="10"
     gridtolerance="10"
     guidetolerance="10"
     inkscape:pageopacity="0"
     inkscape:pageshadow="2"
     inkscape:window-width="1366"
     inkscape:window-height="695"
     id="namedview114"
     showgrid="false"
     inkscape:zoom="0.4609375"
     inkscape:cx="256"
     inkscape:cy="256"
     inkscape:window-x="0"
     inkscape:window-y="0"
     inkscape:window-maximized="1"
     inkscape:current-layer="svg112" />
  <defs
     id="defs74">
    <filter
       id="alpha"
       width="100%"
       height="100%"
       x="0%"
       y="0%"
       filterUnits="objectBoundingBox">
      <feColorMatrix
         in="SourceGraphic"
         type="matrix"
         values="0 0 0 0 1 0 0 0 0 1 0 0 0 0 1 0 0 0 1 0"
         id="feColorMatrix2" />
    </filter>
    <mask
       id="mask1">
      <g
         filter="url(#alpha)"
         id="g7">
        <rect
           style="fill:rgb(0%,0%,0%);fill-opacity:0.101961"
           width="384"
           height="384"
           x="0"
           y="0"
           id="rect5" />
      </g>
    </mask>
    <clipPath
       id="clip2">
      <rect
         width="384"
         height="384"
         x="0"
         y="0"
         id="rect10" />
    </clipPath>
    <g
       id="surface8"
       clip-path="url(#clip2)">
      <path
         d="M 93.761719 22.972656 C 84.15625 22.972656 76.425781 30.707031 76.425781 40.308594 L 76.425781 46.089844 C 76.425781 36.484375 84.15625 28.753906 93.761719 28.753906 C 103.367188 28.753906 111.097656 36.484375 111.097656 46.089844 L 111.097656 40.308594 C 111.097656 30.707031 103.367188 22.972656 93.761719 22.972656 Z M 93.761719 22.972656"
         style="fill:rgb(100%,100%,100%)"
         id="path13" />
    </g>
    <filter
       id="alpha-7"
       width="100%"
       height="100%"
       x="0%"
       y="0%"
       filterUnits="objectBoundingBox">
      <feColorMatrix
         in="SourceGraphic"
         type="matrix"
         values="0 0 0 0 1 0 0 0 0 1 0 0 0 0 1 0 0 0 1 0"
         id="feColorMatrix16" />
    </filter>
    <mask
       id="mask8">
      <g
         filter="url(#alpha)"
         style="filter:url(#alpha-7)"
         id="g21">
        <rect
           width="384"
           height="384"
           x="0"
           y="0"
           style="fill:rgb(0%,0%,0%);fill-opacity:0.301961"
           id="rect19" />
      </g>
    </mask>
    <clipPath
       id="clip9">
      <rect
         width="384"
         height="384"
         x="0"
         y="0"
         id="rect24" />
    </clipPath>
    <g
       id="surface29"
       clip-path="url(#clip9)">
      <path
         style="fill:rgb(0%,0%,0%)"
         d="M 360.75 125.707031 L 360.75 47.355469 C 360.75 39.035156 354.003906 32.289062 345.683594 32.289062 L 38.316406 32.289062 C 29.996094 32.289062 23.25 39.035156 23.25 47.355469 L 23.25 125.707031 C 23.25 134.027344 29.996094 140.773438 38.316406 140.773438 L 345.683594 140.773438 C 354.003906 140.773438 360.75 134.027344 360.75 125.707031 Z M 360.75 125.707031"
         id="path27" />
    </g>
    <mask
       id="mask9">
      <g
         filter="url(#alpha)"
         style="filter:url(#alpha-7)"
         id="g32">
        <rect
           width="384"
           height="384"
           x="0"
           y="0"
           style="fill:rgb(0%,0%,0%);fill-opacity:0.2"
           id="rect30" />
      </g>
    </mask>
    <clipPath
       id="clip10">
      <rect
         width="384"
         height="384"
         x="0"
         y="0"
         id="rect35" />
    </clipPath>
    <g
       id="surface32"
       clip-path="url(#clip10)">
      <path
         style="fill:rgb(0%,0%,0%)"
         d="M 252.269531 65.4375 C 252.269531 73.757812 245.523438 80.503906 237.199219 80.503906 C 228.878906 80.503906 222.132812 73.757812 222.132812 65.4375 C 222.132812 57.117188 228.878906 50.371094 237.199219 50.371094 C 245.523438 50.371094 252.269531 57.117188 252.269531 65.4375 Z M 252.269531 65.4375"
         id="path38" />
    </g>
    <mask
       id="mask10">
      <g
         filter="url(#alpha)"
         style="filter:url(#alpha-7)"
         id="g43">
        <rect
           width="384"
           height="384"
           x="0"
           y="0"
           style="fill:rgb(0%,0%,0%);fill-opacity:0.2"
           id="rect41" />
      </g>
    </mask>
    <clipPath
       id="clip11">
      <rect
         width="384"
         height="384"
         x="0"
         y="0"
         id="rect46" />
    </clipPath>
    <g
       id="surface35"
       clip-path="url(#clip11)">
      <path
         style="fill:rgb(0%,0%,0%)"
         d="M 300.480469 65.4375 C 300.480469 73.757812 293.738281 80.503906 285.414062 80.503906 C 277.09375 80.503906 270.347656 73.757812 270.347656 65.4375 C 270.347656 57.117188 277.09375 50.371094 285.414062 50.371094 C 293.738281 50.371094 300.480469 57.117188 300.480469 65.4375 Z M 300.480469 65.4375"
         id="path49" />
    </g>
    <mask
       id="mask11">
      <g
         filter="url(#alpha)"
         style="filter:url(#alpha-7)"
         id="g54">
        <rect
           width="384"
           height="384"
           x="0"
           y="0"
           style="fill:rgb(0%,0%,0%);fill-opacity:0.2"
           id="rect52" />
      </g>
    </mask>
    <clipPath
       id="clip12">
      <rect
         width="384"
         height="384"
         x="0"
         y="0"
         id="rect57" />
    </clipPath>
    <g
       id="surface38"
       clip-path="url(#clip12)">
      <path
         style="fill:rgb(0%,0%,0%)"
         d="M 342.667969 65.4375 C 342.667969 73.757812 335.925781 80.503906 327.601562 80.503906 C 319.28125 80.503906 312.535156 73.757812 312.535156 65.4375 C 312.535156 57.117188 319.28125 50.371094 327.601562 50.371094 C 335.925781 50.371094 342.667969 57.117188 342.667969 65.4375 Z M 342.667969 65.4375"
         id="path60" />
    </g>
    <mask
       id="mask12">
      <g
         filter="url(#alpha)"
         style="filter:url(#alpha-7)"
         id="g65">
        <rect
           width="384"
           height="384"
           x="0"
           y="0"
           style="fill:rgb(0%,0%,0%);fill-opacity:0.2"
           id="rect63" />
      </g>
    </mask>
    <clipPath
       id="clip13">
      <rect
         width="384"
         height="384"
         x="0"
         y="0"
         id="rect68" />
    </clipPath>
    <g
       id="surface41"
       clip-path="url(#clip13)">
      <path
         style="fill:rgb(100%,100%,100%)"
         d="M 38.316406 26.261719 C 29.96875 26.261719 23.25 32.984375 23.25 41.332031 L 23.25 47.355469 C 23.25 39.011719 29.96875 32.289062 38.316406 32.289062 L 345.683594 32.289062 C 354.03125 32.289062 360.75 39.011719 360.75 47.355469 L 360.75 41.332031 C 360.75 32.984375 354.03125 26.261719 345.683594 26.261719 Z M 38.316406 26.261719"
         id="path71" />
    </g>
  </defs>
  <g
     transform="translate(-2.6141385,-4.84835)"
     id="g110">
    <g
       transform="translate(-21.860386,28.763666)"
       id="g80">
      <path
         d="M 111.09766,40.308594 V 202.11328 c 0,9.57422 -7.76172,17.33594 -17.335941,17.33594 -9.574219,0 -17.335938,-7.76172 -17.335938,-17.33594 V 40.308594 c 0,-9.574219 7.761719,-17.335938 17.335938,-17.335938 9.574221,0 17.335941,7.761719 17.335941,17.335938 z m 0,0"
         id="path76" />
      <use
         width="100%"
         height="100%"
         x="0"
         y="0"
         mask="url(#mask1)"
         xlink:href="#surface8"
         id="use78" />
    </g>
    <g
       transform="translate(17.2582,-332.50797)"
       id="g108">
      <use
         width="100%"
         height="100%"
         x="0"
         y="0"
         mask="url(#mask8)"
         transform="translate(-14.644063,533.69491)"
         xlink:href="#surface29"
         id="use82" />
      <path
         d="m 346.10594,653.3746 v -78.34766 c 0,-8.32422 -6.74609,-15.07031 -15.06641,-15.07031 H 23.672343 c -8.320312,0 -15.066406,6.74609 -15.066406,15.07031 v 78.34766 c 0,8.32031 6.746094,15.0664 15.066406,15.0664 H 331.03953 c 8.32032,0 15.06641,-6.74609 15.06641,-15.0664 z m 0,0"
         style="fill:#8e8e8e;fill-opacity:1"
         id="path84" />
      <path
         d="m 129.1411,596.1208 -24.10547,36.16017"
         style="fill:none;stroke:#000000;stroke-width:18.08035851;stroke-linecap:round"
         id="path86" />
      <path
         d="M 92.980942,596.1208 68.875473,632.28097"
         style="fill:none;stroke:#000000;stroke-width:18.08035851;stroke-linecap:round"
         id="path88" />
      <path
         d="M 56.820786,596.1208 32.711407,632.28097"
         style="fill:none;stroke:#000000;stroke-width:18.08035851;stroke-linecap:round"
         id="path90" />
      <path
         d="m 165.30126,596.1208 -24.10547,36.16017"
         style="fill:none;stroke:#000000;stroke-width:18.08035851;stroke-linecap:round"
         id="path92" />
      <use
         width="100%"
         height="100%"
         x="0"
         y="0"
         mask="url(#mask9)"
         transform="translate(-14.644063,533.69491)"
         xlink:href="#surface32"
         id="use94" />
      <use
         width="100%"
         height="100%"
         x="0"
         y="0"
         mask="url(#mask10)"
         transform="translate(-14.644063,533.69491)"
         xlink:href="#surface35"
         id="use96" />
      <use
         width="100%"
         height="100%"
         x="0"
         y="0"
         mask="url(#mask11)"
         transform="translate(-14.644063,533.69491)"
         xlink:href="#surface38"
         id="use98" />
      <path
         d="m 237.62547,593.10507 c 0,8.32031 -6.74609,15.0664 -15.07031,15.0664 -8.32031,0 -15.06641,-6.74609 -15.06641,-15.0664 0,-8.32032 6.7461,-15.06641 15.06641,-15.06641 8.32422,0 15.07031,6.74609 15.07031,15.06641 z m 0,0"
         style="fill:#19a187"
         id="path100" />
      <path
         d="m 285.83641,593.10507 c 0,8.32031 -6.74219,15.0664 -15.06641,15.0664 -8.32031,0 -15.0664,-6.74609 -15.0664,-15.0664 0,-8.32032 6.74609,-15.06641 15.0664,-15.06641 8.32422,0 15.06641,6.74609 15.06641,15.06641 z m 0,0"
         style="fill:#b81717;fill-opacity:0.99607801"
         id="path102" />
      <path
         d="m 328.02391,593.10507 c 0,8.32031 -6.74219,15.0664 -15.06641,15.0664 -8.32031,0 -15.0664,-6.74609 -15.0664,-15.0664 0,-8.32032 6.74609,-15.06641 15.0664,-15.06641 8.32422,0 15.06641,6.74609 15.06641,15.06641 z m 0,0"
         style="fill:#ffcc3f"
         id="path104" />
      <use
         width="100%"
         height="100%"
         x="0"
         y="0"
         mask="url(#mask12)"
         transform="translate(-14.644063,533.69491)"
         xlink:href="#surface41"
         id="use106" />
    </g>
  </g>
</svg>
