<?xml version="1.0" encoding="UTF-8" standalone="no"?>
<svg
   xmlns:dc="http://purl.org/dc/elements/1.1/"
   xmlns:cc="http://creativecommons.org/ns#"
   xmlns:rdf="http://www.w3.org/1999/02/22-rdf-syntax-ns#"
   xmlns:svg="http://www.w3.org/2000/svg"
   xmlns="http://www.w3.org/2000/svg"
   xmlns:sodipodi="http://sodipodi.sourceforge.net/DTD/sodipodi-0.dtd"
   xmlns:inkscape="http://www.inkscape.org/namespaces/inkscape"
   width="512"
   height="512"
   version="1.1"
   viewBox="0 0 512 512"
   id="svg82"
   sodipodi:docname="network-server.svg"
   inkscape:version="0.92.2 2405546, 2018-03-11">
  <metadata
     id="metadata88">
    <rdf:RDF>
      <cc:Work
         rdf:about="">
        <dc:format>image/svg+xml</dc:format>
        <dc:type
           rdf:resource="http://purl.org/dc/dcmitype/StillImage" />
        <dc:title></dc:title>
      </cc:Work>
    </rdf:RDF>
  </metadata>
  <defs
     id="defs86" />
  <sodipodi:namedview
     pagecolor="#ffffff"
     bordercolor="#666666"
     borderopacity="1"
     objecttolerance="10"
     gridtolerance="10"
     guidetolerance="10"
     inkscape:pageopacity="0"
     inkscape:pageshadow="2"
     inkscape:window-width="1366"
     inkscape:window-height="695"
     id="namedview84"
     showgrid="false"
     inkscape:zoom="0.61458333"
     inkscape:cx="-2.8526239"
     inkscape:cy="280.97868"
     inkscape:window-x="0"
     inkscape:window-y="0"
     inkscape:window-maximized="1"
     inkscape:current-layer="svg82" />
  <g
     id="g938"
     transform="matrix(11.25,0,0,11.25,-14,-25.25)">
    <g
       id="g26">
      <rect
         id="rect2"
         transform="matrix(0,-1,-1,0,0,0)"
         ry="2"
         rx="2"
         y="-44"
         x="-45"
         height="40"
         width="13"
         style="opacity:0.2" />
      <rect
         id="rect4"
         transform="matrix(0,-1,-1,0,0,0)"
         ry="2"
         rx="2"
         y="-44"
         x="-44"
         height="40"
         width="13"
         style="fill:#8e8e8e" />
      <path
         id="path6"
         d="m 19,35 -3,5"
         style="opacity:0.5;stroke:#000000;stroke-width:2;stroke-linecap:round"
         inkscape:connector-curvature="0" />
      <path
         id="path8"
         d="m 15,35 -3,5"
         style="opacity:0.5;stroke:#000000;stroke-width:2;stroke-linecap:round"
         inkscape:connector-curvature="0" />
      <path
         id="path10"
         d="M 11,35 8,40"
         style="opacity:0.5;stroke:#000000;stroke-width:2;stroke-linecap:round"
         inkscape:connector-curvature="0" />
      <path
         id="path12"
         d="m 23,35 -3,5"
         style="opacity:0.5;stroke:#000000;stroke-width:2;stroke-linecap:round"
         inkscape:connector-curvature="0" />
      <circle
         id="circle14"
         r="2"
         cy="36"
         cx="30"
         style="opacity:0.2" />
      <circle
         id="circle16"
         r="2"
         cy="36"
         cx="35"
         style="opacity:0.2" />
      <circle
         id="circle18"
         r="2"
         cy="36"
         cx="40"
         style="opacity:0.2" />
      <circle
         id="circle20"
         r="2"
         cy="35"
         cx="30"
         style="fill:#76ff03" />
      <circle
         id="circle22"
         r="2"
         cy="35"
         cx="35"
         style="fill:#ffff00" />
      <circle
         id="circle24"
         r="2"
         cy="35"
         cx="40"
         style="fill:#ffcd40" />
    </g>
    <g
       id="g52">
      <rect
         id="rect28"
         transform="matrix(0,-1,-1,0,0,0)"
         ry="2"
         rx="2"
         y="-44"
         x="-32"
         height="40"
         width="13"
         style="opacity:0.2" />
      <rect
         id="rect30"
         transform="matrix(0,-1,-1,0,0,0)"
         ry="2"
         rx="2"
         y="-44"
         x="-31"
         height="40"
         width="13"
         style="fill:#8e8e8e" />
      <path
         id="path32"
         d="m 19,22 -3,5"
         style="opacity:0.5;stroke:#000000;stroke-width:2;stroke-linecap:round"
         inkscape:connector-curvature="0" />
      <path
         id="path34"
         d="m 15,22 -3,5"
         style="opacity:0.5;stroke:#000000;stroke-width:2;stroke-linecap:round"
         inkscape:connector-curvature="0" />
      <path
         id="path36"
         d="M 11,22 8,27"
         style="opacity:0.5;stroke:#000000;stroke-width:2;stroke-linecap:round"
         inkscape:connector-curvature="0" />
      <path
         id="path38"
         d="m 23,22 -3,5"
         style="opacity:0.5;stroke:#000000;stroke-width:2;stroke-linecap:round"
         inkscape:connector-curvature="0" />
      <circle
         id="circle40"
         r="2"
         cy="23"
         cx="30"
         style="opacity:0.2" />
      <circle
         id="circle42"
         r="2"
         cy="23"
         cx="35"
         style="opacity:0.2" />
      <circle
         id="circle44"
         r="2"
         cy="23"
         cx="40"
         style="opacity:0.2" />
      <circle
         id="circle46"
         r="2"
         cy="22"
         cx="30"
         style="fill:#76ff03" />
      <circle
         id="circle48"
         r="2"
         cy="22"
         cx="35"
         style="fill:#ffff00" />
      <circle
         id="circle50"
         r="2"
         cy="22"
         cx="40"
         style="fill:#ffcd40" />
    </g>
    <g
       id="g80">
      <rect
         id="rect54"
         transform="matrix(0,-1,-1,0,0,0)"
         ry="2"
         rx="2"
         y="-44"
         x="-19"
         height="40"
         width="13"
         style="opacity:0.2" />
      <rect
         id="rect56"
         transform="matrix(0,-1,-1,0,0,0)"
         ry="2"
         rx="2"
         y="-44"
         x="-18"
         height="40"
         width="13"
         style="fill:#8e8e8e" />
      <path
         id="path58"
         d="m 19,9 -3,5"
         style="opacity:0.5;stroke:#000000;stroke-width:2;stroke-linecap:round"
         inkscape:connector-curvature="0" />
      <path
         id="path60"
         d="m 15,9 -3,5"
         style="opacity:0.5;stroke:#000000;stroke-width:2;stroke-linecap:round"
         inkscape:connector-curvature="0" />
      <path
         id="path62"
         d="M 11,9 8,14"
         style="opacity:0.5;stroke:#000000;stroke-width:2;stroke-linecap:round"
         inkscape:connector-curvature="0" />
      <path
         id="path64"
         d="m 23,9 -3,5"
         style="opacity:0.5;stroke:#000000;stroke-width:2;stroke-linecap:round"
         inkscape:connector-curvature="0" />
      <circle
         id="circle66"
         r="2"
         cy="10"
         cx="30"
         style="opacity:0.2" />
      <circle
         id="circle68"
         r="2"
         cy="10"
         cx="35"
         style="opacity:0.2" />
      <circle
         id="circle70"
         r="2"
         cy="10"
         cx="40"
         style="opacity:0.2" />
      <circle
         id="circle72"
         r="2"
         cy="9"
         cx="30"
         style="fill:#76ff03" />
      <circle
         id="circle74"
         r="2"
         cy="9"
         cx="35"
         style="fill:#ffff00" />
      <circle
         id="circle76"
         r="2"
         cy="9"
         cx="40"
         style="fill:#ffcd40" />
      <path
         id="path78"
         d="M 6,5 C 4.892,5 4,5.892 4,7 V 8 C 4,6.892 4.892,6 6,6 h 36 c 1.108,0 2,0.892 2,2 V 7 C 44,5.892 43.108,5 42,5 Z"
         style="opacity:0.2;fill:#ffffff"
         inkscape:connector-curvature="0" />
    </g>
  </g>
</svg>
